# Blender 4.2.3 LTS
# www.blender.org
mtllib p_string.mtl
o Plane.001
v 0.125046 -0.317495 1.168822
v 0.125046 -0.542772 1.168822
v 0.125046 -0.317495 1.274722
v 0.125046 -0.542772 1.274722
v 0.125046 -0.930645 1.168822
v 0.125046 -0.930645 1.274722
v 0.125046 -1.394820 1.168822
v 0.125046 -1.394820 1.274722
v 0.125046 -1.875339 1.168822
v 0.125046 -1.875339 1.274722
v 0.125046 -2.361971 1.168822
v 0.125046 -2.361971 1.274722
v 0.125046 -2.225004 1.221772
vn 1.0000 -0.0000 -0.0000
vt 0.052661 -0.000000
vt 0.026331 -0.000000
vt 0.026331 0.056012
vt 0.052661 0.056012
vt 0.026331 0.152451
vt 0.052661 0.152451
vt 0.026331 0.267861
vt 0.052661 0.267861
vt 0.026331 0.387335
vt 0.052661 0.387335
vt 0.026331 0.508330
vt 0.039495 0.474275
vt 0.052661 0.508330
s 0
usemtl 
f 1/1/1 3/2/1 4/3/1 2/4/1
f 4/3/1 6/5/1 5/6/1 2/4/1
f 6/5/1 8/7/1 7/8/1 5/6/1
f 8/7/1 10/9/1 9/10/1 7/8/1
f 10/9/1 12/11/1 13/12/1 11/13/1 9/10/1
