# Blender 4.2.3 LTS
# www.blender.org
mtllib s_string.mtl
o Plane
v 0.124129 -0.315838 -1.172494
v 0.124129 -0.541115 -1.172494
v 0.124129 -0.315838 -1.278394
v 0.124129 -0.541115 -1.278394
v 0.124129 -0.928988 -1.172494
v 0.124129 -0.928988 -1.278394
v 0.124129 -1.393163 -1.172494
v 0.124129 -1.393163 -1.278394
v 0.124129 -1.873681 -1.172494
v 0.124129 -1.873681 -1.278394
v 0.124130 -2.360314 -1.172494
v 0.124130 -2.360314 -1.278394
v 0.124130 -2.223346 -1.225444
vn -1.0000 -0.0000 -0.0000
vt 0.457392 0.000000
vt 0.480327 0.000000
vt 0.480327 0.048790
vt 0.457392 0.048790
vt 0.480327 0.132796
vt 0.457392 0.132796
vt 0.480327 0.233326
vt 0.457391 0.233326
vt 0.480327 0.337397
vt 0.457391 0.337397
vt 0.480327 0.442791
vt 0.468859 0.413127
vt 0.457391 0.442791
s 0
usemtl Material.005
f 1/1/1 3/2/1 4/3/1 2/4/1
f 4/3/1 6/5/1 5/6/1 2/4/1
f 6/5/1 8/7/1 7/8/1 5/6/1
f 8/7/1 10/9/1 9/10/1 7/8/1
f 10/9/1 12/11/1 13/12/1 11/13/1 9/10/1
