<?xml version="1.0" standalone="no"?>
<!DOCTYPE svg PUBLIC "-//W3C//DTD SVG 20010904//EN"
 "http://www.w3.org/TR/2001/REC-SVG-20010904/DTD/svg10.dtd">
<svg version="1.0" xmlns="http://www.w3.org/2000/svg"
 width="30.000000pt" height="30.000000pt" viewBox="0 0 30.000000 30.000000"
 preserveAspectRatio="xMidYMid meet">

<g transform="translate(0.000000,30.000000) scale(0.100000,-0.100000)"
fill="#000000" stroke="none">
<path d="M141 278 c-1 -21 -88 -81 -104 -71 -7 4 -7 0 1 -10 12 -14 10 -20
-12 -41 -18 -16 -23 -25 -14 -28 10 -4 10 -10 0 -32 -6 -15 -12 -35 -12 -44 1
-10 7 -4 14 14 15 34 32 44 77 44 32 0 49 -27 49 -76 0 -14 4 -22 10 -19 6 3
10 18 10 33 0 38 26 72 55 72 13 0 38 -12 56 -27 30 -25 31 -26 20 -5 -9 17
-9 27 -1 37 8 10 4 21 -19 46 -23 25 -28 36 -19 46 8 10 7 12 -5 8 -21 -8 -94
30 -100 52 -4 16 -5 16 -6 1z m79 -113 c0 -12 -14 -15 -65 -15 -51 0 -65 3
-65 15 0 12 14 15 65 15 51 0 65 -3 65 -15z"/>
</g>
</svg>
