{
	"asset":{
		"generator":"Khronos glTF Blender I/O v4.2.70",
		"version":"2.0"
	},
	"extensionsUsed":[
		"KHR_lights_punctual"
	],
	"extensionsRequired":[
		"KHR_lights_punctual"
	],
	"extensions":{
		"KHR_lights_punctual":{
			"lights":[
				{
					"color":[
						1,
						1,
						1
					],
					"intensity":54351.41306588226,
					"type":"point",
					"name":"Light"
				}
			]
		}
	},
	"scene":0,
	"scenes":[
		{
			"name":"Scene",
			"nodes":[
				0,
				1,
				2,
				3,
				4
			]
		}
	],
	"nodes":[
		{
			"extensions":{
				"KHR_lights_punctual":{
					"light":0
				}
			},
			"name":"Light",
			"rotation":[
				-0.5223109126091003,
				0.764847457408905,
				0.028379827737808228,
				0.3760244846343994
			],
			"translation":[
				4.125892639160156,
				3.46248197555542,
				-2.785362958908081
			]
		},
		{
			"camera":0,
			"name":"Camera",
			"rotation":[
				-0.5781280994415283,
				0.3390646278858185,
				-0.040379613637924194,
				0.741061806678772
			],
			"translation":[
				6.48502254486084,
				9.096096992492676,
				3.3196656703948975
			]
		},
		{
			"mesh":0,
			"name":"Sphere",
			"rotation":[
				-0.4074322283267975,
				-0.04370560124516487,
				0.04858337342739105,
				0.9108943343162537
			],
			"translation":[
				-0.6847326755523682,
				-0.3215038776397705,
				1.8761597871780396
			]
		},
		{
			"mesh":1,
			"name":"Sphere.001",
			"rotation":[
				-0.4074322283267975,
				-0.04370560124516487,
				0.04858337342739105,
				0.9108943343162537
			],
			"translation":[
				0.9197055101394653,
				-0.02265787124633789,
				1.9804446697235107
			]
		},
		{
			"mesh":2,
			"name":"Sphere.002",
			"rotation":[
				-0.4074322283267975,
				-0.04370560124516487,
				0.04858337342739105,
				0.9108943343162537
			],
			"translation":[
				0.10062885284423828,
				0.2277226448059082,
				0.9173293113708496
			]
		}
	],
	"cameras":[
		{
			"name":"Camera",
			"perspective":{
				"aspectRatio":1.7777777777777777,
				"yfov":0.39959652046304894,
				"zfar":100,
				"znear":0.10000000149011612
			},
			"type":"perspective"
		}
	],
	"meshes":[
		{
			"name":"Sphere",
			"primitives":[
				{
					"attributes":{
						"POSITION":0,
						"NORMAL":1,
						"TEXCOORD_0":2,
						"TANGENT":3
					},
					"indices":4
				}
			]
		},
		{
			"name":"Sphere.001",
			"primitives":[
				{
					"attributes":{
						"POSITION":5,
						"NORMAL":6,
						"TEXCOORD_0":7,
						"TANGENT":8
					},
					"indices":4
				}
			]
		},
		{
			"name":"Sphere.002",
			"primitives":[
				{
					"attributes":{
						"POSITION":9,
						"NORMAL":10,
						"TEXCOORD_0":11,
						"TANGENT":12
					},
					"indices":13
				}
			]
		}
	],
	"accessors":[
		{
			"bufferView":0,
			"componentType":5126,
			"count":1984,
			"max":[
				0.9999997019767761,
				1,
				0.9999993443489075
			],
			"min":[
				-0.9999990463256836,
				-1,
				-1
			],
			"type":"VEC3"
		},
		{
			"bufferView":1,
			"componentType":5126,
			"count":1984,
			"type":"VEC3"
		},
		{
			"bufferView":2,
			"componentType":5126,
			"count":1984,
			"type":"VEC2"
		},
		{
			"bufferView":3,
			"componentType":5126,
			"count":1984,
			"type":"VEC4"
		},
		{
			"bufferView":4,
			"componentType":5123,
			"count":2880,
			"type":"SCALAR"
		},
		{
			"bufferView":5,
			"componentType":5126,
			"count":1984,
			"max":[
				0.9999997019767761,
				1,
				0.9999993443489075
			],
			"min":[
				-0.9999990463256836,
				-1,
				-1
			],
			"type":"VEC3"
		},
		{
			"bufferView":6,
			"componentType":5126,
			"count":1984,
			"type":"VEC3"
		},
		{
			"bufferView":7,
			"componentType":5126,
			"count":1984,
			"type":"VEC2"
		},
		{
			"bufferView":8,
			"componentType":5126,
			"count":1984,
			"type":"VEC4"
		},
		{
			"bufferView":9,
			"componentType":5126,
			"count":1984,
			"max":[
				1.0094504356384277,
				6.540311813354492,
				0.9999994039535522
			],
			"min":[
				-0.9905483722686768,
				-1,
				-0.9999999403953552
			],
			"type":"VEC3"
		},
		{
			"bufferView":10,
			"componentType":5126,
			"count":1984,
			"type":"VEC3"
		},
		{
			"bufferView":11,
			"componentType":5126,
			"count":1984,
			"type":"VEC2"
		},
		{
			"bufferView":12,
			"componentType":5126,
			"count":1984,
			"type":"VEC4"
		},
		{
			"bufferView":13,
			"componentType":5123,
			"count":2880,
			"type":"SCALAR"
		}
	],
	"bufferViews":[
		{
			"buffer":0,
			"byteLength":23808,
			"byteOffset":0,
			"target":34962
		},
		{
			"buffer":0,
			"byteLength":23808,
			"byteOffset":23808,
			"target":34962
		},
		{
			"buffer":0,
			"byteLength":15872,
			"byteOffset":47616,
			"target":34962
		},
		{
			"buffer":0,
			"byteLength":31744,
			"byteOffset":63488,
			"target":34962
		},
		{
			"buffer":0,
			"byteLength":5760,
			"byteOffset":95232,
			"target":34963
		},
		{
			"buffer":0,
			"byteLength":23808,
			"byteOffset":100992,
			"target":34962
		},
		{
			"buffer":0,
			"byteLength":23808,
			"byteOffset":124800,
			"target":34962
		},
		{
			"buffer":0,
			"byteLength":15872,
			"byteOffset":148608,
			"target":34962
		},
		{
			"buffer":0,
			"byteLength":31744,
			"byteOffset":164480,
			"target":34962
		},
		{
			"buffer":0,
			"byteLength":23808,
			"byteOffset":196224,
			"target":34962
		},
		{
			"buffer":0,
			"byteLength":23808,
			"byteOffset":220032,
			"target":34962
		},
		{
			"buffer":0,
			"byteLength":15872,
			"byteOffset":243840,
			"target":34962
		},
		{
			"buffer":0,
			"byteLength":31744,
			"byteOffset":259712,
			"target":34962
		},
		{
			"buffer":0,
			"byteLength":5760,
			"byteOffset":291456,
			"target":34963
		}
	],
	"buffers":[
		{
			"byteLength":297216,
			"uri":"canon-41b792ae92545d4085971fd0269a53de.bin"
		}
	]
}
