{
	"asset":{
		"generator":"Khronos glTF Blender I/O v4.2.70",
		"version":"2.0"
	},
	"scene":0,
	"scenes":[
		{
			"name":"Scene",
			"nodes":[
				0
			]
		}
	],
	"nodes":[
		{
			"mesh":0,
			"name":"Cylinder"
		}
	],
	"meshes":[
		{
			"name":"Cylinder",
			"primitives":[
				{
					"attributes":{
						"POSITION":0,
						"NORMAL":1,
						"TEXCOORD_0":2
					},
					"indices":3
				}
			]
		}
	],
	"accessors":[
		{
			"bufferView":0,
			"componentType":5126,
			"count":3330,
			"max":[
				6.0203680992126465,
				8.108646392822266,
				6.0203680992126465
			],
			"min":[
				-6.020367622375488,
				-1,
				-6.0203680992126465
			],
			"type":"VEC3"
		},
		{
			"bufferView":1,
			"componentType":5126,
			"count":3330,
			"type":"VEC3"
		},
		{
			"bufferView":2,
			"componentType":5126,
			"count":3330,
			"type":"VEC2"
		},
		{
			"bufferView":3,
			"componentType":5123,
			"count":4980,
			"type":"SCALAR"
		}
	],
	"bufferViews":[
		{
			"buffer":0,
			"byteLength":39960,
			"byteOffset":0,
			"target":34962
		},
		{
			"buffer":0,
			"byteLength":39960,
			"byteOffset":39960,
			"target":34962
		},
		{
			"buffer":0,
			"byteLength":26640,
			"byteOffset":79920,
			"target":34962
		},
		{
			"buffer":0,
			"byteLength":9960,
			"byteOffset":106560,
			"target":34963
		}
	],
	"buffers":[
		{
			"byteLength":116520,
			"uri":"fountain-999c043d580026d1fac726fee96473d3.bin"
		}
	]
}
