{
	"asset":{
		"generator":"Khronos glTF Blender I/O v4.2.70",
		"version":"2.0"
	},
	"scene":0,
	"scenes":[
		{
			"name":"Scene",
			"nodes":[
				0,
				1,
				6
			]
		}
	],
	"nodes":[
		{
			"name":"Empty",
			"rotation":[
				0.5,
				0.5,
				-0.5,
				0.5
			],
			"scale":[
				1.687983751296997,
				1.687983751296997,
				1.687983751296997
			],
			"translation":[
				0,
				0.5225858688354492,
				0.048992156982421875
			]
		},
		{
			"mesh":0,
			"name":"Sphere",
			"scale":[
				0.4644361734390259,
				0.4644361734390259,
				0.4644361734390259
			],
			"translation":[
				0,
				0.22332368791103363,
				2.297043561935425
			]
		},
		{
			"name":"Bone.002",
			"rotation":[
				-0.6017731428146362,
				-0.14754676818847656,
				0.05181457847356796,
				0.7832077145576477
			],
			"scale":[
				1,
				1.0000001192092896,
				0.9999999403953552
			],
			"translation":[
				1.4901161193847656e-08,
				0.9750803112983704,
				1.0803341865539551e-07
			]
		},
		{
			"children":[
				2
			],
			"name":"Bone.001",
			"rotation":[
				0.4825122058391571,
				0.06333596259355545,
				0.025302715599536896,
				0.8732298016548157
			],
			"scale":[
				0.9999998211860657,
				0.9999997615814209,
				0.9999998807907104
			],
			"translation":[
				2.2351741790771484e-08,
				1.091834306716919,
				-3.725290298461914e-09
			]
		},
		{
			"children":[
				3
			],
			"name":"Bone",
			"rotation":[
				-0.05076396465301514,
				-0.0006063181790523231,
				0.008723833598196507,
				0.9986724257469177
			],
			"scale":[
				1.0000001192092896,
				0.9999999403953552,
				1.0000001192092896
			],
			"translation":[
				0.011524554342031479,
				-0.06317473948001862,
				0.03878719359636307
			]
		},
		{
			"mesh":1,
			"name":"Cylinder",
			"skin":0
		},
		{
			"children":[
				5,
				4
			],
			"name":"Armature",
			"rotation":[
				-0.039651110768318176,
				0.025761224329471588,
				-0.161168172955513,
				0.9857936501502991
			],
			"translation":[
				0.3324850797653198,
				0.6364232301712036,
				1.0691657066345215
			]
		}
	],
	"meshes":[
		{
			"name":"Sphere",
			"primitives":[
				{
					"attributes":{
						"POSITION":0,
						"NORMAL":1,
						"TEXCOORD_0":2
					},
					"indices":3
				}
			]
		},
		{
			"name":"Cylinder",
			"primitives":[
				{
					"attributes":{
						"POSITION":4,
						"NORMAL":5,
						"TEXCOORD_0":6,
						"JOINTS_0":7,
						"WEIGHTS_0":8
					},
					"indices":9
				}
			]
		}
	],
	"skins":[
		{
			"inverseBindMatrices":10,
			"joints":[
				4,
				3,
				2
			],
			"name":"Armature"
		}
	],
	"accessors":[
		{
			"bufferView":0,
			"componentType":5126,
			"count":1088,
			"max":[
				2.027690887451172,
				1.4327586889266968,
				2.2790677547454834
			],
			"min":[
				-2.024207353591919,
				-2.1693828105926514,
				-8.021438598632812
			],
			"type":"VEC3"
		},
		{
			"bufferView":1,
			"componentType":5126,
			"count":1088,
			"type":"VEC3"
		},
		{
			"bufferView":2,
			"componentType":5126,
			"count":1088,
			"type":"VEC2"
		},
		{
			"bufferView":3,
			"componentType":5123,
			"count":1626,
			"type":"SCALAR"
		},
		{
			"bufferView":4,
			"componentType":5126,
			"count":1248,
			"max":[
				1.434063196182251,
				4.2606964111328125,
				1.6634153127670288
			],
			"min":[
				-1.4340630769729614,
				0.4719119668006897,
				0.38321739435195923
			],
			"type":"VEC3"
		},
		{
			"bufferView":5,
			"componentType":5126,
			"count":1248,
			"type":"VEC3"
		},
		{
			"bufferView":6,
			"componentType":5126,
			"count":1248,
			"type":"VEC2"
		},
		{
			"bufferView":7,
			"componentType":5121,
			"count":1248,
			"type":"VEC4"
		},
		{
			"bufferView":8,
			"componentType":5126,
			"count":1248,
			"type":"VEC4"
		},
		{
			"bufferView":9,
			"componentType":5123,
			"count":1908,
			"type":"SCALAR"
		},
		{
			"bufferView":10,
			"componentType":5126,
			"count":3,
			"type":"MAT4"
		}
	],
	"bufferViews":[
		{
			"buffer":0,
			"byteLength":13056,
			"byteOffset":0,
			"target":34962
		},
		{
			"buffer":0,
			"byteLength":13056,
			"byteOffset":13056,
			"target":34962
		},
		{
			"buffer":0,
			"byteLength":8704,
			"byteOffset":26112,
			"target":34962
		},
		{
			"buffer":0,
			"byteLength":3252,
			"byteOffset":34816,
			"target":34963
		},
		{
			"buffer":0,
			"byteLength":14976,
			"byteOffset":38068,
			"target":34962
		},
		{
			"buffer":0,
			"byteLength":14976,
			"byteOffset":53044,
			"target":34962
		},
		{
			"buffer":0,
			"byteLength":9984,
			"byteOffset":68020,
			"target":34962
		},
		{
			"buffer":0,
			"byteLength":4992,
			"byteOffset":78004,
			"target":34962
		},
		{
			"buffer":0,
			"byteLength":19968,
			"byteOffset":82996,
			"target":34962
		},
		{
			"buffer":0,
			"byteLength":3816,
			"byteOffset":102964,
			"target":34963
		},
		{
			"buffer":0,
			"byteLength":192,
			"byteOffset":106780
		}
	],
	"buffers":[
		{
			"byteLength":106972,
			"uri":"fungimoth-7293dd1522caa48c6a1d70f3d1f599c4.bin"
		}
	]
}
