{
	"asset":{
		"generator":"Khronos glTF Blender I/O v4.2.70",
		"version":"2.0"
	},
	"scene":0,
	"scenes":[
		{
			"name":"Scene",
			"nodes":[
				25
			]
		}
	],
	"nodes":[
		{
			"mesh":1,
			"name":"head",
			"scale":[
				0.8828107714653015,
				0.4483301341533661,
				0.47134143114089966
			],
			"translation":[
				0,
				0.46504974365234375,
				0
			]
		},
		{
			"children":[
				0
			],
			"name":"Bone.003",
			"translation":[
				0,
				0.36644983291625977,
				0
			]
		},
		{
			"mesh":2,
			"name":"neck",
			"scale":[
				0.14705634117126465,
				0.43441852927207947,
				0.14705634117126465
			],
			"translation":[
				0,
				0.09271907806396484,
				0
			]
		},
		{
			"children":[
				1,
				2
			],
			"name":"Bone.002",
			"translation":[
				0,
				1.7862548828125,
				0
			]
		},
		{
			"mesh":3,
			"name":"hand L",
			"rotation":[
				-0.7212716341018677,
				-0.6926522254943848,
				1.996084186828284e-08,
				7.88734979551009e-08
			],
			"scale":[
				0.2609032690525055,
				0.2609032690525055,
				0.10323775559663773
			],
			"translation":[
				0.01635032892227173,
				1.074607253074646,
				-9.267496352549642e-07
			]
		},
		{
			"children":[
				4
			],
			"name":"Bone.004",
			"rotation":[
				3.1406417466683934e-09,
				-4.764812899793469e-08,
				0.004714127629995346,
				0.9999889135360718
			],
			"scale":[
				0.9999999403953552,
				1,
				1
			],
			"translation":[
				-1.8626447229053156e-07,
				1.2877659797668457,
				7.549516567451064e-15
			]
		},
		{
			"mesh":4,
			"name":"arm L",
			"rotation":[
				-0.7179983258247375,
				-0.6960448026657104,
				-1.6210179865083774e-08,
				4.804019582138608e-08
			],
			"scale":[
				0.6892609596252441,
				0.19256310164928436,
				0.09913291782140732
			],
			"translation":[
				-0.03350347280502319,
				0.6173315048217773,
				-8.257698596025875e-07
			]
		},
		{
			"children":[
				5,
				6
			],
			"name":"Bone.005",
			"rotation":[
				1.517453185329032e-08,
				-1.7615112923863308e-08,
				0.7179983854293823,
				0.6960448026657104
			],
			"translation":[
				-0.45100611448287964,
				1.4428629875183105,
				9.284896691497124e-07
			]
		},
		{
			"mesh":5,
			"name":"hand R",
			"rotation":[
				-1.4189485852966754e-07,
				-1.4189484431881283e-07,
				0.7071067094802856,
				0.7071068286895752
			],
			"scale":[
				0.2609032690525055,
				0.2609032690525055,
				0.10323775559663773
			],
			"translation":[
				0.003458489431068301,
				1.0759122371673584,
				-8.461835250272998e-07
			]
		},
		{
			"children":[
				8
			],
			"name":"Bone.007",
			"rotation":[
				4.921441387750747e-08,
				1.3656497799274803e-07,
				0.02855987474322319,
				0.999592125415802
			],
			"translation":[
				5.587934310824494e-07,
				1.269551396369934,
				1.2789769243681803e-13
			]
		},
		{
			"mesh":6,
			"name":"arm R",
			"rotation":[
				-6.418625630999486e-09,
				-8.412330743112761e-08,
				0.7270131707191467,
				0.6866234540939331
			],
			"scale":[
				0.6892610192298889,
				0.19256313145160675,
				0.09913291782140732
			],
			"translation":[
				0.02723698318004608,
				0.6003892421722412,
				-8.21529454242409e-07
			]
		},
		{
			"children":[
				9,
				10
			],
			"name":"Bone.006",
			"rotation":[
				6.418640285943411e-09,
				8.412333585283704e-08,
				-0.7270131707191467,
				0.6866235136985779
			],
			"scale":[
				0.9999998807907104,
				0.9999998807907104,
				1
			],
			"translation":[
				0.4691484272480011,
				1.4516839981079102,
				9.916695944411913e-07
			]
		},
		{
			"children":[
				3,
				7,
				11
			],
			"name":"Bone.001",
			"translation":[
				0,
				1.5888025760650635,
				0
			]
		},
		{
			"name":"Bone.010",
			"rotation":[
				0.7071067690849304,
				3.123787450931559e-08,
				1.3800804765651264e-07,
				0.7071067690849304
			],
			"translation":[
				-1.3529577458371023e-09,
				1.7421505451202393,
				-2.070571269996435e-09
			]
		},
		{
			"children":[
				13
			],
			"name":"Bone.009",
			"rotation":[
				2.9593564931928995e-08,
				2.6557620103062618e-08,
				-0.005620184354484081,
				0.9999842047691345
			],
			"translation":[
				-2.4432775802551987e-08,
				1.8050299882888794,
				-2.6412791953589476e-09
			]
		},
		{
			"mesh":7,
			"name":"uppder_leg R",
			"rotation":[
				-4.893931659921691e-08,
				-2.9169253679128815e-08,
				0.9999842047691345,
				0.005620183888822794
			],
			"scale":[
				0.16835442185401917,
				1.0840840339660645,
				0.16835440695285797
			],
			"translation":[
				0.016725176945328712,
				0.8196671009063721,
				0.016808094456791878
			]
		},
		{
			"children":[
				14,
				15
			],
			"name":"Bone.008",
			"rotation":[
				4.893931659921691e-08,
				2.9169250126415136e-08,
				-0.9999842047691345,
				0.005620184354484081
			],
			"scale":[
				1.0000001192092896,
				0.9999999403953552,
				1
			],
			"translation":[
				0.3881651759147644,
				0.022367238998413086,
				-0.18744611740112305
			]
		},
		{
			"name":"Bone.013",
			"rotation":[
				0.7071067690849304,
				-3.090862321641907e-08,
				-3.0626614488937776e-07,
				0.7071067690849304
			],
			"translation":[
				4.406819442692722e-08,
				1.7159935235977173,
				-5.493888011187664e-09
			]
		},
		{
			"children":[
				17
			],
			"name":"Bone.012",
			"rotation":[
				5.412448267350101e-10,
				-1.7457811907206633e-07,
				0.0025193432811647654,
				0.9999968409538269
			],
			"scale":[
				1,
				0.9999999403953552,
				1
			],
			"translation":[
				3.4079050692525925e-09,
				1.9280211925506592,
				1.3451946223597133e-08
			]
		},
		{
			"mesh":8,
			"name":"uppder_leg L",
			"rotation":[
				-2.0128450017864452e-08,
				5.071063360895245e-11,
				-0.9999968409538269,
				0.0025193432811647654
			],
			"scale":[
				0.16835440695285797,
				1.0840837955474854,
				0.16835440695285797
			],
			"translation":[
				-0.010970078408718109,
				0.9079472422599792,
				0.02232120744884014
			]
		},
		{
			"children":[
				18,
				19
			],
			"name":"Bone.011",
			"rotation":[
				2.0128448241507613e-08,
				-5.0710626670058545e-11,
				0.9999968409538269,
				0.0025193432811647654
			],
			"scale":[
				0.9999999403953552,
				1,
				1
			],
			"translation":[
				-0.3870490789413452,
				0.11055469512939453,
				-0.1929592490196228
			]
		},
		{
			"children":[
				12,
				16,
				20
			],
			"name":"Bone",
			"translation":[
				0,
				-0.25139880180358887,
				0
			]
		},
		{
			"mesh":0,
			"name":"lower_leg L",
			"skin":0
		},
		{
			"mesh":9,
			"name":"lower_leg R",
			"skin":0
		},
		{
			"mesh":10,
			"name":"torso",
			"skin":0
		},
		{
			"children":[
				22,
				23,
				24,
				21
			],
			"name":"Armature",
			"translation":[
				0,
				3.9326186180114746,
				0
			]
		}
	],
	"materials":[
		{
			"doubleSided":true,
			"name":"dark green",
			"pbrMetallicRoughness":{
				"baseColorFactor":[
					0.0630112737417221,
					0.08437485992908478,
					0.0761851966381073,
					1
				],
				"metallicFactor":0
			}
		},
		{
			"doubleSided":true,
			"name":"head",
			"pbrMetallicRoughness":{
				"baseColorTexture":{
					"index":0
				},
				"metallicFactor":0
			}
		},
		{
			"doubleSided":true,
			"name":"light green",
			"pbrMetallicRoughness":{
				"baseColorFactor":[
					0.09530539065599442,
					0.13563598692417145,
					0.10702239722013474,
					1
				],
				"metallicFactor":0
			}
		},
		{
			"doubleSided":true,
			"name":"torso",
			"pbrMetallicRoughness":{
				"baseColorTexture":{
					"index":1
				},
				"metallicFactor":0,
				"roughnessFactor":0.5
			}
		}
	],
	"meshes":[
		{
			"name":"Cube.006",
			"primitives":[
				{
					"attributes":{
						"POSITION":0,
						"NORMAL":1,
						"TEXCOORD_0":2,
						"TANGENT":3,
						"JOINTS_0":4,
						"WEIGHTS_0":5
					},
					"indices":6,
					"material":0
				}
			]
		},
		{
			"name":"Cube",
			"primitives":[
				{
					"attributes":{
						"POSITION":8,
						"NORMAL":9,
						"TEXCOORD_0":10,
						"TANGENT":11
					},
					"indices":12,
					"material":1
				}
			]
		},
		{
			"name":"Cube.002",
			"primitives":[
				{
					"attributes":{
						"POSITION":13,
						"NORMAL":14,
						"TEXCOORD_0":15,
						"TANGENT":16
					},
					"indices":17,
					"material":2
				}
			]
		},
		{
			"name":"Cube.010",
			"primitives":[
				{
					"attributes":{
						"POSITION":18,
						"NORMAL":19,
						"TEXCOORD_0":20
					},
					"indices":21,
					"material":0
				},
				{
					"attributes":{
						"POSITION":22,
						"NORMAL":23,
						"TEXCOORD_0":24
					},
					"indices":25,
					"material":2
				}
			]
		},
		{
			"name":"Cube.009",
			"primitives":[
				{
					"attributes":{
						"POSITION":26,
						"NORMAL":27,
						"TEXCOORD_0":28,
						"TANGENT":29
					},
					"indices":17,
					"material":2
				}
			]
		},
		{
			"name":"Cube.007",
			"primitives":[
				{
					"attributes":{
						"POSITION":30,
						"NORMAL":31,
						"TEXCOORD_0":32
					},
					"indices":21,
					"material":0
				},
				{
					"attributes":{
						"POSITION":33,
						"NORMAL":34,
						"TEXCOORD_0":35
					},
					"indices":25,
					"material":2
				}
			]
		},
		{
			"name":"Cube.008",
			"primitives":[
				{
					"attributes":{
						"POSITION":36,
						"NORMAL":37,
						"TEXCOORD_0":38,
						"TANGENT":39
					},
					"indices":17,
					"material":2
				}
			]
		},
		{
			"name":"Cube.003",
			"primitives":[
				{
					"attributes":{
						"POSITION":40,
						"NORMAL":41,
						"TEXCOORD_0":42,
						"TANGENT":43
					},
					"indices":17,
					"material":0
				}
			]
		},
		{
			"name":"Cube.005",
			"primitives":[
				{
					"attributes":{
						"POSITION":44,
						"NORMAL":45,
						"TEXCOORD_0":46,
						"TANGENT":47
					},
					"indices":17,
					"material":0
				}
			]
		},
		{
			"name":"Cube.004",
			"primitives":[
				{
					"attributes":{
						"POSITION":48,
						"NORMAL":49,
						"TEXCOORD_0":50,
						"TANGENT":51,
						"JOINTS_0":52,
						"WEIGHTS_0":53
					},
					"indices":6,
					"material":0
				}
			]
		},
		{
			"name":"Cube.001",
			"primitives":[
				{
					"attributes":{
						"POSITION":54,
						"NORMAL":55,
						"TEXCOORD_0":56,
						"TANGENT":57,
						"JOINTS_0":58,
						"WEIGHTS_0":59
					},
					"indices":60,
					"material":3
				}
			]
		}
	],
	"textures":[
		{
			"sampler":0,
			"source":0
		},
		{
			"sampler":0,
			"source":1
		}
	],
	"images":[
		{
			"mimeType":"image/png",
			"name":"head",
			"uri":"../../3d/models/Inno/head.png"
		},
		{
			"mimeType":"image/png",
			"name":"torso",
			"uri":"../../3d/models/Inno/torso.png"
		}
	],
	"skins":[
		{
			"inverseBindMatrices":7,
			"joints":[
				21,
				12,
				3,
				1,
				7,
				5,
				11,
				9,
				16,
				14,
				13,
				20,
				18,
				17
			],
			"name":"Armature"
		}
	],
	"accessors":[
		{
			"bufferView":0,
			"componentType":5126,
			"count":170,
			"max":[
				-0.0974469855427742,
				1.8027050495147705,
				0.5968149304389954
			],
			"min":[
				-0.581823468208313,
				0.05987511947751045,
				-0.33899247646331787
			],
			"type":"VEC3"
		},
		{
			"bufferView":1,
			"componentType":5126,
			"count":170,
			"type":"VEC3"
		},
		{
			"bufferView":2,
			"componentType":5126,
			"count":170,
			"type":"VEC2"
		},
		{
			"bufferView":3,
			"componentType":5126,
			"count":170,
			"type":"VEC4"
		},
		{
			"bufferView":4,
			"componentType":5121,
			"count":170,
			"type":"VEC4"
		},
		{
			"bufferView":5,
			"componentType":5126,
			"count":170,
			"type":"VEC4"
		},
		{
			"bufferView":6,
			"componentType":5123,
			"count":276,
			"type":"SCALAR"
		},
		{
			"bufferView":7,
			"componentType":5126,
			"count":14,
			"type":"MAT4"
		},
		{
			"bufferView":8,
			"componentType":5126,
			"count":208,
			"max":[
				0.9661648273468018,
				1.2070202827453613,
				1.3165985345840454
			],
			"min":[
				-0.9661648273468018,
				-1.1756649017333984,
				-0.8457155227661133
			],
			"type":"VEC3"
		},
		{
			"bufferView":9,
			"componentType":5126,
			"count":208,
			"type":"VEC3"
		},
		{
			"bufferView":10,
			"componentType":5126,
			"count":208,
			"type":"VEC2"
		},
		{
			"bufferView":11,
			"componentType":5126,
			"count":208,
			"type":"VEC4"
		},
		{
			"bufferView":12,
			"componentType":5123,
			"count":276,
			"type":"SCALAR"
		},
		{
			"bufferView":13,
			"componentType":5126,
			"count":24,
			"max":[
				1,
				1,
				1
			],
			"min":[
				-1,
				-1,
				-1
			],
			"type":"VEC3"
		},
		{
			"bufferView":14,
			"componentType":5126,
			"count":24,
			"type":"VEC3"
		},
		{
			"bufferView":15,
			"componentType":5126,
			"count":24,
			"type":"VEC2"
		},
		{
			"bufferView":16,
			"componentType":5126,
			"count":24,
			"type":"VEC4"
		},
		{
			"bufferView":17,
			"componentType":5123,
			"count":36,
			"type":"SCALAR"
		},
		{
			"bufferView":18,
			"componentType":5126,
			"count":98,
			"max":[
				3.6292178630828857,
				2.5285749435424805,
				1.000000238418579
			],
			"min":[
				-4.283585548400879,
				-2.4000532627105713,
				-1.0000001192092896
			],
			"type":"VEC3"
		},
		{
			"bufferView":19,
			"componentType":5126,
			"count":98,
			"type":"VEC3"
		},
		{
			"bufferView":20,
			"componentType":5126,
			"count":98,
			"type":"VEC2"
		},
		{
			"bufferView":21,
			"componentType":5123,
			"count":156,
			"type":"SCALAR"
		},
		{
			"bufferView":22,
			"componentType":5126,
			"count":30,
			"max":[
				1.7980937957763672,
				1.1556217670440674,
				1.0000001192092896
			],
			"min":[
				-4.283585548400879,
				-1.274695873260498,
				-1.0000001192092896
			],
			"type":"VEC3"
		},
		{
			"bufferView":23,
			"componentType":5126,
			"count":30,
			"type":"VEC3"
		},
		{
			"bufferView":24,
			"componentType":5126,
			"count":30,
			"type":"VEC2"
		},
		{
			"bufferView":25,
			"componentType":5123,
			"count":60,
			"type":"SCALAR"
		},
		{
			"bufferView":26,
			"componentType":5126,
			"count":24,
			"max":[
				1,
				1.6801103353500366,
				1
			],
			"min":[
				-1,
				-1.3196065425872803,
				-1
			],
			"type":"VEC3"
		},
		{
			"bufferView":27,
			"componentType":5126,
			"count":24,
			"type":"VEC3"
		},
		{
			"bufferView":28,
			"componentType":5126,
			"count":24,
			"type":"VEC2"
		},
		{
			"bufferView":29,
			"componentType":5126,
			"count":24,
			"type":"VEC4"
		},
		{
			"bufferView":30,
			"componentType":5126,
			"count":98,
			"max":[
				3.6292178630828857,
				2.5285749435424805,
				1.000000238418579
			],
			"min":[
				-4.283585548400879,
				-2.4000532627105713,
				-1.0000001192092896
			],
			"type":"VEC3"
		},
		{
			"bufferView":31,
			"componentType":5126,
			"count":98,
			"type":"VEC3"
		},
		{
			"bufferView":32,
			"componentType":5126,
			"count":98,
			"type":"VEC2"
		},
		{
			"bufferView":33,
			"componentType":5126,
			"count":30,
			"max":[
				1.7980937957763672,
				1.1556217670440674,
				1.0000001192092896
			],
			"min":[
				-4.283585548400879,
				-1.274695873260498,
				-1.0000001192092896
			],
			"type":"VEC3"
		},
		{
			"bufferView":34,
			"componentType":5126,
			"count":30,
			"type":"VEC3"
		},
		{
			"bufferView":35,
			"componentType":5126,
			"count":30,
			"type":"VEC2"
		},
		{
			"bufferView":36,
			"componentType":5126,
			"count":24,
			"max":[
				1,
				1.6801103353500366,
				1
			],
			"min":[
				-1,
				-1.3196065425872803,
				-1
			],
			"type":"VEC3"
		},
		{
			"bufferView":37,
			"componentType":5126,
			"count":24,
			"type":"VEC3"
		},
		{
			"bufferView":38,
			"componentType":5126,
			"count":24,
			"type":"VEC2"
		},
		{
			"bufferView":39,
			"componentType":5126,
			"count":24,
			"type":"VEC4"
		},
		{
			"bufferView":40,
			"componentType":5126,
			"count":24,
			"max":[
				1,
				1,
				1
			],
			"min":[
				-1,
				-1,
				-1
			],
			"type":"VEC3"
		},
		{
			"bufferView":41,
			"componentType":5126,
			"count":24,
			"type":"VEC3"
		},
		{
			"bufferView":42,
			"componentType":5126,
			"count":24,
			"type":"VEC2"
		},
		{
			"bufferView":43,
			"componentType":5126,
			"count":24,
			"type":"VEC4"
		},
		{
			"bufferView":44,
			"componentType":5126,
			"count":24,
			"max":[
				1,
				1,
				1
			],
			"min":[
				-1,
				-1,
				-1
			],
			"type":"VEC3"
		},
		{
			"bufferView":45,
			"componentType":5126,
			"count":24,
			"type":"VEC3"
		},
		{
			"bufferView":46,
			"componentType":5126,
			"count":24,
			"type":"VEC2"
		},
		{
			"bufferView":47,
			"componentType":5126,
			"count":24,
			"type":"VEC4"
		},
		{
			"bufferView":48,
			"componentType":5126,
			"count":170,
			"max":[
				0.6638612151145935,
				1.8027050495147705,
				0.5968149304389954
			],
			"min":[
				0.1794847846031189,
				0.05987511947751045,
				-0.33899247646331787
			],
			"type":"VEC3"
		},
		{
			"bufferView":49,
			"componentType":5126,
			"count":170,
			"type":"VEC3"
		},
		{
			"bufferView":50,
			"componentType":5126,
			"count":170,
			"type":"VEC2"
		},
		{
			"bufferView":51,
			"componentType":5126,
			"count":170,
			"type":"VEC4"
		},
		{
			"bufferView":52,
			"componentType":5121,
			"count":170,
			"type":"VEC4"
		},
		{
			"bufferView":53,
			"componentType":5126,
			"count":170,
			"type":"VEC4"
		},
		{
			"bufferView":54,
			"componentType":5126,
			"count":212,
			"max":[
				0.94962078332901,
				7.209836006164551,
				0.47883933782577515
			],
			"min":[
				-0.94962078332901,
				3.235936403274536,
				-0.858893871307373
			],
			"type":"VEC3"
		},
		{
			"bufferView":55,
			"componentType":5126,
			"count":212,
			"type":"VEC3"
		},
		{
			"bufferView":56,
			"componentType":5126,
			"count":212,
			"type":"VEC2"
		},
		{
			"bufferView":57,
			"componentType":5126,
			"count":212,
			"type":"VEC4"
		},
		{
			"bufferView":58,
			"componentType":5121,
			"count":212,
			"type":"VEC4"
		},
		{
			"bufferView":59,
			"componentType":5126,
			"count":212,
			"type":"VEC4"
		},
		{
			"bufferView":60,
			"componentType":5123,
			"count":288,
			"type":"SCALAR"
		}
	],
	"bufferViews":[
		{
			"buffer":0,
			"byteLength":2040,
			"byteOffset":0,
			"target":34962
		},
		{
			"buffer":0,
			"byteLength":2040,
			"byteOffset":2040,
			"target":34962
		},
		{
			"buffer":0,
			"byteLength":1360,
			"byteOffset":4080,
			"target":34962
		},
		{
			"buffer":0,
			"byteLength":2720,
			"byteOffset":5440,
			"target":34962
		},
		{
			"buffer":0,
			"byteLength":680,
			"byteOffset":8160,
			"target":34962
		},
		{
			"buffer":0,
			"byteLength":2720,
			"byteOffset":8840,
			"target":34962
		},
		{
			"buffer":0,
			"byteLength":552,
			"byteOffset":11560,
			"target":34963
		},
		{
			"buffer":0,
			"byteLength":896,
			"byteOffset":12112
		},
		{
			"buffer":0,
			"byteLength":2496,
			"byteOffset":13008,
			"target":34962
		},
		{
			"buffer":0,
			"byteLength":2496,
			"byteOffset":15504,
			"target":34962
		},
		{
			"buffer":0,
			"byteLength":1664,
			"byteOffset":18000,
			"target":34962
		},
		{
			"buffer":0,
			"byteLength":3328,
			"byteOffset":19664,
			"target":34962
		},
		{
			"buffer":0,
			"byteLength":552,
			"byteOffset":22992,
			"target":34963
		},
		{
			"buffer":0,
			"byteLength":288,
			"byteOffset":23544,
			"target":34962
		},
		{
			"buffer":0,
			"byteLength":288,
			"byteOffset":23832,
			"target":34962
		},
		{
			"buffer":0,
			"byteLength":192,
			"byteOffset":24120,
			"target":34962
		},
		{
			"buffer":0,
			"byteLength":384,
			"byteOffset":24312,
			"target":34962
		},
		{
			"buffer":0,
			"byteLength":72,
			"byteOffset":24696,
			"target":34963
		},
		{
			"buffer":0,
			"byteLength":1176,
			"byteOffset":24768,
			"target":34962
		},
		{
			"buffer":0,
			"byteLength":1176,
			"byteOffset":25944,
			"target":34962
		},
		{
			"buffer":0,
			"byteLength":784,
			"byteOffset":27120,
			"target":34962
		},
		{
			"buffer":0,
			"byteLength":312,
			"byteOffset":27904,
			"target":34963
		},
		{
			"buffer":0,
			"byteLength":360,
			"byteOffset":28216,
			"target":34962
		},
		{
			"buffer":0,
			"byteLength":360,
			"byteOffset":28576,
			"target":34962
		},
		{
			"buffer":0,
			"byteLength":240,
			"byteOffset":28936,
			"target":34962
		},
		{
			"buffer":0,
			"byteLength":120,
			"byteOffset":29176,
			"target":34963
		},
		{
			"buffer":0,
			"byteLength":288,
			"byteOffset":29296,
			"target":34962
		},
		{
			"buffer":0,
			"byteLength":288,
			"byteOffset":29584,
			"target":34962
		},
		{
			"buffer":0,
			"byteLength":192,
			"byteOffset":29872,
			"target":34962
		},
		{
			"buffer":0,
			"byteLength":384,
			"byteOffset":30064,
			"target":34962
		},
		{
			"buffer":0,
			"byteLength":1176,
			"byteOffset":30448,
			"target":34962
		},
		{
			"buffer":0,
			"byteLength":1176,
			"byteOffset":31624,
			"target":34962
		},
		{
			"buffer":0,
			"byteLength":784,
			"byteOffset":32800,
			"target":34962
		},
		{
			"buffer":0,
			"byteLength":360,
			"byteOffset":33584,
			"target":34962
		},
		{
			"buffer":0,
			"byteLength":360,
			"byteOffset":33944,
			"target":34962
		},
		{
			"buffer":0,
			"byteLength":240,
			"byteOffset":34304,
			"target":34962
		},
		{
			"buffer":0,
			"byteLength":288,
			"byteOffset":34544,
			"target":34962
		},
		{
			"buffer":0,
			"byteLength":288,
			"byteOffset":34832,
			"target":34962
		},
		{
			"buffer":0,
			"byteLength":192,
			"byteOffset":35120,
			"target":34962
		},
		{
			"buffer":0,
			"byteLength":384,
			"byteOffset":35312,
			"target":34962
		},
		{
			"buffer":0,
			"byteLength":288,
			"byteOffset":35696,
			"target":34962
		},
		{
			"buffer":0,
			"byteLength":288,
			"byteOffset":35984,
			"target":34962
		},
		{
			"buffer":0,
			"byteLength":192,
			"byteOffset":36272,
			"target":34962
		},
		{
			"buffer":0,
			"byteLength":384,
			"byteOffset":36464,
			"target":34962
		},
		{
			"buffer":0,
			"byteLength":288,
			"byteOffset":36848,
			"target":34962
		},
		{
			"buffer":0,
			"byteLength":288,
			"byteOffset":37136,
			"target":34962
		},
		{
			"buffer":0,
			"byteLength":192,
			"byteOffset":37424,
			"target":34962
		},
		{
			"buffer":0,
			"byteLength":384,
			"byteOffset":37616,
			"target":34962
		},
		{
			"buffer":0,
			"byteLength":2040,
			"byteOffset":38000,
			"target":34962
		},
		{
			"buffer":0,
			"byteLength":2040,
			"byteOffset":40040,
			"target":34962
		},
		{
			"buffer":0,
			"byteLength":1360,
			"byteOffset":42080,
			"target":34962
		},
		{
			"buffer":0,
			"byteLength":2720,
			"byteOffset":43440,
			"target":34962
		},
		{
			"buffer":0,
			"byteLength":680,
			"byteOffset":46160,
			"target":34962
		},
		{
			"buffer":0,
			"byteLength":2720,
			"byteOffset":46840,
			"target":34962
		},
		{
			"buffer":0,
			"byteLength":2544,
			"byteOffset":49560,
			"target":34962
		},
		{
			"buffer":0,
			"byteLength":2544,
			"byteOffset":52104,
			"target":34962
		},
		{
			"buffer":0,
			"byteLength":1696,
			"byteOffset":54648,
			"target":34962
		},
		{
			"buffer":0,
			"byteLength":3392,
			"byteOffset":56344,
			"target":34962
		},
		{
			"buffer":0,
			"byteLength":848,
			"byteOffset":59736,
			"target":34962
		},
		{
			"buffer":0,
			"byteLength":3392,
			"byteOffset":60584,
			"target":34962
		},
		{
			"buffer":0,
			"byteLength":576,
			"byteOffset":63976,
			"target":34963
		}
	],
	"samplers":[
		{
			"magFilter":9729,
			"minFilter":9987
		}
	],
	"buffers":[
		{
			"byteLength":64552,
			"uri":"inno-c40f28cc96ba297c8453c5cb612b17e3.bin"
		}
	]
}
