{
	"asset":{
		"generator":"Khronos glTF Blender I/O v4.2.70",
		"version":"2.0"
	},
	"extensionsUsed":[
		"KHR_materials_emissive_strength"
	],
	"scene":0,
	"scenes":[
		{
			"name":"Scene",
			"nodes":[
				1,
				16,
				32
			]
		}
	],
	"nodes":[
		{
			"mesh":0,
			"name":"Sphere.001"
		},
		{
			"children":[
				0
			],
			"mesh":1,
			"name":"Sphere",
			"scale":[
				2.073220729827881,
				2.073220729827881,
				2.073220729827881
			]
		},
		{
			"name":"Bone.026",
			"rotation":[
				0.013388379476964474,
				-1.4993863928225437e-08,
				0.00738623458892107,
				0.9998831152915955
			],
			"scale":[
				0.9999999403953552,
				0.9999999403953552,
				1
			],
			"translation":[
				2.6659108698368073e-08,
				0.32548320293426514,
				-9.255018085241318e-09
			]
		},
		{
			"children":[
				2
			],
			"name":"Bone.025",
			"rotation":[
				-0.013388387858867645,
				5.91167932384451e-08,
				-0.007386177312582731,
				0.9998831152915955
			],
			"scale":[
				0.9999999403953552,
				0.9999999403953552,
				0.9999998807907104
			],
			"translation":[
				-9.959023827832425e-09,
				0.3567865192890167,
				3.214857713373931e-08
			]
		},
		{
			"children":[
				3
			],
			"name":"Bone.024",
			"rotation":[
				3.600949582960311e-08,
				-5.2154071283894154e-08,
				-4.844539702730799e-08,
				1
			],
			"scale":[
				1,
				0.9999999403953552,
				0.9999999403953552
			],
			"translation":[
				9.531337497037384e-09,
				0.35148748755455017,
				2.3841920437916997e-08
			]
		},
		{
			"children":[
				4
			],
			"name":"Bone.023",
			"rotation":[
				-2.3534372672884274e-08,
				5.2154067731180476e-08,
				2.3371192980903288e-08,
				1
			],
			"scale":[
				0.9999999403953552,
				0.9999999403953552,
				1
			],
			"translation":[
				-1.6240630174024773e-08,
				0.3302921950817108,
				2.3151969230639224e-09
			]
		},
		{
			"children":[
				5
			],
			"name":"Bone.022",
			"rotation":[
				-7.0491834591734914e-09,
				-1.4901161193847656e-08,
				-1.7201085000806415e-10,
				1
			],
			"scale":[
				1,
				0.9999999403953552,
				1
			],
			"translation":[
				-4.865385427876845e-09,
				0.3032093942165375,
				2.636559770508029e-08
			]
		},
		{
			"children":[
				6
			],
			"name":"Bone.021",
			"rotation":[
				-3.323376418506996e-08,
				-6.938893903907228e-16,
				-2.3074361976682667e-08,
				1
			],
			"scale":[
				1,
				0.9999999403953552,
				1
			],
			"translation":[
				2.1006176798010756e-09,
				0.27671539783477783,
				4.8682601061500463e-08
			]
		},
		{
			"children":[
				7
			],
			"name":"Bone.020",
			"rotation":[
				6.834086718754406e-08,
				-2.040034807748725e-15,
				3.93177135293854e-09,
				1
			],
			"scale":[
				1,
				0.9999999403953552,
				1
			],
			"translation":[
				-3.1487211060721165e-08,
				0.31616199016571045,
				6.887017889312119e-08
			]
		},
		{
			"children":[
				8
			],
			"name":"Bone.019",
			"rotation":[
				-6.702283883441851e-08,
				-2.2351741790771484e-08,
				-2.518882880053752e-10,
				1
			],
			"scale":[
				1,
				0.9999999403953552,
				1
			],
			"translation":[
				-3.836069240037432e-09,
				0.3020320236682892,
				4.324672175926025e-09
			]
		},
		{
			"children":[
				9
			],
			"name":"Bone.018",
			"rotation":[
				4.5061046449745845e-08,
				2.2351741790771484e-08,
				4.0989327487750415e-09,
				1
			],
			"scale":[
				1,
				0.9999999403953552,
				1
			],
			"translation":[
				-1.1400959287755086e-08,
				0.29849931597709656,
				3.7968707289337544e-08
			]
		},
		{
			"children":[
				10
			],
			"name":"Bone.017",
			"rotation":[
				0.005506522953510284,
				2.982383051630677e-08,
				0.003037896938621998,
				0.9999802708625793
			],
			"scale":[
				0.9999999403953552,
				0.9999998211860657,
				1
			],
			"translation":[
				-2.8812792152166367e-08,
				0.2808588445186615,
				3.175227902829647e-08
			]
		},
		{
			"children":[
				11
			],
			"name":"Bone.016",
			"rotation":[
				-0.008349241688847542,
				-1.819072253939069e-10,
				-0.004606151022017002,
				0.9999545216560364
			],
			"translation":[
				-1.635635271668434e-08,
				0.27201130986213684,
				1.2310920283198357e-08
			]
		},
		{
			"children":[
				12
			],
			"name":"Bone.015",
			"rotation":[
				-0.0019974091555923223,
				2.6568844901930788e-08,
				-0.003658470930531621,
				0.9999912977218628
			],
			"scale":[
				0.9999999403953552,
				0.9999999403953552,
				0.9999998807907104
			],
			"translation":[
				2.4621840566396713e-08,
				0.26871630549430847,
				1.2863893061876297e-08
			]
		},
		{
			"children":[
				13
			],
			"name":"Bone.014",
			"rotation":[
				-0.01196485385298729,
				0.0009268922149203718,
				0.05695547163486481,
				0.9983046054840088
			],
			"scale":[
				1,
				1.0000001192092896,
				1
			],
			"translation":[
				0.035406630486249924,
				-1.9014458656311035,
				0.35906901955604553
			]
		},
		{
			"mesh":2,
			"name":"Cylinder",
			"skin":0
		},
		{
			"children":[
				15,
				14
			],
			"name":"Armature2",
			"rotation":[
				-0.6814717650413513,
				0.13729579746723175,
				-0.21408189833164215,
				0.6862325072288513
			],
			"scale":[
				2.073220729827881,
				2.073220729827881,
				2.073220729827881
			]
		},
		{
			"name":"Bone.013",
			"rotation":[
				0.010110081173479557,
				-1.0914663617356268e-10,
				0.005577639676630497,
				0.9999333620071411
			],
			"scale":[
				0.9999998807907104,
				1,
				0.9999999403953552
			],
			"translation":[
				2.310844138264656e-08,
				0.3868771195411682,
				-4.0745362639427185e-09
			]
		},
		{
			"children":[
				17
			],
			"name":"Bone.012",
			"rotation":[
				-0.007995260879397392,
				6.695797338807097e-08,
				-0.004410876426845789,
				0.999958336353302
			],
			"scale":[
				0.9999999403953552,
				0.9999999403953552,
				1
			],
			"translation":[
				-4.77989203773177e-10,
				0.3850466310977936,
				1.0461324251309634e-08
			]
		},
		{
			"children":[
				18
			],
			"name":"Bone.011",
			"rotation":[
				-7.003833957242023e-09,
				-1.4901161193847656e-08,
				-3.990215269311648e-09,
				1
			],
			"scale":[
				1,
				0.9999999403953552,
				1
			],
			"translation":[
				-4.556847343906156e-09,
				0.35678616166114807,
				1.5532545916130402e-08
			]
		},
		{
			"children":[
				19
			],
			"name":"Bone.010",
			"rotation":[
				1.5099541172958197e-08,
				-2.2351743567128324e-08,
				-2.6950791820468112e-08,
				1
			],
			"scale":[
				1,
				0.9999999403953552,
				1
			],
			"translation":[
				1.825812034894625e-08,
				0.35148754715919495,
				-5.8187854534708094e-09
			]
		},
		{
			"children":[
				20
			],
			"name":"Bone.009",
			"rotation":[
				-2.606854176967488e-10,
				2.2351741790771484e-08,
				2.3204027144174688e-08,
				1
			],
			"scale":[
				1,
				0.9999999403953552,
				1
			],
			"translation":[
				-1.6663216584333895e-08,
				0.3302920460700989,
				3.180712582206979e-08
			]
		},
		{
			"children":[
				21
			],
			"name":"Bone.008",
			"rotation":[
				-9.169731640668033e-09,
				2.220446049250313e-16,
				1.3691938208215682e-11,
				1
			],
			"scale":[
				1,
				0.9999999403953552,
				1
			],
			"translation":[
				-6.654881978818139e-09,
				0.30320942401885986,
				4.655166030431701e-09
			]
		},
		{
			"children":[
				22
			],
			"name":"Bone.007",
			"rotation":[
				-7.588705663863493e-09,
				-1.6653345369377348e-16,
				-7.80958053780978e-09,
				1
			],
			"scale":[
				1,
				0.9999999403953552,
				1
			],
			"translation":[
				1.462909016147762e-09,
				0.27671539783477783,
				6.517578476916697e-09
			]
		},
		{
			"children":[
				23
			],
			"name":"Bone.006",
			"rotation":[
				1.88623641150798e-08,
				-7.077671781985373e-16,
				-3.5987657298619524e-09,
				1
			],
			"scale":[
				1,
				0.9999999403953552,
				1
			],
			"translation":[
				1.2687300099401e-09,
				0.31616201996803284,
				-1.1734692328957408e-08
			]
		},
		{
			"children":[
				24
			],
			"name":"Bone.005",
			"rotation":[
				-2.0085700214167446e-08,
				2.3592239273284576e-16,
				7.703853555085516e-09,
				1
			],
			"scale":[
				1,
				0.9999999403953552,
				1
			],
			"translation":[
				-1.5076899728683202e-09,
				0.3020320236682892,
				2.2598822368991023e-08
			]
		},
		{
			"children":[
				25
			],
			"name":"Bone.004",
			"rotation":[
				2.168718005179926e-08,
				-9.992007221626409e-16,
				-1.168610985757823e-08,
				1
			],
			"scale":[
				1,
				0.9999999403953552,
				1
			],
			"translation":[
				8.913474403016153e-10,
				0.2984994351863861,
				4.920108764849829e-09
			]
		},
		{
			"children":[
				26
			],
			"name":"Bone.003",
			"rotation":[
				0.005506524350494146,
				2.981018809578018e-08,
				0.003037896938621998,
				0.9999802708625793
			],
			"scale":[
				0.9999999403953552,
				0.9999998211860657,
				1
			],
			"translation":[
				-1.8044374883174896e-09,
				0.2808588743209839,
				2.473825588822365e-09
			]
		},
		{
			"children":[
				27
			],
			"name":"Bone.002",
			"rotation":[
				-0.008349241688847542,
				-1.728118620425434e-10,
				-0.004606147296726704,
				0.9999545216560364
			],
			"translation":[
				-1.0128132998943329e-08,
				0.2720109522342682,
				1.6007106751203537e-08
			]
		},
		{
			"children":[
				28
			],
			"name":"Bone.001",
			"rotation":[
				-0.0019974091555923223,
				2.6568844901930788e-08,
				-0.003658470930531621,
				0.9999912977218628
			],
			"scale":[
				0.9999999403953552,
				0.9999999403953552,
				0.9999998807907104
			],
			"translation":[
				5.0640664994716644e-09,
				0.26871657371520996,
				-2.671731635928154e-08
			]
		},
		{
			"children":[
				29
			],
			"name":"Bone",
			"rotation":[
				-0.01196485385298729,
				0.0009268922149203718,
				0.05695547163486481,
				0.9983046054840088
			],
			"scale":[
				1,
				1.0000001192092896,
				1
			],
			"translation":[
				0.0991164967417717,
				-1.9015964269638062,
				0.24359549582004547
			]
		},
		{
			"mesh":3,
			"name":"Cylinder.001",
			"skin":1
		},
		{
			"children":[
				31,
				30
			],
			"name":"Armature.001",
			"rotation":[
				-0.6814717650413513,
				0.13729579746723175,
				-0.21408189833164215,
				0.6862325072288513
			],
			"scale":[
				2.073220729827881,
				2.073220729827881,
				2.073220729827881
			]
		}
	],
	"animations":[
		{
			"channels":[
				{
					"sampler":0,
					"target":{
						"node":30,
						"path":"translation"
					}
				},
				{
					"sampler":1,
					"target":{
						"node":30,
						"path":"rotation"
					}
				},
				{
					"sampler":2,
					"target":{
						"node":30,
						"path":"scale"
					}
				},
				{
					"sampler":3,
					"target":{
						"node":29,
						"path":"translation"
					}
				},
				{
					"sampler":4,
					"target":{
						"node":29,
						"path":"rotation"
					}
				},
				{
					"sampler":5,
					"target":{
						"node":29,
						"path":"scale"
					}
				},
				{
					"sampler":6,
					"target":{
						"node":28,
						"path":"translation"
					}
				},
				{
					"sampler":7,
					"target":{
						"node":28,
						"path":"rotation"
					}
				},
				{
					"sampler":8,
					"target":{
						"node":28,
						"path":"scale"
					}
				},
				{
					"sampler":9,
					"target":{
						"node":27,
						"path":"translation"
					}
				},
				{
					"sampler":10,
					"target":{
						"node":27,
						"path":"rotation"
					}
				},
				{
					"sampler":11,
					"target":{
						"node":27,
						"path":"scale"
					}
				},
				{
					"sampler":12,
					"target":{
						"node":26,
						"path":"translation"
					}
				},
				{
					"sampler":13,
					"target":{
						"node":26,
						"path":"rotation"
					}
				},
				{
					"sampler":14,
					"target":{
						"node":26,
						"path":"scale"
					}
				},
				{
					"sampler":15,
					"target":{
						"node":25,
						"path":"translation"
					}
				},
				{
					"sampler":16,
					"target":{
						"node":25,
						"path":"rotation"
					}
				},
				{
					"sampler":17,
					"target":{
						"node":25,
						"path":"scale"
					}
				},
				{
					"sampler":18,
					"target":{
						"node":24,
						"path":"translation"
					}
				},
				{
					"sampler":19,
					"target":{
						"node":24,
						"path":"rotation"
					}
				},
				{
					"sampler":20,
					"target":{
						"node":24,
						"path":"scale"
					}
				},
				{
					"sampler":21,
					"target":{
						"node":23,
						"path":"translation"
					}
				},
				{
					"sampler":22,
					"target":{
						"node":23,
						"path":"rotation"
					}
				},
				{
					"sampler":23,
					"target":{
						"node":23,
						"path":"scale"
					}
				},
				{
					"sampler":24,
					"target":{
						"node":22,
						"path":"translation"
					}
				},
				{
					"sampler":25,
					"target":{
						"node":22,
						"path":"rotation"
					}
				},
				{
					"sampler":26,
					"target":{
						"node":22,
						"path":"scale"
					}
				},
				{
					"sampler":27,
					"target":{
						"node":21,
						"path":"translation"
					}
				},
				{
					"sampler":28,
					"target":{
						"node":21,
						"path":"rotation"
					}
				},
				{
					"sampler":29,
					"target":{
						"node":21,
						"path":"scale"
					}
				},
				{
					"sampler":30,
					"target":{
						"node":20,
						"path":"translation"
					}
				},
				{
					"sampler":31,
					"target":{
						"node":20,
						"path":"rotation"
					}
				},
				{
					"sampler":32,
					"target":{
						"node":20,
						"path":"scale"
					}
				},
				{
					"sampler":33,
					"target":{
						"node":19,
						"path":"translation"
					}
				},
				{
					"sampler":34,
					"target":{
						"node":19,
						"path":"rotation"
					}
				},
				{
					"sampler":35,
					"target":{
						"node":19,
						"path":"scale"
					}
				},
				{
					"sampler":36,
					"target":{
						"node":18,
						"path":"translation"
					}
				},
				{
					"sampler":37,
					"target":{
						"node":18,
						"path":"rotation"
					}
				},
				{
					"sampler":38,
					"target":{
						"node":18,
						"path":"scale"
					}
				},
				{
					"sampler":39,
					"target":{
						"node":17,
						"path":"translation"
					}
				},
				{
					"sampler":40,
					"target":{
						"node":17,
						"path":"rotation"
					}
				},
				{
					"sampler":41,
					"target":{
						"node":17,
						"path":"scale"
					}
				}
			],
			"name":"Armature.001Action.001",
			"samplers":[
				{
					"input":22,
					"interpolation":"STEP",
					"output":23
				},
				{
					"input":24,
					"interpolation":"LINEAR",
					"output":25
				},
				{
					"input":22,
					"interpolation":"STEP",
					"output":26
				},
				{
					"input":22,
					"interpolation":"STEP",
					"output":27
				},
				{
					"input":24,
					"interpolation":"LINEAR",
					"output":28
				},
				{
					"input":22,
					"interpolation":"STEP",
					"output":29
				},
				{
					"input":22,
					"interpolation":"STEP",
					"output":30
				},
				{
					"input":24,
					"interpolation":"LINEAR",
					"output":31
				},
				{
					"input":22,
					"interpolation":"STEP",
					"output":32
				},
				{
					"input":22,
					"interpolation":"STEP",
					"output":33
				},
				{
					"input":24,
					"interpolation":"LINEAR",
					"output":34
				},
				{
					"input":22,
					"interpolation":"STEP",
					"output":35
				},
				{
					"input":22,
					"interpolation":"STEP",
					"output":36
				},
				{
					"input":24,
					"interpolation":"LINEAR",
					"output":37
				},
				{
					"input":22,
					"interpolation":"STEP",
					"output":38
				},
				{
					"input":22,
					"interpolation":"STEP",
					"output":39
				},
				{
					"input":24,
					"interpolation":"LINEAR",
					"output":40
				},
				{
					"input":22,
					"interpolation":"STEP",
					"output":41
				},
				{
					"input":22,
					"interpolation":"STEP",
					"output":42
				},
				{
					"input":24,
					"interpolation":"LINEAR",
					"output":43
				},
				{
					"input":22,
					"interpolation":"STEP",
					"output":44
				},
				{
					"input":22,
					"interpolation":"STEP",
					"output":45
				},
				{
					"input":24,
					"interpolation":"LINEAR",
					"output":46
				},
				{
					"input":22,
					"interpolation":"STEP",
					"output":47
				},
				{
					"input":22,
					"interpolation":"STEP",
					"output":48
				},
				{
					"input":24,
					"interpolation":"LINEAR",
					"output":49
				},
				{
					"input":22,
					"interpolation":"STEP",
					"output":50
				},
				{
					"input":22,
					"interpolation":"STEP",
					"output":51
				},
				{
					"input":24,
					"interpolation":"LINEAR",
					"output":52
				},
				{
					"input":22,
					"interpolation":"STEP",
					"output":53
				},
				{
					"input":22,
					"interpolation":"STEP",
					"output":54
				},
				{
					"input":24,
					"interpolation":"LINEAR",
					"output":55
				},
				{
					"input":22,
					"interpolation":"STEP",
					"output":56
				},
				{
					"input":22,
					"interpolation":"STEP",
					"output":57
				},
				{
					"input":24,
					"interpolation":"LINEAR",
					"output":58
				},
				{
					"input":22,
					"interpolation":"STEP",
					"output":59
				},
				{
					"input":22,
					"interpolation":"STEP",
					"output":60
				},
				{
					"input":24,
					"interpolation":"LINEAR",
					"output":61
				},
				{
					"input":22,
					"interpolation":"STEP",
					"output":62
				},
				{
					"input":22,
					"interpolation":"STEP",
					"output":63
				},
				{
					"input":24,
					"interpolation":"LINEAR",
					"output":64
				},
				{
					"input":22,
					"interpolation":"STEP",
					"output":65
				}
			]
		}
	],
	"materials":[
		{
			"doubleSided":true,
			"emissiveFactor":[
				1,
				0,
				0.01153089851140976
			],
			"extensions":{
				"KHR_materials_emissive_strength":{
					"emissiveStrength":3.3000030517578125
				}
			},
			"name":"Material.002",
			"pbrMetallicRoughness":{
				"baseColorFactor":[
					0,
					0,
					0,
					1
				]
			}
		},
		{
			"doubleSided":true,
			"name":"Material.001"
		}
	],
	"meshes":[
		{
			"name":"Sphere.001",
			"primitives":[
				{
					"attributes":{
						"POSITION":0,
						"NORMAL":1,
						"TEXCOORD_0":2
					},
					"indices":3,
					"material":0
				}
			]
		},
		{
			"name":"Sphere",
			"primitives":[
				{
					"attributes":{
						"POSITION":4,
						"NORMAL":5,
						"TEXCOORD_0":6
					},
					"indices":7,
					"material":1
				}
			]
		},
		{
			"name":"Cylinder",
			"primitives":[
				{
					"attributes":{
						"POSITION":8,
						"NORMAL":9,
						"TEXCOORD_0":10,
						"JOINTS_0":11,
						"WEIGHTS_0":12
					},
					"indices":13
				}
			]
		},
		{
			"name":"Cylinder.001",
			"primitives":[
				{
					"attributes":{
						"POSITION":15,
						"NORMAL":16,
						"TEXCOORD_0":17,
						"JOINTS_0":18,
						"WEIGHTS_0":19
					},
					"indices":20
				}
			]
		}
	],
	"skins":[
		{
			"inverseBindMatrices":14,
			"joints":[
				14,
				13,
				12,
				11,
				10,
				9,
				8,
				7,
				6,
				5,
				4,
				3,
				2
			],
			"name":"Armature2"
		},
		{
			"inverseBindMatrices":21,
			"joints":[
				30,
				29,
				28,
				27,
				26,
				25,
				24,
				23,
				22,
				21,
				20,
				19,
				18,
				17
			],
			"name":"Armature.001"
		}
	],
	"accessors":[
		{
			"bufferView":0,
			"componentType":5126,
			"count":136,
			"max":[
				0.13589155673980713,
				0.39539918303489685,
				2.2597134113311768
			],
			"min":[
				-0.1308588981628418,
				0.1267346441745758,
				1.892767071723938
			],
			"type":"VEC3"
		},
		{
			"bufferView":1,
			"componentType":5126,
			"count":136,
			"type":"VEC3"
		},
		{
			"bufferView":2,
			"componentType":5126,
			"count":136,
			"type":"VEC2"
		},
		{
			"bufferView":3,
			"componentType":5123,
			"count":210,
			"type":"SCALAR"
		},
		{
			"bufferView":4,
			"componentType":5126,
			"count":2368,
			"max":[
				0.1966269314289093,
				0.4637742340564728,
				2.315845251083374
			],
			"min":[
				-0.19662678241729736,
				0.07052046805620193,
				1.8659353256225586
			],
			"type":"VEC3"
		},
		{
			"bufferView":5,
			"componentType":5126,
			"count":2368,
			"type":"VEC3"
		},
		{
			"bufferView":6,
			"componentType":5126,
			"count":2368,
			"type":"VEC2"
		},
		{
			"bufferView":7,
			"componentType":5123,
			"count":3636,
			"type":"SCALAR"
		},
		{
			"bufferView":8,
			"componentType":5126,
			"count":340,
			"max":[
				0.05164410173892975,
				0.743198812007904,
				3.951338768005371
			],
			"min":[
				-0.051644060760736465,
				0.6301867365837097,
				-4.191272735595703
			],
			"type":"VEC3"
		},
		{
			"bufferView":9,
			"componentType":5126,
			"count":340,
			"type":"VEC3"
		},
		{
			"bufferView":10,
			"componentType":5126,
			"count":340,
			"type":"VEC2"
		},
		{
			"bufferView":11,
			"componentType":5121,
			"count":340,
			"type":"VEC4"
		},
		{
			"bufferView":12,
			"componentType":5126,
			"count":340,
			"type":"VEC4"
		},
		{
			"bufferView":13,
			"componentType":5123,
			"count":642,
			"type":"SCALAR"
		},
		{
			"bufferView":14,
			"componentType":5126,
			"count":13,
			"type":"MAT4"
		},
		{
			"bufferView":15,
			"componentType":5126,
			"count":372,
			"max":[
				0.05164410173892975,
				0.48168209195137024,
				3.953458070755005
			],
			"min":[
				-0.05164406821131706,
				0.35709235072135925,
				-5.366105079650879
			],
			"type":"VEC3"
		},
		{
			"bufferView":16,
			"componentType":5126,
			"count":372,
			"type":"VEC3"
		},
		{
			"bufferView":17,
			"componentType":5126,
			"count":372,
			"type":"VEC2"
		},
		{
			"bufferView":18,
			"componentType":5121,
			"count":372,
			"type":"VEC4"
		},
		{
			"bufferView":19,
			"componentType":5126,
			"count":372,
			"type":"VEC4"
		},
		{
			"bufferView":20,
			"componentType":5123,
			"count":690,
			"type":"SCALAR"
		},
		{
			"bufferView":21,
			"componentType":5126,
			"count":14,
			"type":"MAT4"
		},
		{
			"bufferView":22,
			"componentType":5126,
			"count":2,
			"max":[
				1.4583333333333333
			],
			"min":[
				0.041666666666666664
			],
			"type":"SCALAR"
		},
		{
			"bufferView":23,
			"componentType":5126,
			"count":2,
			"type":"VEC3"
		},
		{
			"bufferView":24,
			"componentType":5126,
			"count":35,
			"max":[
				1.4583333333333333
			],
			"min":[
				0.041666666666666664
			],
			"type":"SCALAR"
		},
		{
			"bufferView":25,
			"componentType":5126,
			"count":35,
			"type":"VEC4"
		},
		{
			"bufferView":26,
			"componentType":5126,
			"count":2,
			"type":"VEC3"
		},
		{
			"bufferView":27,
			"componentType":5126,
			"count":2,
			"type":"VEC3"
		},
		{
			"bufferView":28,
			"componentType":5126,
			"count":35,
			"type":"VEC4"
		},
		{
			"bufferView":29,
			"componentType":5126,
			"count":2,
			"type":"VEC3"
		},
		{
			"bufferView":30,
			"componentType":5126,
			"count":2,
			"type":"VEC3"
		},
		{
			"bufferView":31,
			"componentType":5126,
			"count":35,
			"type":"VEC4"
		},
		{
			"bufferView":32,
			"componentType":5126,
			"count":2,
			"type":"VEC3"
		},
		{
			"bufferView":33,
			"componentType":5126,
			"count":2,
			"type":"VEC3"
		},
		{
			"bufferView":34,
			"componentType":5126,
			"count":35,
			"type":"VEC4"
		},
		{
			"bufferView":35,
			"componentType":5126,
			"count":2,
			"type":"VEC3"
		},
		{
			"bufferView":36,
			"componentType":5126,
			"count":2,
			"type":"VEC3"
		},
		{
			"bufferView":37,
			"componentType":5126,
			"count":35,
			"type":"VEC4"
		},
		{
			"bufferView":38,
			"componentType":5126,
			"count":2,
			"type":"VEC3"
		},
		{
			"bufferView":39,
			"componentType":5126,
			"count":2,
			"type":"VEC3"
		},
		{
			"bufferView":40,
			"componentType":5126,
			"count":35,
			"type":"VEC4"
		},
		{
			"bufferView":41,
			"componentType":5126,
			"count":2,
			"type":"VEC3"
		},
		{
			"bufferView":42,
			"componentType":5126,
			"count":2,
			"type":"VEC3"
		},
		{
			"bufferView":43,
			"componentType":5126,
			"count":35,
			"type":"VEC4"
		},
		{
			"bufferView":44,
			"componentType":5126,
			"count":2,
			"type":"VEC3"
		},
		{
			"bufferView":45,
			"componentType":5126,
			"count":2,
			"type":"VEC3"
		},
		{
			"bufferView":46,
			"componentType":5126,
			"count":35,
			"type":"VEC4"
		},
		{
			"bufferView":47,
			"componentType":5126,
			"count":2,
			"type":"VEC3"
		},
		{
			"bufferView":48,
			"componentType":5126,
			"count":2,
			"type":"VEC3"
		},
		{
			"bufferView":49,
			"componentType":5126,
			"count":35,
			"type":"VEC4"
		},
		{
			"bufferView":50,
			"componentType":5126,
			"count":2,
			"type":"VEC3"
		},
		{
			"bufferView":51,
			"componentType":5126,
			"count":2,
			"type":"VEC3"
		},
		{
			"bufferView":52,
			"componentType":5126,
			"count":35,
			"type":"VEC4"
		},
		{
			"bufferView":53,
			"componentType":5126,
			"count":2,
			"type":"VEC3"
		},
		{
			"bufferView":54,
			"componentType":5126,
			"count":2,
			"type":"VEC3"
		},
		{
			"bufferView":55,
			"componentType":5126,
			"count":35,
			"type":"VEC4"
		},
		{
			"bufferView":56,
			"componentType":5126,
			"count":2,
			"type":"VEC3"
		},
		{
			"bufferView":57,
			"componentType":5126,
			"count":2,
			"type":"VEC3"
		},
		{
			"bufferView":58,
			"componentType":5126,
			"count":35,
			"type":"VEC4"
		},
		{
			"bufferView":59,
			"componentType":5126,
			"count":2,
			"type":"VEC3"
		},
		{
			"bufferView":60,
			"componentType":5126,
			"count":2,
			"type":"VEC3"
		},
		{
			"bufferView":61,
			"componentType":5126,
			"count":35,
			"type":"VEC4"
		},
		{
			"bufferView":62,
			"componentType":5126,
			"count":2,
			"type":"VEC3"
		},
		{
			"bufferView":63,
			"componentType":5126,
			"count":2,
			"type":"VEC3"
		},
		{
			"bufferView":64,
			"componentType":5126,
			"count":35,
			"type":"VEC4"
		},
		{
			"bufferView":65,
			"componentType":5126,
			"count":2,
			"type":"VEC3"
		}
	],
	"bufferViews":[
		{
			"buffer":0,
			"byteLength":1632,
			"byteOffset":0,
			"target":34962
		},
		{
			"buffer":0,
			"byteLength":1632,
			"byteOffset":1632,
			"target":34962
		},
		{
			"buffer":0,
			"byteLength":1088,
			"byteOffset":3264,
			"target":34962
		},
		{
			"buffer":0,
			"byteLength":420,
			"byteOffset":4352,
			"target":34963
		},
		{
			"buffer":0,
			"byteLength":28416,
			"byteOffset":4772,
			"target":34962
		},
		{
			"buffer":0,
			"byteLength":28416,
			"byteOffset":33188,
			"target":34962
		},
		{
			"buffer":0,
			"byteLength":18944,
			"byteOffset":61604,
			"target":34962
		},
		{
			"buffer":0,
			"byteLength":7272,
			"byteOffset":80548,
			"target":34963
		},
		{
			"buffer":0,
			"byteLength":4080,
			"byteOffset":87820,
			"target":34962
		},
		{
			"buffer":0,
			"byteLength":4080,
			"byteOffset":91900,
			"target":34962
		},
		{
			"buffer":0,
			"byteLength":2720,
			"byteOffset":95980,
			"target":34962
		},
		{
			"buffer":0,
			"byteLength":1360,
			"byteOffset":98700,
			"target":34962
		},
		{
			"buffer":0,
			"byteLength":5440,
			"byteOffset":100060,
			"target":34962
		},
		{
			"buffer":0,
			"byteLength":1284,
			"byteOffset":105500,
			"target":34963
		},
		{
			"buffer":0,
			"byteLength":832,
			"byteOffset":106784
		},
		{
			"buffer":0,
			"byteLength":4464,
			"byteOffset":107616,
			"target":34962
		},
		{
			"buffer":0,
			"byteLength":4464,
			"byteOffset":112080,
			"target":34962
		},
		{
			"buffer":0,
			"byteLength":2976,
			"byteOffset":116544,
			"target":34962
		},
		{
			"buffer":0,
			"byteLength":1488,
			"byteOffset":119520,
			"target":34962
		},
		{
			"buffer":0,
			"byteLength":5952,
			"byteOffset":121008,
			"target":34962
		},
		{
			"buffer":0,
			"byteLength":1380,
			"byteOffset":126960,
			"target":34963
		},
		{
			"buffer":0,
			"byteLength":896,
			"byteOffset":128340
		},
		{
			"buffer":0,
			"byteLength":8,
			"byteOffset":129236
		},
		{
			"buffer":0,
			"byteLength":24,
			"byteOffset":129244
		},
		{
			"buffer":0,
			"byteLength":140,
			"byteOffset":129268
		},
		{
			"buffer":0,
			"byteLength":560,
			"byteOffset":129408
		},
		{
			"buffer":0,
			"byteLength":24,
			"byteOffset":129968
		},
		{
			"buffer":0,
			"byteLength":24,
			"byteOffset":129992
		},
		{
			"buffer":0,
			"byteLength":560,
			"byteOffset":130016
		},
		{
			"buffer":0,
			"byteLength":24,
			"byteOffset":130576
		},
		{
			"buffer":0,
			"byteLength":24,
			"byteOffset":130600
		},
		{
			"buffer":0,
			"byteLength":560,
			"byteOffset":130624
		},
		{
			"buffer":0,
			"byteLength":24,
			"byteOffset":131184
		},
		{
			"buffer":0,
			"byteLength":24,
			"byteOffset":131208
		},
		{
			"buffer":0,
			"byteLength":560,
			"byteOffset":131232
		},
		{
			"buffer":0,
			"byteLength":24,
			"byteOffset":131792
		},
		{
			"buffer":0,
			"byteLength":24,
			"byteOffset":131816
		},
		{
			"buffer":0,
			"byteLength":560,
			"byteOffset":131840
		},
		{
			"buffer":0,
			"byteLength":24,
			"byteOffset":132400
		},
		{
			"buffer":0,
			"byteLength":24,
			"byteOffset":132424
		},
		{
			"buffer":0,
			"byteLength":560,
			"byteOffset":132448
		},
		{
			"buffer":0,
			"byteLength":24,
			"byteOffset":133008
		},
		{
			"buffer":0,
			"byteLength":24,
			"byteOffset":133032
		},
		{
			"buffer":0,
			"byteLength":560,
			"byteOffset":133056
		},
		{
			"buffer":0,
			"byteLength":24,
			"byteOffset":133616
		},
		{
			"buffer":0,
			"byteLength":24,
			"byteOffset":133640
		},
		{
			"buffer":0,
			"byteLength":560,
			"byteOffset":133664
		},
		{
			"buffer":0,
			"byteLength":24,
			"byteOffset":134224
		},
		{
			"buffer":0,
			"byteLength":24,
			"byteOffset":134248
		},
		{
			"buffer":0,
			"byteLength":560,
			"byteOffset":134272
		},
		{
			"buffer":0,
			"byteLength":24,
			"byteOffset":134832
		},
		{
			"buffer":0,
			"byteLength":24,
			"byteOffset":134856
		},
		{
			"buffer":0,
			"byteLength":560,
			"byteOffset":134880
		},
		{
			"buffer":0,
			"byteLength":24,
			"byteOffset":135440
		},
		{
			"buffer":0,
			"byteLength":24,
			"byteOffset":135464
		},
		{
			"buffer":0,
			"byteLength":560,
			"byteOffset":135488
		},
		{
			"buffer":0,
			"byteLength":24,
			"byteOffset":136048
		},
		{
			"buffer":0,
			"byteLength":24,
			"byteOffset":136072
		},
		{
			"buffer":0,
			"byteLength":560,
			"byteOffset":136096
		},
		{
			"buffer":0,
			"byteLength":24,
			"byteOffset":136656
		},
		{
			"buffer":0,
			"byteLength":24,
			"byteOffset":136680
		},
		{
			"buffer":0,
			"byteLength":560,
			"byteOffset":136704
		},
		{
			"buffer":0,
			"byteLength":24,
			"byteOffset":137264
		},
		{
			"buffer":0,
			"byteLength":24,
			"byteOffset":137288
		},
		{
			"buffer":0,
			"byteLength":560,
			"byteOffset":137312
		},
		{
			"buffer":0,
			"byteLength":24,
			"byteOffset":137872
		}
	],
	"buffers":[
		{
			"byteLength":137896,
			"uri":"LES-0068201127f3e91e2da92e41d1cfa92c.bin"
		}
	]
}
