{
	"asset":{
		"generator":"Khronos glTF Blender I/O v4.2.70",
		"version":"2.0"
	},
	"scene":0,
	"scenes":[
		{
			"name":"Scene",
			"nodes":[
				0,
				1,
				2,
				3,
				4,
				5
			]
		}
	],
	"nodes":[
		{
			"mesh":0,
			"name":"Cube",
			"scale":[
				0.7739291787147522,
				0.7739291787147522,
				0.7739291787147522
			],
			"translation":[
				-0.07757365703582764,
				0.7655004262924194,
				-0.13828860223293304
			]
		},
		{
			"name":"Empty",
			"rotation":[
				0.7071068286895752,
				0,
				0,
				0.7071068286895752
			],
			"translation":[
				0,
				0.7655062675476074,
				14.65289306640625
			]
		},
		{
			"name":"Empty.001",
			"rotation":[
				0.5,
				0.5,
				-0.5,
				0.5
			],
			"scale":[
				1.2906906604766846,
				1.2906906604766846,
				1.2906906604766846
			],
			"translation":[
				10.792671203613281,
				-0.1757829189300537,
				-8.388306617736816
			]
		},
		{
			"mesh":1,
			"name":"Cube.001",
			"scale":[
				0.056068457663059235,
				0.370258629322052,
				0.056068457663059235
			],
			"translation":[
				0.34018680453300476,
				1.7986103296279907,
				-0.13828851282596588
			]
		},
		{
			"mesh":2,
			"name":"Cube.002",
			"scale":[
				1.0656416416168213,
				0.06630835682153702,
				0.06630835682153702
			],
			"translation":[
				-1.9179773330688477,
				0.06735137104988098,
				-0.6865856051445007
			]
		},
		{
			"mesh":3,
			"name":"Cube.003",
			"scale":[
				0.7739291787147522,
				0.7739291787147522,
				0.7739291787147522
			],
			"translation":[
				-0.07757365703582764,
				0.7655004262924194,
				-0.13828860223293304
			]
		}
	],
	"materials":[
		{
			"doubleSided":true,
			"name":"Material",
			"pbrMetallicRoughness":{
				"baseColorTexture":{
					"index":0
				},
				"metallicFactor":0,
				"roughnessFactor":0.5
			}
		},
		{
			"doubleSided":true,
			"name":"Material.002",
			"pbrMetallicRoughness":{
				"baseColorTexture":{
					"index":1
				},
				"metallicFactor":0,
				"roughnessFactor":0.5
			}
		},
		{
			"doubleSided":true,
			"name":"Material.001",
			"pbrMetallicRoughness":{
				"baseColorTexture":{
					"index":2
				},
				"metallicFactor":0,
				"roughnessFactor":0.5
			}
		},
		{
			"doubleSided":true,
			"emissiveFactor":[
				-0.04831494763493538,
				-0.03361478075385094,
				-0.02596607245504856
			],
			"name":"Material.003",
			"pbrMetallicRoughness":{
				"baseColorFactor":[
					0.02415747381746769,
					0.01680739037692547,
					0.01298303622752428,
					1
				],
				"metallicFactor":0,
				"roughnessFactor":0.5
			}
		}
	],
	"meshes":[
		{
			"name":"Cube",
			"primitives":[
				{
					"attributes":{
						"POSITION":0,
						"NORMAL":1,
						"TEXCOORD_0":2
					},
					"indices":3,
					"material":0
				}
			]
		},
		{
			"name":"Cube.001",
			"primitives":[
				{
					"attributes":{
						"POSITION":4,
						"NORMAL":5,
						"TEXCOORD_0":6,
						"TANGENT":7
					},
					"indices":8,
					"material":1
				}
			]
		},
		{
			"name":"Cube.002",
			"primitives":[
				{
					"attributes":{
						"POSITION":9,
						"NORMAL":10,
						"TEXCOORD_0":11
					},
					"indices":12,
					"material":2
				}
			]
		},
		{
			"name":"Cube.003",
			"primitives":[
				{
					"attributes":{
						"POSITION":13,
						"NORMAL":14,
						"TEXCOORD_0":15,
						"TANGENT":16
					},
					"indices":17,
					"material":3
				}
			]
		}
	],
	"textures":[
		{
			"sampler":0,
			"source":0
		},
		{
			"sampler":0,
			"source":1
		},
		{
			"sampler":0,
			"source":2
		}
	],
	"images":[
		{
			"mimeType":"image/png",
			"name":"ya3_body",
			"uri":"../../3d/npcs/ya3/textures/ya3_body.png"
		},
		{
			"mimeType":"image/png",
			"name":"ya3_antenna.png.001",
			"uri":"../../3d/npcs/ya3/textures/ya3_antenna.png"
		},
		{
			"mimeType":"image/png",
			"name":"ya3_tail.png.001",
			"uri":"../../3d/npcs/ya3/textures/ya3_tail.png"
		}
	],
	"accessors":[
		{
			"bufferView":0,
			"componentType":5126,
			"count":84,
			"max":[
				1.8020548820495605,
				1,
				1
			],
			"min":[
				-1.109417200088501,
				-1,
				-1.5313656330108643
			],
			"type":"VEC3"
		},
		{
			"bufferView":1,
			"componentType":5126,
			"count":84,
			"type":"VEC3"
		},
		{
			"bufferView":2,
			"componentType":5126,
			"count":84,
			"type":"VEC2"
		},
		{
			"bufferView":3,
			"componentType":5123,
			"count":150,
			"type":"SCALAR"
		},
		{
			"bufferView":4,
			"componentType":5126,
			"count":24,
			"max":[
				1,
				1,
				1
			],
			"min":[
				-1,
				-1,
				-1
			],
			"type":"VEC3"
		},
		{
			"bufferView":5,
			"componentType":5126,
			"count":24,
			"type":"VEC3"
		},
		{
			"bufferView":6,
			"componentType":5126,
			"count":24,
			"type":"VEC2"
		},
		{
			"bufferView":7,
			"componentType":5126,
			"count":24,
			"type":"VEC4"
		},
		{
			"bufferView":8,
			"componentType":5123,
			"count":36,
			"type":"SCALAR"
		},
		{
			"bufferView":9,
			"componentType":5126,
			"count":128,
			"max":[
				1,
				1,
				1
			],
			"min":[
				-1.1721739768981934,
				-1,
				-1
			],
			"type":"VEC3"
		},
		{
			"bufferView":10,
			"componentType":5126,
			"count":128,
			"type":"VEC3"
		},
		{
			"bufferView":11,
			"componentType":5126,
			"count":128,
			"type":"VEC2"
		},
		{
			"bufferView":12,
			"componentType":5123,
			"count":324,
			"type":"SCALAR"
		},
		{
			"bufferView":13,
			"componentType":5126,
			"count":20,
			"max":[
				0.7324608564376831,
				0.7324608564376831,
				1.0724037885665894
			],
			"min":[
				-0.8418780565261841,
				-0.7324608564376831,
				0.9657241106033325
			],
			"type":"VEC3"
		},
		{
			"bufferView":14,
			"componentType":5126,
			"count":20,
			"type":"VEC3"
		},
		{
			"bufferView":15,
			"componentType":5126,
			"count":20,
			"type":"VEC2"
		},
		{
			"bufferView":16,
			"componentType":5126,
			"count":20,
			"type":"VEC4"
		},
		{
			"bufferView":17,
			"componentType":5123,
			"count":30,
			"type":"SCALAR"
		}
	],
	"bufferViews":[
		{
			"buffer":0,
			"byteLength":1008,
			"byteOffset":0,
			"target":34962
		},
		{
			"buffer":0,
			"byteLength":1008,
			"byteOffset":1008,
			"target":34962
		},
		{
			"buffer":0,
			"byteLength":672,
			"byteOffset":2016,
			"target":34962
		},
		{
			"buffer":0,
			"byteLength":300,
			"byteOffset":2688,
			"target":34963
		},
		{
			"buffer":0,
			"byteLength":288,
			"byteOffset":2988,
			"target":34962
		},
		{
			"buffer":0,
			"byteLength":288,
			"byteOffset":3276,
			"target":34962
		},
		{
			"buffer":0,
			"byteLength":192,
			"byteOffset":3564,
			"target":34962
		},
		{
			"buffer":0,
			"byteLength":384,
			"byteOffset":3756,
			"target":34962
		},
		{
			"buffer":0,
			"byteLength":72,
			"byteOffset":4140,
			"target":34963
		},
		{
			"buffer":0,
			"byteLength":1536,
			"byteOffset":4212,
			"target":34962
		},
		{
			"buffer":0,
			"byteLength":1536,
			"byteOffset":5748,
			"target":34962
		},
		{
			"buffer":0,
			"byteLength":1024,
			"byteOffset":7284,
			"target":34962
		},
		{
			"buffer":0,
			"byteLength":648,
			"byteOffset":8308,
			"target":34963
		},
		{
			"buffer":0,
			"byteLength":240,
			"byteOffset":8956,
			"target":34962
		},
		{
			"buffer":0,
			"byteLength":240,
			"byteOffset":9196,
			"target":34962
		},
		{
			"buffer":0,
			"byteLength":160,
			"byteOffset":9436,
			"target":34962
		},
		{
			"buffer":0,
			"byteLength":320,
			"byteOffset":9596,
			"target":34962
		},
		{
			"buffer":0,
			"byteLength":60,
			"byteOffset":9916,
			"target":34963
		}
	],
	"samplers":[
		{
			"magFilter":9729,
			"minFilter":9987
		}
	],
	"buffers":[
		{
			"byteLength":9976,
			"uri":"revor-0532ec03aeeb6db3360d33cdef651e42.bin"
		}
	]
}
