{
	"asset":{
		"generator":"Khronos glTF Blender I/O v4.2.70",
		"version":"2.0"
	},
	"scene":0,
	"scenes":[
		{
			"name":"Scene",
			"nodes":[
				0,
				1,
				2,
				3
			]
		}
	],
	"nodes":[
		{
			"mesh":0,
			"name":"Cube",
			"scale":[
				0.8728005886077881,
				0.8728005886077881,
				0.8728005886077881
			],
			"translation":[
				-0.13175830245018005,
				0.8620798587799072,
				-0.12077704071998596
			]
		},
		{
			"mesh":1,
			"name":"Cube.001",
			"scale":[
				0.06323134899139404,
				0.4175601303577423,
				0.06323134899139404
			],
			"translation":[
				0.33937209844589233,
				2.027172088623047,
				-0.12077692151069641
			]
		},
		{
			"mesh":2,
			"name":"Cube.002",
			"scale":[
				1.2017799615859985,
				0.07477942109107971,
				0.07477942109107971
			],
			"translation":[
				-2.207278251647949,
				0.07474052906036377,
				-0.739120364189148
			]
		},
		{
			"mesh":3,
			"name":"Cube.003",
			"scale":[
				0.8728005886077881,
				0.8728005886077881,
				0.8728005886077881
			],
			"translation":[
				-0.13175830245018005,
				0.8620798587799072,
				-0.12077704071998596
			]
		}
	],
	"materials":[
		{
			"doubleSided":true,
			"emissiveFactor":[
				-0.04831494763493538,
				-0.03361478075385094,
				-0.02596607245504856
			],
			"name":"Material.001",
			"pbrMetallicRoughness":{
				"baseColorFactor":[
					0.02415747381746769,
					0.01680739037692547,
					0.01298303622752428,
					1
				],
				"metallicFactor":0,
				"roughnessFactor":0.5
			}
		}
	],
	"meshes":[
		{
			"name":"Cube",
			"primitives":[
				{
					"attributes":{
						"POSITION":0,
						"NORMAL":1,
						"TEXCOORD_0":2
					},
					"indices":3
				}
			]
		},
		{
			"name":"Cube.001",
			"primitives":[
				{
					"attributes":{
						"POSITION":4,
						"NORMAL":5,
						"TEXCOORD_0":6,
						"TANGENT":7
					},
					"indices":8
				}
			]
		},
		{
			"name":"Cube.002",
			"primitives":[
				{
					"attributes":{
						"POSITION":9,
						"NORMAL":10,
						"TEXCOORD_0":11
					},
					"indices":12
				}
			]
		},
		{
			"name":"Cube.003",
			"primitives":[
				{
					"attributes":{
						"POSITION":13,
						"NORMAL":14,
						"TEXCOORD_0":15,
						"TANGENT":16
					},
					"indices":17,
					"material":0
				}
			]
		}
	],
	"accessors":[
		{
			"bufferView":0,
			"componentType":5126,
			"count":84,
			"max":[
				1.8020548820495605,
				1,
				1
			],
			"min":[
				-1.109417200088501,
				-1,
				-1.5313656330108643
			],
			"type":"VEC3"
		},
		{
			"bufferView":1,
			"componentType":5126,
			"count":84,
			"type":"VEC3"
		},
		{
			"bufferView":2,
			"componentType":5126,
			"count":84,
			"type":"VEC2"
		},
		{
			"bufferView":3,
			"componentType":5123,
			"count":150,
			"type":"SCALAR"
		},
		{
			"bufferView":4,
			"componentType":5126,
			"count":24,
			"max":[
				1,
				1,
				1
			],
			"min":[
				-1,
				-1,
				-1
			],
			"type":"VEC3"
		},
		{
			"bufferView":5,
			"componentType":5126,
			"count":24,
			"type":"VEC3"
		},
		{
			"bufferView":6,
			"componentType":5126,
			"count":24,
			"type":"VEC2"
		},
		{
			"bufferView":7,
			"componentType":5126,
			"count":24,
			"type":"VEC4"
		},
		{
			"bufferView":8,
			"componentType":5123,
			"count":36,
			"type":"SCALAR"
		},
		{
			"bufferView":9,
			"componentType":5126,
			"count":128,
			"max":[
				1,
				1,
				1
			],
			"min":[
				-1.1721739768981934,
				-1,
				-1
			],
			"type":"VEC3"
		},
		{
			"bufferView":10,
			"componentType":5126,
			"count":128,
			"type":"VEC3"
		},
		{
			"bufferView":11,
			"componentType":5126,
			"count":128,
			"type":"VEC2"
		},
		{
			"bufferView":12,
			"componentType":5123,
			"count":324,
			"type":"SCALAR"
		},
		{
			"bufferView":13,
			"componentType":5126,
			"count":20,
			"max":[
				0.7324608564376831,
				0.7324608564376831,
				1.0724037885665894
			],
			"min":[
				-0.8418780565261841,
				-0.7324608564376831,
				0.9657241106033325
			],
			"type":"VEC3"
		},
		{
			"bufferView":14,
			"componentType":5126,
			"count":20,
			"type":"VEC3"
		},
		{
			"bufferView":15,
			"componentType":5126,
			"count":20,
			"type":"VEC2"
		},
		{
			"bufferView":16,
			"componentType":5126,
			"count":20,
			"type":"VEC4"
		},
		{
			"bufferView":17,
			"componentType":5123,
			"count":30,
			"type":"SCALAR"
		}
	],
	"bufferViews":[
		{
			"buffer":0,
			"byteLength":1008,
			"byteOffset":0,
			"target":34962
		},
		{
			"buffer":0,
			"byteLength":1008,
			"byteOffset":1008,
			"target":34962
		},
		{
			"buffer":0,
			"byteLength":672,
			"byteOffset":2016,
			"target":34962
		},
		{
			"buffer":0,
			"byteLength":300,
			"byteOffset":2688,
			"target":34963
		},
		{
			"buffer":0,
			"byteLength":288,
			"byteOffset":2988,
			"target":34962
		},
		{
			"buffer":0,
			"byteLength":288,
			"byteOffset":3276,
			"target":34962
		},
		{
			"buffer":0,
			"byteLength":192,
			"byteOffset":3564,
			"target":34962
		},
		{
			"buffer":0,
			"byteLength":384,
			"byteOffset":3756,
			"target":34962
		},
		{
			"buffer":0,
			"byteLength":72,
			"byteOffset":4140,
			"target":34963
		},
		{
			"buffer":0,
			"byteLength":1536,
			"byteOffset":4212,
			"target":34962
		},
		{
			"buffer":0,
			"byteLength":1536,
			"byteOffset":5748,
			"target":34962
		},
		{
			"buffer":0,
			"byteLength":1024,
			"byteOffset":7284,
			"target":34962
		},
		{
			"buffer":0,
			"byteLength":648,
			"byteOffset":8308,
			"target":34963
		},
		{
			"buffer":0,
			"byteLength":240,
			"byteOffset":8956,
			"target":34962
		},
		{
			"buffer":0,
			"byteLength":240,
			"byteOffset":9196,
			"target":34962
		},
		{
			"buffer":0,
			"byteLength":160,
			"byteOffset":9436,
			"target":34962
		},
		{
			"buffer":0,
			"byteLength":320,
			"byteOffset":9596,
			"target":34962
		},
		{
			"buffer":0,
			"byteLength":60,
			"byteOffset":9916,
			"target":34963
		}
	],
	"buffers":[
		{
			"byteLength":9976,
			"uri":"revor-e9d4a6586858562d698f7eaef9bba0f8.bin"
		}
	]
}
