{
	"asset":{
		"generator":"Khronos glTF Blender I/O v4.2.70",
		"version":"2.0"
	},
	"scene":0,
	"scenes":[
		{
			"name":"Scene",
			"nodes":[
				0,
				1,
				2,
				3,
				4,
				5,
				6,
				7,
				8,
				9,
				10,
				11,
				12,
				13,
				14,
				15,
				16,
				17,
				18,
				19,
				20,
				21,
				22,
				23,
				24,
				25,
				26,
				27
			]
		}
	],
	"nodes":[
		{
			"name":"Empty",
			"rotation":[
				0.5,
				0.5,
				-0.5,
				0.5
			],
			"scale":[
				2.542011022567749,
				2.542011022567749,
				2.542011022567749
			],
			"translation":[
				-0.48046204447746277,
				2.898275136947632,
				0.09708617627620697
			]
		},
		{
			"mesh":0,
			"name":"Sphere",
			"scale":[
				2.542011022567749,
				2.542011022567749,
				2.542011022567749
			],
			"translation":[
				0.07327353209257126,
				2.6174089908599854,
				0.6510263681411743
			]
		},
		{
			"mesh":1,
			"name":"Sphere.001",
			"scale":[
				2.542011022567749,
				2.542011022567749,
				2.542011022567749
			],
			"translation":[
				0.07327353209257126,
				2.6174089908599854,
				0.6510263681411743
			]
		},
		{
			"mesh":2,
			"name":"Sphere.002",
			"scale":[
				2.542011022567749,
				2.542011022567749,
				2.542011022567749
			],
			"translation":[
				0.07327353209257126,
				2.6174089908599854,
				0.6510263681411743
			]
		},
		{
			"mesh":3,
			"name":"Sphere.003",
			"rotation":[
				0.029502984136343002,
				0,
				0,
				0.9995647668838501
			],
			"scale":[
				2.6176066398620605,
				2.4245970249176025,
				2.4245970249176025
			],
			"translation":[
				0.040552910417318344,
				2.284142255783081,
				0.05068674683570862
			]
		},
		{
			"mesh":4,
			"name":"Sphere.004",
			"rotation":[
				0.02950298599898815,
				0,
				0,
				0.9995647668838501
			],
			"scale":[
				2.4245970249176025,
				2.4245972633361816,
				2.4245972633361816
			],
			"translation":[
				0.07327353209257126,
				2.5710439682006836,
				0.04658791422843933
			]
		},
		{
			"mesh":5,
			"name":"Sphere.005",
			"rotation":[
				0.020973144099116325,
				-0.020749686285853386,
				-0.7030050754547119,
				0.7105727195739746
			],
			"scale":[
				1.4330779314041138,
				1.4330780506134033,
				1.4330782890319824
			],
			"translation":[
				0.07327353209257126,
				3.485551595687866,
				-0.3445415198802948
			]
		},
		{
			"mesh":6,
			"name":"Cube",
			"scale":[
				1.0453600883483887,
				1.0453600883483887,
				1.0453600883483887
			],
			"translation":[
				0.07327353209257126,
				2.6174089908599854,
				0.6510263681411743
			]
		},
		{
			"mesh":7,
			"name":"Cube.001",
			"scale":[
				0.8715043067932129,
				0.6361640691757202,
				1.0937910079956055
			],
			"translation":[
				0.5360749363899231,
				0.008300550282001495,
				0.2560526132583618
			]
		},
		{
			"mesh":8,
			"name":"Cube.002",
			"scale":[
				0.5481792688369751,
				0.4001494348049164,
				0.6879984736442566
			],
			"translation":[
				1.0298441648483276,
				-0.19248151779174805,
				0.7460857629776001
			]
		},
		{
			"mesh":9,
			"name":"Sphere.006",
			"rotation":[
				-0.0051179141737520695,
				-0.004655297379940748,
				0.7046537399291992,
				0.7095175981521606
			],
			"scale":[
				3.4499740600585938,
				3.4499733448028564,
				3.4499740600585938
			],
			"translation":[
				-0.6058325171470642,
				1.4448660612106323,
				0.04056939482688904
			]
		},
		{
			"mesh":10,
			"name":"Sphere.007",
			"rotation":[
				-0.005117915105074644,
				-0.004655297379940748,
				0.7046536803245544,
				0.7095176577568054
			],
			"scale":[
				3.2307746410369873,
				3.230774164199829,
				3.230773687362671
			],
			"translation":[
				-0.9346057772636414,
				1.2454460859298706,
				0.0729077160358429
			]
		},
		{
			"mesh":11,
			"name":"Sphere.008",
			"rotation":[
				-0.005117913708090782,
				-0.004655296914279461,
				0.7046536803245544,
				0.7095176577568054
			],
			"scale":[
				2.451807737350464,
				4.1717424392700195,
				2.421658992767334
			],
			"translation":[
				-1.2714639902114868,
				0.9040964245796204,
				0.09985636174678802
			]
		},
		{
			"mesh":12,
			"name":"Cube.003",
			"scale":[
				0.6416639685630798,
				1.8920561075210571,
				0.6153379082679749
			],
			"translation":[
				-0.26410701870918274,
				1.1166248321533203,
				0.015442103147506714
			]
		},
		{
			"mesh":13,
			"name":"Sphere.009",
			"scale":[
				0.07133995741605759,
				0.0831967443227768,
				0.09345293045043945
			],
			"translation":[
				0.07327353209257126,
				1.3551725149154663,
				1.785544753074646
			]
		},
		{
			"mesh":14,
			"name":"Sphere.010",
			"scale":[
				0.07133995741605759,
				0.0831967443227768,
				0.09337153285741806
			],
			"translation":[
				0.07327353209257126,
				1.1194700002670288,
				1.77682363986969
			]
		},
		{
			"mesh":15,
			"name":"Sphere.011",
			"scale":[
				0.07133995741605759,
				0.0831967443227768,
				0.09351054579019547
			],
			"translation":[
				0.07327353209257126,
				0.8616074919700623,
				1.7702828645706177
			]
		},
		{
			"mesh":16,
			"name":"Sphere.012",
			"rotation":[
				0.17917940020561218,
				0.00364791345782578,
				0.025702474638819695,
				0.9834739565849304
			],
			"scale":[
				2.542011260986328,
				2.542011260986328,
				2.5420114994049072
			],
			"translation":[
				-0.26767784357070923,
				2.510469675064087,
				2.0058488845825195
			]
		},
		{
			"mesh":17,
			"name":"Sphere.013",
			"rotation":[
				0.26294130086898804,
				-0.5633490085601807,
				-0.07246630638837814,
				0.7799028158187866
			],
			"scale":[
				2.542011022567749,
				2.5420114994049072,
				2.542011022567749
			],
			"translation":[
				-0.45725342631340027,
				1.136712670326233,
				1.688327670097351
			]
		},
		{
			"mesh":18,
			"name":"Cube.004",
			"scale":[
				0.24539728462696075,
				0.14108015596866608,
				0.29035064578056335
			],
			"translation":[
				-0.25157591700553894,
				1.1178417205810547,
				1.1285649538040161
			]
		},
		{
			"mesh":19,
			"name":"Sphere.014",
			"rotation":[
				-0.005117914639413357,
				-0.004655297379940748,
				0.7046537399291992,
				0.7095175981521606
			],
			"scale":[
				1.3937102556228638,
				1.8021472692489624,
				1.5367828607559204
			],
			"translation":[
				-0.09409938007593155,
				2.510554075241089,
				-0.6518290042877197
			]
		},
		{
			"mesh":20,
			"name":"Sphere.015",
			"rotation":[
				0.015237451530992985,
				-0.6812378168106079,
				0.0241426769644022,
				0.731505274772644
			],
			"scale":[
				2.677811861038208,
				2.6778125762939453,
				2.6778132915496826
			],
			"translation":[
				-0.08963895589113235,
				0.4326881170272827,
				1.1970419883728027
			]
		},
		{
			"mesh":21,
			"name":"Sphere.016",
			"rotation":[
				0.015237451530992985,
				-0.6812378168106079,
				0.024142684414982796,
				0.7315053343772888
			],
			"scale":[
				2.601600170135498,
				2.6016006469726562,
				2.6016008853912354
			],
			"translation":[
				-0.04978811740875244,
				0.11878729611635208,
				1.1742557287216187
			]
		},
		{
			"mesh":22,
			"name":"Sphere.017",
			"rotation":[
				0.015237451530992985,
				-0.6812378168106079,
				0.024142684414982796,
				0.7315053343772888
			],
			"scale":[
				2.601600170135498,
				2.6016006469726562,
				2.6016008853912354
			],
			"translation":[
				-0.034347906708717346,
				-0.19458425045013428,
				1.1445205211639404
			]
		},
		{
			"mesh":23,
			"name":"Sphere.018",
			"rotation":[
				-0.5039031505584717,
				-0.507030725479126,
				0.4925898313522339,
				0.4963435232639313
			],
			"scale":[
				2.5117316246032715,
				2.9652600288391113,
				3.1275603771209717
			],
			"translation":[
				0.6434289216995239,
				0.8542410731315613,
				-0.9253131151199341
			]
		},
		{
			"mesh":24,
			"name":"Sphere.019",
			"rotation":[
				-0.5039031505584717,
				-0.507030725479126,
				0.4925898313522339,
				0.4963435232639313
			],
			"scale":[
				2.5117316246032715,
				2.9652600288391113,
				3.1275603771209717
			],
			"translation":[
				0.6365164518356323,
				0.5731397271156311,
				-1.3322311639785767
			]
		},
		{
			"mesh":25,
			"name":"Sphere.020",
			"rotation":[
				-0.5039031505584717,
				-0.5070306658744812,
				0.4925897419452667,
				0.4963434636592865
			],
			"scale":[
				1.374895453453064,
				1.6231526136398315,
				1.7119941711425781
			],
			"translation":[
				0.4054451882839203,
				0.083328016102314,
				-1.3690847158432007
			]
		},
		{
			"mesh":26,
			"name":"Sphere.021",
			"rotation":[
				-0.13760536909103394,
				0.061189353466033936,
				0.3219415843486786,
				0.9347054362297058
			],
			"scale":[
				1.3516292572021484,
				1.351629376411438,
				1.3516292572021484
			],
			"translation":[
				-0.6356026530265808,
				1.730895757675171,
				0.7885079383850098
			]
		}
	],
	"meshes":[
		{
			"name":"Sphere",
			"primitives":[
				{
					"attributes":{
						"POSITION":0,
						"NORMAL":1,
						"TEXCOORD_0":2
					},
					"indices":3
				}
			]
		},
		{
			"name":"Sphere.001",
			"primitives":[
				{
					"attributes":{
						"POSITION":4,
						"NORMAL":5,
						"TEXCOORD_0":6
					},
					"indices":7
				}
			]
		},
		{
			"name":"Sphere.002",
			"primitives":[
				{
					"attributes":{
						"POSITION":8,
						"NORMAL":9,
						"TEXCOORD_0":10
					},
					"indices":11
				}
			]
		},
		{
			"name":"Sphere.003",
			"primitives":[
				{
					"attributes":{
						"POSITION":12,
						"NORMAL":13,
						"TEXCOORD_0":14
					},
					"indices":15
				}
			]
		},
		{
			"name":"Sphere.004",
			"primitives":[
				{
					"attributes":{
						"POSITION":16,
						"NORMAL":17,
						"TEXCOORD_0":18
					},
					"indices":19
				}
			]
		},
		{
			"name":"Sphere.005",
			"primitives":[
				{
					"attributes":{
						"POSITION":20,
						"NORMAL":21,
						"TEXCOORD_0":22
					},
					"indices":23
				}
			]
		},
		{
			"name":"Cube",
			"primitives":[
				{
					"attributes":{
						"POSITION":24,
						"NORMAL":25,
						"TEXCOORD_0":26,
						"TANGENT":27
					},
					"indices":28
				}
			]
		},
		{
			"name":"Cube.001",
			"primitives":[
				{
					"attributes":{
						"POSITION":29,
						"NORMAL":30,
						"TEXCOORD_0":31,
						"TANGENT":32
					},
					"indices":28
				}
			]
		},
		{
			"name":"Cube.002",
			"primitives":[
				{
					"attributes":{
						"POSITION":33,
						"NORMAL":34,
						"TEXCOORD_0":35,
						"TANGENT":36
					},
					"indices":28
				}
			]
		},
		{
			"name":"Sphere.006",
			"primitives":[
				{
					"attributes":{
						"POSITION":37,
						"NORMAL":38,
						"TEXCOORD_0":39
					},
					"indices":40
				}
			]
		},
		{
			"name":"Sphere.007",
			"primitives":[
				{
					"attributes":{
						"POSITION":41,
						"NORMAL":42,
						"TEXCOORD_0":43
					},
					"indices":40
				}
			]
		},
		{
			"name":"Sphere.008",
			"primitives":[
				{
					"attributes":{
						"POSITION":44,
						"NORMAL":45,
						"TEXCOORD_0":46
					},
					"indices":40
				}
			]
		},
		{
			"name":"Cube.003",
			"primitives":[
				{
					"attributes":{
						"POSITION":47,
						"NORMAL":48,
						"TEXCOORD_0":49,
						"TANGENT":50
					},
					"indices":28
				}
			]
		},
		{
			"name":"Sphere.009",
			"primitives":[
				{
					"attributes":{
						"POSITION":51,
						"NORMAL":52,
						"TEXCOORD_0":53,
						"TANGENT":54
					},
					"indices":55
				}
			]
		},
		{
			"name":"Sphere.010",
			"primitives":[
				{
					"attributes":{
						"POSITION":56,
						"NORMAL":57,
						"TEXCOORD_0":58,
						"TANGENT":59
					},
					"indices":55
				}
			]
		},
		{
			"name":"Sphere.011",
			"primitives":[
				{
					"attributes":{
						"POSITION":60,
						"NORMAL":61,
						"TEXCOORD_0":62,
						"TANGENT":63
					},
					"indices":55
				}
			]
		},
		{
			"name":"Sphere.012",
			"primitives":[
				{
					"attributes":{
						"POSITION":64,
						"NORMAL":65,
						"TEXCOORD_0":66
					},
					"indices":67
				}
			]
		},
		{
			"name":"Sphere.013",
			"primitives":[
				{
					"attributes":{
						"POSITION":68,
						"NORMAL":69,
						"TEXCOORD_0":70
					},
					"indices":71
				}
			]
		},
		{
			"name":"Cube.004",
			"primitives":[
				{
					"attributes":{
						"POSITION":72,
						"NORMAL":73,
						"TEXCOORD_0":74,
						"TANGENT":75
					},
					"indices":76
				}
			]
		},
		{
			"name":"Sphere.014",
			"primitives":[
				{
					"attributes":{
						"POSITION":77,
						"NORMAL":78,
						"TEXCOORD_0":79
					},
					"indices":80
				}
			]
		},
		{
			"name":"Sphere.015",
			"primitives":[
				{
					"attributes":{
						"POSITION":81,
						"NORMAL":82,
						"TEXCOORD_0":83
					},
					"indices":84
				}
			]
		},
		{
			"name":"Sphere.016",
			"primitives":[
				{
					"attributes":{
						"POSITION":85,
						"NORMAL":86,
						"TEXCOORD_0":87
					},
					"indices":84
				}
			]
		},
		{
			"name":"Sphere.017",
			"primitives":[
				{
					"attributes":{
						"POSITION":88,
						"NORMAL":89,
						"TEXCOORD_0":90
					},
					"indices":84
				}
			]
		},
		{
			"name":"Sphere.018",
			"primitives":[
				{
					"attributes":{
						"POSITION":91,
						"NORMAL":92,
						"TEXCOORD_0":93
					},
					"indices":94
				}
			]
		},
		{
			"name":"Sphere.019",
			"primitives":[
				{
					"attributes":{
						"POSITION":95,
						"NORMAL":96,
						"TEXCOORD_0":97
					},
					"indices":94
				}
			]
		},
		{
			"name":"Sphere.020",
			"primitives":[
				{
					"attributes":{
						"POSITION":98,
						"NORMAL":99,
						"TEXCOORD_0":100
					},
					"indices":94
				}
			]
		},
		{
			"name":"Sphere.021",
			"primitives":[
				{
					"attributes":{
						"POSITION":101,
						"NORMAL":102,
						"TEXCOORD_0":103
					},
					"indices":3
				}
			]
		}
	],
	"accessors":[
		{
			"bufferView":0,
			"componentType":5126,
			"count":286,
			"max":[
				0.34502077102661133,
				1.327789306640625,
				0.3927804231643677
			],
			"min":[
				-0.3450198471546173,
				-0.6757569909095764,
				-0.29023706912994385
			],
			"type":"VEC3"
		},
		{
			"bufferView":1,
			"componentType":5126,
			"count":286,
			"type":"VEC3"
		},
		{
			"bufferView":2,
			"componentType":5126,
			"count":286,
			"type":"VEC2"
		},
		{
			"bufferView":3,
			"componentType":5123,
			"count":450,
			"type":"SCALAR"
		},
		{
			"bufferView":4,
			"componentType":5126,
			"count":506,
			"max":[
				0.14433901011943817,
				1.5430221557617188,
				-0.30679798126220703
			],
			"min":[
				-0.14433854818344116,
				-1.0427157878875732,
				-0.5925372838973999
			],
			"type":"VEC3"
		},
		{
			"bufferView":5,
			"componentType":5126,
			"count":506,
			"type":"VEC3"
		},
		{
			"bufferView":6,
			"componentType":5126,
			"count":506,
			"type":"VEC2"
		},
		{
			"bufferView":7,
			"componentType":5123,
			"count":780,
			"type":"SCALAR"
		},
		{
			"bufferView":8,
			"componentType":5126,
			"count":242,
			"max":[
				0.09324871748685837,
				0.18890129029750824,
				0.4407559633255005
			],
			"min":[
				-0.09324860572814941,
				-1.0087915658950806,
				0.17472338676452637
			],
			"type":"VEC3"
		},
		{
			"bufferView":9,
			"componentType":5126,
			"count":242,
			"type":"VEC3"
		},
		{
			"bufferView":10,
			"componentType":5126,
			"count":242,
			"type":"VEC2"
		},
		{
			"bufferView":11,
			"componentType":5123,
			"count":384,
			"type":"SCALAR"
		},
		{
			"bufferView":12,
			"componentType":5126,
			"count":462,
			"max":[
				0.26736587285995483,
				0.06037621572613716,
				0.39972126483917236
			],
			"min":[
				-0.1680566966533661,
				-0.542670488357544,
				-0.39792555570602417
			],
			"type":"VEC3"
		},
		{
			"bufferView":13,
			"componentType":5126,
			"count":462,
			"type":"VEC3"
		},
		{
			"bufferView":14,
			"componentType":5126,
			"count":462,
			"type":"VEC2"
		},
		{
			"bufferView":15,
			"componentType":5123,
			"count":714,
			"type":"SCALAR"
		},
		{
			"bufferView":16,
			"componentType":5126,
			"count":539,
			"max":[
				0.26736587285995483,
				0.06272713840007782,
				0.40275585651397705
			],
			"min":[
				-0.19372445344924927,
				-1.1939496994018555,
				-0.45481958985328674
			],
			"type":"VEC3"
		},
		{
			"bufferView":17,
			"componentType":5126,
			"count":539,
			"type":"VEC3"
		},
		{
			"bufferView":18,
			"componentType":5126,
			"count":539,
			"type":"VEC2"
		},
		{
			"bufferView":19,
			"componentType":5123,
			"count":819,
			"type":"SCALAR"
		},
		{
			"bufferView":20,
			"componentType":5126,
			"count":539,
			"max":[
				1.946851134300232,
				-0.1472715437412262,
				1.1602963209152222
			],
			"min":[
				-0.38652461767196655,
				-0.4515494406223297,
				-0.5237752795219421
			],
			"type":"VEC3"
		},
		{
			"bufferView":21,
			"componentType":5126,
			"count":539,
			"type":"VEC3"
		},
		{
			"bufferView":22,
			"componentType":5126,
			"count":539,
			"type":"VEC2"
		},
		{
			"bufferView":23,
			"componentType":5123,
			"count":819,
			"type":"SCALAR"
		},
		{
			"bufferView":24,
			"componentType":5126,
			"count":96,
			"max":[
				1.082527756690979,
				-1.5061410665512085,
				0.9139094352722168
			],
			"min":[
				-0.6081887483596802,
				-2.695524215698242,
				-1.8019216060638428
			],
			"type":"VEC3"
		},
		{
			"bufferView":25,
			"componentType":5126,
			"count":96,
			"type":"VEC3"
		},
		{
			"bufferView":26,
			"componentType":5126,
			"count":96,
			"type":"VEC2"
		},
		{
			"bufferView":27,
			"componentType":5126,
			"count":96,
			"type":"VEC4"
		},
		{
			"bufferView":28,
			"componentType":5123,
			"count":132,
			"type":"SCALAR"
		},
		{
			"bufferView":29,
			"componentType":5126,
			"count":96,
			"max":[
				1.0825278759002686,
				0.6041208505630493,
				1.313305377960205
			],
			"min":[
				-0.608188807964325,
				-0.5852625370025635,
				-1.4025259017944336
			],
			"type":"VEC3"
		},
		{
			"bufferView":30,
			"componentType":5126,
			"count":96,
			"type":"VEC3"
		},
		{
			"bufferView":31,
			"componentType":5126,
			"count":96,
			"type":"VEC2"
		},
		{
			"bufferView":32,
			"componentType":5126,
			"count":96,
			"type":"VEC4"
		},
		{
			"bufferView":33,
			"componentType":5126,
			"count":96,
			"max":[
				1.0825278759002686,
				0.6041208505630493,
				1.313305377960205
			],
			"min":[
				-0.608188807964325,
				-0.5852625370025635,
				-1.4025259017944336
			],
			"type":"VEC3"
		},
		{
			"bufferView":34,
			"componentType":5126,
			"count":96,
			"type":"VEC3"
		},
		{
			"bufferView":35,
			"componentType":5126,
			"count":96,
			"type":"VEC2"
		},
		{
			"bufferView":36,
			"componentType":5126,
			"count":96,
			"type":"VEC4"
		},
		{
			"bufferView":37,
			"componentType":5126,
			"count":418,
			"max":[
				0.26736587285995483,
				0.06990644335746765,
				0.3873763084411621
			],
			"min":[
				-0.5181012153625488,
				-0.056248731911182404,
				-0.3920724093914032
			],
			"type":"VEC3"
		},
		{
			"bufferView":38,
			"componentType":5126,
			"count":418,
			"type":"VEC3"
		},
		{
			"bufferView":39,
			"componentType":5126,
			"count":418,
			"type":"VEC2"
		},
		{
			"bufferView":40,
			"componentType":5123,
			"count":648,
			"type":"SCALAR"
		},
		{
			"bufferView":41,
			"componentType":5126,
			"count":418,
			"max":[
				0.26736587285995483,
				0.06990644335746765,
				0.3873763084411621
			],
			"min":[
				-0.5181012153625488,
				-0.056248731911182404,
				-0.3920724093914032
			],
			"type":"VEC3"
		},
		{
			"bufferView":42,
			"componentType":5126,
			"count":418,
			"type":"VEC3"
		},
		{
			"bufferView":43,
			"componentType":5126,
			"count":418,
			"type":"VEC2"
		},
		{
			"bufferView":44,
			"componentType":5126,
			"count":418,
			"max":[
				0.26736587285995483,
				0.06990644335746765,
				0.3873763084411621
			],
			"min":[
				-0.5181012153625488,
				-0.056248731911182404,
				-0.3920724093914032
			],
			"type":"VEC3"
		},
		{
			"bufferView":45,
			"componentType":5126,
			"count":418,
			"type":"VEC3"
		},
		{
			"bufferView":46,
			"componentType":5126,
			"count":418,
			"type":"VEC2"
		},
		{
			"bufferView":47,
			"componentType":5126,
			"count":96,
			"max":[
				1.0825278759002686,
				0.6041208505630493,
				1.313305377960205
			],
			"min":[
				-0.608188807964325,
				-0.5852625370025635,
				-1.4025259017944336
			],
			"type":"VEC3"
		},
		{
			"bufferView":48,
			"componentType":5126,
			"count":96,
			"type":"VEC3"
		},
		{
			"bufferView":49,
			"componentType":5126,
			"count":96,
			"type":"VEC2"
		},
		{
			"bufferView":50,
			"componentType":5126,
			"count":96,
			"type":"VEC4"
		},
		{
			"bufferView":51,
			"componentType":5126,
			"count":132,
			"max":[
				0.866025447845459,
				1,
				1
			],
			"min":[
				-0.8660255074501038,
				-1,
				-1
			],
			"type":"VEC3"
		},
		{
			"bufferView":52,
			"componentType":5126,
			"count":132,
			"type":"VEC3"
		},
		{
			"bufferView":53,
			"componentType":5126,
			"count":132,
			"type":"VEC2"
		},
		{
			"bufferView":54,
			"componentType":5126,
			"count":132,
			"type":"VEC4"
		},
		{
			"bufferView":55,
			"componentType":5123,
			"count":180,
			"type":"SCALAR"
		},
		{
			"bufferView":56,
			"componentType":5126,
			"count":132,
			"max":[
				0.866025447845459,
				1,
				1
			],
			"min":[
				-0.8660255074501038,
				-1,
				-1
			],
			"type":"VEC3"
		},
		{
			"bufferView":57,
			"componentType":5126,
			"count":132,
			"type":"VEC3"
		},
		{
			"bufferView":58,
			"componentType":5126,
			"count":132,
			"type":"VEC2"
		},
		{
			"bufferView":59,
			"componentType":5126,
			"count":132,
			"type":"VEC4"
		},
		{
			"bufferView":60,
			"componentType":5126,
			"count":132,
			"max":[
				0.866025447845459,
				1,
				1
			],
			"min":[
				-0.8660255074501038,
				-1,
				-1
			],
			"type":"VEC3"
		},
		{
			"bufferView":61,
			"componentType":5126,
			"count":132,
			"type":"VEC3"
		},
		{
			"bufferView":62,
			"componentType":5126,
			"count":132,
			"type":"VEC2"
		},
		{
			"bufferView":63,
			"componentType":5126,
			"count":132,
			"type":"VEC4"
		},
		{
			"bufferView":64,
			"componentType":5126,
			"count":319,
			"max":[
				0.14433901011943817,
				1.2131648063659668,
				0.12485012412071228
			],
			"min":[
				-0.14433854818344116,
				-1.2961876392364502,
				-0.1608891785144806
			],
			"type":"VEC3"
		},
		{
			"bufferView":65,
			"componentType":5126,
			"count":319,
			"type":"VEC3"
		},
		{
			"bufferView":66,
			"componentType":5126,
			"count":319,
			"type":"VEC2"
		},
		{
			"bufferView":67,
			"componentType":5123,
			"count":489,
			"type":"SCALAR"
		},
		{
			"bufferView":68,
			"componentType":5126,
			"count":319,
			"max":[
				0.14433901011943817,
				1.2131648063659668,
				0.1983119696378708
			],
			"min":[
				-0.14433854818344116,
				-1.2961876392364502,
				-0.1608891785144806
			],
			"type":"VEC3"
		},
		{
			"bufferView":69,
			"componentType":5126,
			"count":319,
			"type":"VEC3"
		},
		{
			"bufferView":70,
			"componentType":5126,
			"count":319,
			"type":"VEC2"
		},
		{
			"bufferView":71,
			"componentType":5123,
			"count":489,
			"type":"SCALAR"
		},
		{
			"bufferView":72,
			"componentType":5126,
			"count":24,
			"max":[
				1,
				1,
				1
			],
			"min":[
				-1,
				-1,
				-1
			],
			"type":"VEC3"
		},
		{
			"bufferView":73,
			"componentType":5126,
			"count":24,
			"type":"VEC3"
		},
		{
			"bufferView":74,
			"componentType":5126,
			"count":24,
			"type":"VEC2"
		},
		{
			"bufferView":75,
			"componentType":5126,
			"count":24,
			"type":"VEC4"
		},
		{
			"bufferView":76,
			"componentType":5123,
			"count":36,
			"type":"SCALAR"
		},
		{
			"bufferView":77,
			"componentType":5126,
			"count":418,
			"max":[
				0.26736587285995483,
				0.0647391676902771,
				0.3873763084411621
			],
			"min":[
				-1.9873161315917969,
				-0.056248731911182404,
				-0.3878327012062073
			],
			"type":"VEC3"
		},
		{
			"bufferView":78,
			"componentType":5126,
			"count":418,
			"type":"VEC3"
		},
		{
			"bufferView":79,
			"componentType":5126,
			"count":418,
			"type":"VEC2"
		},
		{
			"bufferView":80,
			"componentType":5123,
			"count":648,
			"type":"SCALAR"
		},
		{
			"bufferView":81,
			"componentType":5126,
			"count":418,
			"max":[
				0.26736587285995483,
				0.07678459584712982,
				0.31989726424217224
			],
			"min":[
				-0.7897677421569824,
				-0.056248731911182404,
				-0.4115423560142517
			],
			"type":"VEC3"
		},
		{
			"bufferView":82,
			"componentType":5126,
			"count":418,
			"type":"VEC3"
		},
		{
			"bufferView":83,
			"componentType":5126,
			"count":418,
			"type":"VEC2"
		},
		{
			"bufferView":84,
			"componentType":5123,
			"count":648,
			"type":"SCALAR"
		},
		{
			"bufferView":85,
			"componentType":5126,
			"count":418,
			"max":[
				0.26736587285995483,
				0.07678459584712982,
				0.31989726424217224
			],
			"min":[
				-0.7897677421569824,
				-0.056248731911182404,
				-0.4115423560142517
			],
			"type":"VEC3"
		},
		{
			"bufferView":86,
			"componentType":5126,
			"count":418,
			"type":"VEC3"
		},
		{
			"bufferView":87,
			"componentType":5126,
			"count":418,
			"type":"VEC2"
		},
		{
			"bufferView":88,
			"componentType":5126,
			"count":418,
			"max":[
				0.26736587285995483,
				0.07678459584712982,
				0.31989726424217224
			],
			"min":[
				-0.7897677421569824,
				-0.056248731911182404,
				-0.4115423560142517
			],
			"type":"VEC3"
		},
		{
			"bufferView":89,
			"componentType":5126,
			"count":418,
			"type":"VEC3"
		},
		{
			"bufferView":90,
			"componentType":5126,
			"count":418,
			"type":"VEC2"
		},
		{
			"bufferView":91,
			"componentType":5126,
			"count":418,
			"max":[
				0.26736587285995483,
				0.06547879427671432,
				0.3873763084411621
			],
			"min":[
				-0.4305906891822815,
				-0.061012621968984604,
				-0.0814213827252388
			],
			"type":"VEC3"
		},
		{
			"bufferView":92,
			"componentType":5126,
			"count":418,
			"type":"VEC3"
		},
		{
			"bufferView":93,
			"componentType":5126,
			"count":418,
			"type":"VEC2"
		},
		{
			"bufferView":94,
			"componentType":5123,
			"count":648,
			"type":"SCALAR"
		},
		{
			"bufferView":95,
			"componentType":5126,
			"count":418,
			"max":[
				0.26736587285995483,
				0.06547879427671432,
				0.3873763084411621
			],
			"min":[
				-0.4305906891822815,
				-0.061012621968984604,
				-0.0814213827252388
			],
			"type":"VEC3"
		},
		{
			"bufferView":96,
			"componentType":5126,
			"count":418,
			"type":"VEC3"
		},
		{
			"bufferView":97,
			"componentType":5126,
			"count":418,
			"type":"VEC2"
		},
		{
			"bufferView":98,
			"componentType":5126,
			"count":418,
			"max":[
				0.26736587285995483,
				0.06547879427671432,
				0.3873763084411621
			],
			"min":[
				-0.4305906891822815,
				-0.061012621968984604,
				-0.0814213827252388
			],
			"type":"VEC3"
		},
		{
			"bufferView":99,
			"componentType":5126,
			"count":418,
			"type":"VEC3"
		},
		{
			"bufferView":100,
			"componentType":5126,
			"count":418,
			"type":"VEC2"
		},
		{
			"bufferView":101,
			"componentType":5126,
			"count":286,
			"max":[
				0.34502077102661133,
				1.3436169624328613,
				-0.6993310451507568
			],
			"min":[
				-0.3450198471546173,
				-0.6599292755126953,
				-1.3823485374450684
			],
			"type":"VEC3"
		},
		{
			"bufferView":102,
			"componentType":5126,
			"count":286,
			"type":"VEC3"
		},
		{
			"bufferView":103,
			"componentType":5126,
			"count":286,
			"type":"VEC2"
		}
	],
	"bufferViews":[
		{
			"buffer":0,
			"byteLength":3432,
			"byteOffset":0,
			"target":34962
		},
		{
			"buffer":0,
			"byteLength":3432,
			"byteOffset":3432,
			"target":34962
		},
		{
			"buffer":0,
			"byteLength":2288,
			"byteOffset":6864,
			"target":34962
		},
		{
			"buffer":0,
			"byteLength":900,
			"byteOffset":9152,
			"target":34963
		},
		{
			"buffer":0,
			"byteLength":6072,
			"byteOffset":10052,
			"target":34962
		},
		{
			"buffer":0,
			"byteLength":6072,
			"byteOffset":16124,
			"target":34962
		},
		{
			"buffer":0,
			"byteLength":4048,
			"byteOffset":22196,
			"target":34962
		},
		{
			"buffer":0,
			"byteLength":1560,
			"byteOffset":26244,
			"target":34963
		},
		{
			"buffer":0,
			"byteLength":2904,
			"byteOffset":27804,
			"target":34962
		},
		{
			"buffer":0,
			"byteLength":2904,
			"byteOffset":30708,
			"target":34962
		},
		{
			"buffer":0,
			"byteLength":1936,
			"byteOffset":33612,
			"target":34962
		},
		{
			"buffer":0,
			"byteLength":768,
			"byteOffset":35548,
			"target":34963
		},
		{
			"buffer":0,
			"byteLength":5544,
			"byteOffset":36316,
			"target":34962
		},
		{
			"buffer":0,
			"byteLength":5544,
			"byteOffset":41860,
			"target":34962
		},
		{
			"buffer":0,
			"byteLength":3696,
			"byteOffset":47404,
			"target":34962
		},
		{
			"buffer":0,
			"byteLength":1428,
			"byteOffset":51100,
			"target":34963
		},
		{
			"buffer":0,
			"byteLength":6468,
			"byteOffset":52528,
			"target":34962
		},
		{
			"buffer":0,
			"byteLength":6468,
			"byteOffset":58996,
			"target":34962
		},
		{
			"buffer":0,
			"byteLength":4312,
			"byteOffset":65464,
			"target":34962
		},
		{
			"buffer":0,
			"byteLength":1638,
			"byteOffset":69776,
			"target":34963
		},
		{
			"buffer":0,
			"byteLength":6468,
			"byteOffset":71416,
			"target":34962
		},
		{
			"buffer":0,
			"byteLength":6468,
			"byteOffset":77884,
			"target":34962
		},
		{
			"buffer":0,
			"byteLength":4312,
			"byteOffset":84352,
			"target":34962
		},
		{
			"buffer":0,
			"byteLength":1638,
			"byteOffset":88664,
			"target":34963
		},
		{
			"buffer":0,
			"byteLength":1152,
			"byteOffset":90304,
			"target":34962
		},
		{
			"buffer":0,
			"byteLength":1152,
			"byteOffset":91456,
			"target":34962
		},
		{
			"buffer":0,
			"byteLength":768,
			"byteOffset":92608,
			"target":34962
		},
		{
			"buffer":0,
			"byteLength":1536,
			"byteOffset":93376,
			"target":34962
		},
		{
			"buffer":0,
			"byteLength":264,
			"byteOffset":94912,
			"target":34963
		},
		{
			"buffer":0,
			"byteLength":1152,
			"byteOffset":95176,
			"target":34962
		},
		{
			"buffer":0,
			"byteLength":1152,
			"byteOffset":96328,
			"target":34962
		},
		{
			"buffer":0,
			"byteLength":768,
			"byteOffset":97480,
			"target":34962
		},
		{
			"buffer":0,
			"byteLength":1536,
			"byteOffset":98248,
			"target":34962
		},
		{
			"buffer":0,
			"byteLength":1152,
			"byteOffset":99784,
			"target":34962
		},
		{
			"buffer":0,
			"byteLength":1152,
			"byteOffset":100936,
			"target":34962
		},
		{
			"buffer":0,
			"byteLength":768,
			"byteOffset":102088,
			"target":34962
		},
		{
			"buffer":0,
			"byteLength":1536,
			"byteOffset":102856,
			"target":34962
		},
		{
			"buffer":0,
			"byteLength":5016,
			"byteOffset":104392,
			"target":34962
		},
		{
			"buffer":0,
			"byteLength":5016,
			"byteOffset":109408,
			"target":34962
		},
		{
			"buffer":0,
			"byteLength":3344,
			"byteOffset":114424,
			"target":34962
		},
		{
			"buffer":0,
			"byteLength":1296,
			"byteOffset":117768,
			"target":34963
		},
		{
			"buffer":0,
			"byteLength":5016,
			"byteOffset":119064,
			"target":34962
		},
		{
			"buffer":0,
			"byteLength":5016,
			"byteOffset":124080,
			"target":34962
		},
		{
			"buffer":0,
			"byteLength":3344,
			"byteOffset":129096,
			"target":34962
		},
		{
			"buffer":0,
			"byteLength":5016,
			"byteOffset":132440,
			"target":34962
		},
		{
			"buffer":0,
			"byteLength":5016,
			"byteOffset":137456,
			"target":34962
		},
		{
			"buffer":0,
			"byteLength":3344,
			"byteOffset":142472,
			"target":34962
		},
		{
			"buffer":0,
			"byteLength":1152,
			"byteOffset":145816,
			"target":34962
		},
		{
			"buffer":0,
			"byteLength":1152,
			"byteOffset":146968,
			"target":34962
		},
		{
			"buffer":0,
			"byteLength":768,
			"byteOffset":148120,
			"target":34962
		},
		{
			"buffer":0,
			"byteLength":1536,
			"byteOffset":148888,
			"target":34962
		},
		{
			"buffer":0,
			"byteLength":1584,
			"byteOffset":150424,
			"target":34962
		},
		{
			"buffer":0,
			"byteLength":1584,
			"byteOffset":152008,
			"target":34962
		},
		{
			"buffer":0,
			"byteLength":1056,
			"byteOffset":153592,
			"target":34962
		},
		{
			"buffer":0,
			"byteLength":2112,
			"byteOffset":154648,
			"target":34962
		},
		{
			"buffer":0,
			"byteLength":360,
			"byteOffset":156760,
			"target":34963
		},
		{
			"buffer":0,
			"byteLength":1584,
			"byteOffset":157120,
			"target":34962
		},
		{
			"buffer":0,
			"byteLength":1584,
			"byteOffset":158704,
			"target":34962
		},
		{
			"buffer":0,
			"byteLength":1056,
			"byteOffset":160288,
			"target":34962
		},
		{
			"buffer":0,
			"byteLength":2112,
			"byteOffset":161344,
			"target":34962
		},
		{
			"buffer":0,
			"byteLength":1584,
			"byteOffset":163456,
			"target":34962
		},
		{
			"buffer":0,
			"byteLength":1584,
			"byteOffset":165040,
			"target":34962
		},
		{
			"buffer":0,
			"byteLength":1056,
			"byteOffset":166624,
			"target":34962
		},
		{
			"buffer":0,
			"byteLength":2112,
			"byteOffset":167680,
			"target":34962
		},
		{
			"buffer":0,
			"byteLength":3828,
			"byteOffset":169792,
			"target":34962
		},
		{
			"buffer":0,
			"byteLength":3828,
			"byteOffset":173620,
			"target":34962
		},
		{
			"buffer":0,
			"byteLength":2552,
			"byteOffset":177448,
			"target":34962
		},
		{
			"buffer":0,
			"byteLength":978,
			"byteOffset":180000,
			"target":34963
		},
		{
			"buffer":0,
			"byteLength":3828,
			"byteOffset":180980,
			"target":34962
		},
		{
			"buffer":0,
			"byteLength":3828,
			"byteOffset":184808,
			"target":34962
		},
		{
			"buffer":0,
			"byteLength":2552,
			"byteOffset":188636,
			"target":34962
		},
		{
			"buffer":0,
			"byteLength":978,
			"byteOffset":191188,
			"target":34963
		},
		{
			"buffer":0,
			"byteLength":288,
			"byteOffset":192168,
			"target":34962
		},
		{
			"buffer":0,
			"byteLength":288,
			"byteOffset":192456,
			"target":34962
		},
		{
			"buffer":0,
			"byteLength":192,
			"byteOffset":192744,
			"target":34962
		},
		{
			"buffer":0,
			"byteLength":384,
			"byteOffset":192936,
			"target":34962
		},
		{
			"buffer":0,
			"byteLength":72,
			"byteOffset":193320,
			"target":34963
		},
		{
			"buffer":0,
			"byteLength":5016,
			"byteOffset":193392,
			"target":34962
		},
		{
			"buffer":0,
			"byteLength":5016,
			"byteOffset":198408,
			"target":34962
		},
		{
			"buffer":0,
			"byteLength":3344,
			"byteOffset":203424,
			"target":34962
		},
		{
			"buffer":0,
			"byteLength":1296,
			"byteOffset":206768,
			"target":34963
		},
		{
			"buffer":0,
			"byteLength":5016,
			"byteOffset":208064,
			"target":34962
		},
		{
			"buffer":0,
			"byteLength":5016,
			"byteOffset":213080,
			"target":34962
		},
		{
			"buffer":0,
			"byteLength":3344,
			"byteOffset":218096,
			"target":34962
		},
		{
			"buffer":0,
			"byteLength":1296,
			"byteOffset":221440,
			"target":34963
		},
		{
			"buffer":0,
			"byteLength":5016,
			"byteOffset":222736,
			"target":34962
		},
		{
			"buffer":0,
			"byteLength":5016,
			"byteOffset":227752,
			"target":34962
		},
		{
			"buffer":0,
			"byteLength":3344,
			"byteOffset":232768,
			"target":34962
		},
		{
			"buffer":0,
			"byteLength":5016,
			"byteOffset":236112,
			"target":34962
		},
		{
			"buffer":0,
			"byteLength":5016,
			"byteOffset":241128,
			"target":34962
		},
		{
			"buffer":0,
			"byteLength":3344,
			"byteOffset":246144,
			"target":34962
		},
		{
			"buffer":0,
			"byteLength":5016,
			"byteOffset":249488,
			"target":34962
		},
		{
			"buffer":0,
			"byteLength":5016,
			"byteOffset":254504,
			"target":34962
		},
		{
			"buffer":0,
			"byteLength":3344,
			"byteOffset":259520,
			"target":34962
		},
		{
			"buffer":0,
			"byteLength":1296,
			"byteOffset":262864,
			"target":34963
		},
		{
			"buffer":0,
			"byteLength":5016,
			"byteOffset":264160,
			"target":34962
		},
		{
			"buffer":0,
			"byteLength":5016,
			"byteOffset":269176,
			"target":34962
		},
		{
			"buffer":0,
			"byteLength":3344,
			"byteOffset":274192,
			"target":34962
		},
		{
			"buffer":0,
			"byteLength":5016,
			"byteOffset":277536,
			"target":34962
		},
		{
			"buffer":0,
			"byteLength":5016,
			"byteOffset":282552,
			"target":34962
		},
		{
			"buffer":0,
			"byteLength":3344,
			"byteOffset":287568,
			"target":34962
		},
		{
			"buffer":0,
			"byteLength":3432,
			"byteOffset":290912,
			"target":34962
		},
		{
			"buffer":0,
			"byteLength":3432,
			"byteOffset":294344,
			"target":34962
		},
		{
			"buffer":0,
			"byteLength":2288,
			"byteOffset":297776,
			"target":34962
		}
	],
	"buffers":[
		{
			"byteLength":300064,
			"uri":"station-74090a9343c1eecfd980a66643301f42.bin"
		}
	]
}
