{
	"asset":{
		"generator":"Khronos glTF Blender I/O v4.2.70",
		"version":"2.0"
	},
	"scene":0,
	"scenes":[
		{
			"name":"Scene",
			"nodes":[
				2,
				5,
				8,
				11,
				14,
				19,
				24,
				27,
				30,
				33,
				36,
				39,
				42
			]
		}
	],
	"nodes":[
		{
			"name":"Bone",
			"rotation":[
				3.754394128918648e-09,
				-8.731149137020111e-11,
				2.9103830456733704e-11,
				1
			],
			"translation":[
				-8.451752364635468e-08,
				-9.685754776000977e-08,
				4.470348358154297e-08
			]
		},
		{
			"mesh":0,
			"name":"Sphere.012",
			"skin":0
		},
		{
			"children":[
				1,
				0
			],
			"name":"Armature.009",
			"rotation":[
				-0.06359497457742691,
				0.06803175806999207,
				-0.7323272824287415,
				0.6745547652244568
			],
			"scale":[
				0.7842217087745667,
				0.7842217087745667,
				0.7842217087745667
			],
			"translation":[
				2.9912784099578857,
				-1.0244332551956177,
				-0.3971022665500641
			]
		},
		{
			"name":"Bone",
			"rotation":[
				-7.916241884231567e-09,
				3.725290298461914e-09,
				-3.725290298461914e-09,
				1
			],
			"translation":[
				3.725290298461914e-08,
				-1.1920928955078125e-07,
				8.195638656616211e-08
			]
		},
		{
			"mesh":1,
			"name":"Sphere.011",
			"skin":1
		},
		{
			"children":[
				4,
				3
			],
			"name":"Armature.010",
			"rotation":[
				-0.24827535450458527,
				0.24075298011302948,
				-0.725490391254425,
				0.5950303077697754
			],
			"scale":[
				0.7842217087745667,
				0.7842216491699219,
				0.7842217087745667
			],
			"translation":[
				2.624840021133423,
				-0.9843013286590576,
				-0.5544469356536865
			]
		},
		{
			"name":"Bone",
			"rotation":[
				-3.6670830816376565e-09,
				1.3969840839678227e-09,
				1.571607066708225e-09,
				1
			],
			"scale":[
				0.9999999403953552,
				0.9999998807907104,
				0.9999999403953552
			],
			"translation":[
				-1.862645149230957e-08,
				-3.501772880554199e-07,
				-6.705522537231445e-08
			]
		},
		{
			"mesh":2,
			"name":"Sphere.002",
			"skin":2
		},
		{
			"children":[
				7,
				6
			],
			"name":"Armature.011",
			"rotation":[
				0.0826786607503891,
				-0.09776055067777634,
				-0.7345426082611084,
				0.6663739681243896
			],
			"scale":[
				0.7842217087745667,
				0.7842217087745667,
				0.7842217087745667
			],
			"translation":[
				2.9866526126861572,
				-1.0625,
				0.3225005567073822
			]
		},
		{
			"name":"Bone",
			"rotation":[
				-4.656612873077393e-10,
				-2.7939677238464355e-09,
				-3.725290298461914e-09,
				1
			],
			"translation":[
				4.470348358154297e-08,
				2.682209014892578e-07,
				7.82310962677002e-08
			]
		},
		{
			"mesh":3,
			"name":"Sphere.010",
			"skin":3
		},
		{
			"children":[
				10,
				9
			],
			"name":"Armature.012",
			"rotation":[
				0.3102205693721771,
				-0.2587955594062805,
				-0.7339537143707275,
				0.5459854602813721
			],
			"scale":[
				0.7842217087745667,
				0.7842217087745667,
				0.7842217087745667
			],
			"translation":[
				2.553704023361206,
				-0.9633597731590271,
				0.3791458308696747
			]
		},
		{
			"name":"Bone",
			"rotation":[
				6.111803285691053e-10,
				3.25962878910957e-09,
				7.3960104707282426e-09,
				1
			],
			"scale":[
				1,
				1.0000001192092896,
				1.0000001192092896
			],
			"translation":[
				6.6356733441352844e-09,
				1.7224238035851158e-08,
				-2.7939677238464355e-09
			]
		},
		{
			"mesh":4,
			"name":"Sphere.001",
			"skin":4
		},
		{
			"children":[
				13,
				12
			],
			"name":"Armature",
			"rotation":[
				0.0574929378926754,
				0.06981363892555237,
				-0.6360010504722595,
				0.7663702368736267
			],
			"translation":[
				1.758826732635498,
				-0.8677611947059631,
				0.003473919117823243
			]
		},
		{
			"name":"Bone.002",
			"rotation":[
				3.892711042396968e-09,
				-5.161865601621685e-09,
				-0.01749497838318348,
				0.9998469352722168
			],
			"translation":[
				5.774202094244174e-08,
				0.9399334788322449,
				1.3988810110276972e-14
			]
		},
		{
			"children":[
				15
			],
			"name":"Bone.001",
			"rotation":[
				7.3300682856825e-08,
				-7.347156127934795e-08,
				-0.020726464688777924,
				0.9997852444648743
			],
			"scale":[
				0.9999999403953552,
				0.9999999403953552,
				1
			],
			"translation":[
				-1.676375305237343e-08,
				1,
				2.842170943040401e-14
			]
		},
		{
			"children":[
				16
			],
			"name":"Bone",
			"rotation":[
				-1.3245090713098762e-07,
				4.022584221274883e-08,
				0.7022456526756287,
				0.7119348049163818
			],
			"scale":[
				0.9999999403953552,
				1,
				1
			],
			"translation":[
				1.05365788936615,
				-0.21879231929779053,
				0
			]
		},
		{
			"mesh":5,
			"name":"Sphere",
			"skin":5
		},
		{
			"children":[
				18,
				17
			],
			"name":"Armature.001",
			"translation":[
				0.641533374786377,
				-0.6293522715568542,
				0
			]
		},
		{
			"name":"Bone.002",
			"rotation":[
				0.007184251211583614,
				-0.03740372881293297,
				0.01419072039425373,
				0.999173641204834
			],
			"scale":[
				1,
				0.9999998807907104,
				0.9999998807907104
			],
			"translation":[
				-2.7000156777035045e-08,
				0.7280454039573669,
				-1.1426266155467601e-08
			]
		},
		{
			"children":[
				20
			],
			"name":"Bone.001",
			"rotation":[
				-0.01589115709066391,
				0.03684409707784653,
				0.02041700854897499,
				0.9989860653877258
			],
			"scale":[
				0.9999999403953552,
				0.9999998807907104,
				1
			],
			"translation":[
				-2.8346221370156854e-08,
				0.7580848932266235,
				-6.402842700481415e-10
			]
		},
		{
			"children":[
				21
			],
			"name":"Bone",
			"rotation":[
				0.00741575425490737,
				0.00012507420615293086,
				-0.042313940823078156,
				0.9990768432617188
			],
			"scale":[
				1.0000001192092896,
				1,
				0.9999999403953552
			],
			"translation":[
				-3.725306285673469e-09,
				1.490117718105921e-08,
				1.4210854715202004e-14
			]
		},
		{
			"mesh":6,
			"name":"Sphere.003",
			"skin":6
		},
		{
			"children":[
				23,
				22
			],
			"name":"Armature.002",
			"rotation":[
				0,
				0,
				0.6973567008972168,
				0.7167242765426636
			],
			"translation":[
				-0.751162588596344,
				-0.885153591632843,
				0
			]
		},
		{
			"name":"Bone",
			"rotation":[
				0.029214628040790558,
				1.7804138607857567e-08,
				0.0001219389887410216,
				0.9995731115341187
			],
			"scale":[
				0.9999999403953552,
				1.0000001192092896,
				1.0000001192092896
			],
			"translation":[
				-1.5459954738616943e-07,
				8.195638656616211e-08,
				-8.66129994392395e-08
			]
		},
		{
			"mesh":7,
			"name":"Sphere.007",
			"skin":7
		},
		{
			"children":[
				26,
				25
			],
			"name":"Armature.003",
			"rotation":[
				0.999664843082428,
				-0.019123192876577377,
				0.00500591192394495,
				0.01671847142279148
			],
			"translation":[
				1.299309492111206,
				-0.8192146420478821,
				0.7981008291244507
			]
		},
		{
			"name":"Bone",
			"rotation":[
				0.029214628040790558,
				1.7804138607857567e-08,
				0.0001219389887410216,
				0.9995731115341187
			],
			"scale":[
				0.9999999403953552,
				1.0000001192092896,
				1.0000001192092896
			],
			"translation":[
				4.6566128730773926e-09,
				7.078051567077637e-08,
				-1.3969838619232178e-08
			]
		},
		{
			"mesh":8,
			"name":"Sphere.008",
			"skin":8
		},
		{
			"children":[
				29,
				28
			],
			"name":"Armature.004",
			"rotation":[
				0.999664843082428,
				-0.019123192876577377,
				0.00500591192394495,
				0.01671847142279148
			],
			"translation":[
				0.23336529731750488,
				-0.8571423888206482,
				0.9611690044403076
			]
		},
		{
			"name":"Bone",
			"rotation":[
				0.02921462431550026,
				1.8342790397696263e-08,
				0.00012193794100312516,
				0.9995731115341187
			],
			"scale":[
				0.9999999403953552,
				1.0000001192092896,
				1.0000001192092896
			],
			"translation":[
				8.568167686462402e-08,
				9.685754776000977e-08,
				-8.568167686462402e-08
			]
		},
		{
			"mesh":9,
			"name":"Sphere.009",
			"skin":9
		},
		{
			"children":[
				32,
				31
			],
			"name":"Armature.005",
			"rotation":[
				0.9893872737884521,
				-0.13744285702705383,
				-0.028427982702851295,
				0.03760506212711334
			],
			"translation":[
				-0.7894537448883057,
				-0.7325232625007629,
				1.119459629058838
			]
		},
		{
			"name":"Bone",
			"rotation":[
				0.029214628040790558,
				1.7673343677415687e-08,
				0.000121943092381116,
				0.9995731115341187
			],
			"scale":[
				1,
				1,
				1.0000001192092896
			],
			"translation":[
				3.3527612686157227e-08,
				-7.450580596923828e-09,
				1.2293457984924316e-07
			]
		},
		{
			"mesh":10,
			"name":"Sphere.006",
			"skin":10
		},
		{
			"children":[
				35,
				34
			],
			"name":"Armature.006",
			"rotation":[
				-0.02427203394472599,
				0.007569027133285999,
				-0.047250065952539444,
				0.9985594749450684
			],
			"scale":[
				-0.9999998807907104,
				-0.9999998807907104,
				-1
			],
			"translation":[
				-0.7935141324996948,
				-0.7325953245162964,
				-1.0318106412887573
			]
		},
		{
			"name":"Bone",
			"rotation":[
				0.029214628040790558,
				1.793516268833173e-08,
				0.00012194230657769367,
				0.9995731115341187
			],
			"scale":[
				0.9999999403953552,
				1,
				1.0000001192092896
			],
			"translation":[
				1.30385160446167e-08,
				2.7939677238464355e-08,
				6.612390279769897e-08
			]
		},
		{
			"mesh":11,
			"name":"Sphere.005",
			"skin":11
		},
		{
			"children":[
				38,
				37
			],
			"name":"Armature.007",
			"rotation":[
				-0.024177148938179016,
				0.008529865182936192,
				-0.06295216828584671,
				0.9976872205734253
			],
			"scale":[
				-0.9999998807907104,
				-1,
				-1
			],
			"translation":[
				0.2399473786354065,
				-0.8611200451850891,
				-0.8703351020812988
			]
		},
		{
			"name":"Bone",
			"rotation":[
				0.029214629903435707,
				1.816832018164405e-08,
				0.00012194002920296043,
				0.9995731115341187
			],
			"scale":[
				1,
				1.0000001192092896,
				1.0000001192092896
			],
			"translation":[
				-2.3283064365386963e-08,
				1.043081283569336e-07,
				-8.195638656616211e-08
			]
		},
		{
			"mesh":12,
			"name":"Sphere.004",
			"skin":12
		},
		{
			"children":[
				41,
				40
			],
			"name":"Armature.008",
			"rotation":[
				-0.02429983951151371,
				0.007272911723703146,
				-0.042414870113134384,
				0.9987780451774597
			],
			"scale":[
				-0.9999998807907104,
				-1,
				-1
			],
			"translation":[
				1.3033698797225952,
				-0.8277673125267029,
				-0.7243521809577942
			]
		}
	],
	"animations":[
		{
			"channels":[
				{
					"sampler":0,
					"target":{
						"node":0,
						"path":"translation"
					}
				},
				{
					"sampler":1,
					"target":{
						"node":0,
						"path":"rotation"
					}
				},
				{
					"sampler":2,
					"target":{
						"node":0,
						"path":"scale"
					}
				},
				{
					"sampler":3,
					"target":{
						"node":2,
						"path":"translation"
					}
				},
				{
					"sampler":4,
					"target":{
						"node":2,
						"path":"rotation"
					}
				}
			],
			"name":"Armature.009Action",
			"samplers":[
				{
					"input":93,
					"interpolation":"STEP",
					"output":94
				},
				{
					"input":93,
					"interpolation":"STEP",
					"output":95
				},
				{
					"input":93,
					"interpolation":"STEP",
					"output":96
				},
				{
					"input":97,
					"interpolation":"LINEAR",
					"output":98
				},
				{
					"input":97,
					"interpolation":"LINEAR",
					"output":99
				}
			]
		},
		{
			"channels":[
				{
					"sampler":0,
					"target":{
						"node":3,
						"path":"translation"
					}
				},
				{
					"sampler":1,
					"target":{
						"node":3,
						"path":"rotation"
					}
				},
				{
					"sampler":2,
					"target":{
						"node":3,
						"path":"scale"
					}
				},
				{
					"sampler":3,
					"target":{
						"node":5,
						"path":"translation"
					}
				},
				{
					"sampler":4,
					"target":{
						"node":5,
						"path":"rotation"
					}
				}
			],
			"name":"Armature.010Action",
			"samplers":[
				{
					"input":93,
					"interpolation":"STEP",
					"output":100
				},
				{
					"input":93,
					"interpolation":"STEP",
					"output":101
				},
				{
					"input":93,
					"interpolation":"STEP",
					"output":102
				},
				{
					"input":97,
					"interpolation":"LINEAR",
					"output":103
				},
				{
					"input":97,
					"interpolation":"LINEAR",
					"output":104
				}
			]
		},
		{
			"channels":[
				{
					"sampler":0,
					"target":{
						"node":6,
						"path":"translation"
					}
				},
				{
					"sampler":1,
					"target":{
						"node":6,
						"path":"rotation"
					}
				},
				{
					"sampler":2,
					"target":{
						"node":6,
						"path":"scale"
					}
				},
				{
					"sampler":3,
					"target":{
						"node":8,
						"path":"translation"
					}
				},
				{
					"sampler":4,
					"target":{
						"node":8,
						"path":"rotation"
					}
				}
			],
			"name":"Armature.011Action",
			"samplers":[
				{
					"input":93,
					"interpolation":"STEP",
					"output":105
				},
				{
					"input":93,
					"interpolation":"STEP",
					"output":106
				},
				{
					"input":93,
					"interpolation":"STEP",
					"output":107
				},
				{
					"input":97,
					"interpolation":"LINEAR",
					"output":108
				},
				{
					"input":97,
					"interpolation":"LINEAR",
					"output":109
				}
			]
		},
		{
			"channels":[
				{
					"sampler":0,
					"target":{
						"node":9,
						"path":"translation"
					}
				},
				{
					"sampler":1,
					"target":{
						"node":9,
						"path":"rotation"
					}
				},
				{
					"sampler":2,
					"target":{
						"node":9,
						"path":"scale"
					}
				},
				{
					"sampler":3,
					"target":{
						"node":11,
						"path":"translation"
					}
				},
				{
					"sampler":4,
					"target":{
						"node":11,
						"path":"rotation"
					}
				},
				{
					"sampler":5,
					"target":{
						"node":11,
						"path":"scale"
					}
				}
			],
			"name":"Armature.009Action.003",
			"samplers":[
				{
					"input":93,
					"interpolation":"STEP",
					"output":110
				},
				{
					"input":93,
					"interpolation":"STEP",
					"output":111
				},
				{
					"input":93,
					"interpolation":"STEP",
					"output":112
				},
				{
					"input":97,
					"interpolation":"LINEAR",
					"output":113
				},
				{
					"input":97,
					"interpolation":"LINEAR",
					"output":114
				},
				{
					"input":93,
					"interpolation":"STEP",
					"output":115
				}
			]
		},
		{
			"channels":[
				{
					"sampler":0,
					"target":{
						"node":12,
						"path":"translation"
					}
				},
				{
					"sampler":1,
					"target":{
						"node":12,
						"path":"rotation"
					}
				},
				{
					"sampler":2,
					"target":{
						"node":12,
						"path":"scale"
					}
				}
			],
			"name":"ArmatureAction",
			"samplers":[
				{
					"input":93,
					"interpolation":"STEP",
					"output":116
				},
				{
					"input":97,
					"interpolation":"LINEAR",
					"output":117
				},
				{
					"input":93,
					"interpolation":"STEP",
					"output":118
				}
			]
		},
		{
			"channels":[
				{
					"sampler":0,
					"target":{
						"node":17,
						"path":"translation"
					}
				},
				{
					"sampler":1,
					"target":{
						"node":17,
						"path":"rotation"
					}
				},
				{
					"sampler":2,
					"target":{
						"node":17,
						"path":"scale"
					}
				},
				{
					"sampler":3,
					"target":{
						"node":16,
						"path":"translation"
					}
				},
				{
					"sampler":4,
					"target":{
						"node":16,
						"path":"rotation"
					}
				},
				{
					"sampler":5,
					"target":{
						"node":16,
						"path":"scale"
					}
				},
				{
					"sampler":6,
					"target":{
						"node":15,
						"path":"translation"
					}
				},
				{
					"sampler":7,
					"target":{
						"node":15,
						"path":"rotation"
					}
				},
				{
					"sampler":8,
					"target":{
						"node":15,
						"path":"scale"
					}
				}
			],
			"name":"Armature.001Action",
			"samplers":[
				{
					"input":93,
					"interpolation":"STEP",
					"output":119
				},
				{
					"input":97,
					"interpolation":"LINEAR",
					"output":120
				},
				{
					"input":93,
					"interpolation":"STEP",
					"output":121
				},
				{
					"input":93,
					"interpolation":"STEP",
					"output":122
				},
				{
					"input":97,
					"interpolation":"LINEAR",
					"output":123
				},
				{
					"input":93,
					"interpolation":"STEP",
					"output":124
				},
				{
					"input":93,
					"interpolation":"LINEAR",
					"output":125
				},
				{
					"input":97,
					"interpolation":"LINEAR",
					"output":126
				},
				{
					"input":93,
					"interpolation":"STEP",
					"output":127
				}
			]
		},
		{
			"channels":[
				{
					"sampler":0,
					"target":{
						"node":22,
						"path":"translation"
					}
				},
				{
					"sampler":1,
					"target":{
						"node":22,
						"path":"rotation"
					}
				},
				{
					"sampler":2,
					"target":{
						"node":22,
						"path":"scale"
					}
				},
				{
					"sampler":3,
					"target":{
						"node":21,
						"path":"translation"
					}
				},
				{
					"sampler":4,
					"target":{
						"node":21,
						"path":"rotation"
					}
				},
				{
					"sampler":5,
					"target":{
						"node":21,
						"path":"scale"
					}
				},
				{
					"sampler":6,
					"target":{
						"node":20,
						"path":"translation"
					}
				},
				{
					"sampler":7,
					"target":{
						"node":20,
						"path":"rotation"
					}
				},
				{
					"sampler":8,
					"target":{
						"node":20,
						"path":"scale"
					}
				}
			],
			"name":"Armature.002Action",
			"samplers":[
				{
					"input":93,
					"interpolation":"STEP",
					"output":128
				},
				{
					"input":97,
					"interpolation":"LINEAR",
					"output":129
				},
				{
					"input":93,
					"interpolation":"STEP",
					"output":130
				},
				{
					"input":93,
					"interpolation":"STEP",
					"output":131
				},
				{
					"input":97,
					"interpolation":"LINEAR",
					"output":132
				},
				{
					"input":93,
					"interpolation":"STEP",
					"output":133
				},
				{
					"input":93,
					"interpolation":"STEP",
					"output":134
				},
				{
					"input":97,
					"interpolation":"LINEAR",
					"output":135
				},
				{
					"input":93,
					"interpolation":"STEP",
					"output":136
				}
			]
		},
		{
			"channels":[
				{
					"sampler":0,
					"target":{
						"node":25,
						"path":"translation"
					}
				},
				{
					"sampler":1,
					"target":{
						"node":25,
						"path":"rotation"
					}
				},
				{
					"sampler":2,
					"target":{
						"node":25,
						"path":"scale"
					}
				}
			],
			"name":"Armature.003Action",
			"samplers":[
				{
					"input":93,
					"interpolation":"STEP",
					"output":137
				},
				{
					"input":97,
					"interpolation":"LINEAR",
					"output":138
				},
				{
					"input":93,
					"interpolation":"STEP",
					"output":139
				}
			]
		},
		{
			"channels":[
				{
					"sampler":0,
					"target":{
						"node":28,
						"path":"translation"
					}
				},
				{
					"sampler":1,
					"target":{
						"node":28,
						"path":"rotation"
					}
				},
				{
					"sampler":2,
					"target":{
						"node":28,
						"path":"scale"
					}
				},
				{
					"sampler":3,
					"target":{
						"node":30,
						"path":"translation"
					}
				}
			],
			"name":"Armature.003Action.001",
			"samplers":[
				{
					"input":93,
					"interpolation":"STEP",
					"output":140
				},
				{
					"input":97,
					"interpolation":"LINEAR",
					"output":141
				},
				{
					"input":93,
					"interpolation":"STEP",
					"output":142
				},
				{
					"input":93,
					"interpolation":"STEP",
					"output":143
				}
			]
		},
		{
			"channels":[
				{
					"sampler":0,
					"target":{
						"node":31,
						"path":"translation"
					}
				},
				{
					"sampler":1,
					"target":{
						"node":31,
						"path":"rotation"
					}
				},
				{
					"sampler":2,
					"target":{
						"node":31,
						"path":"scale"
					}
				},
				{
					"sampler":3,
					"target":{
						"node":33,
						"path":"rotation"
					}
				}
			],
			"name":"Armature.003Action.002",
			"samplers":[
				{
					"input":93,
					"interpolation":"STEP",
					"output":144
				},
				{
					"input":97,
					"interpolation":"LINEAR",
					"output":145
				},
				{
					"input":93,
					"interpolation":"STEP",
					"output":146
				},
				{
					"input":93,
					"interpolation":"STEP",
					"output":147
				}
			]
		},
		{
			"channels":[
				{
					"sampler":0,
					"target":{
						"node":34,
						"path":"translation"
					}
				},
				{
					"sampler":1,
					"target":{
						"node":34,
						"path":"rotation"
					}
				},
				{
					"sampler":2,
					"target":{
						"node":34,
						"path":"scale"
					}
				}
			],
			"name":"Armature.003Action.005",
			"samplers":[
				{
					"input":93,
					"interpolation":"STEP",
					"output":148
				},
				{
					"input":97,
					"interpolation":"LINEAR",
					"output":149
				},
				{
					"input":93,
					"interpolation":"STEP",
					"output":150
				}
			]
		},
		{
			"channels":[
				{
					"sampler":0,
					"target":{
						"node":37,
						"path":"translation"
					}
				},
				{
					"sampler":1,
					"target":{
						"node":37,
						"path":"rotation"
					}
				},
				{
					"sampler":2,
					"target":{
						"node":37,
						"path":"scale"
					}
				}
			],
			"name":"Armature.003Action.004",
			"samplers":[
				{
					"input":93,
					"interpolation":"STEP",
					"output":151
				},
				{
					"input":97,
					"interpolation":"LINEAR",
					"output":152
				},
				{
					"input":93,
					"interpolation":"STEP",
					"output":153
				}
			]
		},
		{
			"channels":[
				{
					"sampler":0,
					"target":{
						"node":40,
						"path":"translation"
					}
				},
				{
					"sampler":1,
					"target":{
						"node":40,
						"path":"rotation"
					}
				},
				{
					"sampler":2,
					"target":{
						"node":40,
						"path":"scale"
					}
				}
			],
			"name":"Armature.003Action.003",
			"samplers":[
				{
					"input":93,
					"interpolation":"STEP",
					"output":154
				},
				{
					"input":97,
					"interpolation":"LINEAR",
					"output":155
				},
				{
					"input":93,
					"interpolation":"STEP",
					"output":156
				}
			]
		}
	],
	"materials":[
		{
			"doubleSided":true,
			"name":"Material.011",
			"pbrMetallicRoughness":{
				"baseColorTexture":{
					"index":0
				},
				"metallicFactor":0,
				"roughnessFactor":0.5
			}
		},
		{
			"doubleSided":true,
			"name":"Material.012",
			"pbrMetallicRoughness":{
				"baseColorTexture":{
					"index":1
				},
				"metallicFactor":0,
				"roughnessFactor":0.5
			}
		},
		{
			"doubleSided":true,
			"name":"Material.010",
			"pbrMetallicRoughness":{
				"baseColorTexture":{
					"index":2
				},
				"metallicFactor":0,
				"roughnessFactor":0.5
			}
		},
		{
			"doubleSided":true,
			"name":"Material.009",
			"pbrMetallicRoughness":{
				"baseColorTexture":{
					"index":3
				},
				"metallicFactor":0,
				"roughnessFactor":0.5
			}
		},
		{
			"doubleSided":true,
			"name":"Material.001",
			"pbrMetallicRoughness":{
				"baseColorTexture":{
					"index":4
				},
				"metallicFactor":0,
				"roughnessFactor":0.5
			}
		},
		{
			"doubleSided":true,
			"name":"Material.002",
			"pbrMetallicRoughness":{
				"baseColorTexture":{
					"index":5
				},
				"metallicFactor":0,
				"roughnessFactor":0.5
			}
		},
		{
			"doubleSided":true,
			"name":"Material.003",
			"pbrMetallicRoughness":{
				"baseColorTexture":{
					"index":6
				},
				"metallicFactor":0,
				"roughnessFactor":0.5
			}
		},
		{
			"doubleSided":true,
			"name":"Material.004",
			"pbrMetallicRoughness":{
				"baseColorTexture":{
					"index":7
				},
				"metallicFactor":0,
				"roughnessFactor":0.5
			}
		},
		{
			"doubleSided":true,
			"name":"Material.005",
			"pbrMetallicRoughness":{
				"baseColorTexture":{
					"index":8
				},
				"metallicFactor":0,
				"roughnessFactor":0.5
			}
		},
		{
			"doubleSided":true,
			"name":"Material.006",
			"pbrMetallicRoughness":{
				"baseColorTexture":{
					"index":9
				},
				"metallicFactor":0,
				"roughnessFactor":0.5
			}
		},
		{
			"doubleSided":true,
			"name":"Material",
			"pbrMetallicRoughness":{
				"baseColorTexture":{
					"index":10
				},
				"metallicFactor":0,
				"roughnessFactor":0.5
			}
		},
		{
			"doubleSided":true,
			"name":"Material.008",
			"pbrMetallicRoughness":{
				"baseColorTexture":{
					"index":11
				},
				"metallicFactor":0,
				"roughnessFactor":0.5
			}
		},
		{
			"doubleSided":true,
			"name":"Material.007",
			"pbrMetallicRoughness":{
				"baseColorTexture":{
					"index":12
				},
				"metallicFactor":0,
				"roughnessFactor":0.5
			}
		}
	],
	"meshes":[
		{
			"name":"Sphere.012",
			"primitives":[
				{
					"attributes":{
						"POSITION":0,
						"NORMAL":1,
						"TEXCOORD_0":2,
						"JOINTS_0":3,
						"WEIGHTS_0":4
					},
					"indices":5,
					"material":0
				}
			]
		},
		{
			"name":"Sphere.011",
			"primitives":[
				{
					"attributes":{
						"POSITION":7,
						"NORMAL":8,
						"TEXCOORD_0":9,
						"JOINTS_0":10,
						"WEIGHTS_0":11
					},
					"indices":12,
					"material":1
				}
			]
		},
		{
			"name":"Sphere.002",
			"primitives":[
				{
					"attributes":{
						"POSITION":14,
						"NORMAL":15,
						"TEXCOORD_0":16,
						"JOINTS_0":17,
						"WEIGHTS_0":18
					},
					"indices":19,
					"material":2
				}
			]
		},
		{
			"name":"Sphere.010",
			"primitives":[
				{
					"attributes":{
						"POSITION":21,
						"NORMAL":22,
						"TEXCOORD_0":23,
						"JOINTS_0":24,
						"WEIGHTS_0":25
					},
					"indices":26,
					"material":3
				}
			]
		},
		{
			"name":"Sphere.001",
			"primitives":[
				{
					"attributes":{
						"POSITION":28,
						"NORMAL":29,
						"TEXCOORD_0":30,
						"TANGENT":31,
						"JOINTS_0":32,
						"WEIGHTS_0":33
					},
					"indices":34,
					"material":4
				}
			]
		},
		{
			"name":"Sphere",
			"primitives":[
				{
					"attributes":{
						"POSITION":36,
						"NORMAL":37,
						"TEXCOORD_0":38,
						"TANGENT":39,
						"JOINTS_0":40,
						"WEIGHTS_0":41
					},
					"indices":42,
					"material":5
				}
			]
		},
		{
			"name":"Sphere.003",
			"primitives":[
				{
					"attributes":{
						"POSITION":44,
						"NORMAL":45,
						"TEXCOORD_0":46,
						"JOINTS_0":47,
						"WEIGHTS_0":48
					},
					"indices":49,
					"material":6
				}
			]
		},
		{
			"name":"Sphere.007",
			"primitives":[
				{
					"attributes":{
						"POSITION":51,
						"NORMAL":52,
						"TEXCOORD_0":53,
						"JOINTS_0":54,
						"WEIGHTS_0":55
					},
					"indices":56,
					"material":7
				}
			]
		},
		{
			"name":"Sphere.008",
			"primitives":[
				{
					"attributes":{
						"POSITION":58,
						"NORMAL":59,
						"TEXCOORD_0":60,
						"JOINTS_0":61,
						"WEIGHTS_0":62
					},
					"indices":63,
					"material":8
				}
			]
		},
		{
			"name":"Sphere.009",
			"primitives":[
				{
					"attributes":{
						"POSITION":65,
						"NORMAL":66,
						"TEXCOORD_0":67,
						"JOINTS_0":68,
						"WEIGHTS_0":69
					},
					"indices":70,
					"material":9
				}
			]
		},
		{
			"name":"Sphere.006",
			"primitives":[
				{
					"attributes":{
						"POSITION":72,
						"NORMAL":73,
						"TEXCOORD_0":74,
						"JOINTS_0":75,
						"WEIGHTS_0":76
					},
					"indices":77,
					"material":10
				}
			]
		},
		{
			"name":"Sphere.005",
			"primitives":[
				{
					"attributes":{
						"POSITION":79,
						"NORMAL":80,
						"TEXCOORD_0":81,
						"JOINTS_0":82,
						"WEIGHTS_0":83
					},
					"indices":84,
					"material":11
				}
			]
		},
		{
			"name":"Sphere.004",
			"primitives":[
				{
					"attributes":{
						"POSITION":86,
						"NORMAL":87,
						"TEXCOORD_0":88,
						"JOINTS_0":89,
						"WEIGHTS_0":90
					},
					"indices":91,
					"material":12
				}
			]
		}
	],
	"textures":[
		{
			"sampler":0,
			"source":0
		},
		{
			"sampler":0,
			"source":0
		},
		{
			"sampler":0,
			"source":0
		},
		{
			"sampler":0,
			"source":0
		},
		{
			"sampler":0,
			"source":0
		},
		{
			"sampler":0,
			"source":0
		},
		{
			"sampler":0,
			"source":0
		},
		{
			"sampler":0,
			"source":0
		},
		{
			"sampler":0,
			"source":0
		},
		{
			"sampler":0,
			"source":0
		},
		{
			"sampler":0,
			"source":0
		},
		{
			"sampler":0,
			"source":0
		},
		{
			"sampler":0,
			"source":0
		}
	],
	"images":[
		{
			"mimeType":"image/png",
			"name":"whale",
			"uri":"../../3d/models/whale/whale.png"
		}
	],
	"skins":[
		{
			"inverseBindMatrices":6,
			"joints":[
				0
			],
			"name":"Armature.009"
		},
		{
			"inverseBindMatrices":13,
			"joints":[
				3
			],
			"name":"Armature.010"
		},
		{
			"inverseBindMatrices":20,
			"joints":[
				6
			],
			"name":"Armature.011"
		},
		{
			"inverseBindMatrices":27,
			"joints":[
				9
			],
			"name":"Armature.012"
		},
		{
			"inverseBindMatrices":35,
			"joints":[
				12
			],
			"name":"Armature"
		},
		{
			"inverseBindMatrices":43,
			"joints":[
				17,
				16,
				15
			],
			"name":"Armature.001"
		},
		{
			"inverseBindMatrices":50,
			"joints":[
				22,
				21,
				20
			],
			"name":"Armature.002"
		},
		{
			"inverseBindMatrices":57,
			"joints":[
				25
			],
			"name":"Armature.003"
		},
		{
			"inverseBindMatrices":64,
			"joints":[
				28
			],
			"name":"Armature.004"
		},
		{
			"inverseBindMatrices":71,
			"joints":[
				31
			],
			"name":"Armature.005"
		},
		{
			"inverseBindMatrices":78,
			"joints":[
				34
			],
			"name":"Armature.006"
		},
		{
			"inverseBindMatrices":85,
			"joints":[
				37
			],
			"name":"Armature.007"
		},
		{
			"inverseBindMatrices":92,
			"joints":[
				40
			],
			"name":"Armature.008"
		}
	],
	"accessors":[
		{
			"bufferView":0,
			"componentType":5126,
			"count":500,
			"max":[
				5.973341941833496,
				-0.8848234415054321,
				-0.22084607183933258
			],
			"min":[
				2.5567233562469482,
				-1.4600847959518433,
				-1.0991321802139282
			],
			"type":"VEC3"
		},
		{
			"bufferView":1,
			"componentType":5126,
			"count":500,
			"type":"VEC3"
		},
		{
			"bufferView":2,
			"componentType":5126,
			"count":500,
			"type":"VEC2"
		},
		{
			"bufferView":3,
			"componentType":5121,
			"count":500,
			"type":"VEC4"
		},
		{
			"bufferView":4,
			"componentType":5126,
			"count":500,
			"type":"VEC4"
		},
		{
			"bufferView":5,
			"componentType":5123,
			"count":2208,
			"type":"SCALAR"
		},
		{
			"bufferView":6,
			"componentType":5126,
			"count":1,
			"type":"MAT4"
		},
		{
			"bufferView":7,
			"componentType":5126,
			"count":120,
			"max":[
				3.7775423526763916,
				-0.9156508445739746,
				-0.31407561898231506
			],
			"min":[
				2.332282543182373,
				-1.2771435976028442,
				-1.5779167413711548
			],
			"type":"VEC3"
		},
		{
			"bufferView":8,
			"componentType":5126,
			"count":120,
			"type":"VEC3"
		},
		{
			"bufferView":9,
			"componentType":5126,
			"count":120,
			"type":"VEC2"
		},
		{
			"bufferView":10,
			"componentType":5121,
			"count":120,
			"type":"VEC4"
		},
		{
			"bufferView":11,
			"componentType":5126,
			"count":120,
			"type":"VEC4"
		},
		{
			"bufferView":12,
			"componentType":5123,
			"count":528,
			"type":"SCALAR"
		},
		{
			"bufferView":13,
			"componentType":5126,
			"count":1,
			"type":"MAT4"
		},
		{
			"bufferView":14,
			"componentType":5126,
			"count":498,
			"max":[
				5.732556343078613,
				-0.8774513006210327,
				1.1387615203857422
			],
			"min":[
				2.5655012130737305,
				-1.4921809434890747,
				0.15776608884334564
			],
			"type":"VEC3"
		},
		{
			"bufferView":15,
			"componentType":5126,
			"count":498,
			"type":"VEC3"
		},
		{
			"bufferView":16,
			"componentType":5126,
			"count":498,
			"type":"VEC2"
		},
		{
			"bufferView":17,
			"componentType":5121,
			"count":498,
			"type":"VEC4"
		},
		{
			"bufferView":18,
			"componentType":5126,
			"count":498,
			"type":"VEC4"
		},
		{
			"bufferView":19,
			"componentType":5123,
			"count":2208,
			"type":"SCALAR"
		},
		{
			"bufferView":20,
			"componentType":5126,
			"count":1,
			"type":"MAT4"
		},
		{
			"bufferView":21,
			"componentType":5126,
			"count":160,
			"max":[
				4.186032772064209,
				-0.917872428894043,
				2.110956907272339
			],
			"min":[
				2.4637975692749023,
				-1.7184624671936035,
				0.30506429076194763
			],
			"type":"VEC3"
		},
		{
			"bufferView":22,
			"componentType":5126,
			"count":160,
			"type":"VEC3"
		},
		{
			"bufferView":23,
			"componentType":5126,
			"count":160,
			"type":"VEC2"
		},
		{
			"bufferView":24,
			"componentType":5121,
			"count":160,
			"type":"VEC4"
		},
		{
			"bufferView":25,
			"componentType":5126,
			"count":160,
			"type":"VEC4"
		},
		{
			"bufferView":26,
			"componentType":5123,
			"count":708,
			"type":"SCALAR"
		},
		{
			"bufferView":27,
			"componentType":5126,
			"count":1,
			"type":"MAT4"
		},
		{
			"bufferView":28,
			"componentType":5126,
			"count":478,
			"max":[
				3.070422649383545,
				-0.26038649678230286,
				0.49041998386383057
			],
			"min":[
				1.3956722021102905,
				-1.184774398803711,
				-0.4904199242591858
			],
			"type":"VEC3"
		},
		{
			"bufferView":29,
			"componentType":5126,
			"count":478,
			"type":"VEC3"
		},
		{
			"bufferView":30,
			"componentType":5126,
			"count":478,
			"type":"VEC2"
		},
		{
			"bufferView":31,
			"componentType":5126,
			"count":478,
			"type":"VEC4"
		},
		{
			"bufferView":32,
			"componentType":5121,
			"count":478,
			"type":"VEC4"
		},
		{
			"bufferView":33,
			"componentType":5126,
			"count":478,
			"type":"VEC4"
		},
		{
			"bufferView":34,
			"componentType":5123,
			"count":2592,
			"type":"SCALAR"
		},
		{
			"bufferView":35,
			"componentType":5126,
			"count":1,
			"type":"MAT4"
		},
		{
			"bufferView":36,
			"componentType":5126,
			"count":831,
			"max":[
				2.430377721786499,
				1.865484595298767,
				1.906842589378357
			],
			"min":[
				-1.8041603565216064,
				-1.5041760206222534,
				-1.8484938144683838
			],
			"type":"VEC3"
		},
		{
			"bufferView":37,
			"componentType":5126,
			"count":831,
			"type":"VEC3"
		},
		{
			"bufferView":38,
			"componentType":5126,
			"count":831,
			"type":"VEC2"
		},
		{
			"bufferView":39,
			"componentType":5126,
			"count":831,
			"type":"VEC4"
		},
		{
			"bufferView":40,
			"componentType":5121,
			"count":831,
			"type":"VEC4"
		},
		{
			"bufferView":41,
			"componentType":5126,
			"count":831,
			"type":"VEC4"
		},
		{
			"bufferView":42,
			"componentType":5123,
			"count":4176,
			"type":"SCALAR"
		},
		{
			"bufferView":43,
			"componentType":5126,
			"count":3,
			"type":"MAT4"
		},
		{
			"bufferView":44,
			"componentType":5126,
			"count":544,
			"max":[
				-0.7016845345497131,
				-0.3235021233558655,
				0.8289225697517395
			],
			"min":[
				-3.5125648975372314,
				-1.3026938438415527,
				-0.8289227485656738
			],
			"type":"VEC3"
		},
		{
			"bufferView":45,
			"componentType":5126,
			"count":544,
			"type":"VEC3"
		},
		{
			"bufferView":46,
			"componentType":5126,
			"count":544,
			"type":"VEC2"
		},
		{
			"bufferView":47,
			"componentType":5121,
			"count":544,
			"type":"VEC4"
		},
		{
			"bufferView":48,
			"componentType":5126,
			"count":544,
			"type":"VEC4"
		},
		{
			"bufferView":49,
			"componentType":5123,
			"count":2868,
			"type":"SCALAR"
		},
		{
			"bufferView":50,
			"componentType":5126,
			"count":3,
			"type":"MAT4"
		},
		{
			"bufferView":51,
			"componentType":5126,
			"count":429,
			"max":[
				1.784401297569275,
				-0.8275167346000671,
				1.128261923789978
			],
			"min":[
				0.8024792075157166,
				-2.170734167098999,
				0.37766698002815247
			],
			"type":"VEC3"
		},
		{
			"bufferView":52,
			"componentType":5126,
			"count":429,
			"type":"VEC3"
		},
		{
			"bufferView":53,
			"componentType":5126,
			"count":429,
			"type":"VEC2"
		},
		{
			"bufferView":54,
			"componentType":5121,
			"count":429,
			"type":"VEC4"
		},
		{
			"bufferView":55,
			"componentType":5126,
			"count":429,
			"type":"VEC4"
		},
		{
			"bufferView":56,
			"componentType":5123,
			"count":1914,
			"type":"SCALAR"
		},
		{
			"bufferView":57,
			"componentType":5126,
			"count":1,
			"type":"MAT4"
		},
		{
			"bufferView":58,
			"componentType":5126,
			"count":425,
			"max":[
				0.7460476756095886,
				-0.9272024631500244,
				1.3318758010864258
			],
			"min":[
				-0.23990556597709656,
				-2.4339916706085205,
				0.5812808275222778
			],
			"type":"VEC3"
		},
		{
			"bufferView":59,
			"componentType":5126,
			"count":425,
			"type":"VEC3"
		},
		{
			"bufferView":60,
			"componentType":5126,
			"count":425,
			"type":"VEC2"
		},
		{
			"bufferView":61,
			"componentType":5121,
			"count":425,
			"type":"VEC4"
		},
		{
			"bufferView":62,
			"componentType":5126,
			"count":425,
			"type":"VEC4"
		},
		{
			"bufferView":63,
			"componentType":5123,
			"count":1914,
			"type":"SCALAR"
		},
		{
			"bufferView":64,
			"componentType":5126,
			"count":1,
			"type":"MAT4"
		},
		{
			"bufferView":65,
			"componentType":5126,
			"count":427,
			"max":[
				-0.42211055755615234,
				-0.8202870488166809,
				1.1416131258010864
			],
			"min":[
				-1.481574296951294,
				-2.1682674884796143,
				0.3784274756908417
			],
			"type":"VEC3"
		},
		{
			"bufferView":66,
			"componentType":5126,
			"count":427,
			"type":"VEC3"
		},
		{
			"bufferView":67,
			"componentType":5126,
			"count":427,
			"type":"VEC2"
		},
		{
			"bufferView":68,
			"componentType":5121,
			"count":427,
			"type":"VEC4"
		},
		{
			"bufferView":69,
			"componentType":5126,
			"count":427,
			"type":"VEC4"
		},
		{
			"bufferView":70,
			"componentType":5123,
			"count":1914,
			"type":"SCALAR"
		},
		{
			"bufferView":71,
			"componentType":5126,
			"count":1,
			"type":"MAT4"
		},
		{
			"bufferView":72,
			"componentType":5126,
			"count":427,
			"max":[
				-0.31192901730537415,
				-0.8350090980529785,
				-0.29755836725234985
			],
			"min":[
				-1.2942373752593994,
				-2.147782802581787,
				-1.0970401763916016
			],
			"type":"VEC3"
		},
		{
			"bufferView":73,
			"componentType":5126,
			"count":427,
			"type":"VEC3"
		},
		{
			"bufferView":74,
			"componentType":5126,
			"count":427,
			"type":"VEC2"
		},
		{
			"bufferView":75,
			"componentType":5121,
			"count":427,
			"type":"VEC4"
		},
		{
			"bufferView":76,
			"componentType":5126,
			"count":427,
			"type":"VEC4"
		},
		{
			"bufferView":77,
			"componentType":5123,
			"count":1914,
			"type":"SCALAR"
		},
		{
			"bufferView":78,
			"componentType":5126,
			"count":1,
			"type":"MAT4"
		},
		{
			"bufferView":79,
			"componentType":5126,
			"count":425,
			"max":[
				0.7153782844543457,
				-0.9174758791923523,
				-0.5467002391815186
			],
			"min":[
				-0.28259819746017456,
				-2.430443286895752,
				-1.3031573295593262
			],
			"type":"VEC3"
		},
		{
			"bufferView":80,
			"componentType":5126,
			"count":425,
			"type":"VEC3"
		},
		{
			"bufferView":81,
			"componentType":5126,
			"count":425,
			"type":"VEC2"
		},
		{
			"bufferView":82,
			"componentType":5121,
			"count":425,
			"type":"VEC4"
		},
		{
			"bufferView":83,
			"componentType":5126,
			"count":425,
			"type":"VEC4"
		},
		{
			"bufferView":84,
			"componentType":5123,
			"count":1914,
			"type":"SCALAR"
		},
		{
			"bufferView":85,
			"componentType":5126,
			"count":1,
			"type":"MAT4"
		},
		{
			"bufferView":86,
			"componentType":5126,
			"count":429,
			"max":[
				1.7652112245559692,
				-0.8204820156097412,
				-0.3475213050842285
			],
			"min":[
				0.7735055088996887,
				-2.1622891426086426,
				-1.1039782762527466
			],
			"type":"VEC3"
		},
		{
			"bufferView":87,
			"componentType":5126,
			"count":429,
			"type":"VEC3"
		},
		{
			"bufferView":88,
			"componentType":5126,
			"count":429,
			"type":"VEC2"
		},
		{
			"bufferView":89,
			"componentType":5121,
			"count":429,
			"type":"VEC4"
		},
		{
			"bufferView":90,
			"componentType":5126,
			"count":429,
			"type":"VEC4"
		},
		{
			"bufferView":91,
			"componentType":5123,
			"count":1914,
			"type":"SCALAR"
		},
		{
			"bufferView":92,
			"componentType":5126,
			"count":1,
			"type":"MAT4"
		},
		{
			"bufferView":93,
			"componentType":5126,
			"count":2,
			"max":[
				2.3333333333333335
			],
			"min":[
				0.041666666666666664
			],
			"type":"SCALAR"
		},
		{
			"bufferView":94,
			"componentType":5126,
			"count":2,
			"type":"VEC3"
		},
		{
			"bufferView":95,
			"componentType":5126,
			"count":2,
			"type":"VEC4"
		},
		{
			"bufferView":96,
			"componentType":5126,
			"count":2,
			"type":"VEC3"
		},
		{
			"bufferView":97,
			"componentType":5126,
			"count":56,
			"max":[
				2.3333333333333335
			],
			"min":[
				0.041666666666666664
			],
			"type":"SCALAR"
		},
		{
			"bufferView":98,
			"componentType":5126,
			"count":56,
			"type":"VEC3"
		},
		{
			"bufferView":99,
			"componentType":5126,
			"count":56,
			"type":"VEC4"
		},
		{
			"bufferView":100,
			"componentType":5126,
			"count":2,
			"type":"VEC3"
		},
		{
			"bufferView":101,
			"componentType":5126,
			"count":2,
			"type":"VEC4"
		},
		{
			"bufferView":102,
			"componentType":5126,
			"count":2,
			"type":"VEC3"
		},
		{
			"bufferView":103,
			"componentType":5126,
			"count":56,
			"type":"VEC3"
		},
		{
			"bufferView":104,
			"componentType":5126,
			"count":56,
			"type":"VEC4"
		},
		{
			"bufferView":105,
			"componentType":5126,
			"count":2,
			"type":"VEC3"
		},
		{
			"bufferView":106,
			"componentType":5126,
			"count":2,
			"type":"VEC4"
		},
		{
			"bufferView":107,
			"componentType":5126,
			"count":2,
			"type":"VEC3"
		},
		{
			"bufferView":108,
			"componentType":5126,
			"count":56,
			"type":"VEC3"
		},
		{
			"bufferView":109,
			"componentType":5126,
			"count":56,
			"type":"VEC4"
		},
		{
			"bufferView":110,
			"componentType":5126,
			"count":2,
			"type":"VEC3"
		},
		{
			"bufferView":111,
			"componentType":5126,
			"count":2,
			"type":"VEC4"
		},
		{
			"bufferView":112,
			"componentType":5126,
			"count":2,
			"type":"VEC3"
		},
		{
			"bufferView":113,
			"componentType":5126,
			"count":56,
			"type":"VEC3"
		},
		{
			"bufferView":114,
			"componentType":5126,
			"count":56,
			"type":"VEC4"
		},
		{
			"bufferView":115,
			"componentType":5126,
			"count":2,
			"type":"VEC3"
		},
		{
			"bufferView":116,
			"componentType":5126,
			"count":2,
			"type":"VEC3"
		},
		{
			"bufferView":117,
			"componentType":5126,
			"count":56,
			"type":"VEC4"
		},
		{
			"bufferView":118,
			"componentType":5126,
			"count":2,
			"type":"VEC3"
		},
		{
			"bufferView":119,
			"componentType":5126,
			"count":2,
			"type":"VEC3"
		},
		{
			"bufferView":120,
			"componentType":5126,
			"count":56,
			"type":"VEC4"
		},
		{
			"bufferView":121,
			"componentType":5126,
			"count":2,
			"type":"VEC3"
		},
		{
			"bufferView":122,
			"componentType":5126,
			"count":2,
			"type":"VEC3"
		},
		{
			"bufferView":123,
			"componentType":5126,
			"count":56,
			"type":"VEC4"
		},
		{
			"bufferView":124,
			"componentType":5126,
			"count":2,
			"type":"VEC3"
		},
		{
			"bufferView":125,
			"componentType":5126,
			"count":2,
			"type":"VEC3"
		},
		{
			"bufferView":126,
			"componentType":5126,
			"count":56,
			"type":"VEC4"
		},
		{
			"bufferView":127,
			"componentType":5126,
			"count":2,
			"type":"VEC3"
		},
		{
			"bufferView":128,
			"componentType":5126,
			"count":2,
			"type":"VEC3"
		},
		{
			"bufferView":129,
			"componentType":5126,
			"count":56,
			"type":"VEC4"
		},
		{
			"bufferView":130,
			"componentType":5126,
			"count":2,
			"type":"VEC3"
		},
		{
			"bufferView":131,
			"componentType":5126,
			"count":2,
			"type":"VEC3"
		},
		{
			"bufferView":132,
			"componentType":5126,
			"count":56,
			"type":"VEC4"
		},
		{
			"bufferView":133,
			"componentType":5126,
			"count":2,
			"type":"VEC3"
		},
		{
			"bufferView":134,
			"componentType":5126,
			"count":2,
			"type":"VEC3"
		},
		{
			"bufferView":135,
			"componentType":5126,
			"count":56,
			"type":"VEC4"
		},
		{
			"bufferView":136,
			"componentType":5126,
			"count":2,
			"type":"VEC3"
		},
		{
			"bufferView":137,
			"componentType":5126,
			"count":2,
			"type":"VEC3"
		},
		{
			"bufferView":138,
			"componentType":5126,
			"count":56,
			"type":"VEC4"
		},
		{
			"bufferView":139,
			"componentType":5126,
			"count":2,
			"type":"VEC3"
		},
		{
			"bufferView":140,
			"componentType":5126,
			"count":2,
			"type":"VEC3"
		},
		{
			"bufferView":141,
			"componentType":5126,
			"count":56,
			"type":"VEC4"
		},
		{
			"bufferView":142,
			"componentType":5126,
			"count":2,
			"type":"VEC3"
		},
		{
			"bufferView":143,
			"componentType":5126,
			"count":2,
			"type":"VEC3"
		},
		{
			"bufferView":144,
			"componentType":5126,
			"count":2,
			"type":"VEC3"
		},
		{
			"bufferView":145,
			"componentType":5126,
			"count":56,
			"type":"VEC4"
		},
		{
			"bufferView":146,
			"componentType":5126,
			"count":2,
			"type":"VEC3"
		},
		{
			"bufferView":147,
			"componentType":5126,
			"count":2,
			"type":"VEC4"
		},
		{
			"bufferView":148,
			"componentType":5126,
			"count":2,
			"type":"VEC3"
		},
		{
			"bufferView":149,
			"componentType":5126,
			"count":56,
			"type":"VEC4"
		},
		{
			"bufferView":150,
			"componentType":5126,
			"count":2,
			"type":"VEC3"
		},
		{
			"bufferView":151,
			"componentType":5126,
			"count":2,
			"type":"VEC3"
		},
		{
			"bufferView":152,
			"componentType":5126,
			"count":56,
			"type":"VEC4"
		},
		{
			"bufferView":153,
			"componentType":5126,
			"count":2,
			"type":"VEC3"
		},
		{
			"bufferView":154,
			"componentType":5126,
			"count":2,
			"type":"VEC3"
		},
		{
			"bufferView":155,
			"componentType":5126,
			"count":56,
			"type":"VEC4"
		},
		{
			"bufferView":156,
			"componentType":5126,
			"count":2,
			"type":"VEC3"
		}
	],
	"bufferViews":[
		{
			"buffer":0,
			"byteLength":6000,
			"byteOffset":0,
			"target":34962
		},
		{
			"buffer":0,
			"byteLength":6000,
			"byteOffset":6000,
			"target":34962
		},
		{
			"buffer":0,
			"byteLength":4000,
			"byteOffset":12000,
			"target":34962
		},
		{
			"buffer":0,
			"byteLength":2000,
			"byteOffset":16000,
			"target":34962
		},
		{
			"buffer":0,
			"byteLength":8000,
			"byteOffset":18000,
			"target":34962
		},
		{
			"buffer":0,
			"byteLength":4416,
			"byteOffset":26000,
			"target":34963
		},
		{
			"buffer":0,
			"byteLength":64,
			"byteOffset":30416
		},
		{
			"buffer":0,
			"byteLength":1440,
			"byteOffset":30480,
			"target":34962
		},
		{
			"buffer":0,
			"byteLength":1440,
			"byteOffset":31920,
			"target":34962
		},
		{
			"buffer":0,
			"byteLength":960,
			"byteOffset":33360,
			"target":34962
		},
		{
			"buffer":0,
			"byteLength":480,
			"byteOffset":34320,
			"target":34962
		},
		{
			"buffer":0,
			"byteLength":1920,
			"byteOffset":34800,
			"target":34962
		},
		{
			"buffer":0,
			"byteLength":1056,
			"byteOffset":36720,
			"target":34963
		},
		{
			"buffer":0,
			"byteLength":64,
			"byteOffset":37776
		},
		{
			"buffer":0,
			"byteLength":5976,
			"byteOffset":37840,
			"target":34962
		},
		{
			"buffer":0,
			"byteLength":5976,
			"byteOffset":43816,
			"target":34962
		},
		{
			"buffer":0,
			"byteLength":3984,
			"byteOffset":49792,
			"target":34962
		},
		{
			"buffer":0,
			"byteLength":1992,
			"byteOffset":53776,
			"target":34962
		},
		{
			"buffer":0,
			"byteLength":7968,
			"byteOffset":55768,
			"target":34962
		},
		{
			"buffer":0,
			"byteLength":4416,
			"byteOffset":63736,
			"target":34963
		},
		{
			"buffer":0,
			"byteLength":64,
			"byteOffset":68152
		},
		{
			"buffer":0,
			"byteLength":1920,
			"byteOffset":68216,
			"target":34962
		},
		{
			"buffer":0,
			"byteLength":1920,
			"byteOffset":70136,
			"target":34962
		},
		{
			"buffer":0,
			"byteLength":1280,
			"byteOffset":72056,
			"target":34962
		},
		{
			"buffer":0,
			"byteLength":640,
			"byteOffset":73336,
			"target":34962
		},
		{
			"buffer":0,
			"byteLength":2560,
			"byteOffset":73976,
			"target":34962
		},
		{
			"buffer":0,
			"byteLength":1416,
			"byteOffset":76536,
			"target":34963
		},
		{
			"buffer":0,
			"byteLength":64,
			"byteOffset":77952
		},
		{
			"buffer":0,
			"byteLength":5736,
			"byteOffset":78016,
			"target":34962
		},
		{
			"buffer":0,
			"byteLength":5736,
			"byteOffset":83752,
			"target":34962
		},
		{
			"buffer":0,
			"byteLength":3824,
			"byteOffset":89488,
			"target":34962
		},
		{
			"buffer":0,
			"byteLength":7648,
			"byteOffset":93312,
			"target":34962
		},
		{
			"buffer":0,
			"byteLength":1912,
			"byteOffset":100960,
			"target":34962
		},
		{
			"buffer":0,
			"byteLength":7648,
			"byteOffset":102872,
			"target":34962
		},
		{
			"buffer":0,
			"byteLength":5184,
			"byteOffset":110520,
			"target":34963
		},
		{
			"buffer":0,
			"byteLength":64,
			"byteOffset":115704
		},
		{
			"buffer":0,
			"byteLength":9972,
			"byteOffset":115768,
			"target":34962
		},
		{
			"buffer":0,
			"byteLength":9972,
			"byteOffset":125740,
			"target":34962
		},
		{
			"buffer":0,
			"byteLength":6648,
			"byteOffset":135712,
			"target":34962
		},
		{
			"buffer":0,
			"byteLength":13296,
			"byteOffset":142360,
			"target":34962
		},
		{
			"buffer":0,
			"byteLength":3324,
			"byteOffset":155656,
			"target":34962
		},
		{
			"buffer":0,
			"byteLength":13296,
			"byteOffset":158980,
			"target":34962
		},
		{
			"buffer":0,
			"byteLength":8352,
			"byteOffset":172276,
			"target":34963
		},
		{
			"buffer":0,
			"byteLength":192,
			"byteOffset":180628
		},
		{
			"buffer":0,
			"byteLength":6528,
			"byteOffset":180820,
			"target":34962
		},
		{
			"buffer":0,
			"byteLength":6528,
			"byteOffset":187348,
			"target":34962
		},
		{
			"buffer":0,
			"byteLength":4352,
			"byteOffset":193876,
			"target":34962
		},
		{
			"buffer":0,
			"byteLength":2176,
			"byteOffset":198228,
			"target":34962
		},
		{
			"buffer":0,
			"byteLength":8704,
			"byteOffset":200404,
			"target":34962
		},
		{
			"buffer":0,
			"byteLength":5736,
			"byteOffset":209108,
			"target":34963
		},
		{
			"buffer":0,
			"byteLength":192,
			"byteOffset":214844
		},
		{
			"buffer":0,
			"byteLength":5148,
			"byteOffset":215036,
			"target":34962
		},
		{
			"buffer":0,
			"byteLength":5148,
			"byteOffset":220184,
			"target":34962
		},
		{
			"buffer":0,
			"byteLength":3432,
			"byteOffset":225332,
			"target":34962
		},
		{
			"buffer":0,
			"byteLength":1716,
			"byteOffset":228764,
			"target":34962
		},
		{
			"buffer":0,
			"byteLength":6864,
			"byteOffset":230480,
			"target":34962
		},
		{
			"buffer":0,
			"byteLength":3828,
			"byteOffset":237344,
			"target":34963
		},
		{
			"buffer":0,
			"byteLength":64,
			"byteOffset":241172
		},
		{
			"buffer":0,
			"byteLength":5100,
			"byteOffset":241236,
			"target":34962
		},
		{
			"buffer":0,
			"byteLength":5100,
			"byteOffset":246336,
			"target":34962
		},
		{
			"buffer":0,
			"byteLength":3400,
			"byteOffset":251436,
			"target":34962
		},
		{
			"buffer":0,
			"byteLength":1700,
			"byteOffset":254836,
			"target":34962
		},
		{
			"buffer":0,
			"byteLength":6800,
			"byteOffset":256536,
			"target":34962
		},
		{
			"buffer":0,
			"byteLength":3828,
			"byteOffset":263336,
			"target":34963
		},
		{
			"buffer":0,
			"byteLength":64,
			"byteOffset":267164
		},
		{
			"buffer":0,
			"byteLength":5124,
			"byteOffset":267228,
			"target":34962
		},
		{
			"buffer":0,
			"byteLength":5124,
			"byteOffset":272352,
			"target":34962
		},
		{
			"buffer":0,
			"byteLength":3416,
			"byteOffset":277476,
			"target":34962
		},
		{
			"buffer":0,
			"byteLength":1708,
			"byteOffset":280892,
			"target":34962
		},
		{
			"buffer":0,
			"byteLength":6832,
			"byteOffset":282600,
			"target":34962
		},
		{
			"buffer":0,
			"byteLength":3828,
			"byteOffset":289432,
			"target":34963
		},
		{
			"buffer":0,
			"byteLength":64,
			"byteOffset":293260
		},
		{
			"buffer":0,
			"byteLength":5124,
			"byteOffset":293324,
			"target":34962
		},
		{
			"buffer":0,
			"byteLength":5124,
			"byteOffset":298448,
			"target":34962
		},
		{
			"buffer":0,
			"byteLength":3416,
			"byteOffset":303572,
			"target":34962
		},
		{
			"buffer":0,
			"byteLength":1708,
			"byteOffset":306988,
			"target":34962
		},
		{
			"buffer":0,
			"byteLength":6832,
			"byteOffset":308696,
			"target":34962
		},
		{
			"buffer":0,
			"byteLength":3828,
			"byteOffset":315528,
			"target":34963
		},
		{
			"buffer":0,
			"byteLength":64,
			"byteOffset":319356
		},
		{
			"buffer":0,
			"byteLength":5100,
			"byteOffset":319420,
			"target":34962
		},
		{
			"buffer":0,
			"byteLength":5100,
			"byteOffset":324520,
			"target":34962
		},
		{
			"buffer":0,
			"byteLength":3400,
			"byteOffset":329620,
			"target":34962
		},
		{
			"buffer":0,
			"byteLength":1700,
			"byteOffset":333020,
			"target":34962
		},
		{
			"buffer":0,
			"byteLength":6800,
			"byteOffset":334720,
			"target":34962
		},
		{
			"buffer":0,
			"byteLength":3828,
			"byteOffset":341520,
			"target":34963
		},
		{
			"buffer":0,
			"byteLength":64,
			"byteOffset":345348
		},
		{
			"buffer":0,
			"byteLength":5148,
			"byteOffset":345412,
			"target":34962
		},
		{
			"buffer":0,
			"byteLength":5148,
			"byteOffset":350560,
			"target":34962
		},
		{
			"buffer":0,
			"byteLength":3432,
			"byteOffset":355708,
			"target":34962
		},
		{
			"buffer":0,
			"byteLength":1716,
			"byteOffset":359140,
			"target":34962
		},
		{
			"buffer":0,
			"byteLength":6864,
			"byteOffset":360856,
			"target":34962
		},
		{
			"buffer":0,
			"byteLength":3828,
			"byteOffset":367720,
			"target":34963
		},
		{
			"buffer":0,
			"byteLength":64,
			"byteOffset":371548
		},
		{
			"buffer":0,
			"byteLength":8,
			"byteOffset":371612
		},
		{
			"buffer":0,
			"byteLength":24,
			"byteOffset":371620
		},
		{
			"buffer":0,
			"byteLength":32,
			"byteOffset":371644
		},
		{
			"buffer":0,
			"byteLength":24,
			"byteOffset":371676
		},
		{
			"buffer":0,
			"byteLength":224,
			"byteOffset":371700
		},
		{
			"buffer":0,
			"byteLength":672,
			"byteOffset":371924
		},
		{
			"buffer":0,
			"byteLength":896,
			"byteOffset":372596
		},
		{
			"buffer":0,
			"byteLength":24,
			"byteOffset":373492
		},
		{
			"buffer":0,
			"byteLength":32,
			"byteOffset":373516
		},
		{
			"buffer":0,
			"byteLength":24,
			"byteOffset":373548
		},
		{
			"buffer":0,
			"byteLength":672,
			"byteOffset":373572
		},
		{
			"buffer":0,
			"byteLength":896,
			"byteOffset":374244
		},
		{
			"buffer":0,
			"byteLength":24,
			"byteOffset":375140
		},
		{
			"buffer":0,
			"byteLength":32,
			"byteOffset":375164
		},
		{
			"buffer":0,
			"byteLength":24,
			"byteOffset":375196
		},
		{
			"buffer":0,
			"byteLength":672,
			"byteOffset":375220
		},
		{
			"buffer":0,
			"byteLength":896,
			"byteOffset":375892
		},
		{
			"buffer":0,
			"byteLength":24,
			"byteOffset":376788
		},
		{
			"buffer":0,
			"byteLength":32,
			"byteOffset":376812
		},
		{
			"buffer":0,
			"byteLength":24,
			"byteOffset":376844
		},
		{
			"buffer":0,
			"byteLength":672,
			"byteOffset":376868
		},
		{
			"buffer":0,
			"byteLength":896,
			"byteOffset":377540
		},
		{
			"buffer":0,
			"byteLength":24,
			"byteOffset":378436
		},
		{
			"buffer":0,
			"byteLength":24,
			"byteOffset":378460
		},
		{
			"buffer":0,
			"byteLength":896,
			"byteOffset":378484
		},
		{
			"buffer":0,
			"byteLength":24,
			"byteOffset":379380
		},
		{
			"buffer":0,
			"byteLength":24,
			"byteOffset":379404
		},
		{
			"buffer":0,
			"byteLength":896,
			"byteOffset":379428
		},
		{
			"buffer":0,
			"byteLength":24,
			"byteOffset":380324
		},
		{
			"buffer":0,
			"byteLength":24,
			"byteOffset":380348
		},
		{
			"buffer":0,
			"byteLength":896,
			"byteOffset":380372
		},
		{
			"buffer":0,
			"byteLength":24,
			"byteOffset":381268
		},
		{
			"buffer":0,
			"byteLength":24,
			"byteOffset":381292
		},
		{
			"buffer":0,
			"byteLength":896,
			"byteOffset":381316
		},
		{
			"buffer":0,
			"byteLength":24,
			"byteOffset":382212
		},
		{
			"buffer":0,
			"byteLength":24,
			"byteOffset":382236
		},
		{
			"buffer":0,
			"byteLength":896,
			"byteOffset":382260
		},
		{
			"buffer":0,
			"byteLength":24,
			"byteOffset":383156
		},
		{
			"buffer":0,
			"byteLength":24,
			"byteOffset":383180
		},
		{
			"buffer":0,
			"byteLength":896,
			"byteOffset":383204
		},
		{
			"buffer":0,
			"byteLength":24,
			"byteOffset":384100
		},
		{
			"buffer":0,
			"byteLength":24,
			"byteOffset":384124
		},
		{
			"buffer":0,
			"byteLength":896,
			"byteOffset":384148
		},
		{
			"buffer":0,
			"byteLength":24,
			"byteOffset":385044
		},
		{
			"buffer":0,
			"byteLength":24,
			"byteOffset":385068
		},
		{
			"buffer":0,
			"byteLength":896,
			"byteOffset":385092
		},
		{
			"buffer":0,
			"byteLength":24,
			"byteOffset":385988
		},
		{
			"buffer":0,
			"byteLength":24,
			"byteOffset":386012
		},
		{
			"buffer":0,
			"byteLength":896,
			"byteOffset":386036
		},
		{
			"buffer":0,
			"byteLength":24,
			"byteOffset":386932
		},
		{
			"buffer":0,
			"byteLength":24,
			"byteOffset":386956
		},
		{
			"buffer":0,
			"byteLength":24,
			"byteOffset":386980
		},
		{
			"buffer":0,
			"byteLength":896,
			"byteOffset":387004
		},
		{
			"buffer":0,
			"byteLength":24,
			"byteOffset":387900
		},
		{
			"buffer":0,
			"byteLength":32,
			"byteOffset":387924
		},
		{
			"buffer":0,
			"byteLength":24,
			"byteOffset":387956
		},
		{
			"buffer":0,
			"byteLength":896,
			"byteOffset":387980
		},
		{
			"buffer":0,
			"byteLength":24,
			"byteOffset":388876
		},
		{
			"buffer":0,
			"byteLength":24,
			"byteOffset":388900
		},
		{
			"buffer":0,
			"byteLength":896,
			"byteOffset":388924
		},
		{
			"buffer":0,
			"byteLength":24,
			"byteOffset":389820
		},
		{
			"buffer":0,
			"byteLength":24,
			"byteOffset":389844
		},
		{
			"buffer":0,
			"byteLength":896,
			"byteOffset":389868
		},
		{
			"buffer":0,
			"byteLength":24,
			"byteOffset":390764
		}
	],
	"samplers":[
		{
			"magFilter":9729,
			"minFilter":9987
		}
	],
	"buffers":[
		{
			"byteLength":390788,
			"uri":"whaleblend-7fd66936212f658c39a7d37b344557c5.bin"
		}
	]
}
