# Blender 4.2.3 LTS
# www.blender.org
mtllib untitled_2.mtl
o Plane.002
v -0.394620 0.862806 -2.209199
v -0.766573 0.778287 -2.209199
v -0.367045 0.618445 -2.209199
v -0.734458 0.904078 -2.209199
v -0.947167 0.806654 -2.209199
v -0.950440 1.057844 -2.209199
v -0.942313 0.910960 -2.209199
v -1.094665 1.181228 -2.209199
v -1.090556 1.019486 -2.209199
v -1.111147 0.813312 -2.209199
v -1.134697 0.916559 -2.209199
v -0.579218 0.724766 -2.209199
v -0.563625 0.871742 -2.209199
v -0.652661 0.949183 -2.209199
v -0.749102 1.129019 -2.209199
v -0.681685 1.137434 -2.209199
v -0.776205 1.332576 -2.209199
v -0.629295 1.297359 -2.209199
v -1.207917 1.338930 -2.209199
v -0.903131 1.331971 -2.209199
v -1.019774 1.632970 -2.209198
v -0.878298 1.529812 -2.209199
v -0.215451 1.101146 -2.209199
v -0.735162 1.461912 -2.209199
v -0.592646 1.408400 -2.209199
v -0.099273 1.405526 -2.209199
v -0.374381 1.186607 -2.209198
v -0.292822 1.361299 -2.209199
v -1.457195 0.857110 -2.209199
v -1.449938 0.970259 -2.209199
v -1.289660 1.259650 -2.209199
v -1.285551 1.097908 -2.209199
vn -0.0000 -0.0000 1.0000
vt 1.000000 0.000000
vt 1.000000 1.000000
vt 0.000000 1.000000
vt 0.000000 0.500000
vt 0.000000 0.000000
vt 1.000000 0.500000
s 0
f 2/1/1 4/2/1 6/3/1 7/4/1 5/5/1
f 13/6/1 12/1/1 3/1/1 1/6/1
f 7/4/1 6/3/1 8/3/1 9/4/1
f 5/5/1 7/4/1 11/4/1 10/5/1
f 4/2/1 2/1/1 12/1/1 13/6/1 14/2/1
f 4/2/1 14/2/1 16/2/1 15/2/1
f 15/2/1 16/2/1 18/2/1 17/2/1
f 19/2/1 20/2/1 22/2/1 21/2/1
f 22/2/1 20/2/1 17/2/1 24/2/1
f 28/5/1 27/2/1 23/2/1 26/5/1
f 25/5/1 24/2/1 17/2/1 18/2/1
f 25/5/1 18/2/1 27/2/1 28/5/1
f 10/5/1 11/4/1 30/4/1 29/5/1
f 9/4/1 8/3/1 31/3/1 32/4/1
