# Blender 4.2.3 LTS
# www.blender.org
mtllib untitled.1.mtl
o Plane.001
v 0.421112 1.051616 -2.209199
v 0.580634 1.072271 -2.209199
v 0.383427 1.218650 -2.209198
v 0.517997 1.296621 -2.209198
v 0.145156 1.419462 -2.209198
v 0.296978 1.427529 -2.209198
v 0.510485 1.452130 -2.209198
v 0.443331 1.488374 -2.209198
v 0.574438 1.578429 -2.209198
v 0.653368 1.107197 -2.209198
v 0.618176 1.222513 -2.209198
v 0.859792 1.140579 -2.209198
vn -0.0000 -0.0000 1.0000
vt 1.000000 1.000000
s 0
f 1/1/1 2/1/1 4/1/1 3/1/1
f 3/1/1 4/1/1 6/1/1 5/1/1
f 6/1/1 4/1/1 7/1/1 8/1/1
f 8/1/1 7/1/1 9/1/1
f 4/1/1 2/1/1 10/1/1 11/1/1
f 11/1/1 10/1/1 12/1/1
