# Blender 4.2.3 LTS
# www.blender.org
mtllib untitled.mtl
o Plane
v 0.613660 0.396055 -2.209199
v 0.815539 0.321377 -2.209199
v 0.681433 0.588741 -2.209199
v 0.879462 0.535133 -2.209199
v 0.435101 0.438976 -2.209199
v 0.514098 0.663571 -2.209199
v 0.474600 0.551273 -2.209199
v 0.400798 0.801329 -2.209199
v 0.382326 0.748811 -2.209199
v 0.136841 0.439000 -2.209199
v 0.195881 0.501401 -2.209199
v 0.997888 0.183382 -2.209199
v 1.164169 0.504912 -2.209199
v 1.067528 0.345870 -2.209199
v 0.966507 0.518623 -2.209199
v 0.941234 0.705424 -2.209199
v 0.987641 0.701539 -2.209199
v 0.931866 0.844698 -2.209199
v 1.036808 0.826305 -2.209199
v 1.114876 0.095779 -2.209199
v 1.165616 0.226205 -2.209199
v 1.194656 0.028923 -2.209199
v 1.191103 0.218432 -2.209199
v 1.100494 0.511435 -2.209199
v 1.106568 0.422176 -2.209199
v 1.168091 0.447279 -2.209199
v 0.408784 0.817989 -2.209199
v 0.568154 0.857007 -2.209199
v 0.417011 1.133689 -2.209199
v 0.578986 1.073390 -2.209199
v 0.730491 0.871517 -2.209199
v 0.738104 0.979522 -2.209199
v 1.047420 0.938139 -2.209199
v 0.942130 0.944646 -2.209199
v 1.184210 0.708889 -2.209199
v 1.186244 0.950182 -2.209199
vn -0.0000 -0.0000 1.0000
vt 0.000000 0.000000
vt 1.000000 0.000000
vt 1.000000 1.000000
vt 0.000000 1.000000
vt 0.000000 0.500000
vt 1.000000 0.500000
s 0
f 1/1/1 2/2/1 4/3/1 3/4/1
f 1/1/1 3/4/1 6/4/1 7/5/1 5/1/1
f 7/5/1 6/4/1 8/4/1 9/5/1
f 5/1/1 7/5/1 11/5/1 10/1/1
f 15/3/1 14/6/1 25/1/1 24/1/1
f 4/3/1 2/2/1 12/2/1 14/6/1 15/3/1
f 4/3/1 15/3/1 17/3/1 16/3/1
f 16/3/1 17/3/1 19/3/1 18/3/1
f 14/6/1 12/2/1 20/2/1 21/6/1
f 21/6/1 20/2/1 22/2/1 23/6/1
f 24/1/1 25/1/1 26/1/1 13/1/1
f 27/3/1 28/3/1 30/3/1 29/3/1
f 30/3/1 28/3/1 31/3/1 32/3/1
f 32/3/1 31/3/1 18/3/1 34/3/1
f 33/1/1 34/3/1 18/3/1 19/3/1
f 33/1/1 19/3/1 35/3/1 36/1/1
