# Blender 4.2.3 LTS
# www.blender.org
mtllib track_2.mtl
o Cube
v -11.931499 -1.907847 -13.739924
v -12.684791 -4.721642 -14.440023
v 14.485153 -3.336442 -12.727760
v 14.496797 -4.428568 -12.725674
v -14.411243 -3.595865 12.741005
v -14.399600 -4.687991 12.743092
v 12.770344 -3.302792 14.455355
v 12.781987 -4.394917 14.457441
v -15.268734 -3.579038 26.333920
v -15.257091 -4.671164 26.336006
v 11.912853 -3.285964 28.048271
v 11.924497 -4.378090 28.050358
v 3.775146 -4.403649 69.048386
v 3.786790 -5.495774 69.050468
v 28.492167 3.589108 69.493622
v 28.503811 2.496983 69.495705
v -14.534765 7.989811 12.718870
v 12.646822 8.282885 14.433220
v -15.392256 8.006639 26.311785
v 11.789331 8.299711 28.026136
v -46.024811 -3.988864 -16.544142
v -46.013165 -5.080990 -16.542055
v -47.739624 -3.955213 10.638973
v -47.727978 -5.047339 10.641060
v -46.531517 9.696224 20.454473
v -48.585468 -5.030512 24.233976
v -32.017799 2.936687 65.677238
v -32.006157 1.844561 65.679321
v -31.925602 -2.434319 -86.190125
v -31.913958 -3.526446 -86.188034
v 20.030838 -4.477658 -52.860798
v 20.042482 -5.569784 -52.858711
v -43.795460 -4.032612 -51.883759
v -43.783813 -5.124738 -51.881672
v 76.786186 -3.934691 -29.619095
v 76.797829 -5.026817 -29.617008
v 75.071373 -3.901040 -2.435977
v 75.083015 -4.993166 -2.433891
v 44.367081 -2.936041 30.095169
v 44.378727 -4.028167 30.097256
v 64.296242 -6.338181 72.228142
v 64.307884 -7.430306 72.230232
v 69.095398 8.245825 -64.637672
v 69.107040 7.153698 -64.635590
v 15.599829 -3.358317 -30.397566
v 30.712267 -3.161481 -11.704311
v 30.723911 -4.253607 -11.702225
v 36.269592 -5.394822 -51.835266
v 20.036659 -5.023721 -52.859756
v 15.611472 -4.450442 -30.395479
v 67.980721 8.267698 -46.967861
v 76.792007 -4.480754 -29.618052
v 69.101219 7.699762 -64.636627
v 67.992363 7.175572 -46.965775
v 36.257950 -4.302696 -51.837353
v 67.986542 7.721636 -46.966820
v 31.838587 -4.275481 -29.372030
v 31.826942 -3.183355 -29.374117
v 36.263771 -4.848759 -51.836311
v 14.143072 28.749002 -12.789060
v 14.154716 27.656878 -12.786973
v 15.257748 28.727129 -30.458866
v 30.370186 28.923964 -11.765611
v 30.381830 27.831839 -11.763524
v 15.269391 27.635004 -30.456779
v 31.496506 27.809965 -29.433331
v 31.484861 28.902090 -29.435417
v -76.676697 -4.319354 -18.477365
v -76.665054 -5.411480 -18.475279
v -76.325912 9.348907 4.928333
v -78.379868 -5.377829 8.707836
v -77.183403 9.365734 18.521250
v -79.237358 -5.361002 22.300753
v -79.887466 -4.256347 32.419647
v -79.875824 -5.348473 32.421734
v -74.447350 -4.363102 -53.816982
v -74.435707 -5.455228 -53.814896
v 157.627548 -1.740934 23.591541
v 157.639191 -2.833060 23.593628
v 156.770065 -1.724107 37.184456
v 156.781708 -2.816232 37.186543
v 156.131592 -1.711577 47.305439
v 156.143234 -2.803703 47.307526
vn 0.0195 0.9993 0.0323
vn -0.3613 -0.0056 -0.9324
vn 0.0107 -0.9999 0.0019
vn 0.0320 -0.9994 -0.0158
vn 0.2977 0.9542 -0.0313
vn 0.2288 0.8392 -0.4934
vn 0.0630 -0.0012 -0.9980
vn -0.0936 0.0009 0.9956
vn -0.0008 0.9998 -0.0218
vn -0.0186 0.0017 0.9998
vn 0.1575 -0.9875 0.0043
vn -0.1575 0.9875 -0.0043
vn 0.0176 0.9455 0.3250
vn -0.0107 0.9999 -0.0019
vn -0.9980 -0.0108 -0.0629
vn 0.9980 0.0108 0.0629
vn -0.0630 0.0012 0.9980
vn 0.2377 0.9392 -0.2480
vn 0.2464 0.8353 -0.4914
vn -0.2474 0.8997 0.3596
vn -0.0382 0.9989 0.0278
vn -0.1090 -0.9871 0.1171
vn 0.0497 0.9985 -0.0222
vn 0.5401 0.0041 -0.8416
vn -0.9448 -0.0107 -0.3274
vn -0.0750 0.9972 0.0071
vn 0.3572 -0.9309 0.0758
vn -0.0188 -0.9998 0.0027
vn -0.0122 0.9995 -0.0297
vn 0.0221 -0.9971 -0.0729
vn -0.1454 -0.9839 0.1044
vn 0.0008 -0.9998 0.0218
vn 0.0113 0.9999 0.0062
vn 0.1454 0.9839 -0.1044
vn -0.0759 0.0011 0.9971
vn -0.0113 -0.9999 -0.0062
vn 0.8941 0.0087 -0.4477
vn -0.0176 -0.9455 -0.3250
vn 0.0075 -0.9987 0.0512
vn -0.3572 0.9309 -0.0758
vn -0.0075 0.9987 -0.0512
vn -0.9918 0.1143 -0.0577
vn -0.9911 0.1099 -0.0757
vn -0.9905 0.1221 -0.0626
vn -0.5701 -0.0045 0.8216
vn 0.0414 -0.9919 0.1197
vn 0.3006 0.0014 -0.9537
vn -0.0221 0.9971 0.0729
vn 0.2617 0.0046 0.9651
vn 0.0122 -0.9995 0.0297
vt 0.625000 0.500000
vt 0.875000 0.500000
vt 0.875000 0.750000
vt 0.625000 0.750000
vt 0.500000 0.750000
vt 0.125000 0.500000
vt 0.125000 0.750000
vt 0.375000 0.500000
vt 0.375000 0.750000
vt 0.625000 0.250000
vt 0.375000 0.250000
vt 0.625000 1.000000
vt 0.375000 0.000000
vt 0.625000 0.000000
vt 0.375000 1.000000
s 0
usemtl Material
f 1/1/1 5/2/1 7/3/1 3/4/1
f 59/5/2 55/4/2 43/4/2 53/5/2
f 6/6/3 8/7/3 12/7/3 10/6/3
f 6/6/3 2/8/3 4/9/3 8/7/3
f 2/8/4 22/8/4 34/8/4 30/8/4
f 13/2/5 9/2/5 25/2/5 27/2/5
f 9/10/6 5/10/6 23/10/6 25/10/6
f 7/3/7 5/2/7 17/2/7 18/3/7
f 14/11/8 13/10/8 27/10/8 28/11/8
f 7/12/9 11/12/9 39/12/9 37/12/9
f 16/13/10 15/14/10 13/10/10 14/11/10
f 10/6/11 12/7/11 16/7/11 14/6/11
f 11/3/12 9/2/12 13/2/12 15/3/12
f 58/4/13 46/4/13 35/4/13 51/4/13
f 18/3/14 17/2/14 19/2/14 20/3/14
f 5/10/15 9/10/15 19/10/15 17/10/15
f 11/12/16 7/12/16 18/12/16 20/12/16
f 9/2/17 11/3/17 20/3/17 19/2/17
f 23/2/18 21/1/18 68/1/18 70/2/18
f 25/10/19 23/10/19 70/10/19 72/10/19
f 27/2/20 25/2/20 72/2/20 74/2/20
f 2/8/3 6/6/3 24/6/3 22/8/3
f 5/2/21 1/1/21 21/1/21 23/2/21
f 6/6/3 10/6/3 26/6/3 24/6/3
f 10/6/22 14/6/22 28/6/22 26/6/22
f 1/1/23 3/4/23 45/4/23 31/4/23 29/1/23
f 30/8/24 29/1/24 31/4/24 49/5/24 32/9/24
f 29/1/25 30/8/25 34/8/25 33/1/25
f 21/1/26 1/1/26 29/1/26 33/1/26
f 57/9/27 48/9/27 44/9/27 54/9/27
f 21/1/14 33/1/14 76/1/14 68/1/14
f 4/9/28 2/8/28 30/8/28 32/9/28 50/9/28
f 36/9/16 52/5/16 35/4/16 37/12/16 38/15/16
f 37/12/29 39/12/29 80/12/29 78/12/29
f 42/7/30 40/7/30 81/7/30 83/7/30
f 56/5/16 54/9/16 44/9/16 53/5/16
f 16/7/31 12/7/31 40/7/31 42/7/31
f 12/7/32 8/7/32 38/7/32 40/7/32
f 3/4/33 7/3/33 37/3/33 35/4/33 46/4/33
f 11/3/34 15/3/34 41/3/34 39/3/34
f 15/14/35 16/13/35 42/13/35 41/14/35
f 8/7/36 4/9/36 47/9/36 36/9/36 38/7/36
f 51/4/16 56/5/16 53/5/16 43/4/16
f 35/4/37 52/5/37 56/5/37 51/4/37
f 52/5/37 36/9/37 54/9/37 56/5/37
f 47/9/38 57/9/38 54/9/38 36/9/38
f 45/4/15 3/4/15 60/4/15 62/4/15
f 50/9/39 32/9/39 48/9/39 57/9/39
f 55/4/40 58/4/40 51/4/40 43/4/40
f 31/4/41 45/4/41 58/4/41 55/4/41
f 46/4/16 58/4/16 67/4/16 63/4/16
f 48/9/2 59/5/2 53/5/2 44/9/2
f 32/9/7 49/5/7 59/5/7 48/9/7
f 49/5/7 31/4/7 55/4/7 59/5/7
f 61/9/3 65/9/3 66/9/3 64/9/3
f 62/4/14 60/4/14 63/4/14 67/4/14
f 58/4/7 45/4/7 62/4/7 67/4/7
f 50/9/17 57/9/17 66/9/17 65/9/17
f 4/9/16 50/9/16 65/9/16 61/9/16
f 3/4/17 46/4/17 63/4/17 60/4/17
f 47/9/7 4/9/7 61/9/7 64/9/7
f 57/9/15 47/9/15 64/9/15 66/9/15
f 71/11/42 70/10/42 68/1/42 69/8/42
f 72/10/43 73/11/43 75/11/43 74/10/43
f 70/10/44 71/11/44 73/11/44 72/10/44
f 69/8/15 68/1/15 76/1/15 77/8/15
f 33/1/7 34/8/7 77/8/7 76/1/7
f 22/8/3 24/6/3 71/6/3 69/8/3
f 28/11/45 27/10/45 74/10/45 75/11/45
f 34/8/3 22/8/3 69/8/3 77/8/3
f 26/6/46 28/6/46 75/6/46 73/6/46
f 24/6/3 26/6/3 73/6/3 71/6/3
f 79/15/16 78/12/16 80/12/16 81/15/16
f 81/15/16 80/12/16 82/12/16 83/15/16
f 38/15/47 37/12/47 78/12/47 79/15/47
f 39/3/48 41/3/48 82/3/48 80/3/48
f 41/14/49 42/13/49 83/13/49 82/14/49
f 40/7/50 38/7/50 79/7/50 81/7/50
