# Blender 4.2.3 LTS
# www.blender.org
mtllib untitled.mtl
o Cube
v 1.000000 -0.433084 -13.551300
v 1.000000 -1.000000 -13.535552
v 1.000000 -0.433084 0.984252
v 1.000000 -1.000000 1.000000
v -1.000000 -0.433084 -13.551300
v -1.000000 -1.000000 -13.535552
v -1.000000 -0.433084 0.984252
v -1.000000 -1.000000 1.000000
v 0.158994 1.370822 -22.550642
v 0.158994 0.803907 -22.534893
v -1.841006 1.370822 -22.550642
v -1.841006 0.803907 -22.534893
v 22.772728 -0.461441 -14.572098
v 22.772728 -1.028357 -14.556350
v 22.772728 -0.461441 -0.036546
v 22.772728 -1.028357 -0.020798
v 21.931723 1.342465 -23.571440
v 21.931723 0.775549 -23.555691
v 2.051365 -6.149169 19.205299
v 2.051365 -6.716085 19.221048
v -10.460387 -3.291127 10.094775
v 0.051365 -6.716085 19.221048
v 23.824093 -6.177526 18.184502
v 23.824093 -6.744442 18.200251
v -20.972139 -0.433084 -13.551300
v -20.972139 -1.000000 -13.535552
v -20.972139 -1.000000 1.000000
v 1.000000 13.351914 -13.551300
v 1.000000 12.784999 -13.535552
v 1.000000 13.351914 0.984252
v 1.000000 12.784999 1.000000
v -1.000000 13.351914 -13.551300
v -1.000000 12.784999 -13.535552
v -1.000000 13.351914 0.984252
v -1.000000 12.784999 1.000000
v 1.925926 1.627476 38.940849
v 1.925926 1.060561 38.956596
v -10.585827 4.485519 29.830326
v 23.698654 1.599119 37.920052
v 23.851851 33.468529 88.281677
v 71.345818 -7.883107 -17.977631
v 71.345818 -8.450023 -17.961884
v 71.345818 -7.883107 -3.442080
v 71.345818 -8.450023 -3.426332
v 70.504814 -6.079200 -26.976974
v 70.504814 -6.646116 -26.961224
v 73.133339 -2.814020 17.786198
v 72.397179 -14.166107 14.794717
v 90.850067 8.951647 -16.079327
v 90.850067 8.384732 -16.063580
v 90.850067 8.951647 -1.543776
v 90.850067 8.384732 -1.528028
v 90.009064 10.755554 -25.078671
v 90.009064 10.188639 -25.062920
v 91.901428 3.235563 16.677271
v 91.901428 2.668648 16.693020
v -7.362702 -13.969717 -96.873543
v -7.362702 -14.536633 -96.857796
v -115.640762 19.261955 45.282539
v -114.352692 20.676189 46.096443
v 11.649000 -7.808939 -98.158295
v 14.410027 -14.564989 -97.878593
v 62.983116 -21.419739 -101.299873
v 62.983116 -21.986656 -101.284126
v 82.487366 -4.584985 -99.401573
v 82.487366 -5.151900 -99.385818
v 9.460285 0.636342 -138.299133
v 9.460285 0.069427 -138.283386
v -113.143845 14.641458 52.856564
v -114.876495 20.852886 46.223183
v 31.233013 0.607985 -139.319931
v 31.233013 0.041070 -139.304184
v 79.806107 -6.813680 -142.725464
v 79.806107 -7.380597 -142.709717
v 99.310349 10.021074 -140.827164
v 99.310349 9.454159 -140.811417
v 25.093819 13.541159 -11.982204
v 25.093819 12.974242 -11.966456
v 24.252815 15.345065 -20.981546
v 73.666908 6.119493 -15.387737
v 72.825905 7.923399 -24.387081
v -61.444290 3.668087 -9.445131
v -59.711647 -2.543335 -2.811754
v 70.329704 -11.129133 103.693527
v 70.329704 -11.696049 103.709274
v 89.833954 5.705622 105.591827
v 89.833954 5.138706 105.607574
v -60.920498 3.491394 -9.571871
v -62.208569 2.077164 -10.385778
v -61.684776 1.900475 -10.512514
v -59.346207 -23.408115 12.065462
v -67.343811 -18.430439 -12.205156
v -65.993530 -26.285236 -0.017431
v -57.509384 -27.331722 43.544678
v -56.985596 -27.508411 43.417938
v -65.444786 -31.623074 30.647863
v -55.843147 -3.396973 -83.971100
v -55.319351 -3.573662 -84.097839
v -71.872223 -1.979233 82.977318
v -41.913918 -0.504012 106.199211
v -65.241806 36.205360 -107.545456
v -64.718018 36.028664 -107.672195
v -12.436911 26.413048 78.389236
v -12.436911 26.979963 78.373489
v -115.116974 19.085266 45.155800
v -112.778412 -6.223319 67.733780
v -120.776016 -1.245643 43.463158
v -119.425735 -9.100440 55.650887
v -110.417801 -10.323615 99.086250
v -118.876984 -14.438277 86.316185
v -107.827454 49.572903 -24.070992
v -107.303665 49.396214 -24.197731
v -108.591736 47.981976 -25.011635
v -108.067947 47.805279 -25.138390
v -117.226120 89.175232 -47.645348
v -116.702332 88.998535 -47.772087
v -117.990402 87.584312 -48.586006
v -117.466614 87.407616 -48.712730
vn 1.0000 -0.0000 -0.0000
vn -0.0000 -0.9542 -0.2993
vn -0.0000 -1.0000 -0.0000
vn -0.1550 0.9776 -0.1423
vn -0.0000 0.9805 0.1965
vn -0.4768 0.8764 -0.0674
vn -0.1643 -0.9439 -0.2866
vn 0.2467 -0.9135 0.3234
vn -0.0000 -0.9805 -0.1965
vn -0.1510 -0.9885 -0.0000
vn -0.9827 0.1407 0.1200
vn -0.0013 -1.0000 -0.0000
vn -0.0104 -0.9806 -0.1956
vn 0.0013 1.0000 -0.0000
vn 0.0104 0.9806 0.1956
vn -0.2162 0.7789 0.5887
vn -0.9985 0.0474 -0.0264
vn -0.0000 0.9542 0.2993
vn -0.0152 -0.9543 -0.2985
vn 0.0152 0.9543 0.2985
vn 0.1292 0.9909 0.0386
vn -0.0677 0.9934 0.0930
vn 0.0268 0.9513 0.3070
vn -0.0000 1.0000 -0.0000
vn -1.0000 -0.0000 -0.0000
vn -0.0000 -0.0000 1.0000
vn -0.0000 -0.0000 -1.0000
vn -0.0271 -0.9623 -0.2706
vn -0.0461 0.8485 -0.5271
vn 0.4311 0.8404 -0.3284
vn -0.0160 0.9302 -0.3666
vn -1.0000 -0.0002 -0.0063
vn 0.1313 -0.8743 0.4673
vn -0.6534 0.7570 -0.0000
vn 0.1912 0.9646 -0.1815
vn 0.6507 -0.7305 -0.2072
vn -0.5134 0.8581 0.0144
vn -0.1609 -0.9705 -0.1795
vn 0.0419 0.9990 0.0134
vn -0.6456 0.7582 -0.0912
vn 0.1510 0.9885 -0.0000
vn 0.9983 -0.0016 -0.0581
vn 0.9956 -0.0026 -0.0936
vn -0.4934 -0.8416 0.2196
vn -0.6507 0.7305 0.2072
vn 0.6534 -0.7570 -0.0000
vn -0.5133 0.8567 0.0510
vn 0.6450 -0.7177 -0.2624
vn -0.4636 -0.6537 -0.5981
vn -0.6535 0.7569 0.0015
vn 0.6535 -0.7569 -0.0015
vn 0.9252 0.0105 0.3794
vn -0.1329 -0.9679 0.2132
vn -0.3481 0.8944 0.2807
vn 0.9950 -0.0028 -0.1001
vn 0.0082 -0.9795 0.2013
vn 0.4113 -0.8573 -0.3096
vn 0.6456 -0.7582 0.0912
vn -0.0469 -0.0277 -0.9985
vn 0.0799 0.9855 -0.1494
vn 0.1204 -0.0276 -0.9923
vn -0.0741 -0.0277 -0.9969
vn -0.1337 0.9683 0.2110
vn 0.1352 -0.6677 0.7320
vn -0.1657 -0.9070 -0.3871
vn 0.4583 0.6561 0.5996
vn -0.0171 -0.9408 -0.3386
vn 0.2149 0.9121 0.3490
vn 0.1609 0.9705 0.1795
vn 0.0401 -0.1881 0.9813
vn 0.9827 -0.1407 -0.1200
vn -0.0401 0.1881 -0.9813
vn -0.2916 0.0266 0.9562
vn -0.1204 0.0276 0.9923
vn -1.0000 -0.0000 0.0004
vn 0.4121 0.8947 -0.1723
vn 0.9997 0.0006 0.0232
vn 0.6510 -0.7583 0.0362
vn -0.6665 -0.7266 -0.1669
vn 0.8363 0.4131 0.3605
vn -0.0588 0.9294 -0.3645
vn 0.4724 -0.6056 0.6404
vn 0.6665 0.7266 0.1669
vn -0.4724 0.6056 -0.6404
vn -0.0958 0.9225 -0.3738
vn -0.0565 -0.9347 -0.3509
vn 0.1674 -0.9821 0.0863
vn -0.2152 0.7464 -0.6298
vn -0.0881 -0.9849 0.1494
vn -0.4479 0.8171 0.3630
vn -0.1314 0.6637 -0.7364
vn -0.4496 -0.1863 -0.8736
vn 0.1971 -0.0075 0.9803
vn -0.3771 -0.8435 -0.3825
vn -0.3654 -0.5386 -0.7592
vn -0.9148 0.3976 0.0707
vn 0.9148 -0.3977 -0.0707
vn -0.0312 0.5198 -0.8537
vn -0.8510 0.1045 0.5147
vn 0.8510 -0.1045 -0.5147
vn 0.6745 0.5675 0.4722
vn -0.8363 -0.4131 -0.3605
vn -0.1240 -0.7943 0.5948
vn 0.3236 0.9460 0.0186
vn -0.0452 -0.9659 0.2548
vn 0.3693 0.9268 0.0684
vn -0.5549 -0.7789 -0.2922
vn 0.3611 -0.8258 -0.4332
vn 0.2951 0.8496 -0.4372
vn 0.3890 -0.7039 0.5943
vn -0.9415 -0.0094 -0.3369
vn -0.5870 0.7222 -0.3659
vn -0.4236 -0.0252 -0.9055
vn 0.2763 -0.8464 0.4553
vn 0.0561 0.3739 0.9258
vt 0.625000 0.750000
vt 0.625000 0.500000
vt 0.125000 0.750000
vt 0.375000 0.750000
vt 0.125000 0.500000
vt 0.875000 0.500000
vt 0.625000 1.000000
vt 0.625000 0.250000
vt 0.375000 0.250000
vt 0.375000 0.500000
vt 0.375000 1.000000
vt 0.875000 0.750000
vt 0.375000 0.000000
vt 0.625000 0.000000
vt 0.000000 0.000000
s 0
usemtl Material
f 3/1/1 1/2/1 28/2/1 30/1/1
f 8/3/2 4/4/2 20/4/2 22/3/2
f 6/5/3 8/3/3 27/3/3 26/5/3
f 8/3/1 6/5/1 33/5/1 35/3/1
f 9/2/4 17/2/4 61/2/4 57/2/4
f 5/6/5 1/2/5 9/2/5 11/6/5
f 38/7/6 21/7/6 91/7/6 96/7/6
f 24/4/7 16/4/7 44/4/7 48/4/7
f 92/8/8 11/8/8 12/9/8 5/8/8 6/9/8 26/5/8 25/8/8
f 2/10/9 6/5/9 12/5/9 10/10/9
f 16/4/10 14/10/10 42/10/10 44/4/10
f 17/2/11 13/2/11 77/2/11 79/2/11
f 4/4/12 2/10/12 14/10/12 16/4/12
f 2/10/13 10/10/13 18/10/13 14/10/13
f 1/2/14 3/1/14 15/1/14 13/2/14
f 9/2/15 1/2/15 13/2/15 17/2/15
f 20/4/16 19/1/16 21/7/16 22/11/16
f 24/4/17 23/1/17 39/1/17 40/4/17
f 3/1/18 7/12/18 21/12/18 19/1/18
f 4/4/19 16/4/19 24/4/19 20/4/19
f 15/1/20 3/1/20 19/1/20 23/1/20
f 27/13/21 21/14/21 25/8/21 26/9/21
f 7/12/22 5/6/22 25/6/22 21/12/22
f 26/5/23 6/5/23 5/8/23 12/9/23 11/8/23 25/8/23
f 28/2/24 32/6/24 34/12/24 30/1/24
f 33/5/3 29/10/3 31/4/3 35/3/3
f 2/10/25 4/4/25 31/4/25 29/10/25
f 6/5/26 2/10/26 29/10/26 33/5/26
f 4/4/27 8/3/27 35/3/27 31/4/27
f 6/9/1 5/8/1 32/8/1 33/9/1
f 5/6/25 7/12/25 34/12/25 32/6/25
f 7/12/26 3/1/26 30/1/26 34/12/26
f 7/14/25 8/13/25 35/13/25 34/14/25
f 1/2/27 5/6/27 32/6/27 28/2/27
f 8/13/28 22/13/28 21/14/28 27/13/28
f 36/1/29 37/4/29 40/4/29 39/1/29
f 19/1/30 21/7/30 38/7/30 36/1/30
f 23/1/31 19/1/31 36/1/31 39/1/31
f 19/1/32 20/4/32 37/4/32 36/1/32
f 20/4/33 24/4/33 40/4/33 37/4/33
f 41/2/34 43/1/34 51/1/34 49/2/34
f 17/2/35 45/2/35 63/2/35 61/2/35
f 42/10/36 46/10/36 54/10/36 50/10/36
f 55/1/37 47/1/37 84/1/37 86/1/37
f 14/10/38 18/10/38 46/10/38 42/10/38
f 15/1/39 23/1/39 47/1/39 43/1/39
f 45/2/40 53/2/40 65/2/40 63/2/40
f 13/2/41 15/1/41 43/1/41 41/2/41
f 52/4/42 51/1/42 55/1/42 56/4/42
f 50/10/1 49/2/1 51/1/1 52/4/1
f 49/2/43 50/10/43 54/10/43 53/2/43
f 24/4/44 48/4/44 85/4/44 40/4/44
f 45/2/45 41/2/45 49/2/45 53/2/45
f 44/4/46 42/10/46 50/10/46 52/4/46
f 43/1/47 47/1/47 55/1/47 51/1/47
f 48/4/48 44/4/48 52/4/48 56/4/48
f 68/10/49 58/10/49 98/10/49 102/10/49
f 63/2/50 65/2/50 75/2/50 73/2/50
f 66/10/51 64/10/51 74/10/51 76/10/51
f 65/2/52 66/10/52 76/10/52 75/2/52
f 46/10/53 18/10/53 62/10/53 64/10/53
f 21/14/54 25/8/54 92/8/54 91/14/54
f 53/2/55 54/10/55 66/10/55 65/2/55
f 18/10/56 10/10/56 58/10/56 62/10/56
f 27/13/57 21/14/57 91/14/57 93/13/57
f 54/10/58 46/10/58 64/10/58 66/10/58
f 68/10/59 67/2/59 71/2/59 72/10/59
f 9/2/60 57/2/60 97/2/60 82/2/60
f 74/10/61 73/2/61 75/2/61 76/10/61
f 72/10/62 71/2/62 73/2/62 74/10/62
f 57/2/63 61/2/63 71/2/63 67/2/63
f 11/6/64 9/2/64 82/2/64 89/6/64
f 64/10/65 62/10/65 72/10/65 74/10/65
f 57/2/66 67/2/66 101/2/66 97/2/66
f 62/10/67 58/10/67 68/10/67 72/10/67
f 61/2/68 63/2/68 73/2/68 71/2/68
f 79/2/69 77/2/69 80/2/69 81/2/69
f 13/2/70 41/2/70 80/2/70 77/2/70
f 41/2/71 45/2/71 81/2/71 80/2/71
f 45/2/72 17/2/72 79/2/72 81/2/72
f 40/4/73 85/4/73 84/1/73
f 84/1/74 85/4/74 87/4/74 86/1/74
f 23/1/75 24/4/75 40/1/75
f 47/1/76 23/1/76 40/1/76 84/1/76
f 56/4/77 55/1/77 86/1/77 87/4/77
f 48/4/78 56/4/78 87/4/78 85/4/78
f 98/10/79 88/10/79 60/10/79 112/10/79
f 97/2/80 101/2/80 115/2/80 111/2/80
f 94/1/81 96/7/81 110/7/81 100/1/81
f 89/6/82 82/2/82 70/2/82 59/6/82
f 82/2/83 97/2/83 111/2/83 70/2/83
f 88/10/84 90/5/84 105/5/84 60/10/84
f 94/1/85 95/4/85 109/4/85 100/1/85
f 11/6/86 5/6/86 83/6/86 89/6/86
f 37/4/87 40/4/87 100/4/87 103/4/87
f 5/6/88 25/6/88 92/6/88 83/6/88
f 58/10/89 10/10/89 88/10/89 98/10/89
f 36/1/90 38/7/90 96/7/90 94/1/90
f 10/10/91 12/5/91 90/5/91 88/10/91
f 67/2/92 68/10/92 102/10/92 101/2/92
f 12/9/93 11/8/93 89/8/93 90/9/93
f 105/9/94 59/8/94 113/8/94 114/9/94
f 114/9/95 113/8/95 117/8/95 118/9/95
f 59/6/96 70/2/96 111/2/96 113/6/96
f 60/10/97 105/5/97 114/5/97 112/10/97
f 118/9/98 117/8/98 115/2/98 116/10/98
f 113/6/99 111/2/99 115/2/99 117/6/99
f 112/10/100 114/5/100 118/5/100 116/10/100
f 96/7/101 91/7/101 106/7/101 110/7/101
f 102/10/102 98/10/102 112/10/102 116/10/102
f 101/2/103 102/10/103 116/10/103 115/2/103
f 90/9/104 89/8/104 59/8/104 105/9/104
f 83/6/84 92/6/84 107/6/84 69/6/84
f 93/13/105 91/14/105 106/14/105 108/13/105
f 91/14/106 92/8/106 107/8/106 106/14/106
f 89/6/107 83/6/107 69/6/107 59/6/107
f 104/1/108 103/4/108 100/4/108 99/1/108
f 95/4/109 94/1/109 99/1/109 100/4/109
f 94/1/110 36/1/110 104/1/110 99/1/110
f 36/1/111 37/4/111 103/4/111 104/1/111
f 37/15/112 95/15/112 100/15/112 103/15/112
f 5/8/113 11/8/113 12/9/113 6/9/113 26/9/113 25/8/113
f 69/15/114 60/15/114 70/15/114 105/9/114 59/8/114 107/6/114 92/6/114 89/8/114 90/9/114 82/15/114 83/15/114 88/15/114 26/9/114 25/8/114 12/9/114 11/8/114 6/9/114 5/8/114
f 40/4/115 100/4/115 85/4/115 84/1/115
l 14 78
