# Blender 4.2.3 LTS
# www.blender.org
mtllib untitled1.mtl
o Cube
v 10.022262 -1.169731 -10.329854
v 10.077255 -1.514783 -9.857345
v 9.139447 -1.561548 11.705947
v 9.216561 -2.045398 12.368522
v -10.086393 -1.169731 -10.329854
v -10.031404 -1.514783 -9.857345
v -19.057917 -1.561548 11.705947
v -18.980808 -2.045398 12.368522
v 29.316025 1.654072 -16.491417
v 29.393135 1.170223 -15.828844
v 29.316025 1.654074 11.705947
v 29.393135 1.170225 12.368522
v 14.192151 8.761069 18.656067
v 14.269265 8.277220 19.318642
v -14.005215 8.761069 18.656067
v -13.928104 8.277220 19.318642
v 30.817917 10.299851 -20.347788
v -42.701782 -3.487443 13.051226
v 34.368729 11.976691 18.656067
v 34.445839 11.492843 19.318642
v 7.896231 6.283057 -25.655293
v 7.951224 5.938004 -25.182785
v -12.212424 6.283057 -25.655293
v -12.157433 5.938004 -25.182785
v -33.675266 -3.440678 -8.512066
v -33.730259 -3.095626 -8.984572
v -42.624672 -3.971293 13.713802
v -37.649078 6.835175 20.001347
v -37.571968 6.351325 20.663921
v -35.856289 4.357163 -24.310013
v -35.801296 4.012111 -23.837505
v 25.325983 4.715054 48.797539
v 25.403097 4.231205 49.460117
v -2.871382 4.715054 48.797539
v -2.794271 4.231205 49.460117
v 45.502560 7.930678 48.797539
v 45.579670 7.446829 49.460117
v -26.515247 2.789159 50.142822
v -26.438137 2.305310 50.805397
v 11.147340 6.530139 -13.359393
v 11.202332 6.185088 -12.886886
v 30.441103 9.353943 -19.520956
v 30.518213 8.870094 -18.858383
v -15.207109 6.138091 16.019613
v -15.129999 5.654242 16.682190
v -10.154406 16.460709 22.969732
v -10.077295 15.976859 23.632309
v 14.998148 14.229779 -9.045724
v 15.053141 13.884727 -8.573217
v 34.291912 17.053583 -15.207289
v 34.369022 16.569733 -14.544715
v -6.440883 3.039756 -9.350956
v -6.385893 2.694705 -8.878448
v -8.566914 10.492544 -24.676395
v -8.511924 10.147493 -24.203888
v 18.004522 14.029274 18.893995
v 18.081635 13.545426 19.556570
v 38.181095 17.244898 18.893995
v 38.258205 16.761047 19.556570
v 33.024204 -1.757911 -48.341732
v 33.101315 -2.241759 -47.679161
v 34.526096 6.887867 -52.198109
v 11.604409 2.871075 -57.505611
v 11.659402 2.526022 -57.033100
v -8.504247 2.871075 -57.505611
v -8.449255 2.526022 -57.033100
v -32.148109 0.945182 -56.160332
v -32.093121 0.600127 -55.687820
v 34.149281 5.941959 -51.371273
v 34.226391 5.458111 -50.708698
v 11.604409 17.642927 -46.718414
v 11.659402 17.297874 -46.245903
v -8.504247 17.642927 -46.718414
v -8.449255 17.297874 -46.245903
vn -0.0000 0.9998 0.0178
vn 0.9495 -0.3105 -0.0453
vn 0.0817 -0.9966 0.0091
vn -0.0000 -0.9997 -0.0239
vn -0.0000 0.5585 -0.8295
vn -0.0478 0.8956 0.4422
vn -0.0936 0.5872 -0.8040
vn -0.1101 0.7596 0.6411
vn 0.1466 -0.9892 -0.0079
vn -0.1505 0.9886 0.0051
vn -0.8569 0.3637 0.3653
vn -0.0000 0.9911 0.1330
vn 0.9952 0.0326 -0.0920
vn 0.0936 -0.5872 0.8040
vn -0.9464 0.3202 0.0420
vn -0.0000 0.9943 -0.1065
vn -0.0000 -0.5585 0.8295
vn 0.9879 -0.0923 0.1249
vn 0.0872 -0.9894 0.1161
vn -0.0000 -0.8993 -0.4373
vn -0.7633 -0.5608 -0.3207
vn -0.0000 0.8993 0.4373
vn 0.1099 -0.7608 -0.6396
vn -0.9797 0.0897 0.1795
vn -0.9218 0.2541 0.2928
vn -0.0821 0.9965 -0.0157
vn 0.1546 -0.9701 -0.1873
vn -0.9601 -0.2669 -0.0832
vn 0.0478 -0.8956 -0.4422
vn -0.0000 0.8076 0.5897
vn -0.1265 0.7940 0.5946
vn -0.0319 0.8054 0.5919
vn -0.1546 0.9701 0.1873
vn 0.0712 -0.9848 -0.1585
vn -0.0712 0.9848 0.1585
vn 0.8569 -0.3637 -0.3653
vn -0.0000 -0.9911 -0.1330
vn 0.2377 0.3254 0.9152
vn 0.2445 0.3239 0.9140
vn -0.9876 0.0951 -0.1252
vn 0.3132 -0.5786 0.7531
vn -0.9083 0.2804 0.3104
vn -0.8722 0.4822 -0.0822
vn 0.3236 -0.5805 0.7472
vn 0.7425 -0.5561 -0.3734
vn 0.7209 -0.5170 -0.4615
vn 0.0081 -0.0510 0.9987
vn -0.0081 0.0510 -0.9987
vn -0.7306 0.5081 0.4561
vn 0.8973 -0.3002 -0.3237
vn 0.9956 0.0552 -0.0756
vn 0.2698 -0.7624 -0.5882
vn 0.0319 -0.8054 -0.5919
vn -0.9243 0.2489 0.2893
vn -0.0000 -0.9943 0.1065
vn -0.1439 0.9821 -0.1220
vn 0.9876 -0.0951 0.1252
vn -0.0872 0.9894 -0.1161
vn -0.9853 0.1145 -0.1270
vn 0.1607 -0.9792 0.1236
vn -0.0000 -0.8076 -0.5897
vn -0.0000 0.5897 -0.8076
vn -0.0000 -0.5897 0.8076
vn -0.9956 -0.0552 0.0756
vt 0.625000 0.500000
vt 0.875000 0.500000
vt 0.875000 0.750000
vt 0.625000 0.750000
vt 0.375000 0.750000
vt 0.375000 0.500000
vt 0.125000 0.500000
vt 0.125000 0.750000
vt 0.625000 0.000000
vt 0.375000 0.000000
vt 0.625000 0.250000
vt 0.375000 0.250000
vt 0.625000 1.000000
vt 0.375000 1.000000
s 0
usemtl Material.001
f 1/1/1 5/2/1 7/3/1 3/4/1
f 12/5/2 10/6/2 17/6/2 20/5/2
f 6/7/3 8/8/3 27/8/3 25/7/3
f 6/7/4 2/6/4 4/5/4 8/8/4
f 3/4/5 7/3/5 15/3/5 13/4/5
f 5/2/6 23/2/6 30/2/6 26/2/6
f 11/4/7 3/4/7 13/4/7 19/4/7
f 1/1/8 9/1/8 17/1/8 21/1/8
f 4/5/9 2/6/9 10/6/9 12/5/9
f 1/1/10 3/4/10 11/4/10 9/1/10
f 28/9/11 29/10/11 39/10/11 38/9/11
f 13/4/12 15/3/12 34/3/12 32/4/12
f 17/1/13 19/4/13 20/5/13
f 4/5/14 12/5/14 20/5/14 14/5/14
f 9/1/15 11/4/15 19/4/15 17/1/15
f 8/8/14 16/8/14 29/8/14 27/8/14
f 23/2/16 21/1/16 63/1/16 65/2/16
f 8/8/17 4/5/17 14/5/17 16/8/17
f 17/6/18 10/6/18 61/6/18 62/6/18
f 24/7/19 31/7/19 68/7/19 66/7/19
f 2/6/20 6/7/20 24/7/20 22/6/20
f 27/10/21 18/9/21 26/11/21 25/12/21
f 5/2/22 1/1/22 21/1/22 23/2/22
f 10/6/23 2/6/23 22/6/23 17/6/23
f 25/12/24 26/11/24 30/11/24 31/12/24
f 18/9/25 27/10/25 29/10/25 28/9/25
f 7/3/26 5/2/26 26/2/26 18/3/26
f 14/5/27 20/5/27 37/5/27 33/5/27
f 43/6/28 42/1/28 69/1/28 70/6/28
f 24/7/29 6/7/29 25/7/29 31/7/29
f 15/3/7 7/3/7 18/3/7 28/3/7
f 33/5/30 32/4/30 34/13/30 35/14/30
f 32/4/31 33/5/31 37/5/31 36/4/31
f 35/14/32 34/13/32 38/13/32 39/14/32
f 19/4/33 13/4/33 32/4/33 36/4/33
f 29/8/34 16/8/34 35/8/34 39/8/34
f 15/3/35 28/3/35 38/3/35 34/3/35
f 20/5/36 19/4/36 36/4/36 37/5/36
f 16/8/37 14/5/37 33/5/37 35/8/37
f 2/6/38 10/6/38 43/6/38 41/6/38
f 1/1/39 9/1/39 42/1/39 40/1/39
f 10/6/40 43/6/40 70/6/40 61/6/40
f 41/6/41 43/6/41 51/6/41 49/6/41
f 42/1/42 43/6/42 51/6/42 50/1/42
f 7/3/43 15/3/43 46/3/43 44/3/43
f 8/8/43 16/8/43 47/8/43 45/8/43
f 40/1/44 42/1/44 50/1/44 48/1/44
f 6/7/45 24/7/45 55/7/45 53/7/45
f 5/2/45 23/2/45 54/2/45 52/2/45
f 24/12/46 23/11/46 54/11/46 55/12/46
f 13/4/47 19/4/47 58/4/47 56/4/47
f 20/5/48 14/5/48 57/5/48 59/5/48
f 19/4/49 20/5/49 59/5/49 58/4/49
f 61/6/50 60/1/50 62/6/50
f 66/12/51 65/11/51 73/11/51 74/12/51
f 64/6/52 63/1/52 62/6/52
f 65/11/53 66/12/53 68/12/53 67/11/53
f 60/1/54 61/6/54 70/6/54 69/1/54
f 22/6/55 24/7/55 66/7/55 64/6/55
f 31/12/28 30/11/28 67/11/28 68/12/28
f 21/1/56 17/1/56 62/1/56 63/1/56
f 42/1/57 9/1/57 60/1/57 69/1/57
f 30/2/58 23/2/58 65/2/58 67/2/58
f 9/1/59 17/1/59 62/1/59 60/1/59
f 17/6/60 22/6/60 64/6/60 62/6/60
f 74/12/61 73/11/61 71/1/61 72/6/61
f 64/6/62 66/7/62 74/7/62 72/6/62
f 65/2/63 63/1/63 71/1/63 73/2/63
f 63/1/64 64/6/64 72/6/64 71/1/64
