# Blender 4.2.3 LTS
# www.blender.org
mtllib fountain.mtl
o Cylinder
v 0.000000 -1.000000 -1.000000
v 0.000000 -0.574818 -1.000000
v 0.195090 -1.000000 -0.980785
v 0.195090 -0.574818 -0.980785
v 0.382683 -1.000000 -0.923880
v 0.382683 -0.574818 -0.923880
v 0.555570 -1.000000 -0.831470
v 0.555570 -0.574818 -0.831470
v 0.707107 -1.000000 -0.707107
v 0.707107 -0.574818 -0.707107
v 0.831470 -1.000000 -0.555570
v 0.831470 -0.574818 -0.555570
v 0.923880 -1.000000 -0.382683
v 0.923880 -0.574818 -0.382683
v 0.980785 -1.000000 -0.195090
v 0.980785 -0.574818 -0.195090
v 1.000000 -1.000000 0.000000
v 1.000000 -0.574818 0.000000
v 0.980785 -1.000000 0.195090
v 0.980785 -0.574818 0.195090
v 0.923880 -1.000000 0.382683
v 0.923880 -0.574818 0.382683
v 0.831470 -1.000000 0.555570
v 0.831470 -0.574818 0.555570
v 0.707107 -1.000000 0.707107
v 0.707107 -0.574818 0.707107
v 0.555570 -1.000000 0.831470
v 0.555570 -0.574818 0.831470
v 0.382683 -1.000000 0.923880
v 0.382683 -0.574818 0.923880
v 0.195090 -1.000000 0.980785
v 0.195090 -0.574818 0.980785
v 0.000000 -1.000000 1.000000
v 0.000000 -0.574818 1.000000
v -0.195090 -1.000000 0.980785
v -0.195090 -0.574818 0.980785
v -0.382683 -1.000000 0.923880
v -0.382683 -0.574818 0.923880
v -0.555570 -1.000000 0.831470
v -0.555570 -0.574818 0.831470
v -0.707107 -1.000000 0.707107
v -0.707107 -0.574818 0.707107
v -0.831470 -1.000000 0.555570
v -0.831470 -0.574818 0.555570
v -0.923880 -1.000000 0.382683
v -0.923880 -0.574818 0.382683
v -0.980785 -1.000000 0.195090
v -0.980785 -0.574818 0.195090
v -1.000000 -1.000000 0.000000
v -1.000000 -0.574818 0.000000
v -0.980785 -1.000000 -0.195090
v -0.980785 -0.574818 -0.195090
v -0.923880 -1.000000 -0.382683
v -0.923880 -0.574818 -0.382683
v -0.831470 -1.000000 -0.555570
v -0.831470 -0.574818 -0.555570
v -0.707107 -1.000000 -0.707107
v -0.707107 -0.574818 -0.707107
v -0.555570 -1.000000 -0.831470
v -0.555570 -0.574818 -0.831470
v -0.382683 -1.000000 -0.923880
v -0.382683 -0.574818 -0.923880
v -0.195090 -1.000000 -0.980785
v -0.195090 -0.574818 -0.980785
v -0.000000 -0.574818 -3.352566
v 0.654053 -0.574818 -3.288148
v 1.282972 -0.574818 -3.097368
v 1.862586 -0.574818 -2.787557
v 2.370622 -0.574818 -2.370622
v 2.787557 -0.574818 -1.862586
v 3.097368 -0.574818 -1.282972
v 3.288148 -0.574818 -0.654053
v 3.352566 -0.574818 0.000000
v 3.288148 -0.574818 0.654053
v 3.097368 -0.574818 1.282972
v 2.787557 -0.574818 1.862586
v 2.370622 -0.574818 2.370622
v 1.862586 -0.574818 2.787557
v 1.282972 -0.574818 3.097368
v 0.654053 -0.574818 3.288148
v -0.000000 -0.574818 3.352566
v -0.654053 -0.574818 3.288148
v -1.282972 -0.574818 3.097368
v -1.862586 -0.574818 2.787557
v -2.370622 -0.574818 2.370622
v -2.787557 -0.574818 1.862586
v -3.097368 -0.574818 1.282972
v -3.288148 -0.574818 0.654053
v -3.352566 -0.574818 0.000000
v -3.288148 -0.574818 -0.654053
v -3.097368 -0.574818 -1.282972
v -2.787557 -0.574818 -1.862586
v -2.370622 -0.574818 -2.370622
v -1.862586 -0.574818 -2.787557
v -1.282972 -0.574818 -3.097368
v -0.654053 -0.574818 -3.288148
v -0.000000 0.102354 -4.364403
v 0.851453 0.102354 -4.280542
v 1.670185 0.102354 -4.032183
v 2.424732 0.102354 -3.628869
v 3.086099 0.102354 -3.086099
v 3.628869 0.102354 -2.424732
v 4.032183 0.102354 -1.670185
v 4.280543 0.102354 -0.851453
v 4.364403 0.102354 0.000000
v 4.280543 0.102354 0.851453
v 4.032183 0.102354 1.670185
v 3.628869 0.102354 2.424733
v 3.086099 0.102354 3.086099
v 2.424732 0.102354 3.628869
v 1.670185 0.102354 4.032183
v 0.851453 0.102354 4.280542
v -0.000000 0.102354 4.364403
v -0.851453 0.102354 4.280542
v -1.670185 0.102354 4.032183
v -2.424732 0.102354 3.628869
v -3.086099 0.102354 3.086099
v -3.628868 0.102354 2.424733
v -4.032183 0.102354 1.670185
v -4.280542 0.102354 0.851453
v -4.364403 0.102354 0.000000
v -4.280542 0.102354 -0.851453
v -4.032183 0.102354 -1.670185
v -3.628868 0.102354 -2.424732
v -3.086099 0.102354 -3.086099
v -2.424732 0.102354 -3.628869
v -1.670185 0.102354 -4.032183
v -0.851453 0.102354 -4.280542
v -0.000000 0.905511 -5.537547
v 1.080322 0.905511 -5.431145
v 2.119128 0.905511 -5.116027
v 3.076496 0.905511 -4.604302
v 3.915637 0.905511 -3.915637
v 4.604302 0.905511 -3.076496
v 5.116027 0.905511 -2.119128
v 5.431145 0.905511 -1.080322
v 5.537547 0.905511 0.000000
v 5.431145 0.905511 1.080322
v 5.116027 0.905511 2.119128
v 4.604302 0.905511 3.076496
v 3.915637 0.905511 3.915637
v 3.076496 0.905511 4.604302
v 2.119128 0.905511 5.116027
v 1.080322 0.905511 5.431145
v -0.000000 0.905511 5.537547
v -1.080322 0.905511 5.431145
v -2.119128 0.905511 5.116027
v -3.076496 0.905511 4.604302
v -3.915637 0.905511 3.915637
v -4.604302 0.905511 3.076496
v -5.116026 0.905511 2.119128
v -5.431144 0.905511 1.080322
v -5.537547 0.905511 0.000000
v -5.431144 0.905511 -1.080322
v -5.116026 0.905511 -2.119128
v -4.604302 0.905511 -3.076496
v -3.915637 0.905511 -3.915637
v -3.076496 0.905511 -4.604302
v -2.119128 0.905511 -5.116027
v -1.080322 0.905511 -5.431145
v -0.000000 1.907095 -6.020368
v 1.174515 1.907095 -5.904688
v 2.303895 1.907095 -5.562095
v 3.344737 1.907095 -5.005754
v 4.257042 1.907095 -4.257043
v 5.005753 1.907095 -3.344737
v 5.562095 1.907095 -2.303895
v 5.904689 1.907095 -1.174515
v 6.020368 1.907095 0.000000
v 5.904689 1.907095 1.174515
v 5.562095 1.907095 2.303895
v 5.005753 1.907095 3.344737
v 4.257042 1.907095 4.257043
v 3.344737 1.907095 5.005753
v 2.303895 1.907095 5.562095
v 1.174515 1.907095 5.904688
v -0.000000 1.907095 6.020368
v -1.174515 1.907095 5.904688
v -2.303895 1.907095 5.562095
v -3.344737 1.907095 5.005753
v -4.257043 1.907095 4.257043
v -5.005753 1.907095 3.344737
v -5.562095 1.907095 2.303895
v -5.904687 1.907095 1.174515
v -6.020368 1.907095 0.000000
v -5.904687 1.907095 -1.174515
v -5.562095 1.907095 -2.303895
v -5.005753 1.907095 -3.344737
v -4.257043 1.907095 -4.257043
v -3.344737 1.907095 -5.005754
v -2.303895 1.907095 -5.562095
v -1.174515 1.907095 -5.904688
v -0.000000 2.436234 -5.892403
v 1.149551 2.436234 -5.779182
v 2.254925 2.436234 -5.443871
v 3.273644 2.436234 -4.899354
v 4.166558 2.436234 -4.166558
v 4.899354 2.436234 -3.273643
v 5.443871 2.436234 -2.254925
v 5.779183 2.436234 -1.149551
v 5.892403 2.436234 0.000000
v 5.779183 2.436234 1.149551
v 5.443871 2.436234 2.254925
v 4.899354 2.436234 3.273644
v 4.166558 2.436234 4.166558
v 3.273644 2.436234 4.899354
v 2.254925 2.436234 5.443871
v 1.149551 2.436234 5.779182
v -0.000000 2.436234 5.892403
v -1.149551 2.436234 5.779182
v -2.254925 2.436234 5.443871
v -3.273643 2.436234 4.899354
v -4.166558 2.436234 4.166558
v -4.899354 2.436234 3.273644
v -5.443871 2.436234 2.254925
v -5.779181 2.436234 1.149551
v -5.892403 2.436234 0.000000
v -5.779181 2.436234 -1.149551
v -5.443871 2.436234 -2.254925
v -4.899354 2.436234 -3.273643
v -4.166558 2.436234 -4.166558
v -3.273643 2.436234 -4.899354
v -2.254925 2.436234 -5.443871
v -1.149551 2.436234 -5.779182
v -0.000000 2.572298 -5.435900
v 1.060492 2.572298 -5.331451
v 2.080229 2.572298 -5.022118
v 3.020024 2.572298 -4.519786
v 3.843762 2.572298 -3.843762
v 4.519786 2.572298 -3.020024
v 5.022118 2.572298 -2.080229
v 5.331452 2.572298 -1.060492
v 5.435900 2.572298 0.000000
v 5.331452 2.572298 1.060492
v 5.022118 2.572298 2.080229
v 4.519786 2.572298 3.020025
v 3.843762 2.572298 3.843762
v 3.020024 2.572298 4.519786
v 2.080229 2.572298 5.022118
v 1.060492 2.572298 5.331451
v -0.000000 2.572298 5.435900
v -1.060492 2.572298 5.331451
v -2.080229 2.572298 5.022118
v -3.020024 2.572298 4.519786
v -3.843762 2.572298 3.843762
v -4.519786 2.572298 3.020025
v -5.022117 2.572298 2.080229
v -5.331450 2.572298 1.060492
v -5.435900 2.572298 0.000000
v -5.331450 2.572298 -1.060492
v -5.022117 2.572298 -2.080229
v -4.519786 2.572298 -3.020024
v -3.843762 2.572298 -3.843762
v -3.020024 2.572298 -4.519786
v -2.080229 2.572298 -5.022118
v -1.060492 2.572298 -5.331451
v -0.000000 1.601580 -5.443549
v 1.068128 1.601580 -5.338348
v 2.095209 1.601580 -5.026786
v 3.041772 1.601580 -4.520838
v 3.871441 1.601580 -3.839946
v 4.552334 1.601580 -3.010276
v 5.058283 1.601580 -2.063713
v 5.369845 1.601580 -1.036632
v 5.475045 1.601580 0.031496
v 5.369845 1.601580 1.099625
v 5.058283 1.601580 2.126706
v 4.552334 1.601580 3.073269
v 3.871441 1.601580 3.902938
v 3.041772 1.601580 4.583830
v 2.095209 1.601580 5.089779
v 1.068128 1.601580 5.401341
v -0.000000 1.601580 5.506542
v -1.068128 1.601580 5.401341
v -2.095209 1.601580 5.089779
v -3.041772 1.601580 4.583830
v -3.871442 1.601580 3.902938
v -4.552334 1.601580 3.073269
v -5.058282 1.601580 2.126706
v -5.369843 1.601580 1.099625
v -5.475045 1.601580 0.031496
v -5.369843 1.601580 -1.036632
v -5.058282 1.601580 -2.063713
v -4.552334 1.601580 -3.010276
v -3.871442 1.601580 -3.839946
v -3.041772 1.601580 -4.520838
v -2.095209 1.601580 -5.026786
v -1.068128 1.601580 -5.338348
v 0.000000 0.908660 -4.946712
v 0.971200 0.908660 -4.851058
v 1.905078 0.908660 -4.567769
v 2.765745 0.908660 -4.107733
v 3.520125 0.908660 -3.488629
v 4.139229 0.908660 -2.734248
v 4.599266 0.908660 -1.873582
v 4.882555 0.908660 -0.939704
v 4.978209 0.908660 0.031496
v 4.882555 0.908660 1.002697
v 4.599266 0.908660 1.936574
v 4.139229 0.908660 2.797241
v 3.520125 0.908660 3.551622
v 2.765745 0.908660 4.170726
v 1.905078 0.908660 4.630762
v 0.971200 0.908660 4.914051
v 0.000000 0.908660 5.009706
v -0.971200 0.908660 4.914051
v -1.905078 0.908660 4.630762
v -2.765744 0.908660 4.170726
v -3.520125 0.908660 3.551622
v -4.139229 0.908660 2.797241
v -4.599265 0.908660 1.936574
v -4.882554 0.908660 1.002697
v -4.978209 0.908660 0.031496
v -4.882554 0.908660 -0.939704
v -4.599265 0.908660 -1.873582
v -4.139229 0.908660 -2.734248
v -3.520125 0.908660 -3.488629
v -2.765744 0.908660 -4.107733
v -1.905078 0.908660 -4.567769
v -0.971200 0.908660 -4.851058
v 0.000000 0.215740 -3.850750
v 0.757389 0.215740 -3.776154
v 1.485671 0.215740 -3.555232
v 2.156861 0.215740 -3.196474
v 2.745162 0.215740 -2.713666
v 3.227970 0.215740 -2.125364
v 3.586729 0.215740 -1.454175
v 3.807651 0.215740 -0.725892
v 3.882246 0.215740 0.031496
v 3.807651 0.215740 0.788885
v 3.586729 0.215740 1.517168
v 3.227970 0.215740 2.188357
v 2.745162 0.215740 2.776659
v 2.156861 0.215740 3.259466
v 1.485671 0.215740 3.618225
v 0.757389 0.215740 3.839147
v 0.000000 0.215740 3.913743
v -0.757389 0.215740 3.839147
v -1.485672 0.215740 3.618225
v -2.156860 0.215740 3.259466
v -2.745163 0.215740 2.776659
v -3.227970 0.215740 2.188357
v -3.586728 0.215740 1.517168
v -3.807650 0.215740 0.788885
v -3.882246 0.215740 0.031496
v -3.807650 0.215740 -0.725892
v -3.586728 0.215740 -1.454175
v -3.227970 0.215740 -2.125364
v -2.745163 0.215740 -2.713666
v -2.156860 0.215740 -3.196474
v -1.485672 0.215740 -3.555232
v -0.757389 0.215740 -3.776154
v 0.000000 -0.319698 -2.254975
v 0.446069 -0.319698 -2.211041
v 0.874995 -0.319698 -2.080928
v 1.270296 -0.319698 -1.869635
v 1.616779 -0.319698 -1.585283
v 1.901132 -0.319698 -1.238799
v 2.112425 -0.319698 -0.843498
v 2.242538 -0.319698 -0.414572
v 2.286472 -0.319698 0.031496
v 2.242538 -0.319698 0.477565
v 2.112425 -0.319698 0.906491
v 1.901132 -0.319698 1.301792
v 1.616779 -0.319698 1.648276
v 1.270296 -0.319698 1.932628
v 0.874995 -0.319698 2.143921
v 0.446069 -0.319698 2.274035
v 0.000000 -0.319698 2.317968
v -0.446068 -0.319698 2.274035
v -0.874995 -0.319698 2.143921
v -1.270296 -0.319698 1.932628
v -1.616780 -0.319698 1.648276
v -1.901132 -0.319698 1.301792
v -2.112424 -0.319698 0.906491
v -2.242537 -0.319698 0.477565
v -2.286471 -0.319698 0.031496
v -2.242537 -0.319698 -0.414572
v -2.112424 -0.319698 -0.843498
v -1.901132 -0.319698 -1.238799
v -1.616780 -0.319698 -1.585283
v -1.270296 -0.319698 -1.869635
v -0.874995 -0.319698 -2.080928
v -0.446068 -0.319698 -2.211041
v 0.000000 -0.288202 -0.864468
v 0.342871 -0.288202 -0.796267
v 0.633543 -0.288202 -0.602046
v 0.827764 -0.288202 -0.311374
v 0.895965 -0.288202 0.031496
v 0.827764 -0.288202 0.374367
v 0.633543 -0.288202 0.665039
v 0.342871 -0.288202 0.859260
v 0.000000 -0.288202 0.927461
v -0.342871 -0.288202 0.859260
v -0.633542 -0.288202 0.665039
v -0.827763 -0.288202 0.374367
v -0.895964 -0.288202 0.031496
v -0.827763 -0.288202 -0.311374
v -0.633542 -0.288202 -0.602046
v -0.342871 -0.288202 -0.796267
v 0.140076 3.192147 -0.672711
v 0.398902 3.192147 -0.565502
v 0.596999 3.192147 -0.367405
v 0.704208 3.192147 -0.108579
v 0.704208 3.192147 0.171572
v 0.596999 3.192147 0.430398
v 0.398902 3.192147 0.628495
v 0.140076 3.192147 0.735704
v -0.140075 3.192147 0.735704
v -0.398901 3.192147 0.628495
v -0.596998 3.192147 0.430398
v -0.704208 3.192147 0.171572
v -0.704208 3.192147 -0.108579
v -0.596998 3.192147 -0.367405
v -0.398901 3.192147 -0.565502
v -0.140075 3.192147 -0.672711
v 0.000000 3.491362 -1.636697
v 0.325449 3.491362 -1.604643
v 0.638390 3.491362 -1.509714
v 0.926799 3.491362 -1.355556
v 1.179591 3.491362 -1.148095
v 1.387052 3.491362 -0.895302
v 1.541210 3.491362 -0.606894
v 1.636140 3.491362 -0.293952
v 1.668194 3.491362 0.031496
v 1.636140 3.491362 0.356945
v 1.541210 3.491362 0.669886
v 1.387052 3.491362 0.958295
v 1.179591 3.491362 1.211087
v 0.926799 3.491362 1.418549
v 0.638390 3.491362 1.572706
v 0.325449 3.491362 1.667636
v 0.000000 3.491362 1.699690
v -0.325448 3.491362 1.667636
v -0.638390 3.491362 1.572706
v -0.926798 3.491362 1.418549
v -1.179591 3.491362 1.211087
v -1.387052 3.491362 0.958295
v -1.541210 3.491362 0.669886
v -1.636140 3.491362 0.356945
v -1.668193 3.491362 0.031496
v -1.636140 3.491362 -0.293952
v -1.541210 3.491362 -0.606894
v -1.387052 3.491362 -0.895302
v -1.179591 3.491362 -1.148095
v -0.926798 3.491362 -1.355556
v -0.638390 3.491362 -1.509714
v -0.325448 3.491362 -1.604643
v 0.000000 3.837822 -2.512717
v 0.496352 3.837822 -2.463831
v 0.973628 3.837822 -2.319050
v 1.413489 3.837822 -2.083940
v 1.799030 3.837822 -1.767534
v 2.115436 3.837822 -1.381993
v 2.350547 3.837822 -0.942132
v 2.495327 3.837822 -0.464855
v 2.544213 3.837822 0.031496
v 2.495327 3.837822 0.527848
v 2.350547 3.837822 1.005125
v 2.115436 3.837822 1.444986
v 1.799030 3.837822 1.830527
v 1.413489 3.837822 2.146932
v 0.973628 3.837822 2.382043
v 0.496352 3.837822 2.526824
v 0.000000 3.837822 2.575709
v -0.496351 3.837822 2.526824
v -0.973628 3.837822 2.382043
v -1.413489 3.837822 2.146932
v -1.799030 3.837822 1.830527
v -2.115436 3.837822 1.444986
v -2.350547 3.837822 1.005125
v -2.495327 3.837822 0.527848
v -2.544213 3.837822 0.031496
v -2.495327 3.837822 -0.464855
v -2.350547 3.837822 -0.942132
v -2.115436 3.837822 -1.381993
v -1.799030 3.837822 -1.767534
v -1.413489 3.837822 -2.083940
v -0.973628 3.837822 -2.319050
v -0.496351 3.837822 -2.463831
v 0.000000 4.089794 -3.835204
v 0.754356 4.089794 -3.760906
v 1.479722 4.089794 -3.540869
v 2.148223 4.089794 -3.183547
v 2.734169 4.089794 -2.702673
v 3.215043 4.089794 -2.116727
v 3.572365 4.089794 -1.448226
v 3.792403 4.089794 -0.722859
v 3.866699 4.089794 0.031496
v 3.792403 4.089794 0.785852
v 3.572365 4.089794 1.511218
v 3.215043 4.089794 2.179720
v 2.734169 4.089794 2.765666
v 2.148223 4.089794 3.246540
v 1.479722 4.089794 3.603861
v 0.754356 4.089794 3.823899
v 0.000000 4.089794 3.898196
v -0.754355 4.089794 3.823899
v -1.479722 4.089794 3.603861
v -2.148223 4.089794 3.246540
v -2.734170 4.089794 2.765666
v -3.215043 4.089794 2.179720
v -3.572365 4.089794 1.511218
v -3.792402 4.089794 0.785852
v -3.866699 4.089794 0.031496
v -3.792402 4.089794 -0.722859
v -3.572365 4.089794 -1.448226
v -3.215043 4.089794 -2.116727
v -2.734170 4.089794 -2.702673
v -2.148223 4.089794 -3.183547
v -1.479722 4.089794 -3.540869
v -0.754355 4.089794 -3.760906
v 0.000000 4.562239 -4.533546
v 0.890596 4.562239 -4.445830
v 1.746966 4.562239 -4.186052
v 2.536201 4.562239 -3.764197
v 3.227971 4.562239 -3.196476
v 3.795693 4.562239 -2.504704
v 4.217549 4.562239 -1.715469
v 4.477326 4.562239 -0.859099
v 4.565041 4.562239 0.031496
v 4.477326 4.562239 0.922092
v 4.217549 4.562239 1.778462
v 3.795693 4.562239 2.567698
v 3.227971 4.562239 3.259468
v 2.536201 4.562239 3.827189
v 1.746966 4.562239 4.249045
v 0.890596 4.562239 4.508822
v 0.000000 4.562239 4.596538
v -0.890595 4.562239 4.508822
v -1.746966 4.562239 4.249045
v -2.536201 4.562239 3.827189
v -3.227972 4.562239 3.259468
v -3.795693 4.562239 2.567698
v -4.217548 4.562239 1.778462
v -4.477325 4.562239 0.922092
v -4.565041 4.562239 0.031496
v -4.477325 4.562239 -0.859099
v -4.217548 4.562239 -1.715469
v -3.795693 4.562239 -2.504704
v -3.227972 4.562239 -3.196476
v -2.536201 4.562239 -3.764197
v -1.746966 4.562239 -4.186052
v -0.890595 4.562239 -4.445830
v 0.000000 4.924447 -4.721708
v 0.927304 4.924447 -4.630376
v 1.818972 4.924447 -4.359891
v 2.640738 4.924447 -3.920648
v 3.361022 4.924447 -3.329526
v 3.952144 4.924447 -2.609242
v 4.391388 4.924447 -1.787476
v 4.661873 4.924447 -0.895808
v 4.753203 4.924447 0.031496
v 4.661873 4.924447 0.958801
v 4.391388 4.924447 1.850469
v 3.952144 4.924447 2.672235
v 3.361022 4.924447 3.392519
v 2.640738 4.924447 3.983640
v 1.818972 4.924447 4.422884
v 0.927304 4.924447 4.693369
v 0.000000 4.924447 4.784699
v -0.927304 4.924447 4.693369
v -1.818972 4.924447 4.422884
v -2.640738 4.924447 3.983640
v -3.361023 4.924447 3.392519
v -3.952144 4.924447 2.672235
v -4.391387 4.924447 1.850469
v -4.661872 4.924447 0.958801
v -4.753203 4.924447 0.031496
v -4.661872 4.924447 -0.895808
v -4.391387 4.924447 -1.787476
v -3.952144 4.924447 -2.609242
v -3.361023 4.924447 -3.329526
v -2.640738 4.924447 -3.920648
v -1.818972 4.924447 -4.359891
v -0.927304 4.924447 -4.630376
v 0.000000 5.176418 -4.391978
v 0.862977 5.176418 -4.306982
v 1.692790 5.176418 -4.055260
v 2.457550 5.176418 -3.646487
v 3.127867 5.176418 -3.096372
v 3.677983 5.176418 -2.426053
v 4.086757 5.176418 -1.661294
v 4.338478 5.176418 -0.831480
v 4.423472 5.176418 0.031496
v 4.338478 5.176418 0.894473
v 4.086757 5.176418 1.724286
v 3.677983 5.176418 2.489047
v 3.127867 5.176418 3.159364
v 2.457550 5.176418 3.709480
v 1.692790 5.176418 4.118253
v 0.862977 5.176418 4.369974
v 0.000000 5.176418 4.454969
v -0.862977 5.176418 4.369974
v -1.692790 5.176418 4.118253
v -2.457550 5.176418 3.709480
v -3.127868 5.176418 3.159364
v -3.677983 5.176418 2.489047
v -4.086756 5.176418 1.724286
v -4.338477 5.176418 0.894473
v -4.423472 5.176418 0.031496
v -4.338477 5.176418 -0.831480
v -4.086756 5.176418 -1.661294
v -3.677983 5.176418 -2.426053
v -3.127868 5.176418 -3.096372
v -2.457550 5.176418 -3.646487
v -1.692790 5.176418 -4.055260
v -0.862977 5.176418 -4.306982
v 0.000000 4.892951 -4.212630
v 0.809554 4.892951 -4.132896
v 1.587997 4.892951 -3.896757
v 2.305414 4.892951 -3.513289
v 2.934235 4.892951 -2.997229
v 3.450296 4.892951 -2.368407
v 3.833765 4.892951 -1.650990
v 4.069903 4.892951 -0.872547
v 4.149636 4.892951 -0.062993
v 4.069903 4.892951 0.746561
v 3.833765 4.892951 1.525004
v 3.450296 4.892951 2.242422
v 2.934235 4.892951 2.871243
v 2.305414 4.892951 3.387303
v 1.587997 4.892951 3.770771
v 0.809554 4.892951 4.006909
v 0.000000 4.892951 4.086643
v -0.809554 4.892951 4.006909
v -1.587997 4.892951 3.770771
v -2.305414 4.892951 3.387303
v -2.934236 4.892951 2.871243
v -3.450296 4.892951 2.242422
v -3.833764 4.892951 1.525004
v -4.069901 4.892951 0.746561
v -4.149635 4.892951 -0.062993
v -4.069901 4.892951 -0.872547
v -3.833764 4.892951 -1.650990
v -3.450296 4.892951 -2.368407
v -2.934236 4.892951 -2.997229
v -2.305414 4.892951 -3.513289
v -1.587997 4.892951 -3.896757
v -0.809554 4.892951 -4.132896
v 0.000000 4.247275 -2.831258
v 0.540062 4.247275 -2.778066
v 1.059369 4.247275 -2.620535
v 1.537965 4.247275 -2.364721
v 1.957458 4.247275 -2.020452
v 2.301727 4.247275 -1.600958
v 2.557543 4.247275 -1.122362
v 2.715074 4.247275 -0.603054
v 2.768264 4.247275 -0.062993
v 2.715074 4.247275 0.477069
v 2.557543 4.247275 0.996376
v 2.301727 4.247275 1.474972
v 1.957458 4.247275 1.894466
v 1.537965 4.247275 2.238734
v 1.059369 4.247275 2.494550
v 0.540062 4.247275 2.652080
v 0.000000 4.247275 2.705271
v -0.540061 4.247275 2.652080
v -1.059368 4.247275 2.494550
v -1.537965 4.247275 2.238734
v -1.957458 4.247275 1.894466
v -2.301727 4.247275 1.474972
v -2.557542 4.247275 0.996376
v -2.715072 4.247275 0.477069
v -2.768263 4.247275 -0.062993
v -2.715072 4.247275 -0.603054
v -2.557542 4.247275 -1.122362
v -2.301727 4.247275 -1.600958
v -1.957458 4.247275 -2.020452
v -1.537965 4.247275 -2.364721
v -1.059368 4.247275 -2.620535
v -0.540061 4.247275 -2.778066
v 0.000000 3.900815 -0.979625
v 0.350780 3.900815 -0.909851
v 0.648157 3.900815 -0.711150
v 0.846858 3.900815 -0.413773
v 0.916632 3.900815 -0.062993
v 0.846858 3.900815 0.287787
v 0.648157 3.900815 0.585164
v 0.350780 3.900815 0.783865
v 0.000000 3.900815 0.853639
v -0.350780 3.900815 0.783865
v -0.648157 3.900815 0.585164
v -0.846858 3.900815 0.287787
v -0.916632 3.900815 -0.062993
v -0.846858 3.900815 -0.413773
v -0.648157 3.900815 -0.711150
v -0.350780 3.900815 -0.909851
v 0.104243 6.593754 -0.587055
v 0.296858 6.593754 -0.507272
v 0.444279 6.593754 -0.359850
v 0.524063 6.593754 -0.167235
v 0.524063 6.593754 0.041250
v 0.444279 6.593754 0.233865
v 0.296858 6.593754 0.381286
v 0.104243 6.593754 0.461070
v -0.104242 6.593754 0.461070
v -0.296857 6.593754 0.381286
v -0.444278 6.593754 0.233865
v -0.524062 6.593754 0.041250
v -0.524062 6.593754 -0.167235
v -0.444278 6.593754 -0.359850
v -0.296857 6.593754 -0.507272
v -0.104242 6.593754 -0.587055
v 0.000000 7.003206 -1.621832
v 0.304115 7.003206 -1.591879
v 0.596542 7.003206 -1.503172
v 0.866044 7.003206 -1.359120
v 1.102265 7.003206 -1.165258
v 1.296127 7.003206 -0.929037
v 1.440180 7.003206 -0.659534
v 1.528887 7.003206 -0.367107
v 1.558838 7.003206 -0.062993
v 1.528887 7.003206 0.241122
v 1.440180 7.003206 0.533549
v 1.296127 7.003206 0.803051
v 1.102265 7.003206 1.039273
v 0.866044 7.003206 1.233134
v 0.596542 7.003206 1.377186
v 0.304115 7.003206 1.465893
v 0.000000 7.003206 1.495845
v -0.304114 7.003206 1.465893
v -0.596541 7.003206 1.377186
v -0.866044 7.003206 1.233134
v -1.102265 7.003206 1.039273
v -1.296126 7.003206 0.803051
v -1.440179 7.003206 0.533549
v -1.528885 7.003206 0.241122
v -1.558838 7.003206 -0.062993
v -1.528885 7.003206 -0.367107
v -1.440179 7.003206 -0.659534
v -1.296126 7.003206 -0.929037
v -1.102265 7.003206 -1.165258
v -0.866044 7.003206 -1.359120
v -0.596541 7.003206 -1.503172
v -0.304114 7.003206 -1.591879
v 0.000000 7.428407 -0.442841
v 0.074105 7.428407 -0.435542
v 0.145362 7.428407 -0.413927
v 0.211032 7.428407 -0.378825
v 0.268593 7.428407 -0.331586
v 0.315832 7.428407 -0.274025
v 0.350934 7.428407 -0.208354
v 0.372550 7.428407 -0.137097
v 0.379848 7.428407 -0.062993
v 0.372550 7.428407 0.011112
v 0.350934 7.428407 0.082369
v 0.315832 7.428407 0.148039
v 0.268593 7.428407 0.205600
v 0.211032 7.428407 0.252839
v 0.145362 7.428407 0.287941
v 0.074105 7.428407 0.309556
v 0.000000 7.428407 0.316855
v -0.074104 7.428407 0.309556
v -0.145361 7.428407 0.287941
v -0.211032 7.428407 0.252839
v -0.268593 7.428407 0.205600
v -0.315832 7.428407 0.148039
v -0.350933 7.428407 0.082369
v -0.372549 7.428407 0.011112
v -0.379848 7.428407 -0.062993
v -0.372549 7.428407 -0.137097
v -0.350933 7.428407 -0.208354
v -0.315832 7.428407 -0.274025
v -0.268593 7.428407 -0.331586
v -0.211032 7.428407 -0.378825
v -0.145361 7.428407 -0.413927
v -0.074104 7.428407 -0.435542
v -0.000000 7.869357 -0.926367
v 0.168436 7.869357 -0.909778
v 0.330399 7.869357 -0.860647
v 0.479665 7.869357 -0.780863
v 0.610497 7.869357 -0.673491
v 0.717869 7.869357 -0.542658
v 0.797654 7.869357 -0.393392
v 0.846785 7.869357 -0.231429
v 0.863374 7.869357 -0.062993
v 0.846785 7.869357 0.105443
v 0.797654 7.869357 0.267406
v 0.717869 7.869357 0.416672
v 0.610497 7.869357 0.547505
v 0.479665 7.869357 0.654877
v 0.330399 7.869357 0.734661
v 0.168436 7.869357 0.783792
v -0.000000 7.869357 0.800381
v -0.168436 7.869357 0.783792
v -0.330399 7.869357 0.734661
v -0.479665 7.869357 0.654877
v -0.610498 7.869357 0.547505
v -0.717870 7.869357 0.416672
v -0.797654 7.869357 0.267406
v -0.846785 7.869357 0.105443
v -0.863374 7.869357 -0.062993
v -0.846785 7.869357 -0.231429
v -0.797654 7.869357 -0.393392
v -0.717870 7.869357 -0.542658
v -0.610498 7.869357 -0.673491
v -0.479665 7.869357 -0.780863
v -0.330399 7.869357 -0.860647
v -0.168436 7.869357 -0.909778
v 0.006288 8.108646 -0.341604
v 0.052527 8.108646 -0.337050
v 0.096989 8.108646 -0.323563
v 0.137965 8.108646 -0.301660
v 0.173881 8.108646 -0.272185
v 0.203357 8.108646 -0.236269
v 0.225259 8.108646 -0.195293
v 0.238746 8.108646 -0.150831
v 0.243300 8.108646 -0.104592
v 0.238746 8.108646 -0.058353
v 0.225259 8.108646 -0.013891
v 0.203357 8.108646 0.027085
v 0.173881 8.108646 0.063001
v 0.137965 8.108646 0.092476
v 0.096989 8.108646 0.114378
v 0.052527 8.108646 0.127866
v 0.006288 8.108646 0.132420
v -0.039950 8.108646 0.127866
v -0.084412 8.108646 0.114378
v -0.125388 8.108646 0.092476
v -0.161304 8.108646 0.063001
v -0.190780 8.108646 0.027085
v -0.212682 8.108646 -0.013891
v -0.226169 8.108646 -0.058353
v -0.230723 8.108646 -0.104592
v -0.226169 8.108646 -0.150831
v -0.212682 8.108646 -0.195293
v -0.190780 8.108646 -0.236269
v -0.161304 8.108646 -0.272185
v -0.125388 8.108646 -0.301660
v -0.084412 8.108646 -0.323563
v -0.039950 8.108646 -0.337050
vn 0.0980 -0.0000 -0.9952
vn 0.2903 -0.0000 -0.9569
vn 0.4714 -0.0000 -0.8819
vn 0.6344 -0.0000 -0.7730
vn 0.7730 -0.0000 -0.6344
vn 0.8819 -0.0000 -0.4714
vn 0.9569 -0.0000 -0.2903
vn 0.9952 -0.0000 -0.0980
vn 0.9952 -0.0000 0.0980
vn 0.9569 -0.0000 0.2903
vn 0.8819 -0.0000 0.4714
vn 0.7730 -0.0000 0.6344
vn 0.6344 -0.0000 0.7730
vn 0.4714 -0.0000 0.8819
vn 0.2903 -0.0000 0.9569
vn 0.0980 -0.0000 0.9952
vn -0.0980 -0.0000 0.9952
vn -0.2903 -0.0000 0.9569
vn -0.4714 -0.0000 0.8819
vn -0.6344 -0.0000 0.7730
vn -0.7730 -0.0000 0.6344
vn -0.8819 -0.0000 0.4714
vn -0.9569 -0.0000 0.2903
vn -0.9952 -0.0000 0.0980
vn -0.9952 -0.0000 -0.0980
vn -0.9569 -0.0000 -0.2903
vn -0.8819 -0.0000 -0.4714
vn -0.7730 -0.0000 -0.6344
vn -0.6344 -0.0000 -0.7730
vn -0.4714 -0.0000 -0.8819
vn -0.0000 -1.0000 -0.0000
vn -0.2903 -0.0000 -0.9569
vn -0.0980 -0.0000 -0.9952
vn -0.3540 -0.8298 0.4314
vn -0.5424 -0.8239 0.1645
vn 0.5340 -0.8298 -0.1620
vn -0.4314 -0.8298 0.3540
vn 0.5554 -0.8298 -0.0547
vn -0.4921 -0.8298 0.2631
vn 0.5554 -0.8298 0.0547
vn -0.5340 -0.8298 0.1620
vn 0.5340 -0.8298 0.1620
vn -0.5554 -0.8298 0.0547
vn 0.4921 -0.8298 0.2631
vn -0.5554 -0.8298 -0.0547
vn 0.4314 -0.8298 0.3540
vn -0.5340 -0.8298 -0.1620
vn 0.3540 -0.8298 0.4314
vn -0.4921 -0.8298 -0.2631
vn 0.2631 -0.8298 0.4921
vn 0.0547 -0.8298 -0.5554
vn -0.4314 -0.8298 -0.3540
vn 0.1620 -0.8298 0.5340
vn 0.1620 -0.8298 -0.5340
vn -0.3540 -0.8298 -0.4314
vn 0.0547 -0.8298 0.5554
vn 0.2631 -0.8298 -0.4921
vn -0.2631 -0.8298 -0.4921
vn -0.0547 -0.8298 0.5554
vn 0.3540 -0.8298 -0.4314
vn -0.1620 -0.8298 -0.5340
vn -0.1620 -0.8298 0.5340
vn 0.4314 -0.8298 -0.3540
vn -0.0547 -0.8298 -0.5554
vn -0.2631 -0.8298 0.4921
vn 0.4921 -0.8298 -0.2631
vn -0.8628 -0.4325 -0.2617
vn 0.5424 -0.8239 0.1645
vn -0.5640 -0.8239 0.0556
vn 0.4998 -0.8239 0.2672
vn -0.5640 -0.8239 -0.0556
vn 0.4381 -0.8239 0.3596
vn -0.5424 -0.8239 -0.1645
vn 0.3596 -0.8239 0.4381
vn -0.4998 -0.8239 -0.2672
vn 0.2672 -0.8239 0.4998
vn 0.0556 -0.8239 -0.5640
vn -0.4381 -0.8239 -0.3596
vn 0.1645 -0.8239 0.5424
vn 0.1645 -0.8239 -0.5424
vn -0.3596 -0.8239 -0.4381
vn 0.0556 -0.8239 0.5640
vn 0.2672 -0.8239 -0.4998
vn -0.2672 -0.8239 -0.4998
vn -0.0556 -0.8239 0.5640
vn 0.3596 -0.8239 -0.4381
vn -0.1645 -0.8239 -0.5424
vn -0.1645 -0.8239 0.5424
vn 0.4381 -0.8239 -0.3596
vn -0.0556 -0.8239 -0.5640
vn -0.2672 -0.8239 0.4998
vn 0.4998 -0.8239 -0.2672
vn -0.3596 -0.8239 0.4381
vn 0.5424 -0.8239 -0.1645
vn -0.4381 -0.8239 0.3596
vn 0.5640 -0.8239 -0.0556
vn -0.4998 -0.8239 0.2672
vn 0.5640 -0.8239 0.0556
vn 0.2822 0.2340 -0.9304
vn 0.5720 -0.4325 0.6970
vn -0.7952 -0.4325 -0.4250
vn 0.4250 -0.4325 0.7952
vn 0.0884 -0.4325 -0.8973
vn -0.6970 -0.4325 -0.5720
vn 0.2617 -0.4325 0.8628
vn 0.2617 -0.4325 -0.8628
vn -0.5720 -0.4325 -0.6970
vn 0.0884 -0.4325 0.8973
vn 0.4250 -0.4325 -0.7952
vn -0.4250 -0.4325 -0.7952
vn -0.0884 -0.4325 0.8973
vn 0.5720 -0.4325 -0.6970
vn -0.2617 -0.4325 -0.8628
vn -0.2617 -0.4325 0.8628
vn 0.6970 -0.4325 -0.5720
vn -0.0884 -0.4325 -0.8973
vn -0.4250 -0.4325 0.7952
vn 0.7952 -0.4325 -0.4250
vn -0.5720 -0.4325 0.6970
vn 0.8628 -0.4325 -0.2617
vn -0.6970 -0.4325 0.5720
vn 0.8973 -0.4325 -0.0884
vn -0.7952 -0.4325 0.4250
vn 0.8973 -0.4325 0.0884
vn -0.8628 -0.4325 0.2617
vn 0.8628 -0.4325 0.2617
vn -0.8973 -0.4325 0.0884
vn 0.7952 -0.4325 0.4250
vn -0.8973 -0.4325 -0.0884
vn 0.6970 -0.4325 0.5720
vn 0.2218 0.9580 -0.1820
vn -0.6168 0.2340 -0.7516
vn 0.0953 0.2340 0.9676
vn 0.4583 0.2340 -0.8574
vn -0.4583 0.2340 -0.8574
vn -0.0953 0.2340 0.9676
vn 0.6168 0.2340 -0.7516
vn -0.2822 0.2340 -0.9304
vn -0.2822 0.2340 0.9304
vn 0.7516 0.2340 -0.6168
vn -0.0953 0.2340 -0.9676
vn -0.4583 0.2340 0.8574
vn 0.8574 0.2340 -0.4583
vn -0.6168 0.2340 0.7516
vn 0.9304 0.2340 -0.2822
vn -0.7516 0.2340 0.6168
vn 0.9676 0.2340 -0.0953
vn -0.8574 0.2340 0.4583
vn 0.9676 0.2340 0.0953
vn -0.9304 0.2340 0.2822
vn 0.9304 0.2340 0.2822
vn -0.9676 0.2340 0.0953
vn 0.8574 0.2340 0.4583
vn -0.9676 0.2340 -0.0953
vn 0.7516 0.2340 0.6168
vn -0.9304 0.2340 -0.2822
vn 0.6168 0.2340 0.7516
vn -0.8574 0.2340 -0.4583
vn 0.4583 0.2340 0.8574
vn 0.0953 0.2340 -0.9676
vn -0.7516 0.2340 -0.6168
vn 0.2822 0.2340 0.9304
vn -0.9943 -0.0433 -0.0979
vn -0.0281 0.9580 -0.2855
vn -0.1352 0.9580 0.2530
vn 0.2530 0.9580 -0.1352
vn -0.1820 0.9580 0.2218
vn 0.2746 0.9580 -0.0833
vn -0.2218 0.9580 0.1820
vn 0.2855 0.9580 -0.0281
vn -0.2530 0.9580 0.1352
vn 0.2855 0.9580 0.0281
vn -0.2746 0.9580 0.0833
vn 0.2746 0.9580 0.0833
vn -0.2855 0.9580 0.0281
vn 0.2530 0.9580 0.1352
vn -0.2855 0.9580 -0.0281
vn 0.2218 0.9580 0.1820
vn -0.2746 0.9580 -0.0833
vn 0.1820 0.9580 0.2218
vn -0.2530 0.9580 -0.1352
vn 0.1352 0.9580 0.2530
vn 0.0281 0.9580 -0.2855
vn -0.2218 0.9580 -0.1820
vn 0.0833 0.9580 0.2746
vn 0.0833 0.9580 -0.2746
vn -0.1820 0.9580 -0.2218
vn 0.0281 0.9580 0.2855
vn 0.1352 0.9580 -0.2530
vn -0.1352 0.9580 -0.2530
vn -0.0281 0.9580 0.2855
vn 0.1820 0.9580 -0.2218
vn -0.0833 0.9580 -0.2746
vn -0.0833 0.9580 0.2746
vn -0.7790 0.5809 0.2363
vn 0.9558 -0.0495 -0.2899
vn -0.9558 -0.0495 -0.2899
vn 0.9943 -0.0433 -0.0979
vn -0.8806 -0.0553 -0.4707
vn 0.9945 -0.0369 0.0980
vn -0.7716 -0.0606 -0.6332
vn 0.9565 -0.0307 0.2901
vn -0.6330 -0.0651 -0.7714
vn 0.8816 -0.0248 0.4713
vn -0.4703 -0.0686 -0.8798
vn -0.0980 -0.0078 0.9952
vn 0.7729 -0.0195 0.6343
vn -0.2896 -0.0710 -0.9545
vn -0.2903 -0.0091 0.9569
vn 0.6343 -0.0150 0.7729
vn -0.0978 -0.0722 -0.9926
vn -0.4714 -0.0115 0.8819
vn 0.4714 -0.0115 0.8819
vn 0.0978 -0.0722 -0.9926
vn -0.6343 -0.0150 0.7729
vn 0.2903 -0.0091 0.9569
vn 0.2896 -0.0710 -0.9545
vn -0.7729 -0.0195 0.6343
vn 0.0980 -0.0078 0.9952
vn 0.4703 -0.0686 -0.8798
vn -0.8816 -0.0248 0.4713
vn 0.6330 -0.0651 -0.7714
vn -0.9565 -0.0307 0.2901
vn 0.7716 -0.0606 -0.6332
vn -0.9945 -0.0369 0.0979
vn 0.8806 -0.0553 -0.4707
vn -0.5132 0.8441 -0.1557
vn 0.6292 0.5809 -0.5164
vn -0.8101 0.5808 0.0798
vn 0.7179 0.5809 -0.3837
vn -0.8101 0.5808 -0.0798
vn 0.7790 0.5809 -0.2363
vn -0.7790 0.5809 -0.2363
vn 0.8101 0.5808 -0.0798
vn -0.7179 0.5808 -0.3837
vn 0.8101 0.5808 0.0798
vn -0.6292 0.5809 -0.5164
vn 0.7790 0.5809 0.2363
vn -0.5164 0.5809 -0.6292
vn 0.7179 0.5809 0.3837
vn -0.3837 0.5808 -0.7179
vn -0.0798 0.5808 0.8101
vn 0.6292 0.5809 0.5164
vn -0.2363 0.5808 -0.7790
vn -0.2363 0.5809 0.7790
vn 0.5164 0.5808 0.6292
vn -0.0798 0.5809 -0.8101
vn -0.3837 0.5809 0.7179
vn 0.3837 0.5809 0.7179
vn 0.0798 0.5809 -0.8101
vn -0.5164 0.5809 0.6292
vn 0.2363 0.5809 0.7790
vn 0.2363 0.5808 -0.7790
vn -0.6292 0.5809 0.5164
vn 0.0798 0.5808 0.8101
vn 0.3837 0.5809 -0.7179
vn -0.7179 0.5808 0.3837
vn 0.5164 0.5808 -0.6292
vn -0.2027 0.9476 -0.2470
vn 0.5337 0.8441 -0.0526
vn -0.4729 0.8441 -0.2528
vn 0.5337 0.8441 0.0526
vn -0.4145 0.8441 -0.3402
vn 0.5132 0.8441 0.1557
vn -0.3402 0.8441 -0.4145
vn 0.4729 0.8441 0.2528
vn -0.2528 0.8441 -0.4729
vn -0.0526 0.8441 0.5337
vn 0.4145 0.8441 0.3402
vn -0.1557 0.8441 -0.5132
vn -0.1557 0.8441 0.5132
vn 0.3402 0.8441 0.4145
vn -0.0526 0.8441 -0.5337
vn -0.2528 0.8441 0.4729
vn 0.2528 0.8441 0.4729
vn 0.0526 0.8441 -0.5337
vn -0.3402 0.8441 0.4145
vn 0.1557 0.8441 0.5132
vn 0.1557 0.8441 -0.5132
vn -0.4145 0.8441 0.3402
vn 0.0526 0.8441 0.5337
vn 0.2528 0.8441 -0.4729
vn -0.4729 0.8441 0.2528
vn 0.3402 0.8441 -0.4145
vn -0.5132 0.8441 0.1557
vn 0.4145 0.8441 -0.3402
vn -0.5337 0.8441 0.0526
vn 0.4729 0.8441 -0.2528
vn -0.5337 0.8441 -0.0526
vn 0.5132 0.8441 -0.1557
vn 0.1781 0.4078 0.8955
vn 0.2818 0.9476 0.1506
vn -0.1506 0.9476 -0.2818
vn -0.0313 0.9476 0.3179
vn 0.2470 0.9476 0.2027
vn -0.0927 0.9476 -0.3057
vn -0.0927 0.9476 0.3057
vn 0.2027 0.9476 0.2470
vn -0.0313 0.9476 -0.3179
vn -0.1506 0.9476 0.2818
vn 0.1506 0.9476 0.2818
vn 0.0313 0.9476 -0.3179
vn -0.2027 0.9476 0.2470
vn 0.0927 0.9476 0.3057
vn 0.0927 0.9476 -0.3057
vn -0.2470 0.9476 0.2027
vn 0.0313 0.9476 0.3179
vn 0.1506 0.9476 -0.2818
vn -0.2818 0.9476 0.1506
vn 0.2027 0.9476 -0.2470
vn -0.3057 0.9476 0.0927
vn 0.2470 0.9476 -0.2027
vn -0.3179 0.9476 0.0313
vn 0.2818 0.9476 -0.1506
vn -0.3179 0.9476 -0.0313
vn 0.3057 0.9476 -0.0927
vn -0.3057 0.9476 -0.0927
vn 0.3179 0.9476 -0.0313
vn -0.2818 0.9476 -0.1506
vn 0.3179 0.9476 0.0313
vn -0.2470 0.9476 -0.2027
vn 0.3057 0.9476 0.0927
vn 0.5073 0.4078 -0.7592
vn -0.5073 0.4078 -0.7592
vn -0.1781 0.4078 0.8955
vn 0.9052 -0.2002 -0.3749
vn -0.1781 0.4078 -0.8955
vn -0.0144 0.9997 0.0176
vn 0.7592 0.4078 -0.5073
vn -0.5073 0.4078 0.7592
vn 0.9798 -0.2002 -0.0000
vn -0.9052 -0.2002 0.3749
vn 0.8955 0.4078 -0.1781
vn -0.7592 0.4078 0.5073
vn 0.9052 -0.2002 0.3749
vn -0.9798 -0.2002 -0.0000
vn 0.8955 0.4078 0.1781
vn -0.8955 0.4078 0.1781
vn 0.6928 -0.2002 0.6928
vn -0.9052 -0.2002 -0.3749
vn 0.7592 0.4078 0.5073
vn -0.8955 0.4078 -0.1781
vn 0.3749 -0.2002 0.9052
vn -0.6928 -0.2002 -0.6928
vn 0.5073 0.4078 0.7592
vn -0.7592 0.4078 -0.5073
vn -0.0000 -0.2002 0.9798
vn 0.1781 0.4078 -0.8955
vn -0.3749 -0.2002 -0.9052
vn 0.6928 -0.2002 -0.6928
vn -0.3002 -0.9534 0.0296
vn -0.0176 0.9997 0.0144
vn 0.0226 0.9997 0.0022
vn -0.0218 0.9997 0.0066
vn 0.0201 0.9997 0.0107
vn -0.0226 0.9997 -0.0022
vn 0.0144 0.9997 0.0176
vn -0.0201 0.9997 -0.0107
vn 0.0066 0.9997 0.0218
vn -0.0144 0.9997 -0.0176
vn 0.0107 0.9997 -0.0201
vn -0.0022 0.9997 0.0226
vn -0.0066 0.9997 -0.0218
vn -0.0107 0.9997 0.0201
vn 0.0176 0.9997 -0.0144
vn 0.0296 -0.9534 -0.3002
vn -0.3749 -0.2002 0.9052
vn 0.0218 0.9997 -0.0066
vn 0.1422 -0.9534 -0.2661
vn -0.1072 -0.9293 0.3534
vn 0.2887 -0.9534 0.0876
vn -0.2661 -0.9534 -0.1422
vn 0.2332 -0.9534 0.1914
vn -0.2887 -0.9534 -0.0876
vn 0.0876 -0.9534 0.2887
vn -0.1914 -0.9534 -0.2332
vn 0.1422 -0.9534 0.2661
vn -0.2332 -0.9534 -0.1914
vn -0.0296 -0.9534 0.3002
vn -0.0876 -0.9534 -0.2887
vn 0.0296 -0.9534 0.3002
vn 0.0876 -0.9534 -0.2887
vn -0.1422 -0.9534 -0.2661
vn -0.1422 -0.9534 0.2661
vn 0.1914 -0.9534 -0.2332
vn -0.0876 -0.9534 0.2887
vn 0.2887 -0.9534 -0.0876
vn -0.2332 -0.9534 0.1914
vn 0.2661 -0.9534 -0.1422
vn -0.1914 -0.9534 0.2332
vn 0.3002 -0.9534 0.0296
vn 0.2332 -0.9534 -0.1914
vn -0.2661 -0.9534 0.1422
vn 0.3002 -0.9534 -0.0296
vn -0.2887 -0.9534 0.0876
vn 0.2661 -0.9534 0.1422
vn -0.3002 -0.9534 -0.0296
vn 0.1914 -0.9534 0.2332
vn -0.1454 -0.9822 0.1193
vn 0.2855 -0.9293 -0.2343
vn -0.0362 -0.9293 -0.3675
vn -0.1741 -0.9293 0.3257
vn 0.3257 -0.9293 -0.1741
vn -0.2343 -0.9293 0.2855
vn 0.3534 -0.9293 -0.1072
vn -0.2855 -0.9293 0.2343
vn 0.3675 -0.9293 -0.0362
vn -0.3257 -0.9293 0.1741
vn 0.3675 -0.9293 0.0362
vn -0.3534 -0.9293 0.1072
vn 0.3534 -0.9293 0.1072
vn -0.3675 -0.9293 0.0362
vn 0.3257 -0.9293 0.1741
vn -0.3675 -0.9293 -0.0362
vn 0.2855 -0.9293 0.2343
vn -0.3534 -0.9293 -0.1072
vn 0.2343 -0.9293 0.2855
vn -0.3257 -0.9293 -0.1741
vn 0.1741 -0.9293 0.3257
vn 0.0362 -0.9293 -0.3675
vn -0.2855 -0.9293 -0.2343
vn 0.1072 -0.9293 0.3534
vn 0.1072 -0.9293 -0.3534
vn -0.2343 -0.9293 -0.2855
vn 0.0362 -0.9293 0.3675
vn 0.1741 -0.9293 -0.3257
vn -0.1741 -0.9293 -0.3257
vn -0.0362 -0.9293 0.3675
vn 0.2343 -0.9293 -0.2855
vn -0.1072 -0.9293 -0.3534
vn -0.5595 -0.8270 0.0551
vn 0.1871 -0.9822 -0.0184
vn -0.1658 -0.9822 0.0886
vn 0.1871 -0.9822 0.0184
vn -0.1799 -0.9822 0.0546
vn 0.1799 -0.9822 0.0546
vn -0.1871 -0.9822 0.0184
vn 0.1658 -0.9822 0.0886
vn -0.1871 -0.9822 -0.0184
vn 0.1454 -0.9822 0.1193
vn -0.1799 -0.9822 -0.0546
vn 0.1193 -0.9822 0.1454
vn -0.1658 -0.9822 -0.0886
vn 0.0886 -0.9822 0.1658
vn 0.0184 -0.9822 -0.1871
vn -0.1454 -0.9822 -0.1193
vn 0.0546 -0.9822 0.1799
vn 0.0546 -0.9822 -0.1799
vn -0.1193 -0.9822 -0.1454
vn 0.0184 -0.9822 0.1871
vn 0.0886 -0.9822 -0.1658
vn -0.0886 -0.9822 -0.1658
vn -0.0184 -0.9822 0.1871
vn 0.1193 -0.9822 -0.1454
vn -0.0546 -0.9822 -0.1799
vn -0.0546 -0.9822 0.1799
vn 0.1454 -0.9822 -0.1193
vn -0.0184 -0.9822 -0.1871
vn -0.0886 -0.9822 0.1658
vn 0.1658 -0.9822 -0.0886
vn -0.1193 -0.9822 0.1454
vn 0.1799 -0.9822 -0.0546
vn -0.7834 -0.4592 -0.4187
vn 0.4958 -0.8270 0.2650
vn -0.5595 -0.8270 -0.0551
vn 0.4346 -0.8270 0.3567
vn -0.5380 -0.8270 -0.1632
vn 0.3567 -0.8270 0.4346
vn -0.4958 -0.8270 -0.2650
vn 0.2650 -0.8270 0.4958
vn 0.0551 -0.8270 -0.5595
vn -0.4346 -0.8270 -0.3567
vn 0.1632 -0.8270 0.5380
vn 0.1632 -0.8270 -0.5380
vn -0.3567 -0.8270 -0.4346
vn 0.0551 -0.8270 0.5595
vn 0.2650 -0.8270 -0.4958
vn -0.2650 -0.8270 -0.4958
vn -0.0551 -0.8270 0.5595
vn 0.3567 -0.8270 -0.4346
vn -0.1632 -0.8270 -0.5380
vn -0.1632 -0.8270 0.5380
vn 0.4346 -0.8270 -0.3567
vn -0.0551 -0.8270 -0.5595
vn -0.2650 -0.8270 0.4958
vn 0.4958 -0.8270 -0.2650
vn -0.3567 -0.8270 0.4346
vn 0.5380 -0.8270 -0.1632
vn -0.4346 -0.8270 0.3567
vn 0.5595 -0.8270 -0.0551
vn -0.4958 -0.8270 0.2650
vn 0.5595 -0.8270 0.0551
vn -0.5380 -0.8270 0.1632
vn 0.5380 -0.8270 0.1632
vn -0.2871 0.7931 -0.5371
vn 0.4187 -0.4592 0.7834
vn 0.0871 -0.4592 -0.8840
vn -0.6867 -0.4592 -0.5635
vn 0.2579 -0.4592 0.8501
vn 0.2579 -0.4592 -0.8501
vn -0.5635 -0.4592 -0.6867
vn 0.0871 -0.4592 0.8840
vn 0.4187 -0.4592 -0.7834
vn -0.4187 -0.4592 -0.7834
vn -0.0871 -0.4592 0.8840
vn 0.5635 -0.4592 -0.6867
vn -0.2579 -0.4592 -0.8501
vn -0.2579 -0.4592 0.8501
vn 0.6867 -0.4592 -0.5635
vn -0.0871 -0.4592 -0.8840
vn -0.4187 -0.4592 0.7834
vn 0.7834 -0.4592 -0.4187
vn -0.5635 -0.4592 0.6867
vn 0.8501 -0.4592 -0.2579
vn -0.6867 -0.4592 0.5635
vn 0.8840 -0.4592 -0.0871
vn -0.7834 -0.4592 0.4187
vn 0.8840 -0.4592 0.0871
vn -0.8501 -0.4592 0.2579
vn 0.8501 -0.4592 0.2579
vn -0.8840 -0.4592 0.0871
vn 0.7834 -0.4592 0.4187
vn -0.8840 -0.4592 -0.0871
vn 0.6867 -0.4592 0.5635
vn -0.8501 -0.4592 -0.2579
vn 0.5635 -0.4592 0.6867
vn 0.4023 0.7731 -0.4903
vn -0.0597 0.7931 0.6061
vn 0.3864 0.7931 -0.4708
vn -0.1768 0.7931 -0.5828
vn -0.1768 0.7931 0.5828
vn 0.4708 0.7931 -0.3864
vn -0.0597 0.7931 -0.6061
vn -0.2871 0.7931 0.5371
vn 0.5371 0.7931 -0.2871
vn -0.3864 0.7931 0.4708
vn 0.5828 0.7931 -0.1768
vn -0.4708 0.7931 0.3864
vn 0.6061 0.7931 -0.0597
vn -0.5371 0.7931 0.2871
vn 0.6061 0.7931 0.0597
vn -0.5828 0.7931 0.1768
vn 0.5828 0.7931 0.1768
vn -0.6061 0.7931 0.0597
vn 0.5371 0.7931 0.2871
vn -0.6061 0.7931 -0.0597
vn 0.4708 0.7931 0.3864
vn -0.5828 0.7931 -0.1768
vn 0.3864 0.7931 0.4708
vn -0.5371 0.7931 -0.2871
vn 0.2871 0.7931 0.5371
vn 0.0597 0.7931 -0.6061
vn -0.4708 0.7931 -0.3864
vn 0.1768 0.7931 0.5828
vn 0.1768 0.7931 -0.5828
vn -0.3864 0.7931 -0.4708
vn 0.0597 0.7931 0.6061
vn 0.2871 0.7931 -0.5371
vn 0.4068 0.9051 -0.1234
vn -0.7239 0.6540 0.2196
vn 0.5015 0.7610 -0.4116
vn -0.7292 0.6805 0.0718
vn 0.5878 0.7455 -0.3142
vn -0.7058 0.7050 -0.0695
vn 0.6573 0.7268 -0.1994
vn -0.6573 0.7268 -0.1994
vn 0.7058 0.7050 -0.0695
vn -0.5878 0.7455 -0.3142
vn 0.7292 0.6805 0.0718
vn -0.5015 0.7610 -0.4116
vn 0.7239 0.6540 0.2196
vn -0.4023 0.7731 -0.4903
vn 0.6872 0.6267 0.3673
vn -0.2937 0.7822 -0.5495
vn -0.0829 0.5328 0.8422
vn 0.6184 0.6000 0.5075
vn -0.1787 0.7881 -0.5890
vn -0.2442 0.5405 0.8051
vn 0.5188 0.5755 0.6322
vn -0.0600 0.7911 -0.6088
vn -0.3921 0.5551 0.7336
vn 0.3921 0.5551 0.7336
vn 0.0600 0.7911 -0.6088
vn -0.5188 0.5755 0.6322
vn 0.2442 0.5405 0.8051
vn 0.1787 0.7881 -0.5890
vn -0.6184 0.6000 0.5075
vn 0.0829 0.5328 0.8422
vn 0.2937 0.7822 -0.5495
vn -0.6872 0.6267 0.3673
vn -0.7103 0.6895 -0.1413
vn -0.4068 0.9051 -0.1234
vn 0.4231 0.9051 -0.0417
vn -0.3749 0.9051 -0.2004
vn 0.4231 0.9051 0.0417
vn -0.3286 0.9051 -0.2697
vn 0.4068 0.9051 0.1234
vn -0.2697 0.9051 -0.3286
vn 0.3749 0.9051 0.2004
vn -0.2004 0.9051 -0.3749
vn -0.0417 0.9051 0.4231
vn 0.3286 0.9051 0.2697
vn -0.1234 0.9051 -0.4068
vn -0.1234 0.9051 0.4068
vn 0.2697 0.9051 0.3286
vn -0.0417 0.9051 -0.4231
vn -0.2004 0.9051 0.3749
vn 0.2004 0.9051 0.3749
vn 0.0417 0.9051 -0.4231
vn -0.2697 0.9051 0.3286
vn 0.1234 0.9051 0.4068
vn 0.1234 0.9051 -0.4068
vn -0.3286 0.9051 0.2697
vn 0.0417 0.9051 0.4231
vn 0.2004 0.9051 -0.3749
vn -0.3749 0.9051 0.2004
vn 0.2697 0.9051 -0.3286
vn -0.4068 0.9051 0.1234
vn 0.3286 0.9051 -0.2697
vn -0.4231 0.9051 0.0417
vn 0.3749 0.9051 -0.2004
vn -0.4231 0.9051 -0.0417
vn 0.4024 0.6895 0.6022
vn -0.6022 0.6895 -0.4024
vn -0.0000 -0.2027 0.9792
vn 0.1413 0.6895 -0.7103
vn -0.3747 -0.2027 -0.9047
vn 0.1413 0.6895 0.7103
vn 0.6924 -0.2027 -0.6924
vn -0.4024 0.6895 -0.6022
vn -0.3747 -0.2027 0.9047
vn 0.4024 0.6895 -0.6022
vn -0.0000 -0.2027 -0.9792
vn -0.1413 0.6895 0.7103
vn 0.9047 -0.2027 -0.3747
vn -0.1413 0.6895 -0.7103
vn -0.6924 -0.2027 0.6924
vn 0.6022 0.6895 -0.4024
vn -0.4024 0.6895 0.6022
vn 0.9792 -0.2027 -0.0000
vn -0.9047 -0.2027 0.3747
vn 0.7103 0.6895 -0.1413
vn -0.6022 0.6895 0.4024
vn 0.9047 -0.2027 0.3747
vn -0.9792 -0.2027 -0.0000
vn 0.7103 0.6895 0.1413
vn -0.7103 0.6895 0.1413
vn 0.6924 -0.2027 0.6924
vn -0.9047 -0.2027 -0.3747
vn 0.6022 0.6895 0.4024
vn 0.3747 -0.2027 0.9047
vn 0.3287 -0.9280 -0.1757
vn 0.0536 0.9828 0.1768
vn -0.1428 0.9828 0.1172
vn 0.0365 -0.9280 -0.3709
vn 0.0871 0.9828 -0.1630
vn 0.1757 -0.9280 -0.3287
vn -0.1768 0.9828 0.0536
vn 0.1428 0.9828 -0.1172
vn -0.1839 0.9828 -0.0181
vn 0.1768 0.9828 -0.0536
vn -0.1630 0.9828 -0.0871
vn 0.1839 0.9828 0.0181
vn -0.1172 0.9828 -0.1428
vn 0.1630 0.9828 0.0871
vn -0.6924 -0.2027 -0.6924
vn -0.0536 0.9828 -0.1768
vn -0.0871 0.9828 0.1630
vn 0.1172 0.9828 0.1428
vn 0.0181 0.9828 -0.1839
vn 0.3391 0.9402 -0.0334
vn 0.1082 -0.9280 -0.3566
vn -0.2364 -0.9280 0.2881
vn 0.3709 -0.9280 -0.0365
vn -0.3287 -0.9280 0.1757
vn 0.3287 -0.9280 0.1757
vn -0.3709 -0.9280 -0.0365
vn 0.3566 -0.9280 0.1082
vn -0.3709 -0.9280 0.0365
vn 0.2364 -0.9280 0.2881
vn -0.3287 -0.9280 -0.1757
vn 0.2881 -0.9280 0.2364
vn -0.3566 -0.9280 -0.1082
vn 0.1082 -0.9280 0.3566
vn -0.2364 -0.9280 -0.2881
vn 0.1757 -0.9280 0.3287
vn -0.2881 -0.9280 -0.2364
vn -0.0365 -0.9280 0.3709
vn -0.1082 -0.9280 -0.3566
vn 0.0365 -0.9280 0.3709
vn 0.2881 -0.9280 -0.2364
vn -0.1757 -0.9280 -0.3287
vn -0.1757 -0.9280 0.3287
vn 0.2364 -0.9280 -0.2881
vn -0.1082 -0.9280 0.3566
vn 0.3566 -0.9280 -0.1082
vn -0.2881 -0.9280 0.2364
vn 0.3709 -0.9280 0.0365
vn -0.3566 -0.9280 0.1082
vn 0.5958 -0.7373 0.3185
vn -0.3005 0.9402 0.1606
vn 0.3391 0.9402 0.0334
vn -0.3260 0.9402 0.0989
vn 0.3260 0.9402 0.0989
vn -0.3391 0.9402 0.0334
vn 0.3005 0.9402 0.1606
vn -0.3391 0.9402 -0.0334
vn 0.2634 0.9402 0.2161
vn -0.3260 0.9402 -0.0989
vn 0.2161 0.9402 0.2634
vn -0.3005 0.9402 -0.1606
vn 0.1606 0.9402 0.3005
vn 0.0334 0.9402 -0.3391
vn -0.2634 0.9402 -0.2161
vn 0.0989 0.9402 0.3260
vn 0.0989 0.9402 -0.3260
vn -0.2161 0.9402 -0.2634
vn 0.0334 0.9402 0.3391
vn 0.1606 0.9402 -0.3005
vn -0.1606 0.9402 -0.3005
vn -0.0334 0.9402 0.3391
vn 0.2161 0.9402 -0.2634
vn -0.0989 0.9402 -0.3260
vn -0.0989 0.9402 0.3260
vn 0.2634 0.9402 -0.2161
vn -0.0334 0.9402 -0.3391
vn -0.1606 0.9402 0.3005
vn 0.3005 0.9402 -0.1606
vn -0.2161 0.9402 0.2634
vn 0.3260 0.9402 -0.0989
vn -0.2634 0.9402 0.2161
vn -0.3053 0.9382 0.1632
vn -0.6723 -0.7373 -0.0662
vn 0.5222 -0.7373 0.4286
vn -0.6465 -0.7373 -0.1961
vn 0.4286 -0.7373 0.5222
vn -0.5958 -0.7373 -0.3185
vn 0.3185 -0.7373 0.5958
vn 0.0662 -0.7373 -0.6723
vn -0.5222 -0.7373 -0.4286
vn 0.1961 -0.7373 0.6465
vn 0.1961 -0.7373 -0.6465
vn -0.4286 -0.7373 -0.5222
vn 0.0662 -0.7373 0.6723
vn 0.3185 -0.7373 -0.5958
vn -0.3185 -0.7373 -0.5958
vn -0.0662 -0.7373 0.6723
vn 0.4286 -0.7373 -0.5222
vn -0.1961 -0.7373 -0.6465
vn -0.1961 -0.7373 0.6465
vn 0.5222 -0.7373 -0.4286
vn -0.0662 -0.7373 -0.6723
vn -0.3185 -0.7373 0.5958
vn 0.5958 -0.7373 -0.3185
vn -0.4286 -0.7373 0.5222
vn 0.6465 -0.7373 -0.1961
vn -0.5222 -0.7373 0.4286
vn 0.6723 -0.7373 -0.0662
vn -0.5958 -0.7373 0.3185
vn 0.6723 -0.7373 0.0662
vn -0.6465 -0.7373 0.1961
vn 0.6465 -0.7373 0.1961
vn -0.6723 -0.7373 0.0662
vn 0.3577 0.9332 0.0352
vn 0.0373 0.9247 -0.3788
vn -0.3345 0.9369 0.1015
vn 0.3401 0.9347 0.1032
vn 0.1104 0.9248 -0.3640
vn -0.3516 0.9355 0.0346
vn 0.3100 0.9362 0.1657
vn 0.1788 0.9253 -0.3345
vn -0.3556 0.9340 -0.0350
vn 0.2689 0.9375 0.2207
vn 0.2394 0.9261 -0.2917
vn -0.3459 0.9324 -0.1049
vn 0.2187 0.9387 0.2665
vn 0.2896 0.9271 -0.2377
vn -0.3224 0.9308 -0.1723
vn 0.1613 0.9396 0.3018
vn 0.3276 0.9285 -0.1751
vn -0.2856 0.9292 -0.2344
vn 0.0988 0.9403 0.3256
vn -0.2366 0.9278 -0.2884
vn 0.0332 0.9408 0.3373
vn -0.1773 0.9266 -0.3316
vn -0.0332 0.9410 0.3368
vn -0.1098 0.9256 -0.3621
vn -0.0983 0.9409 0.3240
vn -0.0372 0.9250 -0.3781
vn -0.1600 0.9406 0.2994
vn -0.2164 0.9400 0.2637
vn 0.3518 0.9300 -0.1067
vn -0.2654 0.9392 0.2178
vn 0.3619 0.9315 -0.0356
vn -0.0000 1.0000 -0.0000
vn -0.0536 0.9828 0.1768
vn -0.0181 0.9828 0.1839
vn 0.3747 -0.2027 -0.9047
vn -0.1172 0.9828 0.1428
vn -0.1630 0.9828 0.0871
vn -0.1839 0.9828 0.0181
vn -0.1768 0.9828 -0.0536
vn -0.1428 0.9828 -0.1172
vn -0.0871 0.9828 -0.1630
vn -0.0181 0.9828 -0.1839
vn 0.0536 0.9828 -0.1768
vn 0.1172 0.9828 -0.1428
vn 0.1630 0.9828 -0.0871
vn 0.1839 0.9828 -0.0181
vn 0.1768 0.9828 0.0536
vn 0.1428 0.9828 0.1172
vn 0.0871 0.9828 0.1630
vn 0.0181 0.9828 0.1839
vn -0.0365 -0.9280 -0.3709
vn -0.0000 -0.2002 -0.9798
vn 0.0066 0.9997 -0.0218
vn 0.0022 0.9997 -0.0226
vn 0.3749 -0.2002 -0.9052
vn 0.0144 0.9997 -0.0176
vn 0.0201 0.9997 -0.0107
vn 0.0226 0.9997 -0.0022
vn 0.0218 0.9997 0.0066
vn 0.0176 0.9997 0.0144
vn 0.0107 0.9997 0.0201
vn 0.0022 0.9997 0.0226
vn -0.0066 0.9997 0.0218
vn -0.6928 -0.2002 0.6928
vn -0.0201 0.9997 0.0107
vn -0.0226 0.9997 0.0022
vn -0.0218 0.9997 -0.0066
vn -0.0176 0.9997 -0.0144
vn -0.0107 0.9997 -0.0201
vn -0.0022 0.9997 -0.0226
vn -0.0296 -0.9534 -0.3002
vt 1.000000 0.500000
vt 1.000000 1.000000
vt 0.968750 1.000000
vt 0.968750 0.500000
vt 0.937500 1.000000
vt 0.937500 0.500000
vt 0.906250 1.000000
vt 0.906250 0.500000
vt 0.875000 1.000000
vt 0.875000 0.500000
vt 0.843750 1.000000
vt 0.843750 0.500000
vt 0.812500 1.000000
vt 0.812500 0.500000
vt 0.781250 1.000000
vt 0.781250 0.500000
vt 0.750000 1.000000
vt 0.750000 0.500000
vt 0.718750 1.000000
vt 0.718750 0.500000
vt 0.687500 1.000000
vt 0.687500 0.500000
vt 0.656250 1.000000
vt 0.656250 0.500000
vt 0.625000 1.000000
vt 0.625000 0.500000
vt 0.593750 1.000000
vt 0.593750 0.500000
vt 0.562500 1.000000
vt 0.562500 0.500000
vt 0.531250 1.000000
vt 0.531250 0.500000
vt 0.500000 1.000000
vt 0.500000 0.500000
vt 0.468750 1.000000
vt 0.468750 0.500000
vt 0.437500 1.000000
vt 0.437500 0.500000
vt 0.406250 1.000000
vt 0.406250 0.500000
vt 0.375000 1.000000
vt 0.375000 0.500000
vt 0.343750 1.000000
vt 0.343750 0.500000
vt 0.312500 1.000000
vt 0.312500 0.500000
vt 0.281250 1.000000
vt 0.281250 0.500000
vt 0.250000 1.000000
vt 0.250000 0.500000
vt 0.218750 1.000000
vt 0.218750 0.500000
vt 0.187500 1.000000
vt 0.187500 0.500000
vt 0.156250 1.000000
vt 0.156250 0.500000
vt 0.125000 1.000000
vt 0.125000 0.500000
vt 0.093750 1.000000
vt 0.093750 0.500000
vt 0.062500 1.000000
vt 0.062500 0.500000
vt 0.031250 1.000000
vt 0.031250 0.500000
vt 0.000000 1.000000
vt 0.000000 0.500000
vt 0.750000 0.490000
vt 0.796822 0.485388
vt 0.841844 0.471731
vt 0.883337 0.449553
vt 0.919706 0.419706
vt 0.949553 0.383337
vt 0.971731 0.341844
vt 0.985388 0.296822
vt 0.990000 0.250000
vt 0.985388 0.203178
vt 0.971731 0.158156
vt 0.949553 0.116663
vt 0.919706 0.080294
vt 0.883337 0.050447
vt 0.841844 0.028269
vt 0.796822 0.014612
vt 0.750000 0.010000
vt 0.703178 0.014612
vt 0.658156 0.028269
vt 0.616663 0.050447
vt 0.580294 0.080294
vt 0.550447 0.116663
vt 0.528269 0.158156
vt 0.514612 0.203178
vt 0.510000 0.250000
vt 0.514612 0.296822
vt 0.528269 0.341844
vt 0.550447 0.383337
vt 0.580294 0.419706
vt 0.616663 0.449553
vt 0.658156 0.471731
vt 0.703178 0.485388
s 0
f 1/1/1 2/2/1 4/3/1 3/4/1
f 3/4/2 4/3/2 6/5/2 5/6/2
f 5/6/3 6/5/3 8/7/3 7/8/3
f 7/8/4 8/7/4 10/9/4 9/10/4
f 9/10/5 10/9/5 12/11/5 11/12/5
f 11/12/6 12/11/6 14/13/6 13/14/6
f 13/14/7 14/13/7 16/15/7 15/16/7
f 15/16/8 16/15/8 18/17/8 17/18/8
f 17/18/9 18/17/9 20/19/9 19/20/9
f 19/20/10 20/19/10 22/21/10 21/22/10
f 21/22/11 22/21/11 24/23/11 23/24/11
f 23/24/12 24/23/12 26/25/12 25/26/12
f 25/26/13 26/25/13 28/27/13 27/28/13
f 27/28/14 28/27/14 30/29/14 29/30/14
f 29/30/15 30/29/15 32/31/15 31/32/15
f 31/32/16 32/31/16 34/33/16 33/34/16
f 33/34/17 34/33/17 36/35/17 35/36/17
f 35/36/18 36/35/18 38/37/18 37/38/18
f 37/38/19 38/37/19 40/39/19 39/40/19
f 39/40/20 40/39/20 42/41/20 41/42/20
f 41/42/21 42/41/21 44/43/21 43/44/21
f 43/44/22 44/43/22 46/45/22 45/46/22
f 45/46/23 46/45/23 48/47/23 47/48/23
f 47/48/24 48/47/24 50/49/24 49/50/24
f 49/50/25 50/49/25 52/51/25 51/52/25
f 51/52/26 52/51/26 54/53/26 53/54/26
f 53/54/27 54/53/27 56/55/27 55/56/27
f 55/56/28 56/55/28 58/57/28 57/58/28
f 57/58/29 58/57/29 60/59/29 59/60/29
f 59/60/30 60/59/30 62/61/30 61/62/30
f 18/17/31 16/15/31 72/15/31 73/17/31
f 61/62/32 62/61/32 64/63/32 63/64/32
f 63/64/33 64/63/33 2/65/33 1/66/33
f 1/67/31 3/68/31 5/69/31 7/70/31 9/71/31 11/72/31 13/73/31 15/74/31 17/75/31 19/76/31 21/77/31 23/78/31 25/79/31 27/80/31 29/81/31 31/82/31 33/83/31 35/84/31 37/85/31 39/86/31 41/87/31 43/88/31 45/89/31 47/90/31 49/91/31 51/92/31 53/93/31 55/94/31 57/95/31 59/96/31 61/97/31 63/98/31
f 85/41/34 84/39/34 116/39/34 117/41/34
f 36/35/31 34/33/31 81/33/31 82/35/31
f 54/53/31 52/51/31 90/51/31 91/53/31
f 10/9/31 8/7/31 68/7/31 69/9/31
f 28/27/31 26/25/31 77/25/31 78/27/31
f 46/45/31 44/43/31 86/43/31 87/45/31
f 64/63/31 62/61/31 95/61/31 96/63/31
f 20/19/31 18/17/31 73/17/31 74/19/31
f 38/37/31 36/35/31 82/35/31 83/37/31
f 56/55/31 54/53/31 91/53/31 92/55/31
f 12/11/31 10/9/31 69/9/31 70/11/31
f 30/29/31 28/27/31 78/27/31 79/29/31
f 48/47/31 46/45/31 87/45/31 88/47/31
f 4/3/31 2/2/31 65/2/31 66/3/31
f 2/65/31 64/63/31 96/63/31 65/65/31
f 22/21/31 20/19/31 74/19/31 75/21/31
f 40/39/31 38/37/31 83/37/31 84/39/31
f 58/57/31 56/55/31 92/55/31 93/57/31
f 14/13/31 12/11/31 70/11/31 71/13/31
f 32/31/31 30/29/31 79/29/31 80/31/31
f 50/49/31 48/47/31 88/47/31 89/49/31
f 6/5/31 4/3/31 66/3/31 67/5/31
f 24/23/31 22/21/31 75/21/31 76/23/31
f 42/41/31 40/39/31 84/39/31 85/41/31
f 60/59/31 58/57/31 93/57/31 94/59/31
f 16/15/31 14/13/31 71/13/31 72/15/31
f 34/33/31 32/31/31 80/31/31 81/33/31
f 52/51/31 50/49/31 89/49/31 90/51/31
f 8/7/31 6/5/31 67/5/31 68/7/31
f 26/25/31 24/23/31 76/23/31 77/25/31
f 44/43/31 42/41/31 85/41/31 86/43/31
f 62/61/31 60/59/31 94/59/31 95/61/31
f 120/47/35 119/45/35 151/45/35 152/47/35
f 72/15/36 71/13/36 103/13/36 104/15/36
f 86/43/37 85/41/37 117/41/37 118/43/37
f 73/17/38 72/15/38 104/15/38 105/17/38
f 87/45/39 86/43/39 118/43/39 119/45/39
f 74/19/40 73/17/40 105/17/40 106/19/40
f 88/47/41 87/45/41 119/45/41 120/47/41
f 75/21/42 74/19/42 106/19/42 107/21/42
f 89/49/43 88/47/43 120/47/43 121/49/43
f 76/23/44 75/21/44 107/21/44 108/23/44
f 90/51/45 89/49/45 121/49/45 122/51/45
f 77/25/46 76/23/46 108/23/46 109/25/46
f 91/53/47 90/51/47 122/51/47 123/53/47
f 78/27/48 77/25/48 109/25/48 110/27/48
f 92/55/49 91/53/49 123/53/49 124/55/49
f 79/29/50 78/27/50 110/27/50 111/29/50
f 66/3/51 65/2/51 97/2/51 98/3/51
f 93/57/52 92/55/52 124/55/52 125/57/52
f 80/31/53 79/29/53 111/29/53 112/31/53
f 67/5/54 66/3/54 98/3/54 99/5/54
f 94/59/55 93/57/55 125/57/55 126/59/55
f 81/33/56 80/31/56 112/31/56 113/33/56
f 68/7/57 67/5/57 99/5/57 100/7/57
f 95/61/58 94/59/58 126/59/58 127/61/58
f 82/35/59 81/33/59 113/33/59 114/35/59
f 69/9/60 68/7/60 100/7/60 101/9/60
f 96/63/61 95/61/61 127/61/61 128/63/61
f 83/37/62 82/35/62 114/35/62 115/37/62
f 70/11/63 69/9/63 101/9/63 102/11/63
f 65/65/64 96/63/64 128/63/64 97/65/64
f 84/39/65 83/37/65 115/37/65 116/39/65
f 71/13/66 70/11/66 102/11/66 103/13/66
f 155/53/67 154/51/67 186/51/67 187/53/67
f 107/21/68 106/19/68 138/19/68 139/21/68
f 121/49/69 120/47/69 152/47/69 153/49/69
f 108/23/70 107/21/70 139/21/70 140/23/70
f 122/51/71 121/49/71 153/49/71 154/51/71
f 109/25/72 108/23/72 140/23/72 141/25/72
f 123/53/73 122/51/73 154/51/73 155/53/73
f 110/27/74 109/25/74 141/25/74 142/27/74
f 124/55/75 123/53/75 155/53/75 156/55/75
f 111/29/76 110/27/76 142/27/76 143/29/76
f 98/3/77 97/2/77 129/2/77 130/3/77
f 125/57/78 124/55/78 156/55/78 157/57/78
f 112/31/79 111/29/79 143/29/79 144/31/79
f 99/5/80 98/3/80 130/3/80 131/5/80
f 126/59/81 125/57/81 157/57/81 158/59/81
f 113/33/82 112/31/82 144/31/82 145/33/82
f 100/7/83 99/5/83 131/5/83 132/7/83
f 127/61/84 126/59/84 158/59/84 159/61/84
f 114/35/85 113/33/85 145/33/85 146/35/85
f 101/9/86 100/7/86 132/7/86 133/9/86
f 128/63/87 127/61/87 159/61/87 160/63/87
f 115/37/88 114/35/88 146/35/88 147/37/88
f 102/11/89 101/9/89 133/9/89 134/11/89
f 97/65/90 128/63/90 160/63/90 129/65/90
f 116/39/91 115/37/91 147/37/91 148/39/91
f 103/13/92 102/11/92 134/11/92 135/13/92
f 117/41/93 116/39/93 148/39/93 149/41/93
f 104/15/94 103/13/94 135/13/94 136/15/94
f 118/43/95 117/41/95 149/41/95 150/43/95
f 105/17/96 104/15/96 136/15/96 137/17/96
f 119/45/97 118/43/97 150/43/97 151/45/97
f 106/19/98 105/17/98 137/17/98 138/19/98
f 163/5/99 162/3/99 194/3/99 195/5/99
f 142/27/100 141/25/100 173/25/100 174/27/100
f 156/55/101 155/53/101 187/53/101 188/55/101
f 143/29/102 142/27/102 174/27/102 175/29/102
f 130/3/103 129/2/103 161/2/103 162/3/103
f 157/57/104 156/55/104 188/55/104 189/57/104
f 144/31/105 143/29/105 175/29/105 176/31/105
f 131/5/106 130/3/106 162/3/106 163/5/106
f 158/59/107 157/57/107 189/57/107 190/59/107
f 145/33/108 144/31/108 176/31/108 177/33/108
f 132/7/109 131/5/109 163/5/109 164/7/109
f 159/61/110 158/59/110 190/59/110 191/61/110
f 146/35/111 145/33/111 177/33/111 178/35/111
f 133/9/112 132/7/112 164/7/112 165/9/112
f 160/63/113 159/61/113 191/61/113 192/63/113
f 147/37/114 146/35/114 178/35/114 179/37/114
f 134/11/115 133/9/115 165/9/115 166/11/115
f 129/65/116 160/63/116 192/63/116 161/65/116
f 148/39/117 147/37/117 179/37/117 180/39/117
f 135/13/118 134/11/118 166/11/118 167/13/118
f 149/41/119 148/39/119 180/39/119 181/41/119
f 136/15/120 135/13/120 167/13/120 168/15/120
f 150/43/121 149/41/121 181/41/121 182/43/121
f 137/17/122 136/15/122 168/15/122 169/17/122
f 151/45/123 150/43/123 182/43/123 183/45/123
f 138/19/124 137/17/124 169/17/124 170/19/124
f 152/47/125 151/45/125 183/45/125 184/47/125
f 139/21/126 138/19/126 170/19/126 171/21/126
f 153/49/127 152/47/127 184/47/127 185/49/127
f 140/23/128 139/21/128 171/21/128 172/23/128
f 154/51/129 153/49/129 185/49/129 186/51/129
f 141/25/130 140/23/130 172/23/130 173/25/130
f 198/11/131 197/9/131 229/9/131 230/11/131
f 190/59/132 189/57/132 221/57/132 222/59/132
f 177/33/133 176/31/133 208/31/133 209/33/133
f 164/7/134 163/5/134 195/5/134 196/7/134
f 191/61/135 190/59/135 222/59/135 223/61/135
f 178/35/136 177/33/136 209/33/136 210/35/136
f 165/9/137 164/7/137 196/7/137 197/9/137
f 192/63/138 191/61/138 223/61/138 224/63/138
f 179/37/139 178/35/139 210/35/139 211/37/139
f 166/11/140 165/9/140 197/9/140 198/11/140
f 161/65/141 192/63/141 224/63/141 193/65/141
f 180/39/142 179/37/142 211/37/142 212/39/142
f 167/13/143 166/11/143 198/11/143 199/13/143
f 181/41/144 180/39/144 212/39/144 213/41/144
f 168/15/145 167/13/145 199/13/145 200/15/145
f 182/43/146 181/41/146 213/41/146 214/43/146
f 169/17/147 168/15/147 200/15/147 201/17/147
f 183/45/148 182/43/148 214/43/148 215/45/148
f 170/19/149 169/17/149 201/17/149 202/19/149
f 184/47/150 183/45/150 215/45/150 216/47/150
f 171/21/151 170/19/151 202/19/151 203/21/151
f 185/49/152 184/47/152 216/47/152 217/49/152
f 172/23/153 171/21/153 203/21/153 204/23/153
f 186/51/154 185/49/154 217/49/154 218/51/154
f 173/25/155 172/23/155 204/23/155 205/25/155
f 187/53/156 186/51/156 218/51/156 219/53/156
f 174/27/157 173/25/157 205/25/157 206/27/157
f 188/55/158 187/53/158 219/53/158 220/55/158
f 175/29/159 174/27/159 206/27/159 207/29/159
f 162/3/160 161/2/160 193/2/160 194/3/160
f 189/57/161 188/55/161 220/55/161 221/57/161
f 176/31/162 175/29/162 207/29/162 208/31/162
f 234/19/163 233/17/163 265/17/163 266/19/163
f 193/65/164 224/63/164 256/63/164 225/65/164
f 212/39/165 211/37/165 243/37/165 244/39/165
f 199/13/166 198/11/166 230/11/166 231/13/166
f 213/41/167 212/39/167 244/39/167 245/41/167
f 200/15/168 199/13/168 231/13/168 232/15/168
f 214/43/169 213/41/169 245/41/169 246/43/169
f 201/17/170 200/15/170 232/15/170 233/17/170
f 215/45/171 214/43/171 246/43/171 247/45/171
f 202/19/172 201/17/172 233/17/172 234/19/172
f 216/47/173 215/45/173 247/45/173 248/47/173
f 203/21/174 202/19/174 234/19/174 235/21/174
f 217/49/175 216/47/175 248/47/175 249/49/175
f 204/23/176 203/21/176 235/21/176 236/23/176
f 218/51/177 217/49/177 249/49/177 250/51/177
f 205/25/178 204/23/178 236/23/178 237/25/178
f 219/53/179 218/51/179 250/51/179 251/53/179
f 206/27/180 205/25/180 237/25/180 238/27/180
f 220/55/181 219/53/181 251/53/181 252/55/181
f 207/29/182 206/27/182 238/27/182 239/29/182
f 194/3/183 193/2/183 225/2/183 226/3/183
f 221/57/184 220/55/184 252/55/184 253/57/184
f 208/31/185 207/29/185 239/29/185 240/31/185
f 195/5/186 194/3/186 226/3/186 227/5/186
f 222/59/187 221/57/187 253/57/187 254/59/187
f 209/33/188 208/31/188 240/31/188 241/33/188
f 196/7/189 195/5/189 227/5/189 228/7/189
f 223/61/190 222/59/190 254/59/190 255/61/190
f 210/35/191 209/33/191 241/33/191 242/35/191
f 197/9/192 196/7/192 228/7/192 229/9/192
f 224/63/193 223/61/193 255/61/193 256/63/193
f 211/37/194 210/35/194 242/35/194 243/37/194
f 264/15/195 263/13/195 295/13/195 296/15/195
f 248/47/196 247/45/196 279/45/196 280/47/196
f 235/21/197 234/19/197 266/19/197 267/21/197
f 249/49/198 248/47/198 280/47/198 281/49/198
f 236/23/199 235/21/199 267/21/199 268/23/199
f 250/51/200 249/49/200 281/49/200 282/51/200
f 237/25/201 236/23/201 268/23/201 269/25/201
f 251/53/202 250/51/202 282/51/202 283/53/202
f 238/27/203 237/25/203 269/25/203 270/27/203
f 252/55/204 251/53/204 283/53/204 284/55/204
f 239/29/205 238/27/205 270/27/205 271/29/205
f 226/3/206 225/2/206 257/2/206 258/3/206
f 253/57/207 252/55/207 284/55/207 285/57/207
f 240/31/208 239/29/208 271/29/208 272/31/208
f 227/5/209 226/3/209 258/3/209 259/5/209
f 254/59/210 253/57/210 285/57/210 286/59/210
f 241/33/211 240/31/211 272/31/211 273/33/211
f 228/7/212 227/5/212 259/5/212 260/7/212
f 255/61/213 254/59/213 286/59/213 287/61/213
f 242/35/214 241/33/214 273/33/214 274/35/214
f 229/9/215 228/7/215 260/7/215 261/9/215
f 256/63/216 255/61/216 287/61/216 288/63/216
f 243/37/217 242/35/217 274/35/217 275/37/217
f 230/11/218 229/9/218 261/9/218 262/11/218
f 225/65/219 256/63/219 288/63/219 257/65/219
f 244/39/220 243/37/220 275/37/220 276/39/220
f 231/13/221 230/11/221 262/11/221 263/13/221
f 245/41/222 244/39/222 276/39/222 277/41/222
f 232/15/223 231/13/223 263/13/223 264/15/223
f 246/43/224 245/41/224 277/41/224 278/43/224
f 233/17/225 232/15/225 264/15/225 265/17/225
f 247/45/226 246/43/226 278/43/226 279/45/226
f 299/21/227 298/19/227 330/19/227 331/21/227
f 278/43/228 277/41/228 309/41/228 310/43/228
f 265/17/229 264/15/229 296/15/229 297/17/229
f 279/45/230 278/43/230 310/43/230 311/45/230
f 266/19/231 265/17/231 297/17/231 298/19/231
f 280/47/232 279/45/232 311/45/232 312/47/232
f 267/21/233 266/19/233 298/19/233 299/21/233
f 281/49/234 280/47/234 312/47/234 313/49/234
f 268/23/235 267/21/235 299/21/235 300/23/235
f 282/51/236 281/49/236 313/49/236 314/51/236
f 269/25/237 268/23/237 300/23/237 301/25/237
f 283/53/238 282/51/238 314/51/238 315/53/238
f 270/27/239 269/25/239 301/25/239 302/27/239
f 284/55/240 283/53/240 315/53/240 316/55/240
f 271/29/241 270/27/241 302/27/241 303/29/241
f 258/3/242 257/2/242 289/2/242 290/3/242
f 285/57/243 284/55/243 316/55/243 317/57/243
f 272/31/244 271/29/244 303/29/244 304/31/244
f 259/5/245 258/3/245 290/3/245 291/5/245
f 286/59/246 285/57/246 317/57/246 318/59/246
f 273/33/247 272/31/247 304/31/247 305/33/247
f 260/7/248 259/5/248 291/5/248 292/7/248
f 287/61/249 286/59/249 318/59/249 319/61/249
f 274/35/250 273/33/250 305/33/250 306/35/250
f 261/9/251 260/7/251 292/7/251 293/9/251
f 288/63/252 287/61/252 319/61/252 320/63/252
f 275/37/253 274/35/253 306/35/253 307/37/253
f 262/11/254 261/9/254 293/9/254 294/11/254
f 257/65/255 288/63/255 320/63/255 289/65/255
f 276/39/256 275/37/256 307/37/256 308/39/256
f 263/13/257 262/11/257 294/11/257 295/13/257
f 277/41/258 276/39/258 308/39/258 309/41/258
f 334/27/259 333/25/259 365/25/259 366/27/259
f 313/49/260 312/47/260 344/47/260 345/49/260
f 300/23/261 299/21/261 331/21/261 332/23/261
f 314/51/262 313/49/262 345/49/262 346/51/262
f 301/25/263 300/23/263 332/23/263 333/25/263
f 315/53/264 314/51/264 346/51/264 347/53/264
f 302/27/265 301/25/265 333/25/265 334/27/265
f 316/55/266 315/53/266 347/53/266 348/55/266
f 303/29/267 302/27/267 334/27/267 335/29/267
f 290/3/268 289/2/268 321/2/268 322/3/268
f 317/57/269 316/55/269 348/55/269 349/57/269
f 304/31/270 303/29/270 335/29/270 336/31/270
f 291/5/271 290/3/271 322/3/271 323/5/271
f 318/59/272 317/57/272 349/57/272 350/59/272
f 305/33/273 304/31/273 336/31/273 337/33/273
f 292/7/274 291/5/274 323/5/274 324/7/274
f 319/61/275 318/59/275 350/59/275 351/61/275
f 306/35/276 305/33/276 337/33/276 338/35/276
f 293/9/277 292/7/277 324/7/277 325/9/277
f 320/63/278 319/61/278 351/61/278 352/63/278
f 307/37/279 306/35/279 338/35/279 339/37/279
f 294/11/280 293/9/280 325/9/280 326/11/280
f 289/65/281 320/63/281 352/63/281 321/65/281
f 308/39/282 307/37/282 339/37/282 340/39/282
f 295/13/283 294/11/283 326/11/283 327/13/283
f 309/41/284 308/39/284 340/39/284 341/41/284
f 296/15/285 295/13/285 327/13/285 328/15/285
f 310/43/286 309/41/286 341/41/286 342/43/286
f 297/17/287 296/15/287 328/15/287 329/17/287
f 311/45/288 310/43/288 342/43/288 343/45/288
f 298/19/289 297/17/289 329/17/289 330/19/289
f 312/47/290 311/45/290 343/45/290 344/47/290
f 368/31/291 392/29/291 408/31/291 393/33/291
f 348/55/292 347/53/292 379/53/292 380/55/292
f 335/29/293 334/27/293 366/27/293 367/29/293
f 322/3/294 321/2/294 353/2/294 354/3/294
f 349/57/295 348/55/295 380/55/295 381/57/295
f 336/31/296 335/29/296 367/29/296 368/31/296
f 323/5/297 322/3/297 354/3/297 355/5/297
f 350/59/298 349/57/298 381/57/298 382/59/298
f 337/33/299 336/31/299 368/31/299 369/33/299
f 324/7/300 323/5/300 355/5/300 356/7/300
f 351/61/301 350/59/301 382/59/301 383/61/301
f 338/35/302 337/33/302 369/33/302 370/35/302
f 325/9/303 324/7/303 356/7/303 357/9/303
f 352/63/304 351/61/304 383/61/304 384/63/304
f 339/37/305 338/35/305 370/35/305 371/37/305
f 326/11/306 325/9/306 357/9/306 358/11/306
f 321/65/307 352/63/307 384/63/307 353/65/307
f 340/39/308 339/37/308 371/37/308 372/39/308
f 327/13/309 326/11/309 358/11/309 359/13/309
f 341/41/310 340/39/310 372/39/310 373/41/310
f 328/15/311 327/13/311 359/13/311 360/15/311
f 342/43/312 341/41/312 373/41/312 374/43/312
f 329/17/313 328/15/313 360/15/313 361/17/313
f 343/45/314 342/43/314 374/43/314 375/45/314
f 330/19/315 329/17/315 361/17/315 362/19/315
f 344/47/316 343/45/316 375/45/316 376/47/316
f 331/21/317 330/19/317 362/19/317 363/21/317
f 345/49/318 344/47/318 376/47/318 377/49/318
f 332/23/319 331/21/319 363/21/319 364/23/319
f 346/51/320 345/49/320 377/49/320 378/51/320
f 333/25/321 332/23/321 364/23/321 365/25/321
f 347/53/322 346/51/322 378/51/322 379/53/322
f 356/7/323 386/5/323 402/7/323 387/9/323
f 382/59/324 399/57/324 415/59/324 400/61/324
f 370/35/325 393/33/325 409/35/325 394/37/325
f 388/13/326 403/11/326 423/13/326 404/15/326
f 384/63/327 400/61/327 416/63/327 385/65/327
f 373/41/328 372/39/328 395/41/328
f 358/11/329 387/9/329 403/11/329 388/13/329
f 372/39/330 394/37/330 410/39/330 395/41/330
f 389/17/331 404/15/331 425/17/331 405/19/331
f 396/45/332 411/43/332 439/45/332 412/47/332
f 360/15/333 388/13/333 404/15/333 389/17/333
f 374/43/334 395/41/334 411/43/334 396/45/334
f 390/21/335 405/19/335 427/21/335 406/23/335
f 397/49/336 412/47/336 441/49/336 413/51/336
f 362/19/337 389/17/337 405/19/337 390/21/337
f 376/47/338 396/45/338 412/47/338 397/49/338
f 391/25/339 406/23/339 429/25/339 407/27/339
f 398/53/340 413/51/340 443/53/340 414/55/340
f 364/23/341 390/21/341 406/23/341 391/25/341
f 378/51/342 397/49/342 413/51/342 398/53/342
f 392/29/343 407/27/343 431/29/343 408/31/343
f 399/57/344 414/55/344 445/57/344 415/59/344
f 366/27/345 391/25/345 407/27/345 392/29/345
f 380/55/346 398/53/346 414/55/346 399/57/346
f 393/33/347 408/31/347 433/33/347 409/35/347
f 354/3/348 385/2/348 401/3/348 386/5/348
f 400/61/349 415/59/349 447/61/349 416/63/349
f 387/9/350 402/7/350 421/9/350 403/11/350
f 412/47/351 440/47/351 441/49/351
f 374/43/352 373/41/352 395/41/352
f 362/19/353 361/17/353 389/17/353
f 376/47/354 375/45/354 396/45/354
f 364/23/355 363/21/355 390/21/355
f 378/51/356 377/49/356 397/49/356
f 366/27/357 365/25/357 391/25/357
f 380/55/358 379/53/358 398/53/358
f 368/31/359 367/29/359 392/29/359
f 382/59/360 381/57/360 399/57/360
f 356/7/361 355/5/361 386/5/361
f 370/35/362 369/33/362 393/33/362
f 384/63/363 383/61/363 400/61/363
f 372/39/364 371/37/364 394/37/364
f 358/11/365 357/9/365 387/9/365
f 418/3/366 401/3/366 417/2/366
f 394/37/367 409/35/367 435/37/367 410/39/367
f 360/15/368 359/13/368 388/13/368
f 420/7/369 402/7/369 419/5/369
f 435/37/370 434/35/370 466/35/370 467/37/370
f 405/19/371 426/19/371 427/21/371
f 444/55/372 414/55/372 443/53/372
f 406/23/373 428/23/373 429/25/373
f 413/51/374 442/51/374 443/53/374
f 432/31/375 408/31/375 431/29/375
f 446/59/376 415/59/376 445/57/376
f 407/27/377 430/27/377 431/29/377
f 414/55/378 444/55/378 445/57/378
f 434/35/379 409/35/379 433/33/379
f 448/63/380 416/63/380 447/61/380
f 408/31/381 432/31/381 433/33/381
f 401/3/382 418/3/382 419/5/382
f 415/59/383 446/59/383 447/61/383
f 436/39/384 410/39/384 435/37/384
f 402/7/385 420/7/385 421/9/385
f 409/35/386 434/35/386 435/37/386
f 424/15/387 404/15/387 423/13/387
f 438/43/388 411/43/388 437/41/388
f 403/11/389 422/11/389 423/13/389
f 410/39/390 436/39/390 437/41/390
f 426/19/391 405/19/391 425/17/391
f 422/11/392 403/11/392 421/9/392
f 411/43/393 438/43/393 439/45/393
f 404/15/394 424/15/394 425/17/394
f 440/47/395 412/47/395 439/45/395
f 428/23/396 406/23/396 427/21/396
f 442/51/397 413/51/397 441/49/397
f 430/27/398 407/27/398 429/25/398
f 470/43/399 469/41/399 501/41/399 502/43/399
f 422/11/400 421/9/400 453/9/400 454/11/400
f 417/65/401 448/63/401 480/63/401 449/65/401
f 436/39/402 435/37/402 467/37/402 468/39/402
f 423/13/403 422/11/403 454/11/403 455/13/403
f 437/41/404 436/39/404 468/39/404 469/41/404
f 424/15/405 423/13/405 455/13/405 456/15/405
f 438/43/406 437/41/406 469/41/406 470/43/406
f 425/17/407 424/15/407 456/15/407 457/17/407
f 439/45/408 438/43/408 470/43/408 471/45/408
f 426/19/409 425/17/409 457/17/409 458/19/409
f 440/47/410 439/45/410 471/45/410 472/47/410
f 427/21/411 426/19/411 458/19/411 459/21/411
f 441/49/412 440/47/412 472/47/412 473/49/412
f 428/23/413 427/21/413 459/21/413 460/23/413
f 442/51/414 441/49/414 473/49/414 474/51/414
f 429/25/415 428/23/415 460/23/415 461/25/415
f 443/53/416 442/51/416 474/51/416 475/53/416
f 430/27/417 429/25/417 461/25/417 462/27/417
f 444/55/418 443/53/418 475/53/418 476/55/418
f 431/29/419 430/27/419 462/27/419 463/29/419
f 418/3/420 417/2/420 449/2/420 450/3/420
f 445/57/421 444/55/421 476/55/421 477/57/421
f 432/31/422 431/29/422 463/29/422 464/31/422
f 419/5/423 418/3/423 450/3/423 451/5/423
f 446/59/424 445/57/424 477/57/424 478/59/424
f 433/33/425 432/31/425 464/31/425 465/33/425
f 420/7/426 419/5/426 451/5/426 452/7/426
f 447/61/427 446/59/427 478/59/427 479/61/427
f 434/35/428 433/33/428 465/33/428 466/35/428
f 421/9/429 420/7/429 452/7/429 453/9/429
f 448/63/430 447/61/430 479/61/430 480/63/430
f 505/49/431 504/47/431 536/47/431 537/49/431
f 457/17/432 456/15/432 488/15/432 489/17/432
f 471/45/433 470/43/433 502/43/433 503/45/433
f 458/19/434 457/17/434 489/17/434 490/19/434
f 472/47/435 471/45/435 503/45/435 504/47/435
f 459/21/436 458/19/436 490/19/436 491/21/436
f 473/49/437 472/47/437 504/47/437 505/49/437
f 460/23/438 459/21/438 491/21/438 492/23/438
f 474/51/439 473/49/439 505/49/439 506/51/439
f 461/25/440 460/23/440 492/23/440 493/25/440
f 475/53/441 474/51/441 506/51/441 507/53/441
f 462/27/442 461/25/442 493/25/442 494/27/442
f 476/55/443 475/53/443 507/53/443 508/55/443
f 463/29/444 462/27/444 494/27/444 495/29/444
f 450/3/445 449/2/445 481/2/445 482/3/445
f 477/57/446 476/55/446 508/55/446 509/57/446
f 464/31/447 463/29/447 495/29/447 496/31/447
f 451/5/448 450/3/448 482/3/448 483/5/448
f 478/59/449 477/57/449 509/57/449 510/59/449
f 465/33/450 464/31/450 496/31/450 497/33/450
f 452/7/451 451/5/451 483/5/451 484/7/451
f 479/61/452 478/59/452 510/59/452 511/61/452
f 466/35/453 465/33/453 497/33/453 498/35/453
f 453/9/454 452/7/454 484/7/454 485/9/454
f 480/63/455 479/61/455 511/61/455 512/63/455
f 467/37/456 466/35/456 498/35/456 499/37/456
f 454/11/457 453/9/457 485/9/457 486/11/457
f 449/65/458 480/63/458 512/63/458 481/65/458
f 468/39/459 467/37/459 499/37/459 500/39/459
f 455/13/460 454/11/460 486/11/460 487/13/460
f 469/41/461 468/39/461 500/39/461 501/41/461
f 456/15/462 455/13/462 487/13/462 488/15/462
f 540/55/463 539/53/463 571/53/463 572/55/463
f 492/23/464 491/21/464 523/21/464 524/23/464
f 506/51/465 505/49/465 537/49/465 538/51/465
f 493/25/466 492/23/466 524/23/466 525/25/466
f 507/53/467 506/51/467 538/51/467 539/53/467
f 494/27/468 493/25/468 525/25/468 526/27/468
f 508/55/469 507/53/469 539/53/469 540/55/469
f 495/29/470 494/27/470 526/27/470 527/29/470
f 482/3/471 481/2/471 513/2/471 514/3/471
f 509/57/472 508/55/472 540/55/472 541/57/472
f 496/31/473 495/29/473 527/29/473 528/31/473
f 483/5/474 482/3/474 514/3/474 515/5/474
f 510/59/475 509/57/475 541/57/475 542/59/475
f 497/33/476 496/31/476 528/31/476 529/33/476
f 484/7/477 483/5/477 515/5/477 516/7/477
f 511/61/478 510/59/478 542/59/478 543/61/478
f 498/35/479 497/33/479 529/33/479 530/35/479
f 485/9/480 484/7/480 516/7/480 517/9/480
f 512/63/481 511/61/481 543/61/481 544/63/481
f 499/37/482 498/35/482 530/35/482 531/37/482
f 486/11/483 485/9/483 517/9/483 518/11/483
f 481/65/484 512/63/484 544/63/484 513/65/484
f 500/39/485 499/37/485 531/37/485 532/39/485
f 487/13/486 486/11/486 518/11/486 519/13/486
f 501/41/487 500/39/487 532/39/487 533/41/487
f 488/15/488 487/13/488 519/13/488 520/15/488
f 502/43/489 501/41/489 533/41/489 534/43/489
f 489/17/490 488/15/490 520/15/490 521/17/490
f 503/45/491 502/43/491 534/43/491 535/45/491
f 490/19/492 489/17/492 521/17/492 522/19/492
f 504/47/493 503/45/493 535/45/493 536/47/493
f 491/21/494 490/19/494 522/19/494 523/21/494
f 575/61/495 574/59/495 606/59/495 607/61/495
f 527/29/496 526/27/496 558/27/496 559/29/496
f 514/3/497 513/2/497 545/2/497 546/3/497
f 541/57/498 540/55/498 572/55/498 573/57/498
f 528/31/499 527/29/499 559/29/499 560/31/499
f 515/5/500 514/3/500 546/3/500 547/5/500
f 542/59/501 541/57/501 573/57/501 574/59/501
f 529/33/502 528/31/502 560/31/502 561/33/502
f 516/7/503 515/5/503 547/5/503 548/7/503
f 543/61/504 542/59/504 574/59/504 575/61/504
f 530/35/505 529/33/505 561/33/505 562/35/505
f 517/9/506 516/7/506 548/7/506 549/9/506
f 544/63/507 543/61/507 575/61/507 576/63/507
f 531/37/508 530/35/508 562/35/508 563/37/508
f 518/11/509 517/9/509 549/9/509 550/11/509
f 513/65/510 544/63/510 576/63/510 545/65/510
f 532/39/511 531/37/511 563/37/511 564/39/511
f 519/13/512 518/11/512 550/11/512 551/13/512
f 533/41/513 532/39/513 564/39/513 565/41/513
f 520/15/514 519/13/514 551/13/514 552/15/514
f 534/43/515 533/41/515 565/41/515 566/43/515
f 521/17/516 520/15/516 552/15/516 553/17/516
f 535/45/517 534/43/517 566/43/517 567/45/517
f 522/19/518 521/17/518 553/17/518 554/19/518
f 536/47/519 535/45/519 567/45/519 568/47/519
f 523/21/520 522/19/520 554/19/520 555/21/520
f 537/49/521 536/47/521 568/47/521 569/49/521
f 524/23/522 523/21/522 555/21/522 556/23/522
f 538/51/523 537/49/523 569/49/523 570/51/523
f 525/25/524 524/23/524 556/23/524 557/25/524
f 539/53/525 538/51/525 570/51/525 571/53/525
f 526/27/526 525/25/526 557/25/526 558/27/526
f 597/41/527 596/39/527 628/39/527 629/41/527
f 562/35/528 561/33/528 593/33/528 594/35/528
f 549/9/529 548/7/529 580/7/529 581/9/529
f 576/63/530 575/61/530 607/61/530 608/63/530
f 563/37/531 562/35/531 594/35/531 595/37/531
f 550/11/532 549/9/532 581/9/532 582/11/532
f 545/65/533 576/63/533 608/63/533 577/65/533
f 564/39/534 563/37/534 595/37/534 596/39/534
f 551/13/535 550/11/535 582/11/535 583/13/535
f 565/41/536 564/39/536 596/39/536 597/41/536
f 552/15/537 551/13/537 583/13/537 584/15/537
f 566/43/538 565/41/538 597/41/538 598/43/538
f 553/17/539 552/15/539 584/15/539 585/17/539
f 567/45/540 566/43/540 598/43/540 599/45/540
f 554/19/541 553/17/541 585/17/541 586/19/541
f 568/47/542 567/45/542 599/45/542 600/47/542
f 555/21/543 554/19/543 586/19/543 587/21/543
f 569/49/544 568/47/544 600/47/544 601/49/544
f 556/23/545 555/21/545 587/21/545 588/23/545
f 570/51/546 569/49/546 601/49/546 602/51/546
f 557/25/547 556/23/547 588/23/547 589/25/547
f 571/53/548 570/51/548 602/51/548 603/53/548
f 558/27/549 557/25/549 589/25/549 590/27/549
f 572/55/550 571/53/550 603/53/550 604/55/550
f 559/29/551 558/27/551 590/27/551 591/29/551
f 546/3/552 545/2/552 577/2/552 578/3/552
f 573/57/553 572/55/553 604/55/553 605/57/553
f 560/31/554 559/29/554 591/29/554 592/31/554
f 547/5/555 546/3/555 578/3/555 579/5/555
f 574/59/556 573/57/556 605/57/556 606/59/556
f 561/33/557 560/31/557 592/31/557 593/33/557
f 548/7/558 547/5/558 579/5/558 580/7/558
f 632/47/559 631/45/559 663/45/559 664/47/559
f 584/15/560 583/13/560 615/13/560 616/15/560
f 598/43/561 597/41/561 629/41/561 630/43/561
f 585/17/562 584/15/562 616/15/562 617/17/562
f 599/45/563 598/43/563 630/43/563 631/45/563
f 586/19/564 585/17/564 617/17/564 618/19/564
f 600/47/565 599/45/565 631/45/565 632/47/565
f 587/21/566 586/19/566 618/19/566 619/21/566
f 601/49/567 600/47/567 632/47/567 633/49/567
f 588/23/568 587/21/568 619/21/568 620/23/568
f 602/51/569 601/49/569 633/49/569 634/51/569
f 589/25/570 588/23/570 620/23/570 621/25/570
f 603/53/571 602/51/571 634/51/571 635/53/571
f 590/27/572 589/25/572 621/25/572 622/27/572
f 604/55/573 603/53/573 635/53/573 636/55/573
f 591/29/574 590/27/574 622/27/574 623/29/574
f 578/3/575 577/2/575 609/2/575 610/3/575
f 605/57/576 604/55/576 636/55/576 637/57/576
f 592/31/577 591/29/577 623/29/577 624/31/577
f 579/5/578 578/3/578 610/3/578 611/5/578
f 606/59/579 605/57/579 637/57/579 638/59/579
f 593/33/580 592/31/580 624/31/580 625/33/580
f 580/7/581 579/5/581 611/5/581 612/7/581
f 607/61/582 606/59/582 638/59/582 639/61/582
f 594/35/583 593/33/583 625/33/583 626/35/583
f 581/9/584 580/7/584 612/7/584 613/9/584
f 608/63/585 607/61/585 639/61/585 640/63/585
f 595/37/586 594/35/586 626/35/586 627/37/586
f 582/11/587 581/9/587 613/9/587 614/11/587
f 577/65/588 608/63/588 640/63/588 609/65/588
f 596/39/589 595/37/589 627/37/589 628/39/589
f 583/13/590 582/11/590 614/11/590 615/13/590
f 666/51/591 685/49/591 701/51/591 686/53/591
f 619/21/592 618/19/592 650/19/592 651/21/592
f 633/49/593 632/47/593 664/47/593 665/49/593
f 620/23/594 619/21/594 651/21/594 652/23/594
f 634/51/595 633/49/595 665/49/595 666/51/595
f 621/25/596 620/23/596 652/23/596 653/25/596
f 635/53/597 634/51/597 666/51/597 667/53/597
f 622/27/598 621/25/598 653/25/598 654/27/598
f 636/55/599 635/53/599 667/53/599 668/55/599
f 623/29/600 622/27/600 654/27/600 655/29/600
f 610/3/601 609/2/601 641/2/601 642/3/601
f 637/57/602 636/55/602 668/55/602 669/57/602
f 624/31/603 623/29/603 655/29/603 656/31/603
f 611/5/604 610/3/604 642/3/604 643/5/604
f 638/59/605 637/57/605 669/57/605 670/59/605
f 625/33/606 624/31/606 656/31/606 657/33/606
f 612/7/607 611/5/607 643/5/607 644/7/607
f 639/61/608 638/59/608 670/59/608 671/61/608
f 626/35/609 625/33/609 657/33/609 658/35/609
f 613/9/610 612/7/610 644/7/610 645/9/610
f 640/63/611 639/61/611 671/61/611 672/63/611
f 627/37/612 626/35/612 658/35/612 659/37/612
f 614/11/613 613/9/613 645/9/613 646/11/613
f 609/65/614 640/63/614 672/63/614 641/65/614
f 628/39/615 627/37/615 659/37/615 660/39/615
f 615/13/616 614/11/616 646/11/616 647/13/616
f 629/41/617 628/39/617 660/39/617 661/41/617
f 616/15/618 615/13/618 647/13/618 648/15/618
f 630/43/619 629/41/619 661/41/619 662/43/619
f 617/17/620 616/15/620 648/15/620 649/17/620
f 631/45/621 630/43/621 662/43/621 663/45/621
f 618/19/622 617/17/622 649/17/622 650/19/622
f 654/27/623 679/25/623 695/27/623 680/29/623
f 668/55/624 686/53/624 702/55/624 687/57/624
f 681/33/625 696/31/625 721/33/625 697/35/625
f 642/3/626 673/2/626 689/3/626 674/5/626
f 688/61/627 703/59/627 735/61/627 704/63/627
f 656/31/628 680/29/628 696/31/628 681/33/628
f 675/9/629 690/7/629 709/9/629 691/11/629
f 670/59/630 687/57/630 703/59/630 688/61/630
f 682/37/631 697/35/631 723/37/631 698/39/631
f 644/7/632 674/5/632 690/7/632 675/9/632
f 704/63/633 705/2/633 689/3/633 673/65/633
f 658/35/634 681/33/634 697/35/634 682/37/634
f 676/13/635 691/11/635 711/13/635 692/15/635
f 672/63/636 688/61/636 704/63/636 673/65/636
f 683/41/637 698/39/637 725/41/637 699/43/637
f 646/11/638 675/9/638 691/11/638 676/13/638
f 660/39/639 682/37/639 698/39/639 683/41/639
f 677/17/640 692/15/640 713/17/640 693/19/640
f 684/45/641 699/43/641 727/45/641 700/47/641
f 648/15/642 676/13/642 692/15/642 677/17/642
f 662/43/643 683/41/643 699/43/643 684/45/643
f 678/21/644 693/19/644 715/21/644 694/23/644
f 685/49/645 700/47/645 729/49/645 701/51/645
f 650/19/646 677/17/646 693/19/646 678/21/646
f 664/47/647 684/45/647 700/47/647 685/49/647
f 679/25/648 694/23/648 717/25/648 695/27/648
f 686/53/649 701/51/649 731/53/649 702/55/649
f 652/23/650 678/21/650 694/23/650 679/25/650
f 680/29/651 695/27/651 719/29/651 696/31/651
f 691/11/652 710/11/652 711/13/652
f 672/63/653 671/61/653 688/61/653
f 646/11/654 645/9/654 675/9/654
f 706/3/655 689/3/655 705/2/655
f 660/39/656 659/37/656 682/37/656
f 708/7/657 690/7/657 707/5/657
f 648/15/658 647/13/658 676/13/658
f 662/43/659 661/41/659 683/41/659
f 650/19/660 649/17/660 677/17/660
f 664/47/661 663/45/661 684/45/661
f 652/23/662 651/21/662 678/21/662
f 666/51/663 665/49/663 685/49/663
f 654/27/664 653/25/664 679/25/664
f 668/55/665 667/53/665 686/53/665
f 687/57/666 702/55/666 733/57/666 703/59/666
f 656/31/667 655/29/667 680/29/667
f 644/7/668 643/5/668 674/5/668
f 670/59/669 669/57/669 687/57/669
f 658/35/670 657/33/670 681/33/670
f 713/17/671 712/15/671 744/15/671 745/17/671
f 689/3/672 706/3/672 707/5/672
f 698/39/673 724/39/673 725/41/673
f 692/15/674 712/15/674 713/17/674
f 699/43/675 726/43/675 727/45/675
f 716/23/676 694/23/676 715/21/676
f 730/51/677 701/51/677 729/49/677
f 693/19/678 714/19/678 715/21/678
f 700/47/679 728/47/679 729/49/679
f 718/27/680 695/27/680 717/25/680
f 732/55/681 702/55/681 731/53/681
f 694/23/682 716/23/682 717/25/682
f 701/51/683 730/51/683 731/53/683
f 720/31/684 696/31/684 719/29/684
f 734/59/685 703/59/685 733/57/685
f 695/27/686 718/27/686 719/29/686
f 702/55/687 732/55/687 733/57/687
f 722/35/688 697/35/688 721/33/688
f 736/63/689 704/63/689 735/61/689
f 696/31/690 720/31/690 721/33/690
f 710/11/691 691/11/691 709/9/691
f 703/59/692 734/59/692 735/61/692
f 724/39/693 698/39/693 723/37/693
f 690/7/694 708/7/694 709/9/694
f 697/35/695 722/35/695 723/37/695
f 712/15/696 692/15/696 711/13/696
f 726/43/697 699/43/697 725/41/697
f 714/19/698 693/19/698 713/17/698
f 728/47/699 700/47/699 727/45/699
f 748/23/700 747/21/700 779/21/700 780/23/700
f 727/45/701 726/43/701 758/43/701 759/45/701
f 714/19/702 713/17/702 745/17/702 746/19/702
f 728/47/703 727/45/703 759/45/703 760/47/703
f 715/21/704 714/19/704 746/19/704 747/21/704
f 729/49/705 728/47/705 760/47/705 761/49/705
f 716/23/706 715/21/706 747/21/706 748/23/706
f 730/51/707 729/49/707 761/49/707 762/51/707
f 717/25/708 716/23/708 748/23/708 749/25/708
f 731/53/709 730/51/709 762/51/709 763/53/709
f 718/27/710 717/25/710 749/25/710 750/27/710
f 732/55/711 731/53/711 763/53/711 764/55/711
f 719/29/712 718/27/712 750/27/712 751/29/712
f 706/3/713 705/2/713 737/2/713 738/3/713
f 733/57/714 732/55/714 764/55/714 765/57/714
f 720/31/715 719/29/715 751/29/715 752/31/715
f 707/5/716 706/3/716 738/3/716 739/5/716
f 734/59/717 733/57/717 765/57/717 766/59/717
f 721/33/718 720/31/718 752/31/718 753/33/718
f 708/7/719 707/5/719 739/5/719 740/7/719
f 735/61/720 734/59/720 766/59/720 767/61/720
f 722/35/721 721/33/721 753/33/721 754/35/721
f 709/9/722 708/7/722 740/7/722 741/9/722
f 736/63/723 735/61/723 767/61/723 768/63/723
f 723/37/724 722/35/724 754/35/724 755/37/724
f 710/11/725 709/9/725 741/9/725 742/11/725
f 705/65/726 736/63/726 768/63/726 737/65/726
f 724/39/727 723/37/727 755/37/727 756/39/727
f 711/13/728 710/11/728 742/11/728 743/13/728
f 725/41/729 724/39/729 756/39/729 757/41/729
f 712/15/730 711/13/730 743/13/730 744/15/730
f 726/43/731 725/41/731 757/41/731 758/43/731
f 791/45/732 790/43/732 822/43/732 823/45/732
f 762/51/733 761/49/733 793/49/733 794/51/733
f 749/25/734 748/23/734 780/23/734 781/25/734
f 763/53/735 762/51/735 794/51/735 795/53/735
f 750/27/736 749/25/736 781/25/736 782/27/736
f 764/55/737 763/53/737 795/53/737 796/55/737
f 751/29/738 750/27/738 782/27/738 783/29/738
f 738/3/739 737/2/739 769/2/739 770/3/739
f 765/57/740 764/55/740 796/55/740 797/57/740
f 752/31/741 751/29/741 783/29/741 784/31/741
f 739/5/742 738/3/742 770/3/742 771/5/742
f 766/59/743 765/57/743 797/57/743 798/59/743
f 753/33/744 752/31/744 784/31/744 785/33/744
f 740/7/745 739/5/745 771/5/745 772/7/745
f 767/61/746 766/59/746 798/59/746 799/61/746
f 754/35/747 753/33/747 785/33/747 786/35/747
f 741/9/748 740/7/748 772/7/748 773/9/748
f 768/63/749 767/61/749 799/61/749 800/63/749
f 755/37/750 754/35/750 786/35/750 787/37/750
f 742/11/751 741/9/751 773/9/751 774/11/751
f 737/65/752 768/63/752 800/63/752 769/65/752
f 756/39/753 755/37/753 787/37/753 788/39/753
f 743/13/754 742/11/754 774/11/754 775/13/754
f 757/41/755 756/39/755 788/39/755 789/41/755
f 744/15/756 743/13/756 775/13/756 776/15/756
f 758/43/757 757/41/757 789/41/757 790/43/757
f 745/17/758 744/15/758 776/15/758 777/17/758
f 759/45/759 758/43/759 790/43/759 791/45/759
f 746/19/760 745/17/760 777/17/760 778/19/760
f 760/47/761 759/45/761 791/45/761 792/47/761
f 747/21/762 746/19/762 778/19/762 779/21/762
f 761/49/763 760/47/763 792/47/763 793/49/763
f 778/19/764 777/17/764 809/17/764 810/19/764
f 770/3/765 769/2/765 801/2/765 802/3/765
f 792/47/766 791/45/766 823/45/766 824/47/766
f 779/21/767 778/19/767 810/19/767 811/21/767
f 771/5/768 770/3/768 802/3/768 803/5/768
f 793/49/769 792/47/769 824/47/769 825/49/769
f 780/23/770 779/21/770 811/21/770 812/23/770
f 772/7/771 771/5/771 803/5/771 804/7/771
f 794/51/772 793/49/772 825/49/772 826/51/772
f 781/25/773 780/23/773 812/23/773 813/25/773
f 773/9/774 772/7/774 804/7/774 805/9/774
f 795/53/775 794/51/775 826/51/775 827/53/775
f 782/27/776 781/25/776 813/25/776 814/27/776
f 774/11/777 773/9/777 805/9/777 806/11/777
f 796/55/778 795/53/778 827/53/778 828/55/778
f 783/29/779 782/27/779 814/27/779 815/29/779
f 775/13/780 774/11/780 806/11/780 807/13/780
f 797/57/781 796/55/781 828/55/781 829/57/781
f 784/31/782 783/29/782 815/29/782 816/31/782
f 798/59/783 797/57/783 829/57/783 830/59/783
f 785/33/784 784/31/784 816/31/784 817/33/784
f 799/61/785 798/59/785 830/59/785 831/61/785
f 786/35/786 785/33/786 817/33/786 818/35/786
f 800/63/787 799/61/787 831/61/787 832/63/787
f 787/37/788 786/35/788 818/35/788 819/37/788
f 769/65/789 800/63/789 832/63/789 801/65/789
f 788/39/790 787/37/790 819/37/790 820/39/790
f 789/41/791 788/39/791 820/39/791 821/41/791
f 776/15/792 775/13/792 807/13/792 808/15/792
f 790/43/793 789/41/793 821/41/793 822/43/793
f 777/17/794 776/15/794 808/15/794 809/17/794
f 826/51/795 825/49/795 824/47/795 823/45/795 822/43/795 821/41/795 820/39/795 819/37/795 818/35/795 817/33/795 816/31/795 815/29/795 814/27/795 813/25/795 812/23/795 811/21/795 810/19/795 809/17/795 808/15/795 807/13/795 806/11/795 805/9/795 804/7/795 803/5/795 802/3/795 801/65/795 832/63/795 831/61/795 830/59/795 829/57/795 828/55/795 827/53/795
f 643/5/796 642/3/796 674/5/796
f 642/3/797 641/2/797 673/2/797
f 674/5/798 689/3/798 707/5/798 690/7/798
f 645/9/799 644/7/799 675/9/799
f 647/13/800 646/11/800 676/13/800
f 649/17/801 648/15/801 677/17/801
f 651/21/802 650/19/802 678/21/802
f 653/25/803 652/23/803 679/25/803
f 655/29/804 654/27/804 680/29/804
f 657/33/805 656/31/805 681/33/805
f 659/37/806 658/35/806 682/37/806
f 661/41/807 660/39/807 683/41/807
f 663/45/808 662/43/808 684/45/808
f 665/49/809 664/47/809 685/49/809
f 667/53/810 666/51/810 686/53/810
f 669/57/811 668/55/811 687/57/811
f 671/61/812 670/59/812 688/61/812
f 641/65/813 672/63/813 673/65/813
f 704/63/814 736/63/814 705/65/814
f 416/63/815 417/2/815 401/3/815 385/65/815
f 355/5/816 354/3/816 386/5/816
f 354/3/817 353/2/817 385/2/817
f 386/5/818 401/3/818 419/5/818 402/7/818
f 357/9/819 356/7/819 387/9/819
f 359/13/820 358/11/820 388/13/820
f 361/17/821 360/15/821 389/17/821
f 363/21/822 362/19/822 390/21/822
f 365/25/823 364/23/823 391/25/823
f 367/29/824 366/27/824 392/29/824
f 369/33/825 368/31/825 393/33/825
f 371/37/826 370/35/826 394/37/826
f 395/41/827 410/39/827 437/41/827 411/43/827
f 375/45/828 374/43/828 396/45/828
f 377/49/829 376/47/829 397/49/829
f 379/53/830 378/51/830 398/53/830
f 381/57/831 380/55/831 399/57/831
f 383/61/832 382/59/832 400/61/832
f 353/65/833 384/63/833 385/65/833
f 416/63/834 448/63/834 417/65/834
