# Blender 4.2.3 LTS
# www.blender.org
mtllib fungi.mtl
o Cube
v 7.014576 12.180334 -7.198892
v 7.014576 11.520766 -7.198892
v 7.014576 12.180334 4.019522
v 7.014576 11.520766 4.019522
v -3.662959 12.180334 -7.198892
v -3.662959 11.520766 -7.198892
v -3.662959 12.180334 4.019522
v -3.662959 11.520766 4.019522
v 7.827301 12.084392 -5.567033
v 7.827301 11.616709 -5.567033
v 7.827301 12.084392 2.387664
v 7.827301 11.616709 2.387664
v -6.304876 13.977639 -7.123771
v -6.304876 13.318071 -7.123771
v -6.304876 13.977639 4.094643
v -6.304876 13.318071 4.094643
v -13.498579 13.977639 -7.123771
v -13.498579 13.318071 -7.123771
v -13.498579 13.977639 4.094643
v -13.498579 13.318071 4.094643
v 3.714078 12.348277 -8.812522
v 3.714078 11.883429 -8.812522
v -3.811204 12.348277 -8.812522
v -3.811204 11.883429 -8.812522
v -5.673168 13.614977 -8.759578
v -5.673168 13.150128 -8.759578
v -10.743124 13.614977 -8.759578
v -10.743124 13.150128 -8.759578
v 3.418412 12.364917 5.555388
v 3.418412 11.919362 5.555388
v -3.794535 12.364917 5.555388
v -3.794535 11.919362 5.555388
v -5.579218 13.579042 5.606135
v -5.579218 13.133488 5.606135
v -10.438747 13.579042 5.606135
v -10.438747 13.133488 5.606135
v 8.233131 5.409598 15.055017
v 8.233131 4.076650 15.055017
v 8.490513 5.409598 -7.615286
v 8.490513 4.076650 -7.615286
v 29.810419 5.409598 15.299991
v 29.810419 4.076650 15.299991
v 30.067804 5.409598 -7.370312
v 30.067804 4.076650 -7.370312
v 6.628205 5.215704 11.738690
v 6.628205 4.270544 11.738690
v 6.810707 5.215704 -4.336252
v 6.810707 4.270544 -4.336252
v 14.865793 5.749002 18.391586
v 14.865793 4.809570 18.391586
v 30.072977 5.749002 18.564238
v 30.072977 4.809570 18.564238
v 15.792923 5.782631 -10.636475
v 15.792923 4.882190 -10.636475
v 30.368938 5.782631 -10.470989
v 30.368938 4.882190 -10.470989
v 20.884201 18.070385 -11.344800
v 20.884201 17.120075 -11.344800
v 4.777623 18.070385 -12.700593
v 4.777623 17.120075 -12.700593
v 22.174627 18.070385 -26.674826
v 22.174627 17.120075 -26.674826
v 6.068048 18.070385 -28.030619
v 6.068048 17.120075 -28.030619
v 18.443077 17.932150 -10.375165
v 18.443077 17.258310 -10.375165
v 7.022302 17.932150 -11.336524
v 7.022302 17.258310 -11.336524
v 22.386061 20.659950 -30.476978
v 22.386061 19.709641 -30.476978
v 6.279478 20.659950 -31.832767
v 6.279478 19.709641 -31.832767
v 23.255449 20.659950 -40.805172
v 23.255449 19.709641 -40.805172
v 7.148867 20.659950 -42.160961
v 7.148867 19.709641 -42.160961
v 23.599815 18.312357 -15.888402
v 23.599815 17.642601 -15.888402
v 24.509277 18.312357 -26.692652
v 24.509277 17.642601 -26.692652
v 24.658291 20.137424 -29.372322
v 24.658291 19.467669 -29.372322
v 25.271017 20.137424 -36.651394
v 25.271017 19.467669 -36.651394
v 3.007146 18.336332 -18.049318
v 3.007146 17.694374 -18.049318
v 3.878861 18.336332 -28.405140
v 3.878861 17.694374 -28.405140
v 4.021689 20.085649 -30.973591
v 4.021689 19.443693 -30.973591
v 4.608984 20.085649 -37.950550
v 4.608984 19.443693 -37.950550
v -7.250549 46.235695 -16.919207
v -7.250549 45.576130 -16.919207
v -7.250549 46.235695 -5.700794
v -7.250549 45.576130 -5.700794
v 32.532249 40.166409 -16.589863
v 32.532249 39.506844 -16.589863
v 32.532249 40.166409 -5.371451
v 32.532249 39.506844 -5.371451
v 38.848358 35.293339 -16.589863
v 38.447144 34.769840 -16.589863
v 38.848366 35.293339 -5.371452
v 38.447144 34.769840 -5.371452
v 63.043121 16.715458 -16.589867
v 62.466003 16.396137 -16.589867
v 63.043129 16.715454 -5.371456
v 62.466011 16.396137 -5.371456
v 71.714195 1.043900 -16.589872
v 71.137077 0.724580 -16.589872
v 71.714203 1.043897 -5.371463
v 71.137085 0.724580 -5.371463
v -17.004322 46.235695 -16.919207
v -17.004322 45.576130 -16.919207
v -17.004322 46.235695 -5.700794
v -17.004322 45.576130 -5.700794
v -22.218042 36.971176 -15.523835
v -24.581299 38.929680 -14.427190
v -24.059093 40.091610 -3.261839
v -23.666752 39.561432 -3.263977
v -35.676018 35.289429 -16.725809
v -35.514854 34.649872 -16.721645
v -35.274605 35.463543 -5.515929
v -35.113441 34.823986 -5.511766
v -36.772736 30.675446 -14.471704
v -36.611565 30.035889 -14.467540
v -36.371323 30.849560 -3.261824
v -36.210152 30.210003 -3.257661
v -67.177963 22.852875 -13.254428
v -66.802383 22.310692 -13.255490
v -66.297462 23.440943 -2.086093
v -65.921883 22.898760 -2.087155
v -93.265999 4.775328 -10.245800
v -92.890419 4.233145 -10.246862
v -92.385498 5.363396 0.922535
v -92.009918 4.821213 0.921473
v -16.494829 36.907135 -58.330139
v -16.494829 36.247570 -58.330139
v 23.287973 30.837849 -58.000793
v 23.287973 30.178284 -58.000793
v 29.604082 25.964775 -58.000793
v 29.202868 25.441277 -58.000793
v 53.798843 7.386895 -58.000793
v 53.221725 7.067575 -58.000793
v 62.469910 -8.284662 -58.000801
v 61.892792 -8.603982 -58.000801
v -26.248600 36.907135 -58.330139
v -26.248600 36.247570 -58.330139
v -31.138306 31.174274 -58.091946
v -30.745964 30.644093 -58.094086
v -35.678978 23.949375 -56.293251
v -35.517815 23.309818 -56.289085
v -46.017014 21.346882 -55.882633
v -45.855843 20.707325 -55.878471
v -76.422249 13.524312 -54.665359
v -76.046669 12.982129 -54.666420
v -102.510284 -4.553234 -51.656731
v -102.134705 -5.095417 -51.657791
v -16.172131 6.922256 -88.569672
v -16.172131 6.791825 -88.569672
v -8.304939 5.722034 -88.504539
v -8.304939 5.591601 -88.504539
v -7.055909 4.758366 -88.504539
v -7.135247 4.654841 -88.504539
v -2.271309 1.084523 -88.504539
v -2.385434 1.021377 -88.504539
v -0.556572 -2.014582 -88.504547
v -0.670700 -2.077729 -88.504547
v -18.100971 6.922256 -88.569672
v -18.100971 6.791825 -88.569672
v -19.132004 5.090165 -88.293732
v -19.054417 4.985319 -88.294151
v -19.965862 4.359813 -88.166870
v -19.933992 4.233338 -88.166046
v -22.010246 3.845160 -88.085670
v -21.978374 3.718686 -88.084846
v -28.022991 2.298220 -87.844948
v -27.948719 2.191001 -87.845161
v -33.181988 -1.276680 -87.249985
v -33.107723 -1.383896 -87.250191
v -5.003356 26.679020 41.397423
v -5.003356 26.332357 41.397423
v 15.906218 23.489044 41.570522
v 15.906218 23.142382 41.570522
v 19.225925 20.927792 41.570522
v 19.015047 20.652645 41.570522
v 31.639204 10.995548 41.570518
v 36.499985 2.926515 41.570518
v 36.196655 2.758683 41.570518
v -7.508958 23.375660 41.966846
v -7.508958 23.028996 41.966846
v -12.713379 25.064653 42.982319
v -12.507166 24.785994 42.981197
v -14.875436 19.960022 42.463512
v -14.790728 19.623875 42.465702
v -20.309036 18.592171 42.679329
v -20.224329 18.256023 42.681515
v -36.038017 14.698252 43.297287
v -35.840614 14.413283 43.296726
v -49.749718 5.196814 44.878597
v -49.552315 4.911846 44.878040
vn -0.0000 1.0000 -0.0000
vn -0.0000 0.9929 -0.1193
vn -0.5625 -0.8268 -0.0000
vn -0.0000 -1.0000 -0.0000
vn 0.8951 -0.0000 0.4458
vn -0.0000 0.9946 0.1035
vn 1.0000 -0.0000 -0.0000
vn 0.8951 -0.0000 -0.4458
vn 0.1172 -0.9931 -0.0000
vn 0.1172 0.9931 -0.0000
vn 0.5625 0.8268 -0.0000
vn -0.0000 0.9763 -0.2164
vn -0.0000 -0.9679 0.2512
vn -1.0000 -0.0000 -0.0000
vn -0.0000 -0.9926 -0.1212
vn -0.0000 -0.9757 -0.2193
vn -0.0000 -0.0000 -1.0000
vn -0.0284 -0.0000 -0.9996
vn -0.5105 -0.0000 -0.8599
vn 0.5628 0.8259 0.0342
vn -0.0000 -0.9948 0.1021
vn 0.4392 -0.0000 -0.8984
vn -0.5601 -0.8178 -0.1323
vn -0.0000 -0.0000 1.0000
vn 0.0284 -0.0000 0.9996
vn 0.3928 -0.0000 0.9196
vn -0.5516 -0.8177 0.1650
vn -0.0000 0.9669 0.2550
vn -0.4429 -0.0000 0.8966
vn 0.5607 0.8264 -0.0513
vn -0.0014 0.9929 0.1193
vn -0.8900 -0.0000 -0.4559
vn 0.0012 0.9946 -0.1035
vn -0.9999 -0.0000 -0.0114
vn -0.9001 -0.0000 0.4356
vn -0.1172 -0.9931 -0.0013
vn -0.1172 0.9931 -0.0013
vn 0.0029 -0.9679 -0.2512
vn -0.0025 -0.9757 0.2193
vn -0.0114 -0.0000 0.9999
vn -0.4494 -0.0000 0.8933
vn 0.0114 -0.0000 -0.9999
vn -0.3823 -0.0000 -0.9240
vn 0.1189 0.9929 0.0100
vn 0.0472 -0.8268 -0.5605
vn -0.5193 -0.0000 0.8546
vn -0.1032 0.9946 -0.0087
vn -0.0839 -0.0000 0.9965
vn 0.3692 -0.0000 0.9294
vn -0.0098 -0.9931 0.1168
vn -0.0098 0.9931 0.1168
vn -0.0472 0.8268 0.5605
vn 0.2157 0.9763 0.0182
vn -0.2503 -0.9679 -0.0211
vn 0.0839 -0.0000 -0.9965
vn 0.1208 -0.9926 0.0102
vn 0.2185 -0.9757 0.0184
vn 0.9965 -0.0000 0.0839
vn 0.9985 -0.0000 0.0555
vn 0.8997 -0.0000 -0.4366
vn -0.0813 0.8259 0.5580
vn -0.1018 -0.9948 -0.0086
vn 0.8584 -0.0000 0.5130
vn 0.1789 -0.8178 -0.5470
vn -0.9965 -0.0000 -0.0839
vn -0.9985 -0.0000 -0.0555
vn -0.9493 -0.0000 0.3142
vn -0.1181 -0.8177 -0.5635
vn -0.2541 0.9669 -0.0214
vn -0.8563 -0.0000 -0.5165
vn 0.0041 0.8264 0.5631
vn -0.5455 -0.7131 -0.4403
vn -0.1508 -0.9886 -0.0000
vn 0.2177 -0.8805 -0.4211
vn -0.5827 -0.7552 0.3002
vn 0.1508 0.9886 -0.0000
vn -0.0000 -0.9756 0.2198
vn 0.7845 0.5440 -0.2977
vn 0.6251 0.7805 -0.0000
vn -0.6109 -0.7917 -0.0000
vn -0.8750 -0.4841 -0.0000
vn 0.6076 0.7943 -0.0000
vn -0.6090 -0.7932 -0.0000
vn -0.4841 0.8750 -0.0000
vn 0.8230 -0.5628 -0.0767
vn 0.8750 0.4841 -0.0000
vn 0.1481 0.9572 -0.2487
vn 0.6431 0.4467 -0.6221
vn 0.5962 0.7444 -0.3008
vn 0.2254 -0.9628 0.1490
vn -0.6633 0.7483 0.0060
vn 0.7913 -0.5949 0.1411
vn 0.1372 0.9192 0.3690
vn -0.5809 -0.7566 0.3001
vn 0.5606 0.6999 0.4425
vn -0.8371 -0.4632 0.2912
vn -0.3717 0.9283 -0.0116
vn -0.2441 0.9696 -0.0190
vn -0.9689 0.2454 0.0309
vn 0.9689 -0.2454 -0.0309
vn -0.1368 -0.9172 -0.3743
vn 0.5796 0.7577 -0.3001
vn 0.2454 -0.9692 0.0190
vn 0.4698 -0.7543 -0.4586
vn 0.2520 -0.9546 0.1588
vn 0.8183 0.5670 -0.0944
vn -0.5694 0.8220 0.0016
vn 0.5694 -0.8220 -0.0016
vn -0.5469 -0.7088 -0.4455
vn -0.3743 -0.4875 0.7888
vn 0.2195 -0.7792 0.5871
vn 0.3768 0.4925 -0.7845
vn -0.4220 0.4812 -0.7683
vn -0.0000 0.7163 -0.6978
vn 0.4193 -0.4764 0.7728
vn -0.0000 -0.7101 0.7041
vn -0.7248 0.3672 -0.5830
vn -0.3752 -0.4864 0.7891
vn 0.4257 0.2932 0.8561
vn -0.7138 0.7001 -0.0157
vn 0.5521 -0.8208 0.1464
vn 0.4430 -0.8860 0.1367
vn -0.2507 0.9549 -0.1591
vn 0.8371 0.4632 -0.2912
vn -0.5521 0.8208 -0.1464
vn 0.5730 -0.8176 0.0563
vn -0.0000 0.9756 -0.2198
vn -0.5730 0.8176 -0.0563
vn -0.5854 0.7977 -0.1447
vn -0.4822 0.8715 -0.0887
vn -0.1481 -0.9572 0.2487
vn 0.5890 -0.6894 -0.4218
vn -0.0300 -0.0650 -0.9974
vn 0.0325 0.0606 0.9976
vn -0.2207 0.7856 -0.5780
vn -0.1135 -0.7061 0.6989
vn 0.6319 -0.4518 0.6298
vn -0.3130 0.5657 0.7629
vn 0.1144 0.7122 -0.6926
vn -0.6547 0.4391 -0.6153
vn -0.4420 -0.2446 0.8630
vn -0.2238 0.7838 -0.5793
vn 0.4454 0.2464 -0.8608
vn 0.2234 -0.7768 0.5887
vn 0.3855 0.4813 -0.7872
vn 0.7306 -0.3519 0.5852
vn 0.0289 0.0163 0.9994
vn 0.7402 0.4096 0.5332
vn -0.2185 0.8826 0.4163
vn -0.7854 0.6020 -0.1441
vn -0.2074 0.8926 0.4003
vn -0.5853 0.6955 0.4168
vn -0.2150 0.9243 0.3153
vn 0.2091 -0.8899 -0.4054
vn -0.5231 0.7433 0.4171
vn 0.4498 -0.8129 0.3700
vn 0.2156 -0.9221 -0.3214
vn 0.5206 -0.7424 -0.4216
vn -0.4715 0.7560 0.4539
vn -0.0396 -0.0182 -0.9990
vt 0.625000 0.500000
vt 0.875000 0.500000
vt 0.875000 0.750000
vt 0.625000 0.750000
vt 0.125000 0.500000
vt 0.125000 0.750000
vt 0.375000 0.500000
vt 0.375000 0.750000
vt 0.375000 0.000000
vt 0.625000 0.000000
vt 0.625000 0.250000
vt 0.375000 0.250000
vt 0.625000 1.000000
vt 0.375000 1.000000
vt 0.000000 0.000000
s 0
usemtl Material
f 1/1/1 5/2/1 7/3/1 3/4/1
f 3/4/2 7/3/2 31/3/2 29/4/2
f 6/5/3 8/6/3 16/6/3 14/5/3
f 6/5/4 2/7/4 4/8/4 8/6/4
f 3/4/5 4/8/5 12/8/5 11/4/5
f 5/2/6 1/1/6 21/1/6 23/2/6
f 10/7/7 9/1/7 11/4/7 12/8/7
f 2/7/8 1/1/8 9/1/8 10/7/8
f 4/8/9 2/7/9 10/7/9 12/8/9
f 1/1/10 3/4/10 11/4/10 9/1/10
f 15/3/1 13/2/1 17/2/1 19/3/1
f 7/3/11 5/2/11 13/2/11 15/3/11
f 17/2/12 13/2/12 25/2/12 27/2/12
f 8/6/13 4/8/13 30/8/13 32/6/13
f 20/9/14 19/10/14 17/11/14 18/12/14
f 20/6/15 16/6/15 34/6/15 36/6/15
f 2/7/16 6/5/16 24/5/16 22/7/16
f 14/5/4 16/6/4 20/6/4 18/5/4
f 24/12/17 23/11/17 21/1/17 22/7/17
f 23/11/18 24/12/18 26/12/18 25/11/18
f 25/11/17 26/12/17 28/12/17 27/11/17
f 18/12/19 17/11/19 27/11/19 28/12/19
f 13/2/20 5/2/20 23/2/20 25/2/20
f 14/5/21 18/5/21 28/5/21 26/5/21
f 1/1/22 2/7/22 22/7/22 21/1/22
f 6/5/23 14/5/23 26/5/23 24/5/23
f 30/8/24 29/4/24 31/13/24 32/14/24
f 32/14/25 31/13/25 33/13/25 34/14/25
f 34/14/24 33/13/24 35/13/24 36/14/24
f 4/8/26 3/4/26 29/4/26 30/8/26
f 16/6/27 8/6/27 32/6/27 34/6/27
f 15/3/28 19/3/28 35/3/28 33/3/28
f 19/10/29 20/9/29 36/9/29 35/10/29
f 7/3/30 15/3/30 33/3/30 31/3/30
f 37/1/1 41/2/1 43/3/1 39/4/1
f 39/4/31 43/3/31 55/3/31 53/4/31
f 42/5/4 38/7/4 40/8/4 44/6/4
f 39/4/32 40/8/32 48/8/32 47/4/32
f 41/2/33 37/1/33 49/1/33 51/2/33
f 46/7/34 45/1/34 47/4/34 48/8/34
f 38/7/35 37/1/35 45/1/35 46/7/35
f 40/8/36 38/7/36 46/7/36 48/8/36
f 37/1/37 39/4/37 47/4/37 45/1/37
f 44/6/38 40/8/38 54/8/38 56/6/38
f 38/7/39 42/5/39 52/5/39 50/7/39
f 52/12/40 51/11/40 49/1/40 50/7/40
f 37/1/41 38/7/41 50/7/41 49/1/41
f 54/8/42 53/4/42 55/13/42 56/14/42
f 40/8/43 39/4/43 53/4/43 54/8/43
f 57/1/1 61/2/1 63/3/1 59/4/1
f 59/4/44 63/3/44 87/3/44 85/4/44
f 62/5/45 64/6/45 72/6/45 70/5/45
f 62/5/4 58/7/4 60/8/4 64/6/4
f 59/4/46 60/8/46 68/8/46 67/4/46
f 61/2/47 57/1/47 77/1/47 79/2/47
f 66/7/48 65/1/48 67/4/48 68/8/48
f 58/7/49 57/1/49 65/1/49 66/7/49
f 60/8/50 58/7/50 66/7/50 68/8/50
f 57/1/51 59/4/51 67/4/51 65/1/51
f 71/3/1 69/2/1 73/2/1 75/3/1
f 63/3/52 61/2/52 69/2/52 71/3/52
f 73/2/53 69/2/53 81/2/53 83/2/53
f 64/6/54 60/8/54 86/8/54 88/6/54
f 76/9/55 75/10/55 73/11/55 74/12/55
f 76/6/56 72/6/56 90/6/56 92/6/56
f 58/7/57 62/5/57 80/5/57 78/7/57
f 70/5/4 72/6/4 76/6/4 74/5/4
f 80/12/58 79/11/58 77/1/58 78/7/58
f 79/11/59 80/12/59 82/12/59 81/11/59
f 81/11/58 82/12/58 84/12/58 83/11/58
f 74/12/60 73/11/60 83/11/60 84/12/60
f 69/2/61 61/2/61 79/2/61 81/2/61
f 70/5/62 74/5/62 84/5/62 82/5/62
f 57/1/63 58/7/63 78/7/63 77/1/63
f 62/5/64 70/5/64 82/5/64 80/5/64
f 86/8/65 85/4/65 87/13/65 88/14/65
f 88/14/66 87/13/66 89/13/66 90/14/66
f 90/14/65 89/13/65 91/13/65 92/14/65
f 60/8/67 59/4/67 85/4/67 86/8/67
f 72/6/68 64/6/68 88/6/68 90/6/68
f 71/3/69 75/3/69 91/3/69 89/3/69
f 75/10/70 76/9/70 92/9/70 91/10/70
f 63/3/71 71/3/71 89/3/71 87/3/71
f 93/11/4 95/10/4 115/10/4 113/11/4
f 104/9/72 108/9/72 187/9/72 186/9/72
f 95/10/73 93/11/73 97/11/73 99/10/73
f 115/10/74 95/10/74 181/10/74 190/10/74
f 101/11/75 97/11/75 139/11/75 141/11/75
f 94/12/76 96/9/76 100/9/76 98/12/76
f 93/11/77 113/11/77 147/11/77 137/11/77
f 133/11/78 134/12/78 158/12/78 157/11/78
f 98/12/79 100/9/79 104/9/79 102/12/79
f 99/10/80 97/11/80 101/11/80 103/10/80
f 107/10/81 105/11/81 109/11/81 111/10/81
f 102/12/82 104/9/82 108/9/82 106/12/82
f 103/10/83 101/11/83 105/11/83 107/10/83
f 104/9/17 103/10/17 107/10/17 108/9/17
f 112/9/84 111/10/84 109/11/84 110/12/84
f 108/9/17 107/10/17 111/10/17 112/9/17
f 113/11/85 117/11/85 149/11/85 147/11/85
f 106/12/86 108/9/86 112/9/86 110/12/86
f 94/12/87 98/12/87 140/12/87 138/12/87
f 136/9/88 135/10/88 200/10/88 201/9/88
f 98/12/89 102/12/89 142/12/89 140/12/89
f 96/9/1 94/12/1 114/12/1 116/9/1
f 117/11/90 119/10/90 123/10/90 121/11/90
f 116/9/91 114/12/91 118/12/91 120/9/91
f 113/11/92 115/10/92 119/10/92 117/11/92
f 100/9/93 96/9/93 182/9/93 184/9/93
f 105/11/94 101/11/94 141/11/94 143/11/94
f 104/9/95 100/9/95 184/9/95 186/9/95
f 109/11/96 105/11/96 143/11/96 145/11/96
f 120/9/97 118/12/97 122/12/97 124/9/97
f 128/9/98 126/12/98 130/12/98 132/9/98
f 124/9/99 122/12/99 126/12/99 128/9/99
f 121/11/100 123/10/100 127/10/100 125/11/100
f 95/10/101 99/10/101 183/10/101 181/10/101
f 102/12/102 106/12/102 144/12/102 142/12/102
f 125/11/103 127/10/103 131/10/103 129/11/103
f 135/10/104 131/10/104 198/10/104 200/10/104
f 125/11/105 129/11/105 155/11/105 153/11/105
f 136/9/106 134/12/106 133/11/106 135/10/106
f 132/9/107 130/12/107 134/12/107 136/9/107
f 129/11/108 131/10/108 135/10/108 133/11/108
f 99/10/109 103/10/109 185/10/109 183/10/109
f 143/11/110 141/11/110 163/11/110 165/11/110
f 151/11/111 153/11/111 175/11/111 173/11/111
f 142/12/112 144/12/112 166/12/112 164/12/112
f 158/12/113 156/12/113 178/12/113 180/12/113
f 148/12/114 138/12/114 160/12/114 170/12/114
f 155/11/115 157/11/115 179/11/115 177/11/115
f 137/11/116 147/11/116 169/11/116 159/11/116
f 152/12/117 150/12/117 172/12/117 174/12/117
f 141/11/118 139/11/118 161/11/118 163/11/118
f 157/11/119 158/12/119 180/12/119 179/11/119
f 118/12/120 114/12/120 148/12/120 150/12/120
f 121/11/121 125/11/121 153/11/121 151/11/121
f 117/11/122 121/11/122 151/11/122 149/11/122
f 130/12/123 126/12/123 154/12/123 156/12/123
f 106/12/124 110/12/124 146/12/124 144/12/124
f 126/12/125 122/12/125 152/12/125 154/12/125
f 129/11/126 133/11/126 157/11/126 155/11/126
f 114/12/127 94/12/127 138/12/127 148/12/127
f 134/12/128 130/12/128 156/12/128 158/12/128
f 122/12/129 118/12/129 150/12/129 152/12/129
f 110/12/130 109/11/130 145/11/130 146/12/130
f 97/11/131 93/11/131 137/11/131 139/11/131
f 123/10/132 119/10/132 192/10/132 194/10/132
f 180/12/133 179/11/133 178/15/133 177/15/133 176/15/133 175/15/133 174/15/133 173/15/133 172/15/133 171/15/133 170/15/133 169/15/133 160/15/133 159/11/133 161/11/133 162/15/133 163/15/133 164/15/133 165/15/133 166/15/133 167/11/133 168/12/133
f 200/10/134 201/9/134 189/9/134 188/10/134 187/9/134 186/9/134 185/10/134 184/15/134 183/15/134 182/15/134 181/10/134 190/10/134 191/15/134 192/15/134 193/15/134 194/15/134 195/15/134 196/15/134 197/15/134 198/15/134 199/15/134
f 154/12/135 152/12/135 174/12/135 176/12/135
f 139/11/136 137/11/136 159/11/136 161/11/136
f 147/11/137 149/11/137 171/11/137 169/11/137
f 146/12/138 145/11/138 167/11/138 168/12/138
f 138/12/139 140/12/139 162/12/139 160/12/139
f 150/12/140 148/12/140 170/12/140 172/12/140
f 145/11/141 143/11/141 165/11/141 167/11/141
f 156/12/142 154/12/142 176/12/142 178/12/142
f 144/12/143 146/12/143 168/12/143 166/12/143
f 153/11/144 155/11/144 177/11/144 175/11/144
f 140/12/145 142/12/145 164/12/145 162/12/145
f 149/11/146 151/11/146 173/11/146 171/11/146
f 160/12/147 162/12/147 164/12/147 166/12/147 168/12/147 167/11/147 165/11/147 163/11/147 161/11/147 159/11/147 169/11/147 171/11/147 173/11/147 175/11/147 177/11/147 179/11/147 180/12/147 178/12/147 176/12/147 174/12/147 172/12/147 170/12/147
f 112/9/148 108/9/148 187/9/148 189/9/148
f 96/9/149 116/9/149 191/9/149 182/9/149
f 103/10/150 104/9/150 186/9/150 185/10/150
f 116/9/151 120/9/151 193/9/151 191/9/151
f 120/9/152 124/9/152 195/9/152 193/9/152
f 128/9/153 132/9/153 199/9/153 197/9/153
f 119/10/154 115/10/154 190/10/154 192/10/154
f 124/9/155 128/9/155 197/9/155 195/9/155
f 112/9/156 111/10/156 188/10/156 189/9/156
f 131/10/157 127/10/157 196/10/157 198/10/157
f 127/10/158 123/10/158 194/10/158 196/10/158
f 132/9/159 136/9/159 201/9/159 199/9/159
f 199/9/160 201/9/160 200/10/160 198/10/160 196/10/160 194/10/160 192/10/160 190/10/160 181/10/160 183/10/160 185/10/160 186/9/160 184/9/160 182/9/160 191/9/160 193/9/160 195/9/160 197/9/160
